<svg xmlns:xlink="http://www.w3.org/1999/xlink" xmlns="http://www.w3.org/2000/svg" version="1.1" viewBox="0.0 0.0 960.0 540.0" fill="none" stroke="none" stroke-linecap="square" stroke-miterlimit="10">
    <clipPath id="p.0">
        <path d="m0 0l960.0 0l0 540.0l-960.0 0l0 -540.0z" clip-rule="nonzero"/>
    </clipPath>
    <g clip-path="url(#p.0)">
        <path class="dark-fill" fill-opacity="0.0" d="m0 0l960.0 0l0 540.0l-960.0 0z" fill-rule="evenodd"/>
        <path d="m127.028725 64.85681l0 0c0 -12.506859 10.138817 -22.645672 22.645668 -22.645672l0 0c6.006012 0 11.766022 2.3858795 16.012909 6.632763c4.246887 4.246887 6.6327667 10.006905 6.6327667 16.012909l0 0c0 12.506859 -10.138809 22.645668 -22.645676 22.645668l0 0c-12.506851 0 -22.645668 -10.138809 -22.645668 -22.645668z" fill-rule="evenodd" class="color-d-fill"/>
        <path class="dark-stroke" stroke-width="2.0" stroke-linejoin="round" stroke-linecap="butt" d="m127.028725 64.85681l0 0c0 -12.506859 10.138817 -22.645672 22.645668 -22.645672l0 0c6.006012 0 11.766022 2.3858795 16.012909 6.632763c4.246887 4.246887 6.6327667 10.006905 6.6327667 16.012909l0 0c0 12.506859 -10.138809 22.645668 -22.645676 22.645668l0 0c-12.506851 0 -22.645668 -10.138809 -22.645668 -22.645668z" fill-rule="evenodd"/>
        <path d="m127.028725 134.1888l0 0c0 -12.506866 10.138817 -22.645676 22.645668 -22.645676l0 0c6.006012 0 11.766022 2.3858795 16.012909 6.6327667c4.246887 4.2468796 6.6327667 10.006897 6.6327667 16.012909l0 0c0 12.506851 -10.138809 22.64566 -22.645676 22.64566l0 0c-12.506851 0 -22.645668 -10.138809 -22.645668 -22.64566z" fill-rule="evenodd" class="color-d-fill"/>
        <path class="dark-stroke" stroke-width="2.0" stroke-linejoin="round" stroke-linecap="butt" d="m127.028725 134.1888l0 0c0 -12.506866 10.138817 -22.645676 22.645668 -22.645676l0 0c6.006012 0 11.766022 2.3858795 16.012909 6.6327667c4.246887 4.2468796 6.6327667 10.006897 6.6327667 16.012909l0 0c0 12.506851 -10.138809 22.64566 -22.645676 22.64566l0 0c-12.506851 0 -22.645668 -10.138809 -22.645668 -22.64566z" fill-rule="evenodd"/>
        <path d="m127.028725 203.52077l0 0c0 -12.506851 10.138817 -22.64566 22.645668 -22.64566l0 0c6.006012 0 11.766022 2.3858643 16.012909 6.6327515c4.246887 4.246887 6.6327667 10.006912 6.6327667 16.012909l0 0c0 12.506866 -10.138809 22.645676 -22.645676 22.645676l0 0c-12.506851 0 -22.645668 -10.138809 -22.645668 -22.645676z" fill-rule="evenodd" class="color-b-fill"/>
        <path class="dark-stroke" stroke-width="2.0" stroke-linejoin="round" stroke-linecap="butt" d="m127.028725 203.52077l0 0c0 -12.506851 10.138817 -22.64566 22.645668 -22.64566l0 0c6.006012 0 11.766022 2.3858643 16.012909 6.6327515c4.246887 4.246887 6.6327667 10.006912 6.6327667 16.012909l0 0c0 12.506866 -10.138809 22.645676 -22.645676 22.645676l0 0c-12.506851 0 -22.645668 -10.138809 -22.645668 -22.645676z" fill-rule="evenodd"/>
        <path d="m127.02874 336.45038l0 0c0 -12.506866 10.138817 -22.64566 22.645668 -22.64566l0 0c6.006012 0 11.766022 2.3858643 16.012909 6.6327515c4.246887 4.246887 6.6327667 10.006897 6.6327667 16.012909l0 0c0 12.506866 -10.138824 22.64566 -22.645676 22.64566l0 0c-12.506851 0 -22.645668 -10.138794 -22.645668 -22.64566z" fill-rule="evenodd" class="color-a-fill"/>
        <path class="dark-stroke" stroke-width="2.0" stroke-linejoin="round" stroke-linecap="butt" d="m127.02874 336.45038l0 0c0 -12.506866 10.138817 -22.64566 22.645668 -22.64566l0 0c6.006012 0 11.766022 2.3858643 16.012909 6.6327515c4.246887 4.246887 6.6327667 10.006897 6.6327667 16.012909l0 0c0 12.506866 -10.138824 22.64566 -22.645676 22.64566l0 0c-12.506851 0 -22.645668 -10.138794 -22.645668 -22.64566z" fill-rule="evenodd"/>
        <path class="dark-fill" fill-opacity="0.0" d="m127.028725 203.52077c-12.5 0 -25.007874 33.23622 -25.0 66.47246c0.007873535 33.236206 12.531494 66.47244 25.062996 66.47244" fill-rule="evenodd"/>
        <path stroke-width="1.0" stroke-linejoin="round" stroke-linecap="butt" d="m127.028725 203.52077c-12.5 0 -25.007874 33.23622 -25.0 66.47246c0.0039367676 16.618103 3.136818 33.236206 7.835144 45.6998c2.3491592 6.231781 5.0896835 11.424957 8.026138 15.06015c1.4682312 1.8175964 2.985443 3.2457275 4.5272064 4.219452c0.385437 0.2434082 0.77240753 0.45846558 1.1605301 0.6440735l0.17427826 0.079956055" fill-rule="evenodd" class="color-b-stroke"/>
        <path stroke-width="1.0" stroke-linecap="butt" d="m123.75202 335.69666l-1.3482437 0.8435669l3.263321 -0.4025879l-2.758644 -1.7892151z" fill-rule="evenodd" class="color-b-stroke color-b-fill"/>
        <path class="dark-fill" fill-opacity="0.0" d="m127.028725 134.1888c-18.22171 0 -36.451294 50.566925 -36.44342 101.13385c0.007873535 50.56694 18.253204 101.133865 36.506416 101.133865" fill-rule="evenodd"/>
        <path stroke-width="1.0" stroke-linejoin="round" stroke-linecap="butt" d="m127.028725 134.1888c-18.22171 0 -36.451294 50.566925 -36.44342 101.13385c0.0039367676 25.283463 4.567238 50.56694 11.411209 69.529526c3.4219818 9.481293 7.414139 17.382385 11.691612 22.913147c2.1387405 2.7653809 4.348816 4.9381714 6.594612 6.419647c1.1229095 0.74069214 2.2547379 1.3085938 3.3910446 1.6913147l0.038208008 0.012451172" fill-rule="evenodd" class="color-b-stroke"/>
        <path stroke-width="1.0" stroke-linecap="butt" d="m123.71199 335.88873l-1.2953491 0.92276l3.2333755 -0.59716797l-2.8607635 -1.6209412z" fill-rule="evenodd" class="color-b-stroke color-b-fill"/>
        <path class="dark-fill" fill-opacity="0.0" d="m127.028725 64.85681c-27.01567 0 -54.039223 67.897644 -54.03135 135.79527c0.007873535 67.89763 27.047173 135.79527 54.094345 135.79527" fill-rule="evenodd"/>
        <path stroke-width="1.0" stroke-linejoin="round" stroke-linecap="butt" d="m127.028725 64.85681c-27.01567 0 -54.039223 67.897644 -54.03135 135.79527c0.0039367676 33.948822 6.765724 67.89763 16.90744 93.35927c5.0708466 12.730804 10.986679 23.339813 17.325241 30.766113c3.169281 3.7131348 6.4442444 6.630615 9.772125 8.619812c1.6639328 0.9945984 3.341095 1.7571106 5.024887 2.270996c0.42093658 0.12844849 0.8423004 0.24139404 1.2639847 0.33850098c0.105415344 0.024291992 0.21085358 0.047576904 0.31629944 0.069885254l0.07575989 0.015319824" fill-rule="evenodd" class="color-b-stroke"/>
        <path stroke-width="1.0" stroke-linecap="butt" d="m123.68311 336.09198l-1.2351456 1.0018921l3.1897354 -0.7980957l-2.9564972 -1.4389343z" fill-rule="evenodd" class="color-b-stroke color-b-fill"/>
        <path d="m353.29382 64.869934l0 0c0 -12.506859 10.138794 -22.645668 22.64566 -22.645668l0 0c6.006012 0 11.766022 2.3858757 16.012909 6.632763c4.246887 4.246887 6.6327515 10.006901 6.6327515 16.012905l0 0c0 12.506859 -10.138794 22.645668 -22.64566 22.645668l0 0c-12.506866 0 -22.64566 -10.138809 -22.64566 -22.645668z" fill-rule="evenodd" class="color-b-fill"/>
        <path class="dark-stroke" stroke-width="2.0" stroke-linejoin="round" stroke-linecap="butt" d="m353.29382 64.869934l0 0c0 -12.506859 10.138794 -22.645668 22.64566 -22.645668l0 0c6.006012 0 11.766022 2.3858757 16.012909 6.632763c4.246887 4.246887 6.6327515 10.006901 6.6327515 16.012905l0 0c0 12.506859 -10.138794 22.645668 -22.64566 22.645668l0 0c-12.506866 0 -22.64566 -10.138809 -22.64566 -22.645668z" fill-rule="evenodd"/>
        <path d="m353.29382 134.20192l0 0c0 -12.506866 10.138794 -22.645676 22.64566 -22.645676l0 0c6.006012 0 11.766022 2.3858795 16.012909 6.6327667c4.246887 4.246887 6.6327515 10.006897 6.6327515 16.012909l0 0c0 12.506851 -10.138794 22.64566 -22.64566 22.64566l0 0c-12.506866 0 -22.64566 -10.138809 -22.64566 -22.64566z" fill-rule="evenodd" class="color-d-fill"/>
        <path class="dark-stroke" stroke-width="2.0" stroke-linejoin="round" stroke-linecap="butt" d="m353.29382 134.20192l0 0c0 -12.506866 10.138794 -22.645676 22.64566 -22.645676l0 0c6.006012 0 11.766022 2.3858795 16.012909 6.6327667c4.246887 4.246887 6.6327515 10.006897 6.6327515 16.012909l0 0c0 12.506851 -10.138794 22.64566 -22.64566 22.64566l0 0c-12.506866 0 -22.64566 -10.138809 -22.64566 -22.64566z" fill-rule="evenodd"/>
        <path d="m353.29382 203.53389l0 0c0 -12.506851 10.138794 -22.64566 22.64566 -22.64566l0 0c6.006012 0 11.766022 2.3858795 16.012909 6.6327515c4.246887 4.246887 6.6327515 10.006912 6.6327515 16.012909l0 0c0 12.506866 -10.138794 22.645676 -22.64566 22.645676l0 0c-12.506866 0 -22.64566 -10.138809 -22.64566 -22.645676z" fill-rule="evenodd" class="color-d-fill"/>
        <path class="dark-stroke" stroke-width="2.0" stroke-linejoin="round" stroke-linecap="butt" d="m353.29382 203.53389l0 0c0 -12.506851 10.138794 -22.64566 22.64566 -22.64566l0 0c6.006012 0 11.766022 2.3858795 16.012909 6.6327515c4.246887 4.246887 6.6327515 10.006912 6.6327515 16.012909l0 0c0 12.506866 -10.138794 22.645676 -22.64566 22.645676l0 0c-12.506866 0 -22.64566 -10.138809 -22.64566 -22.645676z" fill-rule="evenodd"/>
        <path d="m353.29382 336.4635l0 0c0 -12.506866 10.138824 -22.64566 22.64569 -22.64566l0 0c6.0059814 0 11.765991 2.3858643 16.012878 6.6327515c4.246887 4.246887 6.632782 10.006897 6.632782 16.012909l0 0c0 12.506866 -10.138824 22.64566 -22.64566 22.64566l0 0c-12.506866 0 -22.64569 -10.138794 -22.64569 -22.64566z" fill-rule="evenodd" class="color-a-fill"/>
        <path class="dark-stroke" stroke-width="2.0" stroke-linejoin="round" stroke-linecap="butt" d="m353.29382 336.4635l0 0c0 -12.506866 10.138824 -22.64566 22.64569 -22.64566l0 0c6.0059814 0 11.765991 2.3858643 16.012878 6.6327515c4.246887 4.246887 6.632782 10.006897 6.632782 16.012909l0 0c0 12.506866 -10.138824 22.64566 -22.64566 22.64566l0 0c-12.506866 0 -22.64569 -10.138794 -22.64569 -22.64566z" fill-rule="evenodd"/>
        <path class="dark-fill" fill-opacity="0.0" d="m172.32007 64.85681c45.24318 0 67.864334 0.01574707 90.48639 0.03149414c22.62204 0.01574707 45.244995 0.03149414 90.48999 0.03149414" fill-rule="evenodd"/>
        <path class="dark-stroke" stroke-width="1.0" stroke-linejoin="round" stroke-linecap="butt" d="m172.32007 64.85681c45.243195 0 67.864334 0.01574707 90.48639 0.03149414c11.311005 0.007873535 22.622253 0.01574707 36.761383 0.021652222c7.06958 0.0029525757 14.846069 0.00541687 23.683014 0.0071411133l26.6185 0.0023956299" fill-rule="evenodd"/>
        <path class="dark-fill dark-stroke" stroke-width="1.0" stroke-linecap="butt" d="m349.86932 64.919495l-1.1246643 1.1244812l3.0898743 -1.1243057l-3.0896912 -1.1248589z" fill-rule="evenodd"/>
        <path class="dark-fill" fill-opacity="0.0" d="m172.32007 64.85681c45.24318 0 67.864334 17.338585 90.48639 34.677162c22.62204 17.338585 45.244995 34.677162 90.48999 34.677162" fill-rule="evenodd"/>
        <path class="dark-stroke" stroke-width="1.0" stroke-linejoin="round" stroke-linecap="butt" d="m172.32007 64.85681c45.243195 0 67.864334 17.338585 90.48639 34.677162c11.311005 8.669296 22.622253 17.338585 36.761383 23.840553c7.06958 3.2509842 14.846069 5.960144 23.683014 7.856552c4.4184875 0.9481964 9.102051 1.693222 14.09494 2.2011871c2.4964294 0.25398254 5.07016 0.44869995 7.7268066 0.57992554c1.3282776 0.065597534 2.6772766 0.115356445 4.0476685 0.14868164l0.74923706 0.015914917" fill-rule="evenodd"/>
        <path class="dark-fill dark-stroke" stroke-width="1.0" stroke-linecap="butt" d="m349.8695 134.17679l-1.1358032 1.1132507l3.100891 -1.0935516l-3.0783386 -1.1555023z" fill-rule="evenodd"/>
        <path class="dark-fill" fill-opacity="0.0" d="m172.32007 64.85681c45.24318 0 67.864334 34.66929 90.48639 69.33858c22.62204 34.669296 45.244995 69.33859 90.48999 69.33859" fill-rule="evenodd"/>
        <path class="dark-stroke" stroke-width="1.0" stroke-linejoin="round" stroke-linecap="butt" d="m172.32007 64.85681c45.243195 0 67.864334 34.66929 90.48639 69.33858c11.311005 17.334656 22.622253 34.669296 36.761383 47.670288c7.06958 6.5004883 14.846069 11.917557 23.683014 15.709518c4.4184875 1.8959808 9.102051 3.3856812 14.09494 4.401367c2.4964294 0.5078583 5.07016 0.89720154 7.7268066 1.1595917c1.3282776 0.13119507 2.6772766 0.23066711 4.0476685 0.29730225l0.74975586 0.031845093" fill-rule="evenodd"/>
        <path class="dark-fill dark-stroke" stroke-width="1.0" stroke-linecap="butt" d="m349.87003 203.4653l-1.1468811 1.1018372l3.1116638 -1.0624542l-3.0666199 -1.186264z" fill-rule="evenodd"/>
        <path class="dark-fill" fill-opacity="0.0" d="m172.32007 134.1888c45.24318 0 67.864334 -17.330711 90.48639 -34.661423c22.62204 -17.330711 45.244995 -34.661415 90.48999 -34.661415" fill-rule="evenodd"/>
        <path class="dark-stroke" stroke-width="1.0" stroke-linejoin="round" stroke-linecap="butt" d="m172.32007 134.1888c45.243195 0 67.864334 -17.330711 90.48639 -34.661423c11.311005 -8.665352 22.622253 -17.330711 36.761383 -23.829727c7.06958 -3.249504 14.846069 -5.957428 23.683014 -7.852974c4.4184875 -0.9477768 9.102051 -1.6924515 14.09494 -2.2001877c2.4964294 -0.2538681 5.07016 -0.4485016 7.7268066 -0.57966614c1.3282776 -0.065582275 2.6772766 -0.11529541 4.0476685 -0.1486206l0.74923706 -0.015907288" fill-rule="evenodd"/>
        <path class="dark-fill dark-stroke" stroke-width="1.0" stroke-linecap="butt" d="m349.8695 64.90029l-1.1132507 1.1357956l3.0783386 -1.1554794l-3.100891 -1.0935707z" fill-rule="evenodd"/>
        <path class="dark-fill" fill-opacity="0.0" d="m172.32007 134.1888c45.24318 0 67.864334 0.01574707 90.48639 0.03149414c22.62204 0.01574707 45.244995 0.03149414 90.48999 0.03149414" fill-rule="evenodd"/>
        <path class="dark-stroke" stroke-width="1.0" stroke-linejoin="round" stroke-linecap="butt" d="m172.32007 134.1888c45.243195 0 67.864334 0.01574707 90.48639 0.03149414c11.311005 0.007873535 22.622253 0.01574707 36.761383 0.021652222c7.06958 0.0029449463 14.846069 0.00541687 23.683014 0.0071411133l26.6185 0.0023956299" fill-rule="evenodd"/>
        <path class="dark-fill dark-stroke" stroke-width="1.0" stroke-linecap="butt" d="m349.86932 134.25148l-1.1246643 1.1244812l3.0898743 -1.1243134l-3.0896912 -1.1248627z" fill-rule="evenodd"/>
        <path class="dark-fill" fill-opacity="0.0" d="m172.32007 134.1888c45.24318 0 67.864334 17.338577 90.48639 34.677155c22.62204 17.338593 45.244995 34.67717 90.48999 34.67717" fill-rule="evenodd"/>
        <path class="dark-stroke" stroke-width="1.0" stroke-linejoin="round" stroke-linecap="butt" d="m172.32007 134.1888c45.243195 0 67.864334 17.338577 90.48639 34.677155c11.311005 8.669296 22.622253 17.338593 36.761383 23.84056c7.06958 3.2509766 14.846069 5.960129 23.683014 7.856537c4.4184875 0.94821167 9.102051 1.693222 14.09494 2.2011871c2.4964294 0.2539978 5.07016 0.4487152 7.7268066 0.57992554c1.3282776 0.06561279 2.6772766 0.115356445 4.0476685 0.1486969l0.74923706 0.015914917" fill-rule="evenodd"/>
        <path class="dark-fill dark-stroke" stroke-width="1.0" stroke-linecap="butt" d="m349.8695 203.50877l-1.1358032 1.1132507l3.100891 -1.0935516l-3.0783386 -1.1555023z" fill-rule="evenodd"/>
        <path class="dark-fill" fill-opacity="0.0" d="m172.32007 203.52077c45.24318 0 67.864334 -34.661407 90.48639 -69.32283c22.62204 -34.661415 45.244995 -69.32284 90.48999 -69.32284" fill-rule="evenodd"/>
        <path class="dark-stroke" stroke-width="1.0" stroke-linejoin="round" stroke-linecap="butt" d="m172.32007 203.52077c45.243195 0 67.864334 -34.661407 90.48639 -69.32283c11.311005 -17.330711 22.622253 -34.661415 36.761383 -47.659447c7.06958 -6.499016 14.846069 -11.914864 23.683014 -15.7059555c4.4184875 -1.895546 9.102051 -3.384903 14.09494 -4.4003754c2.4964294 -0.5077362 5.07016 -0.8970032 7.7268066 -1.1593323c1.3282776 -0.13116455 2.6772766 -0.23059845 4.0476685 -0.29723358l0.74975586 -0.031837463" fill-rule="evenodd"/>
        <path class="dark-fill dark-stroke" stroke-width="1.0" stroke-linecap="butt" d="m349.87003 64.943756l-1.1018372 1.1468887l3.0666199 -1.1862564l-3.1116638 -1.0624619z" fill-rule="evenodd"/>
        <path class="dark-fill" fill-opacity="0.0" d="m172.32007 203.52077c45.24318 0 67.864334 -17.330704 90.48639 -34.661407c22.62204 -17.330719 45.244995 -34.661423 90.48999 -34.661423" fill-rule="evenodd"/>
        <path class="dark-stroke" stroke-width="1.0" stroke-linejoin="round" stroke-linecap="butt" d="m172.32007 203.52077c45.243195 0 67.864334 -17.330704 90.48639 -34.661407c11.311005 -8.6653595 22.622253 -17.330719 36.761383 -23.829727c7.06958 -3.2495117 14.846069 -5.957428 23.683014 -7.8529816c4.4184875 -0.94776917 9.102051 -1.6924438 14.09494 -2.2001953c2.4964294 -0.25386047 5.07016 -0.44848633 7.7268066 -0.57966614c1.3282776 -0.06556702 2.6772766 -0.11528015 4.0476685 -0.14860535l0.74923706 -0.015914917" fill-rule="evenodd"/>
        <path class="dark-fill dark-stroke" stroke-width="1.0" stroke-linecap="butt" d="m349.8695 134.23227l-1.1132507 1.1358032l3.0783386 -1.1554871l-3.100891 -1.0935669z" fill-rule="evenodd"/>
        <path class="dark-fill" fill-opacity="0.0" d="m172.32007 203.52077c45.24318 0 67.864334 0.01574707 90.48639 0.03149414c22.62204 0.01574707 45.244995 0.0315094 90.48999 0.0315094" fill-rule="evenodd"/>
        <path class="dark-stroke" stroke-width="1.0" stroke-linejoin="round" stroke-linecap="butt" d="m172.32007 203.52077c45.243195 0 67.864334 0.01574707 90.48639 0.03149414c11.311005 0.007873535 22.622253 0.01574707 36.761383 0.02166748c7.06958 0.0029449463 14.846069 0.0054016113 23.683014 0.0071258545l26.6185 0.0023956299" fill-rule="evenodd"/>
        <path class="dark-fill dark-stroke" stroke-width="1.0" stroke-linecap="butt" d="m349.86932 203.58345l-1.1246643 1.1244812l3.0898743 -1.1242981l-3.0896912 -1.1248627z" fill-rule="evenodd"/>
        <path d="m579.50116 64.88306l0 0c0 -12.506859 10.138794 -22.645668 22.64569 -22.645668l0 0c6.0059814 0 11.765991 2.3858757 16.012878 6.632763c4.246887 4.246887 6.6327515 10.006901 6.6327515 16.012905l0 0c0 12.506859 -10.138794 22.645668 -22.64563 22.645668l0 0c-12.506897 0 -22.64569 -10.138809 -22.64569 -22.645668z" fill-rule="evenodd" class="color-d-fill"/>
        <path class="dark-stroke" stroke-width="2.0" stroke-linejoin="round" stroke-linecap="butt" d="m579.50116 64.88306l0 0c0 -12.506859 10.138794 -22.645668 22.64569 -22.645668l0 0c6.0059814 0 11.765991 2.3858757 16.012878 6.632763c4.246887 4.246887 6.6327515 10.006901 6.6327515 16.012905l0 0c0 12.506859 -10.138794 22.645668 -22.64563 22.645668l0 0c-12.506897 0 -22.64569 -10.138809 -22.64569 -22.645668z" fill-rule="evenodd"/>
        <path d="m579.50116 134.21504l0 0c0 -12.506859 10.138794 -22.645676 22.64569 -22.645676l0 0c6.0059814 0 11.765991 2.3858795 16.012878 6.6327667c4.246887 4.246887 6.6327515 10.006897 6.6327515 16.012909l0 0c0 12.506851 -10.138794 22.64566 -22.64563 22.64566l0 0c-12.506897 0 -22.64569 -10.138809 -22.64569 -22.64566z" fill-rule="evenodd" class="color-b-fill"/>
        <path class="dark-stroke" stroke-width="2.0" stroke-linejoin="round" stroke-linecap="butt" d="m579.50116 134.21504l0 0c0 -12.506859 10.138794 -22.645676 22.64569 -22.645676l0 0c6.0059814 0 11.765991 2.3858795 16.012878 6.6327667c4.246887 4.246887 6.6327515 10.006897 6.6327515 16.012909l0 0c0 12.506851 -10.138794 22.64566 -22.64563 22.64566l0 0c-12.506897 0 -22.64569 -10.138809 -22.64569 -22.64566z" fill-rule="evenodd"/>
        <path d="m579.50116 203.54701l0 0c0 -12.506851 10.138794 -22.64566 22.64569 -22.64566l0 0c6.0059814 0 11.765991 2.3858795 16.012878 6.6327667c4.246887 4.246887 6.6327515 10.006897 6.6327515 16.012894l0 0c0 12.506866 -10.138794 22.645676 -22.64563 22.645676l0 0c-12.506897 0 -22.64569 -10.138809 -22.64569 -22.645676z" fill-rule="evenodd" class="color-d-fill"/>
        <path class="dark-stroke" stroke-width="2.0" stroke-linejoin="round" stroke-linecap="butt" d="m579.50116 203.54701l0 0c0 -12.506851 10.138794 -22.64566 22.64569 -22.64566l0 0c6.0059814 0 11.765991 2.3858795 16.012878 6.6327667c4.246887 4.246887 6.6327515 10.006897 6.6327515 16.012894l0 0c0 12.506866 -10.138794 22.645676 -22.64563 22.645676l0 0c-12.506897 0 -22.64569 -10.138809 -22.64569 -22.645676z" fill-rule="evenodd"/>
        <path d="m579.50116 336.47662l0 0c0 -12.506866 10.138855 -22.64566 22.64569 -22.64566l0 0c6.0059814 0 11.765991 2.3858643 16.012878 6.6327515c4.246887 4.246887 6.6328125 10.006897 6.6328125 16.012909l0 0c0 12.506866 -10.138855 22.64566 -22.64569 22.64566l0 0c-12.506836 0 -22.64569 -10.138794 -22.64569 -22.64566z" fill-rule="evenodd" class="color-a-fill"/>
        <path class="dark-stroke" stroke-width="2.0" stroke-linejoin="round" stroke-linecap="butt" d="m579.50116 336.47662l0 0c0 -12.506866 10.138855 -22.64566 22.64569 -22.64566l0 0c6.0059814 0 11.765991 2.3858643 16.012878 6.6327515c4.246887 4.246887 6.6328125 10.006897 6.6328125 16.012909l0 0c0 12.506866 -10.138855 22.64566 -22.64569 22.64566l0 0c-12.506836 0 -22.64569 -10.138794 -22.64569 -22.64566z" fill-rule="evenodd"/>
        <path class="dark-fill" fill-opacity="0.0" d="m398.52478 64.82007c45.24411 0 67.86615 0.01574707 90.48819 0.03149414c22.62207 0.01574707 45.24411 0.03149414 90.48819 0.03149414" fill-rule="evenodd"/>
        <path class="dark-stroke" stroke-width="1.0" stroke-linejoin="round" stroke-linecap="butt" d="m398.52478 64.82007c45.24408 0 67.86612 0.01574707 90.48819 0.03149414c11.311005 0.007873535 22.62204 0.01574707 36.760834 0.021652222c7.069397 0.0029525757 14.845703 0.00541687 23.682434 0.007133484l26.617798 0.0024032593" fill-rule="evenodd"/>
        <path class="dark-fill dark-stroke" stroke-width="1.0" stroke-linecap="butt" d="m576.07404 64.88275l-1.1246338 1.1244812l3.0898438 -1.1243057l-3.0896606 -1.1248627z" fill-rule="evenodd"/>
        <path class="dark-fill" fill-opacity="0.0" d="m398.52478 64.86071c45.24411 0 67.86615 17.338577 90.48819 34.677162c22.62207 17.338585 45.24411 34.67717 90.48819 34.67717" fill-rule="evenodd"/>
        <path class="dark-stroke" stroke-width="1.0" stroke-linejoin="round" stroke-linecap="butt" d="m398.52478 64.86071c45.24408 0 67.86612 17.338577 90.48819 34.677162c11.311005 8.669289 22.62204 17.338585 36.760834 23.840553c7.069397 3.2509842 14.845703 5.9601364 23.682434 7.8565445c4.418335 0.9481964 9.101807 1.693222 14.0946045 2.2011871c2.496338 0.25398254 5.0700684 0.44869995 7.7266235 0.57992554c1.3282471 0.06561279 2.677246 0.115356445 4.0476074 0.14868164l0.7491455 0.015914917" fill-rule="evenodd"/>
        <path class="dark-fill dark-stroke" stroke-width="1.0" stroke-linecap="butt" d="m576.0742 134.18068l-1.1358032 1.113266l3.100891 -1.0935669l-3.078308 -1.1554871z" fill-rule="evenodd"/>
        <path class="dark-fill" fill-opacity="0.0" d="m398.52478 64.86985c45.24411 0 67.86615 34.669296 90.48819 69.338585c22.62207 34.669296 45.24411 69.33858 90.48819 69.33858" fill-rule="evenodd"/>
        <path class="dark-stroke" stroke-width="1.0" stroke-linejoin="round" stroke-linecap="butt" d="m398.52478 64.86985c45.24408 0 67.86612 34.669296 90.48819 69.338585c11.311005 17.33464 22.62204 34.669296 36.760834 47.670273c7.069397 6.5004883 14.845703 11.917572 23.682434 15.709534c4.418335 1.8959656 9.101807 3.3856812 14.0946045 4.401367c2.496338 0.507843 5.0700684 0.89720154 7.7266235 1.1595917c1.3282471 0.13119507 2.677246 0.23065186 4.0476074 0.29730225l0.7496948 0.031845093" fill-rule="evenodd"/>
        <path class="dark-fill dark-stroke" stroke-width="1.0" stroke-linecap="butt" d="m576.07477 203.47835l-1.1469116 1.1018219l3.1116943 -1.062439l-3.0666504 -1.1862793z" fill-rule="evenodd"/>
        <path class="dark-fill" fill-opacity="0.0" d="m398.52478 134.20589c45.24411 0 67.86615 -17.330704 90.48819 -34.661415c22.62207 -17.330704 45.24411 -34.661415 90.48819 -34.661415" fill-rule="evenodd"/>
        <path class="dark-stroke" stroke-width="1.0" stroke-linejoin="round" stroke-linecap="butt" d="m398.52478 134.20589c45.24408 0 67.86612 -17.330704 90.48819 -34.661407c11.311005 -8.6653595 22.62204 -17.330711 36.760834 -23.829727c7.069397 -3.2495117 14.845703 -5.9574356 23.682434 -7.8529816c4.418335 -0.94776917 9.101807 -1.6924515 14.0946045 -2.2001877c2.496338 -0.2538681 5.0700684 -0.44849396 7.7266235 -0.5796585c1.3282471 -0.065589905 2.677246 -0.11530304 4.0476074 -0.1486206l0.7491455 -0.015907288" fill-rule="evenodd"/>
        <path class="dark-fill dark-stroke" stroke-width="1.0" stroke-linecap="butt" d="m576.0742 64.9174l-1.1132202 1.1357956l3.078308 -1.1554871l-3.100891 -1.0935669z" fill-rule="evenodd"/>
        <path class="dark-fill" fill-opacity="0.0" d="m398.52478 134.15204c45.24411 0 67.86615 0.01576233 90.48819 0.0315094c22.62207 0.01574707 45.24411 0.03149414 90.48819 0.03149414" fill-rule="evenodd"/>
        <path class="dark-stroke" stroke-width="1.0" stroke-linejoin="round" stroke-linecap="butt" d="m398.52478 134.15205c45.24408 0 67.86612 0.01574707 90.48819 0.03149414c11.311005 0.007873535 22.62204 0.01574707 36.760834 0.021652222c7.069397 0.0029449463 14.845703 0.0054016113 23.682434 0.0071258545l26.617798 0.0024108887" fill-rule="evenodd"/>
        <path class="dark-fill dark-stroke" stroke-width="1.0" stroke-linecap="butt" d="m576.07404 134.21474l-1.1246338 1.1244812l3.0898438 -1.1243134l-3.0896606 -1.1248627z" fill-rule="evenodd"/>
        <path class="dark-fill" fill-opacity="0.0" d="m398.52478 134.19269c45.24411 0 67.86615 17.338577 90.48819 34.67717c22.62207 17.338577 45.24411 34.677155 90.48819 34.677155" fill-rule="evenodd"/>
        <path class="dark-stroke" stroke-width="1.0" stroke-linejoin="round" stroke-linecap="butt" d="m398.52478 134.19269c45.24408 0 67.86612 17.338577 90.48819 34.67717c11.311005 8.669281 22.62204 17.338577 36.760834 23.840546c7.069397 3.2509918 14.845703 5.960144 23.682434 7.856552c4.418335 0.9481964 9.101807 1.693222 14.0946045 2.2011719c2.496338 0.2539978 5.0700684 0.4487152 7.7266235 0.57992554c1.3282471 0.06561279 2.677246 0.115371704 4.0476074 0.14871216l0.7491455 0.015899658" fill-rule="evenodd"/>
        <path class="dark-fill dark-stroke" stroke-width="1.0" stroke-linecap="butt" d="m576.0742 203.51266l-1.1358032 1.1132507l3.100891 -1.0935516l-3.078308 -1.1555023z" fill-rule="evenodd"/>
        <path class="dark-fill" fill-opacity="0.0" d="m398.52478 203.52873c45.24411 0 67.86615 -34.661423 90.48819 -69.322845c22.62207 -34.661415 45.24411 -69.32283 90.48819 -69.32283" fill-rule="evenodd"/>
        <path class="dark-stroke" stroke-width="1.0" stroke-linejoin="round" stroke-linecap="butt" d="m398.52478 203.52873c45.24408 0 67.86612 -34.661423 90.48819 -69.322845c11.311005 -17.330704 22.62204 -34.661407 36.760834 -47.65944c7.069397 -6.499016 14.845703 -11.914864 23.682434 -15.7059555c4.418335 -1.895546 9.101807 -3.384903 14.0946045 -4.4003754c2.496338 -0.5077362 5.0700684 -0.8970032 7.7266235 -1.1593323c1.3282471 -0.13116455 2.677246 -0.23059845 4.0476074 -0.29723358l0.7496948 -0.031837463" fill-rule="evenodd"/>
        <path class="dark-fill dark-stroke" stroke-width="1.0" stroke-linecap="butt" d="m576.07477 64.95171l-1.1018677 1.1468887l3.0666504 -1.1862564l-3.1116943 -1.0624619z" fill-rule="evenodd"/>
        <path class="dark-fill" fill-opacity="0.0" d="m398.52478 203.53787c45.24411 0 67.86615 -17.330704 90.48819 -34.661423c22.62207 -17.330704 45.24411 -34.661407 90.48819 -34.661407" fill-rule="evenodd"/>
        <path class="dark-stroke" stroke-width="1.0" stroke-linejoin="round" stroke-linecap="butt" d="m398.52478 203.53787c45.24408 0 67.86612 -17.330704 90.48819 -34.661423c11.311005 -8.665344 22.62204 -17.330704 36.760834 -23.829712c7.069397 -3.2495117 14.845703 -5.957443 23.682434 -7.8529816c4.418335 -0.94776917 9.101807 -1.6924591 14.0946045 -2.2001953c2.496338 -0.25386047 5.0700684 -0.44848633 7.7266235 -0.57966614c1.3282471 -0.06556702 2.677246 -0.11528015 4.0476074 -0.14860535l0.7491455 -0.015914917" fill-rule="evenodd"/>
        <path class="dark-fill dark-stroke" stroke-width="1.0" stroke-linecap="butt" d="m576.0742 134.24937l-1.1132202 1.1358032l3.078308 -1.1554871l-3.100891 -1.0935669z" fill-rule="evenodd"/>
        <path class="dark-fill" fill-opacity="0.0" d="m398.52478 203.48402c45.24411 0 67.86615 0.01574707 90.48819 0.03149414c22.62207 0.01574707 45.24411 0.03149414 90.48819 0.03149414" fill-rule="evenodd"/>
        <path class="dark-stroke" stroke-width="1.0" stroke-linejoin="round" stroke-linecap="butt" d="m398.52478 203.48402c45.24408 0 67.86612 0.01574707 90.48819 0.03149414c11.311005 0.007873535 22.62204 0.01574707 36.760834 0.021652222c7.069397 0.002960205 14.845703 0.00541687 23.682434 0.0071411133l26.617798 0.0023956299" fill-rule="evenodd"/>
        <path class="dark-fill dark-stroke" stroke-width="1.0" stroke-linecap="butt" d="m576.07404 203.5467l-1.1246338 1.1244812l3.0898438 -1.1242981l-3.0896606 -1.1248627z" fill-rule="evenodd"/>
        <path d="m805.6455 64.89618l0 0c0 -12.506855 10.138855 -22.645668 22.64569 -22.645668l0 0c6.0059814 0 11.765991 2.3858757 16.012878 6.632763c4.246887 4.246887 6.6328125 10.006901 6.6328125 16.012905l0 0c0 12.506859 -10.138855 22.645668 -22.64569 22.645668l0 0c-12.506836 0 -22.64569 -10.138809 -22.64569 -22.645668z" fill-rule="evenodd" class="color-b-fill"/>
        <path class="dark-stroke" stroke-width="2.0" stroke-linejoin="round" stroke-linecap="butt" d="m805.6455 64.89618l0 0c0 -12.506855 10.138855 -22.645668 22.64569 -22.645668l0 0c6.0059814 0 11.765991 2.3858757 16.012878 6.632763c4.246887 4.246887 6.6328125 10.006901 6.6328125 16.012905l0 0c0 12.506859 -10.138855 22.645668 -22.64569 22.645668l0 0c-12.506836 0 -22.64569 -10.138809 -22.64569 -22.645668z" fill-rule="evenodd"/>
        <path d="m805.6455 134.22816l0 0c0 -12.506859 10.138855 -22.645676 22.64569 -22.645676l0 0c6.0059814 0 11.765991 2.3858795 16.012878 6.6327667c4.246887 4.246887 6.6328125 10.006897 6.6328125 16.012909l0 0c0 12.506851 -10.138855 22.64566 -22.64569 22.64566l0 0c-12.506836 0 -22.64569 -10.138809 -22.64569 -22.64566z" fill-rule="evenodd" class="color-d-fill"/>
        <path class="dark-stroke" stroke-width="2.0" stroke-linejoin="round" stroke-linecap="butt" d="m805.6455 134.22816l0 0c0 -12.506859 10.138855 -22.645676 22.64569 -22.645676l0 0c6.0059814 0 11.765991 2.3858795 16.012878 6.6327667c4.246887 4.246887 6.6328125 10.006897 6.6328125 16.012909l0 0c0 12.506851 -10.138855 22.64566 -22.64569 22.64566l0 0c-12.506836 0 -22.64569 -10.138809 -22.64569 -22.64566z" fill-rule="evenodd"/>
        <path d="m805.6455 203.56013l0 0c0 -12.506851 10.138855 -22.64566 22.64569 -22.64566l0 0c6.0059814 0 11.765991 2.3858795 16.012878 6.6327667c4.246887 4.246887 6.6328125 10.006897 6.6328125 16.012894l0 0c0 12.506866 -10.138855 22.645676 -22.64569 22.645676l0 0c-12.506836 0 -22.64569 -10.138809 -22.64569 -22.645676z" fill-rule="evenodd" class="color-d-fill"/>
        <path class="dark-stroke" stroke-width="2.0" stroke-linejoin="round" stroke-linecap="butt" d="m805.6455 203.56013l0 0c0 -12.506851 10.138855 -22.64566 22.64569 -22.64566l0 0c6.0059814 0 11.765991 2.3858795 16.012878 6.6327667c4.246887 4.246887 6.6328125 10.006897 6.6328125 16.012894l0 0c0 12.506866 -10.138855 22.645676 -22.64569 22.645676l0 0c-12.506836 0 -22.64569 -10.138809 -22.64569 -22.645676z" fill-rule="evenodd"/>
        <path d="m805.6455 336.48975l0 0c0 -12.506866 10.138855 -22.64566 22.64569 -22.64566l0 0c6.0059814 0 11.766052 2.3858643 16.01294 6.6327515c4.246887 4.246887 6.6327515 10.006897 6.6327515 16.012909l0 0c0 12.506866 -10.138855 22.64566 -22.64569 22.64566l0 0c-12.506836 0 -22.64569 -10.138794 -22.64569 -22.64566z" fill-rule="evenodd" class="color-a-fill"/>
        <path class="dark-stroke" stroke-width="2.0" stroke-linejoin="round" stroke-linecap="butt" d="m805.6455 336.48975l0 0c0 -12.506866 10.138855 -22.64566 22.64569 -22.64566l0 0c6.0059814 0 11.766052 2.3858643 16.01294 6.6327515c4.246887 4.246887 6.6327515 10.006897 6.6327515 16.012909l0 0c0 12.506866 -10.138855 22.64566 -22.64569 22.64566l0 0c-12.506836 0 -22.64569 -10.138794 -22.64569 -22.64566z" fill-rule="evenodd"/>
        <path class="dark-fill" fill-opacity="0.0" d="m624.6691 64.83319c45.24414 0 67.86615 0.01574707 90.48822 0.03149414c22.62201 0.01574707 45.24408 0.03149414 90.48816 0.03149414" fill-rule="evenodd"/>
        <path class="dark-stroke" stroke-width="1.0" stroke-linejoin="round" stroke-linecap="butt" d="m624.6691 64.83319c45.24408 0 67.86615 0.01574707 90.48816 0.03149414c11.311035 0.007873535 22.62207 0.01574707 36.760864 0.021652222c7.069397 0.0029525757 14.845703 0.00541687 23.682434 0.0071411133l26.617859 0.0023956299" fill-rule="evenodd"/>
        <path class="dark-fill dark-stroke" stroke-width="1.0" stroke-linecap="butt" d="m802.21844 64.895874l-1.1246948 1.1244812l3.0898438 -1.1243057l-3.0896606 -1.1248627z" fill-rule="evenodd"/>
        <path class="dark-fill" fill-opacity="0.0" d="m624.6691 64.87383c45.24414 0 67.86615 17.338577 90.48822 34.677162c22.62201 17.338585 45.24408 34.67717 90.48816 34.67717" fill-rule="evenodd"/>
        <path class="dark-stroke" stroke-width="1.0" stroke-linejoin="round" stroke-linecap="butt" d="m624.6691 64.87383c45.24408 0 67.86615 17.338585 90.48816 34.677162c11.311035 8.669296 22.62207 17.338585 36.760864 23.840553c7.069397 3.2509842 14.845703 5.9601364 23.682434 7.8565445c4.418335 0.94821167 9.101868 1.693222 14.0946045 2.2011871c2.496399 0.25398254 5.0700684 0.44869995 7.7266235 0.57992554c1.3282471 0.06561279 2.677246 0.115356445 4.0476685 0.14868164l0.7490845 0.015914917" fill-rule="evenodd"/>
        <path class="dark-fill dark-stroke" stroke-width="1.0" stroke-linecap="butt" d="m802.21857 134.1938l-1.1358032 1.113266l3.100891 -1.0935669l-3.078308 -1.1554871z" fill-rule="evenodd"/>
        <path class="dark-fill" fill-opacity="0.0" d="m624.6691 64.88297c45.24414 0 67.86615 34.669296 90.48822 69.338585c22.62201 34.669296 45.24408 69.33858 90.48816 69.33858" fill-rule="evenodd"/>
        <path class="dark-stroke" stroke-width="1.0" stroke-linejoin="round" stroke-linecap="butt" d="m624.6691 64.88298c45.24408 0 67.86615 34.66929 90.48816 69.33858c11.311035 17.33464 22.62207 34.669296 36.760864 47.670273c7.069397 6.5005035 14.845703 11.917572 23.682434 15.709534c4.418335 1.8959656 9.101868 3.3856812 14.0946045 4.401367c2.496399 0.507843 5.0700684 0.89720154 7.7266235 1.1595917c1.3282471 0.13119507 2.677246 0.23066711 4.0476685 0.29730225l0.74957275 0.031845093" fill-rule="evenodd"/>
        <path class="dark-fill dark-stroke" stroke-width="1.0" stroke-linecap="butt" d="m802.2191 203.49147l-1.1469116 1.1018219l3.1116943 -1.062439l-3.0665894 -1.1862793z" fill-rule="evenodd"/>
        <path class="dark-fill" fill-opacity="0.0" d="m624.6691 134.21901c45.24414 0 67.86615 -17.330704 90.48822 -34.661415c22.62201 -17.330704 45.24408 -34.661415 90.48816 -34.661415" fill-rule="evenodd"/>
        <path class="dark-stroke" stroke-width="1.0" stroke-linejoin="round" stroke-linecap="butt" d="m624.6691 134.21901c45.24408 0 67.86615 -17.330704 90.48816 -34.661407c11.311035 -8.6653595 22.62207 -17.330711 36.760864 -23.829727c7.069397 -3.249504 14.845703 -5.957428 23.682434 -7.852974c4.418335 -0.9477768 9.101868 -1.6924591 14.0946045 -2.2001877c2.496399 -0.25387573 5.0700684 -0.4485016 7.7266235 -0.57966614c1.3282471 -0.065582275 2.677246 -0.11530304 4.0476685 -0.1486206l0.7490845 -0.015899658" fill-rule="evenodd"/>
        <path class="dark-fill dark-stroke" stroke-width="1.0" stroke-linecap="butt" d="m802.21857 64.93052l-1.1132202 1.1357956l3.078308 -1.1554871l-3.10083 -1.0935669z" fill-rule="evenodd"/>
        <path class="dark-fill" fill-opacity="0.0" d="m624.6691 134.16518c45.24414 0 67.86615 0.01574707 90.48822 0.03149414c22.62201 0.01574707 45.24408 0.03149414 90.48816 0.03149414" fill-rule="evenodd"/>
        <path class="dark-stroke" stroke-width="1.0" stroke-linejoin="round" stroke-linecap="butt" d="m624.6691 134.16518c45.24408 0 67.86615 0.01574707 90.48816 0.03149414c11.311035 0.007873535 22.62207 0.01574707 36.760864 0.021652222c7.069397 0.0029449463 14.845703 0.00541687 23.682434 0.0071258545l26.617859 0.0024108887" fill-rule="evenodd"/>
        <path class="dark-fill dark-stroke" stroke-width="1.0" stroke-linecap="butt" d="m802.21844 134.22786l-1.1246948 1.1244812l3.0898438 -1.1243134l-3.0896606 -1.1248627z" fill-rule="evenodd"/>
        <path class="dark-fill" fill-opacity="0.0" d="m624.6691 134.20581c45.24414 0 67.86615 17.338577 90.48822 34.67717c22.62201 17.338577 45.24408 34.677155 90.48816 34.677155" fill-rule="evenodd"/>
        <path class="dark-stroke" stroke-width="1.0" stroke-linejoin="round" stroke-linecap="butt" d="m624.6691 134.20581c45.24408 0 67.86615 17.338577 90.48816 34.67717c11.311035 8.669281 22.62207 17.338577 36.760864 23.840546c7.069397 3.2509918 14.845703 5.960144 23.682434 7.856552c4.418335 0.9481964 9.101868 1.693222 14.0946045 2.2011719c2.496399 0.2539978 5.0700684 0.4487152 7.7266235 0.57992554c1.3282471 0.06562805 2.677246 0.115371704 4.0476685 0.14871216l0.7490845 0.015914917" fill-rule="evenodd"/>
        <path class="dark-fill dark-stroke" stroke-width="1.0" stroke-linecap="butt" d="m802.21857 203.52579l-1.1358032 1.1132507l3.100891 -1.0935516l-3.078308 -1.1555023z" fill-rule="evenodd"/>
        <path class="dark-fill" fill-opacity="0.0" d="m624.6691 203.54185c45.24414 0 67.86615 -34.661423 90.48822 -69.322845c22.62201 -34.661415 45.24408 -69.32283 90.48816 -69.32283" fill-rule="evenodd"/>
        <path class="dark-stroke" stroke-width="1.0" stroke-linejoin="round" stroke-linecap="butt" d="m624.6691 203.54185c45.24408 0 67.86615 -34.661423 90.48816 -69.322845c11.311035 -17.330704 22.62207 -34.661407 36.760864 -47.65944c7.069397 -6.499016 14.845703 -11.914864 23.682434 -15.7059555c4.418335 -1.895546 9.101868 -3.384903 14.0946045 -4.4003754c2.496399 -0.5077362 5.0700684 -0.8970032 7.7266235 -1.1593323c1.3282471 -0.13116455 2.677246 -0.23059845 4.0476685 -0.29723358l0.74957275 -0.031837463" fill-rule="evenodd"/>
        <path class="dark-fill dark-stroke" stroke-width="1.0" stroke-linecap="butt" d="m802.2191 64.964836l-1.1018677 1.1468887l3.0666504 -1.1862564l-3.1116943 -1.062458z" fill-rule="evenodd"/>
        <path class="dark-fill" fill-opacity="0.0" d="m624.6691 203.551c45.24414 0 67.86615 -17.330704 90.48822 -34.661423c22.62201 -17.330704 45.24408 -34.661407 90.48816 -34.661407" fill-rule="evenodd"/>
        <path class="dark-stroke" stroke-width="1.0" stroke-linejoin="round" stroke-linecap="butt" d="m624.6691 203.551c45.24408 0 67.86615 -17.330704 90.48816 -34.661423c11.311035 -8.665344 22.62207 -17.330704 36.760864 -23.829712c7.069397 -3.2495117 14.845703 -5.957443 23.682434 -7.8529816c4.418335 -0.94776917 9.101868 -1.6924591 14.0946045 -2.2001953c2.496399 -0.25386047 5.0700684 -0.44848633 7.7266235 -0.57966614c1.3282471 -0.06556702 2.677246 -0.11528015 4.0476685 -0.14860535l0.7490845 -0.015914917" fill-rule="evenodd"/>
        <path class="dark-fill dark-stroke" stroke-width="1.0" stroke-linecap="butt" d="m802.21857 134.2625l-1.1132202 1.1358032l3.078308 -1.1554871l-3.10083 -1.0935669z" fill-rule="evenodd"/>
        <path class="dark-fill" fill-opacity="0.0" d="m624.6691 203.49715c45.24414 0 67.86615 0.01574707 90.48822 0.03149414c22.62201 0.01574707 45.24408 0.03149414 90.48816 0.03149414" fill-rule="evenodd"/>
        <path class="dark-stroke" stroke-width="1.0" stroke-linejoin="round" stroke-linecap="butt" d="m624.6691 203.49715c45.24408 0 67.86615 0.01574707 90.48816 0.03149414c11.311035 0.007873535 22.62207 0.01574707 36.760864 0.021652222c7.069397 0.002960205 14.845703 0.00541687 23.682434 0.0071411133l26.617859 0.0023956299" fill-rule="evenodd"/>
        <path class="dark-fill dark-stroke" stroke-width="1.0" stroke-linecap="butt" d="m802.21844 203.55983l-1.1246948 1.1244812l3.0898438 -1.1242981l-3.0896606 -1.1248627z" fill-rule="evenodd"/>
        <path class="dark-fill" fill-opacity="0.0" d="m353.29382 203.51158c-12.5 0 -25.007874 33.23622 -25.0 66.47246c0.007873535 33.236206 12.531494 66.47244 25.062988 66.47244" fill-rule="evenodd"/>
        <path stroke-width="1.0" stroke-linejoin="round" stroke-linecap="butt" d="m353.2938 203.51158c-12.4999695 0 -25.007843 33.23622 -24.99997 66.47246c0.0039367676 16.618103 3.1368103 33.236206 7.835144 45.6998c2.3491516 6.231781 5.089691 11.424957 8.026123 15.06015c1.4682312 1.8175964 2.985443 3.2457275 4.527191 4.219452c0.385437 0.2434082 0.7723999 0.45846558 1.1605225 0.6440735l0.17428589 0.079956055" fill-rule="evenodd" class="color-b-stroke"/>
        <path stroke-width="1.0" stroke-linecap="butt" d="m350.0171 335.68747l-1.3482361 0.8435669l3.2633057 -0.4025879l-2.7586365 -1.7892151z" fill-rule="evenodd" class="color-b-stroke color-b-fill"/>
        <path class="dark-fill" fill-opacity="0.0" d="m353.29382 134.17961c-18.22171 0 -36.451294 50.566925 -36.44342 101.13385c0.007873535 50.56694 18.253204 101.133865 36.50641 101.133865" fill-rule="evenodd"/>
        <path stroke-width="1.0" stroke-linejoin="round" stroke-linecap="butt" d="m353.2938 134.17961c-18.22171 0 -36.451263 50.566925 -36.44339 101.13385c0.0039367676 25.283463 4.56723 50.56694 11.411194 69.529526c3.421997 9.481293 7.4141235 17.382385 11.69162 22.913147c2.138733 2.7653809 4.3487854 4.9381714 6.5946045 6.419647c1.1228943 0.74069214 2.2546997 1.3085938 3.3910217 1.6913147l0.038238525 0.012451172" fill-rule="evenodd" class="color-b-stroke"/>
        <path stroke-width="1.0" stroke-linecap="butt" d="m349.97705 335.87955l-1.2953491 0.92276l3.2333984 -0.59716797l-2.8607788 -1.6209412z" fill-rule="evenodd" class="color-b-stroke color-b-fill"/>
        <path class="dark-fill" fill-opacity="0.0" d="m353.29382 64.847626c-27.015686 0 -54.039215 67.89763 -54.03134 135.79527c0.007873535 67.89763 27.04715 135.79527 54.09433 135.79527" fill-rule="evenodd"/>
        <path stroke-width="1.0" stroke-linejoin="round" stroke-linecap="butt" d="m353.2938 64.847626c-27.015656 0 -54.039185 67.897644 -54.03131 135.79527c0.0039367676 33.948822 6.7657166 67.89763 16.90741 93.35927c5.070862 12.730804 10.986694 23.339813 17.325256 30.766113c3.1692505 3.7131348 6.4442444 6.630615 9.772095 8.619812c1.6639404 0.9945984 3.341095 1.7571106 5.024872 2.270996c0.42099 0.12844849 0.8423157 0.24139404 1.263977 0.33850098c0.10543823 0.024291992 0.21087646 0.047576904 0.3163147 0.069885254l0.07574463 0.015319824" fill-rule="evenodd" class="color-b-stroke"/>
        <path stroke-width="1.0" stroke-linecap="butt" d="m349.94818 336.0828l-1.2351379 1.0018921l3.1897278 -0.7980957l-2.956482 -1.4389343z" fill-rule="evenodd" class="color-b-stroke color-b-fill"/>
        <path class="dark-fill" fill-opacity="0.0" d="m579.4382 203.51158c-12.5 0 -25.007874 33.23622 -25.0 66.47246c0.007873535 33.236206 12.531494 66.47244 25.062988 66.47244" fill-rule="evenodd"/>
        <path stroke-width="1.0" stroke-linejoin="round" stroke-linecap="butt" d="m579.4382 203.51158c-12.5 0 -25.007874 33.23622 -25.0 66.47246c0.00390625 16.618103 3.1367798 33.236206 7.835144 45.6998c2.349121 6.231781 5.0896606 11.424957 8.026123 15.06015c1.4682617 1.8175964 2.9854126 3.2457275 4.5272217 4.219452c0.38537598 0.2434082 0.7723999 0.45846558 1.1605225 0.6440735l0.17425537 0.079956055" fill-rule="evenodd" class="color-b-stroke"/>
        <path stroke-width="1.0" stroke-linecap="butt" d="m576.16144 335.68747l-1.3482056 0.8435669l3.2633057 -0.4025879l-2.758667 -1.7892151z" fill-rule="evenodd" class="color-b-stroke color-b-fill"/>
        <path class="dark-fill" fill-opacity="0.0" d="m579.4382 134.17961c-18.22168 0 -36.451294 50.566925 -36.44342 101.13385c0.007873535 50.56694 18.253235 101.133865 36.50641 101.133865" fill-rule="evenodd"/>
        <path stroke-width="1.0" stroke-linejoin="round" stroke-linecap="butt" d="m579.4382 134.17961c-18.22174 0 -36.451294 50.566925 -36.44342 101.13385c0.00390625 25.283463 4.5672607 50.56694 11.411194 69.529526c3.421997 9.481293 7.4141235 17.382385 11.691589 22.913147c2.138794 2.7653809 4.348816 4.9381714 6.5946655 6.419647c1.1228638 0.74069214 2.2546997 1.3085938 3.3909912 1.6913147l0.038269043 0.012451172" fill-rule="evenodd" class="color-b-stroke"/>
        <path stroke-width="1.0" stroke-linecap="butt" d="m576.1214 335.87955l-1.2953491 0.92276l3.2333984 -0.59716797l-2.8607788 -1.6209412z" fill-rule="evenodd" class="color-b-stroke color-b-fill"/>
        <path class="dark-fill" fill-opacity="0.0" d="m579.4382 64.847626c-27.015686 0 -54.039246 67.89763 -54.031372 135.79527c0.007873535 67.89763 27.04718 135.79527 54.09436 135.79527" fill-rule="evenodd"/>
        <path stroke-width="1.0" stroke-linejoin="round" stroke-linecap="butt" d="m579.4382 64.847626c-27.015686 0 -54.039246 67.897644 -54.031372 135.79527c0.003967285 33.948822 6.765747 67.89763 16.90747 93.35927c5.070801 12.730804 10.986694 23.339813 17.325195 30.766113c3.1693115 3.7131348 6.444275 6.630615 9.772156 8.619812c1.6639404 0.9945984 3.3410645 1.7571106 5.0248413 2.270996c0.42095947 0.12844849 0.8423462 0.24139404 1.263977 0.33850098c0.10546875 0.024291992 0.21087646 0.047576904 0.3163452 0.069885254l0.07574463 0.015319824" fill-rule="evenodd" class="color-b-stroke"/>
        <path stroke-width="1.0" stroke-linecap="butt" d="m576.0925 336.0828l-1.2351074 1.0018921l3.1896973 -0.7980957l-2.956482 -1.4389343z" fill-rule="evenodd" class="color-b-stroke color-b-fill"/>
        <path class="dark-fill" fill-opacity="0.0" d="m805.5825 203.50371c-12.5 0 -25.007874 33.23622 -25.0 66.47246c0.007873535 33.236206 12.531494 66.47241 25.062988 66.47241" fill-rule="evenodd"/>
        <path stroke-width="1.0" stroke-linejoin="round" stroke-linecap="butt" d="m805.5825 203.50371c-12.5 0 -25.007874 33.23622 -25.0 66.47246c0.00390625 16.618103 3.1367798 33.236206 7.835144 45.6998c2.349121 6.231781 5.0897217 11.424927 8.026123 15.06015c1.4682007 1.8175964 2.9854126 3.2457275 4.5271606 4.219452c0.38549805 0.2434082 0.77246094 0.45846558 1.1606445 0.6440735l0.17419434 0.079956055" fill-rule="evenodd" class="color-b-stroke"/>
        <path stroke-width="1.0" stroke-linecap="butt" d="m802.3058 335.6796l-1.3482056 0.8435669l3.2633057 -0.4025879l-2.758667 -1.7892151z" fill-rule="evenodd" class="color-b-stroke color-b-fill"/>
        <path class="dark-fill" fill-opacity="0.0" d="m805.5825 134.17174c-18.22168 0 -36.451294 50.566925 -36.44342 101.13385c0.007873535 50.56694 18.253235 101.133865 36.50641 101.133865" fill-rule="evenodd"/>
        <path stroke-width="1.0" stroke-linejoin="round" stroke-linecap="butt" d="m805.5825 134.17174c-18.22168 0 -36.451294 50.566925 -36.44342 101.13385c0.003967285 25.283463 4.5672607 50.56694 11.411194 69.529526c3.421997 9.481293 7.4141235 17.382385 11.691589 22.913147c2.138794 2.7653809 4.348816 4.9381714 6.5946655 6.419647c1.1228638 0.74069214 2.2547607 1.3085938 3.3910522 1.6913147l0.038146973 0.012451172" fill-rule="evenodd" class="color-b-stroke"/>
        <path stroke-width="1.0" stroke-linecap="butt" d="m802.26575 335.87167l-1.2953491 0.92276l3.2333984 -0.59716797l-2.8607788 -1.6209412z" fill-rule="evenodd" class="color-b-stroke color-b-fill"/>
        <path class="dark-fill" fill-opacity="0.0" d="m805.5825 64.83975c-27.015686 0 -54.039185 67.89763 -54.03131 135.79527c0.007873535 67.89763 27.04712 135.79527 54.0943 135.79527" fill-rule="evenodd"/>
        <path stroke-width="1.0" stroke-linejoin="round" stroke-linecap="butt" d="m805.5825 64.83975c-27.015686 0 -54.039185 67.897644 -54.03131 135.79527c0.00390625 33.948822 6.765747 67.89763 16.907349 93.35927c5.070862 12.730804 10.986755 23.339813 17.325317 30.766113c3.1693115 3.7131348 6.444214 6.630615 9.772034 8.619812c1.6640015 0.9945984 3.3411255 1.7571106 5.0249634 2.270996c0.42095947 0.12844849 0.84228516 0.24139404 1.263916 0.33850098c0.105407715 0.024291992 0.21087646 0.047576904 0.31640625 0.069885254l0.075683594 0.015319824" fill-rule="evenodd" class="color-b-stroke"/>
        <path stroke-width="1.0" stroke-linecap="butt" d="m802.2369 336.07492l-1.2351074 1.0018921l3.1896973 -0.7980957l-2.956482 -1.4389343z" fill-rule="evenodd" class="color-b-stroke color-b-fill"/>
        <path d="m92.808395 443.50156l0 0c0 -6.384033 5.17527 -11.559296 11.559288 -11.559296l769.2909 0c3.0657349 0 6.0058594 1.2178345 8.173645 3.38562c2.1677856 2.1677856 3.38562 5.1079407 3.38562 8.173676l0 46.23575c0 6.3840027 -5.175232 11.559296 -11.559265 11.559296l-769.2909 0c-6.384018 0 -11.559288 -5.175293 -11.559288 -11.559296z" fill-rule="evenodd" class="color-e-fill"/>
        <path class="dark-stroke" stroke-width="2.0" stroke-linejoin="round" stroke-linecap="butt" d="m92.808395 443.50156l0 0c0 -6.384033 5.17527 -11.559296 11.559288 -11.559296l769.2909 0c3.0657349 0 6.0058594 1.2178345 8.173645 3.38562c2.1677856 2.1677856 3.38562 5.1079407 3.38562 8.173676l0 46.23575c0 6.3840027 -5.175232 11.559296 -11.559265 11.559296l-769.2909 0c-6.384018 0 -11.559288 -5.175293 -11.559288 -11.559296z" fill-rule="evenodd"/>
        <path class="dark-fill" fill-opacity="0.0" d="m149.67441 359.09604l0 73.60629" fill-rule="evenodd"/>
        <path stroke-width="1.0" stroke-linejoin="round" stroke-linecap="butt" d="m149.67441 359.09604l0 70.17923" fill-rule="evenodd" class="color-c-stroke"/>
        <path stroke-width="1.0" stroke-linecap="butt" d="m149.67441 429.27527l-1.124588 -1.1246033l1.124588 3.0897827l1.124588 -3.0897827z" fill-rule="evenodd" class="color-c-fill color-c-stroke"/>
        <path class="dark-fill" fill-opacity="0.0" d="m375.9395 359.09604l0 73.60629" fill-rule="evenodd"/>
        <path stroke-width="1.0" stroke-linejoin="round" stroke-linecap="butt" d="m375.9395 359.09604l0 70.17923" fill-rule="evenodd" class="color-c-stroke"/>
        <path stroke-width="1.0" stroke-linecap="butt" d="m375.9395 429.27527l-1.1246033 -1.1246033l1.1246033 3.0897827l1.1245728 -3.0897827z" fill-rule="evenodd" class="color-c-fill color-c-stroke"/>
        <path class="dark-fill" fill-opacity="0.0" d="m602.14685 359.09604l0 73.60629" fill-rule="evenodd"/>
        <path stroke-width="1.0" stroke-linejoin="round" stroke-linecap="butt" d="m602.14685 359.09604l0 70.17923" fill-rule="evenodd" class="color-c-stroke"/>
        <path stroke-width="1.0" stroke-linecap="butt" d="m602.14685 429.27527l-1.1245728 -1.1246033l1.1245728 3.0897827l1.1245728 -3.0897827z" fill-rule="evenodd" class="color-c-fill color-c-stroke"/>
        <path class="dark-fill" fill-opacity="0.0" d="m828.2912 359.09604l0 73.60629" fill-rule="evenodd"/>
        <path stroke-width="1.0" stroke-linejoin="round" stroke-linecap="butt" d="m828.2912 359.09604l0 70.17923" fill-rule="evenodd" class="color-c-stroke"/>
        <path stroke-width="1.0" stroke-linecap="butt" d="m828.2912 429.27527l-1.1246338 -1.1246033l1.1246338 3.0897827l1.1245728 -3.0897827z" fill-rule="evenodd" class="color-c-fill color-c-stroke"/>
    </g>
    <g>
        <text x="480" y="390" class="dark-fill">
            Softmax
            <tspan x="480" dy="25">Predictions</tspan>
        </text>
        <text x="265" y="390" class="color-e-fill">
            Cross Entropy
            <tspan x="265" dy="25">Gradient</tspan>
        </text>
        <text x="480" y="25" class="dark-fill">
            Viterbi Algorithm
            <tspan x="480" dy="25">Predictions</tspan>
        </text>
        <text x="265" y="25" class="color-e-fill">
            Expectation
            <tspan x="265" dy="25">Maximization</tspan>
        </text>
        <text x="480" y="477" class="dark-fill">Neural Network</text>
    </g>
</svg>