<svg xmlns:xlink="http://www.w3.org/1999/xlink" xmlns="http://www.w3.org/2000/svg" version="1.1" viewBox="0.0 0.0 960.0 540.0" fill="none" stroke="none" stroke-linecap="square" stroke-miterlimit="10">
    <clipPath id="p.0">
        <path d="m0 0l960.0 0l0 540.0l-960.0 0l0 -540.0z" clip-rule="nonzero"/>
    </clipPath>
    <g clip-path="url(#p.0)">
        <path class="dark-fill" fill-opacity="0.0" d="m0 0l960.0 0l0 540.0l-960.0 0z" fill-rule="evenodd"/>
        <path d="m240.90158 86.89895l0 0c0 -33.032715 26.77829 -59.81102 59.811005 -59.81102l0 0c15.8628845 0 31.07605 6.3015003 42.292786 17.518244c11.216736 11.216743 17.51825 26.429909 17.51825 42.292778l0 0c0 33.032715 -26.77832 59.811028 -59.811035 59.811028l0 0c-33.032715 0 -59.811005 -26.778313 -59.811005 -59.811028z" fill-rule="evenodd" class="color-b-fill"/>
        <path class="dark-stroke" stroke-width="4.0" stroke-linejoin="round" stroke-linecap="butt" d="m240.90158 86.89895l0 0c0 -33.032715 26.77829 -59.81102 59.811005 -59.81102l0 0c15.8628845 0 31.07605 6.3015003 42.292786 17.518244c11.216736 11.216743 17.51825 26.429909 17.51825 42.292778l0 0c0 33.032715 -26.77832 59.811028 -59.811035 59.811028l0 0c-33.032715 0 -59.811005 -26.778313 -59.811005 -59.811028z" fill-rule="evenodd"/>
        <path d="m240.90158 270.0l0 0c0 -33.032715 26.77829 -59.81102 59.811005 -59.81102l0 0c15.8628845 0 31.07605 6.3014984 42.292786 17.518234c11.216736 11.216751 17.51825 26.429916 17.51825 42.292786l0 0c0 33.032715 -26.77832 59.811035 -59.811035 59.811035l0 0c-33.032715 0 -59.811005 -26.77832 -59.811005 -59.811035z" fill-rule="evenodd" class="color-b-fill"/>
        <path class="dark-stroke" stroke-width="4.0" stroke-linejoin="round" stroke-linecap="butt" d="m240.90158 270.0l0 0c0 -33.032715 26.77829 -59.81102 59.811005 -59.81102l0 0c15.8628845 0 31.07605 6.3014984 42.292786 17.518234c11.216736 11.216751 17.51825 26.429916 17.51825 42.292786l0 0c0 33.032715 -26.77832 59.811035 -59.811035 59.811035l0 0c-33.032715 0 -59.811005 -26.77832 -59.811005 -59.811035z" fill-rule="evenodd"/>
        <path d="m240.90158 453.10104l0 0c0 -33.032715 26.77829 -59.811005 59.811005 -59.811005l0 0c15.8628845 0 31.07605 6.301483 42.292786 17.518219c11.216736 11.216766 17.51825 26.429932 17.51825 42.292786l0 0c0 33.032715 -26.77832 59.811005 -59.811035 59.811005l0 0c-33.032715 0 -59.811005 -26.77829 -59.811005 -59.811005z" fill-rule="evenodd" class="color-b-fill"/>
        <path class="dark-stroke" stroke-width="4.0" stroke-linejoin="round" stroke-linecap="butt" d="m240.90158 453.10104l0 0c0 -33.032715 26.77829 -59.811005 59.811005 -59.811005l0 0c15.8628845 0 31.07605 6.301483 42.292786 17.518219c11.216736 11.216766 17.51825 26.429932 17.51825 42.292786l0 0c0 33.032715 -26.77832 59.811005 -59.811035 59.811005l0 0c-33.032715 0 -59.811005 -26.77829 -59.811005 -59.811005z" fill-rule="evenodd"/>
        <path d="m493.99606 86.89895l0 0c0 -33.032715 26.77829 -59.81102 59.811005 -59.81102l0 0c15.862915 0 31.07605 6.3015003 42.292786 17.518244c11.216736 11.216743 17.51825 26.429909 17.51825 42.292778l0 0c0 33.032715 -26.77832 59.811028 -59.811035 59.811028l0 0c-33.032715 0 -59.811005 -26.778313 -59.811005 -59.811028z" fill-rule="evenodd" class="color-a-fill"/>
        <path class="dark-stroke" stroke-width="4.0" stroke-linejoin="round" stroke-linecap="butt" d="m493.99606 86.89895l0 0c0 -33.032715 26.77829 -59.81102 59.811005 -59.81102l0 0c15.862915 0 31.07605 6.3015003 42.292786 17.518244c11.216736 11.216743 17.51825 26.429909 17.51825 42.292778l0 0c0 33.032715 -26.77832 59.811028 -59.811035 59.811028l0 0c-33.032715 0 -59.811005 -26.778313 -59.811005 -59.811028z" fill-rule="evenodd"/>
        <path d="m493.99606 270.0l0 0c0 -33.032715 26.77829 -59.81102 59.811005 -59.81102l0 0c15.862915 0 31.07605 6.3014984 42.292786 17.518234c11.216736 11.216751 17.51825 26.429916 17.51825 42.292786l0 0c0 33.032715 -26.77832 59.811035 -59.811035 59.811035l0 0c-33.032715 0 -59.811005 -26.77832 -59.811005 -59.811035z" fill-rule="evenodd" class="color-a-fill"/>
        <path class="dark-stroke" stroke-width="4.0" stroke-linejoin="round" stroke-linecap="butt" d="m493.99606 270.0l0 0c0 -33.032715 26.77829 -59.81102 59.811005 -59.81102l0 0c15.862915 0 31.07605 6.3014984 42.292786 17.518234c11.216736 11.216751 17.51825 26.429916 17.51825 42.292786l0 0c0 33.032715 -26.77832 59.811035 -59.811035 59.811035l0 0c-33.032715 0 -59.811005 -26.77832 -59.811005 -59.811035z" fill-rule="evenodd"/>
        <path d="m493.99606 453.10104l0 0c0 -33.032715 26.77829 -59.811005 59.811005 -59.811005l0 0c15.862915 0 31.07605 6.301483 42.292786 17.518219c11.216736 11.216766 17.51825 26.429932 17.51825 42.292786l0 0c0 33.032715 -26.77832 59.811005 -59.811035 59.811005l0 0c-33.032715 0 -59.811005 -26.77829 -59.811005 -59.811005z" fill-rule="evenodd" class="color-a-fill"/>
        <path class="dark-stroke" stroke-width="4.0" stroke-linejoin="round" stroke-linecap="butt" d="m493.99606 453.10104l0 0c0 -33.032715 26.77829 -59.811005 59.811005 -59.811005l0 0c15.862915 0 31.07605 6.301483 42.292786 17.518219c11.216736 11.216766 17.51825 26.429932 17.51825 42.292786l0 0c0 33.032715 -26.77832 59.811005 -59.811035 59.811005l0 0c-33.032715 0 -59.811005 -26.77829 -59.811005 -59.811005z" fill-rule="evenodd"/>
        <path class="dark-fill" fill-opacity="0.0" d="m360.52362 86.89895l133.48032 0" fill-rule="evenodd"/>
        <path stroke-width="2.0" stroke-linejoin="round" stroke-linecap="butt" d="m360.52362 86.89895l121.480316 0" fill-rule="evenodd" class="dark-stroke"/>
        <path stroke-width="2.0" stroke-linecap="butt" d="m482.00394 90.202415l9.076202 -3.3034668l-9.076202 -3.3034668z" fill-rule="evenodd" class="dark-stroke color-a-fill"/>
        <path class="dark-fill" fill-opacity="0.0" d="m356.99463 109.061554l154.51968 118.64566" fill-rule="evenodd"/>
        <path stroke-width="2.0" stroke-linejoin="round" stroke-linecap="butt" d="m356.99463 109.06155l145.00177 111.3375" fill-rule="evenodd" class="dark-stroke"/>
        <path stroke-width="2.0" stroke-linecap="butt" d="m499.98456 223.01921l9.210724 2.9073792l-5.1870117 -8.14772z" fill-rule="evenodd" class="dark-stroke color-a-fill"/>
        <path class="dark-fill" fill-opacity="0.0" d="m343.00537 227.70721l153.82678 -118.64566" fill-rule="evenodd"/>
        <path stroke-width="2.0" stroke-linejoin="round" stroke-linecap="butt" d="m343.00537 227.70723l144.32477 -111.31684" fill-rule="evenodd" class="dark-stroke"/>
        <path stroke-width="2.0" stroke-linecap="butt" d="m489.3477 119.00618l5.169281 -8.158958l-9.204376 2.9273682z" fill-rule="evenodd" class="dark-stroke color-a-fill"/>
        <path class="dark-fill" fill-opacity="0.0" d="m360.52362 270.0l133.48032 0" fill-rule="evenodd"/>
        <path stroke-width="2.0" stroke-linejoin="round" stroke-linecap="butt" d="m360.52362 270.0l121.480316 0" fill-rule="evenodd" class="dark-stroke"/>
        <path stroke-width="2.0" stroke-linecap="butt" d="m482.00394 273.30347l9.076202 -3.3034668l-9.076202 -3.3034668z" fill-rule="evenodd" class="dark-stroke color-a-fill"/>
        <path class="dark-fill" fill-opacity="0.0" d="m343.01038 312.28857l152.94489 113.38583" fill-rule="evenodd"/>
        <path stroke-width="2.0" stroke-linejoin="round" stroke-linecap="butt" d="m343.01038 312.2886l143.305 106.23929" fill-rule="evenodd" class="dark-stroke"/>
        <path stroke-width="2.0" stroke-linecap="butt" d="m484.34802 421.18164l9.258484 2.7515259l-5.323761 -8.059021z" fill-rule="evenodd" class="dark-stroke color-a-fill"/>
        <path class="dark-fill" fill-opacity="0.0" d="m360.52362 453.10104l133.48032 0" fill-rule="evenodd"/>
        <path stroke-width="2.0" stroke-linejoin="round" stroke-linecap="butt" d="m360.52362 453.10104l121.480316 0" fill-rule="evenodd" class="dark-stroke"/>
        <path stroke-width="2.0" stroke-linecap="butt" d="m482.00394 456.4045l9.076202 -3.3034668l-9.076202 -3.3034668z" fill-rule="evenodd" class="dark-stroke color-a-fill"/>
        <path class="dark-fill" fill-opacity="0.0" d="m343.00537 129.19173l168.50394 281.60632" fill-rule="evenodd"/>
        <path stroke-width="2.0" stroke-linejoin="round" stroke-linecap="butt" d="m343.00537 129.19174l162.34235 271.30896" fill-rule="evenodd" class="dark-stroke"/>
        <path stroke-width="2.0" stroke-linecap="butt" d="m502.513 402.1969l7.4950256 6.092163l-1.8255615 -9.484589z" fill-rule="evenodd" class="dark-stroke color-a-fill"/>
        <path class="dark-fill" fill-opacity="0.0" d="m343.00537 410.80826l168.50394 -281.6063" fill-rule="evenodd"/>
        <path stroke-width="2.0" stroke-linejoin="round" stroke-linecap="butt" d="m343.00537 410.8083l162.34235 -271.309" fill-rule="evenodd" class="dark-stroke"/>
        <path stroke-width="2.0" stroke-linecap="butt" d="m508.18246 141.19551l1.8255615 -9.484604l-7.4950256 6.0921783z" fill-rule="evenodd" class="dark-stroke color-a-fill"/>
        <path class="dark-fill" fill-opacity="0.0" d="m355.23083 430.05655l156.28348 -117.76376" fill-rule="evenodd"/>
        <path stroke-width="2.0" stroke-linejoin="round" stroke-linecap="butt" d="m355.23083 430.05655l146.69974 -110.542145" fill-rule="evenodd" class="dark-stroke"/>
        <path stroke-width="2.0" stroke-linecap="butt" d="m503.91858 322.15268l5.2606506 -8.100342l-9.236694 2.823761z" fill-rule="evenodd" class="dark-stroke color-a-fill"/>
        <path class="dark-fill" fill-opacity="0.0" d="m261.63586 316.7708c-5.053955 7.1824036 -30.698105 28.289581 -30.323853 43.094482c0.37423706 14.804901 27.141113 38.112427 32.569336 45.734894" fill-rule="evenodd"/>
        <path class="dark-stroke" stroke-width="2.0" stroke-linejoin="round" stroke-linecap="butt" d="m257.1287 321.9346l-0.20007324 0.21160889c-0.6960144 0.73080444 -1.438385 1.5011902 -2.2156372 2.306244c-3.1089935 3.2201538 -6.7766266 6.9945374 -10.274628 11.007141c-6.996002 8.0252075 -13.313477 17.003235 -13.126343 24.4057c0.18713379 7.4024353 6.972397 16.930542 14.389435 25.560852c3.708496 4.315155 7.574951 8.405823 10.853516 11.8941345c0.81967163 0.87210083 1.6025696 1.706543 2.3370667 2.4974365l0.5315552 0.57592773" fill-rule="evenodd"/>
        <path class="dark-fill dark-stroke" stroke-width="2.0" stroke-linecap="butt" d="m257.1287 321.9346l0.21548462 3.173523l2.369049 -6.1345825l-5.758026 3.1765442z" fill-rule="evenodd"/>
        <path class="dark-fill dark-stroke" stroke-width="2.0" stroke-linecap="butt" d="m259.42358 400.39365l-3.1712952 -0.24569702l5.727478 3.2312622l-2.3104858 -6.1568604z" fill-rule="evenodd"/>
        <path class="dark-fill" fill-opacity="0.0" d="m241.75183 104.66511c-8.76445 29.78434 -53.19101 125.207695 -52.58673 178.70602c0.6042938 53.49832 46.84372 118.569885 56.212463 142.28387" fill-rule="evenodd"/>
        <path class="dark-stroke" stroke-width="2.0" stroke-linejoin="round" stroke-linecap="butt" d="m239.64278 111.186745l-0.55963135 1.6096573c-0.21632385 0.61538696 -0.43978882 1.2447281 -0.67015076 1.8876343c-0.46066284 1.28582 -0.9487915 2.6259003 -1.4618988 4.016945c-2.0523987 5.564171 -4.50441 11.943871 -7.1984253 18.929008c-5.3880463 13.970276 -11.744156 30.362305 -17.80748 47.495377c-12.126663 34.266174 -23.08223 71.49661 -22.780075 98.24576c0.30213928 26.749146 12.013077 56.391632 24.81955 82.3111c6.4032288 12.959686 13.080383 24.988617 18.742249 35.259796c2.8309326 5.1355896 5.4080505 9.831696 7.5702057 13.984985c0.5405426 1.0383301 1.0551453 2.0427246 1.5413055 3.0115967c0.24305725 0.48443604 0.47901917 0.9599304 0.70755005 1.4263916l0.019195557 0.03942871" fill-rule="evenodd"/>
        <path class="dark-fill dark-stroke" stroke-width="2.0" stroke-linecap="butt" d="m239.64279 111.18674l1.4479675 2.8321152l-0.23858643 -6.5717926l-4.041504 5.187645z" fill-rule="evenodd"/>
        <path class="dark-fill dark-stroke" stroke-width="2.0" stroke-linecap="butt" d="m242.56516 419.40442l-2.9739838 -1.1282349l4.5867004 4.712494l-0.4844818 -6.558258z" fill-rule="evenodd"/>
        <path class="dark-fill" fill-opacity="0.0" d="m261.63586 132.63496c-5.053955 7.1824036 -30.698105 28.289581 -30.323853 43.094482c0.37423706 14.804901 27.141113 38.112427 32.569336 45.73491" fill-rule="evenodd"/>
        <path class="dark-stroke" stroke-width="2.0" stroke-linejoin="round" stroke-linecap="butt" d="m257.1287 137.79878l-0.20007324 0.21157837c-0.6960144 0.73080444 -1.438385 1.5012207 -2.2156372 2.306244c-3.1089935 3.2201538 -6.7766266 6.994568 -10.274628 11.007156c-6.996002 8.025223 -13.313477 17.003235 -13.126343 24.405685c0.18713379 7.4024506 6.972397 16.930557 14.389435 25.560867c3.708496 4.31514 7.574951 8.405838 10.853516 11.894165c0.81967163 0.8720703 1.6025696 1.7065125 2.3370667 2.4973755l0.5315552 0.57595825" fill-rule="evenodd"/>
        <path class="dark-fill dark-stroke" stroke-width="2.0" stroke-linecap="butt" d="m257.1287 137.79878l0.21548462 3.1734924l2.369049 -6.1345673l-5.758026 3.1765442z" fill-rule="evenodd"/>
        <path class="dark-fill dark-stroke" stroke-width="2.0" stroke-linecap="butt" d="m259.42358 216.25781l-3.1712952 -0.24571228l5.727478 3.2312927l-2.3104858 -6.1568756z" fill-rule="evenodd"/>
    </g>
    <g>
        <text x="427" y="25" class="dark-fill">
            Emission
            <tspan x="427" dy="25">Probabilities</tspan>
        </text>
        <text x="100" y="275" class="dark-fill">
            Transition
            <tspan x="100" dy="25">Probabilities</tspan>
        </text>
    </g>
</svg>