<svg xmlns:xlink="http://www.w3.org/1999/xlink" xmlns="http://www.w3.org/2000/svg" version="1.1" viewBox="0.0 0.0 960.0 540.0" fill="none" stroke="none" stroke-linecap="square" stroke-miterlimit="10">
    <clipPath id="p.0">
        <path d="m0 0l960.0 0l0 540.0l-960.0 0l0 -540.0z" clip-rule="nonzero"/>
    </clipPath>
    <g clip-path="url(#p.0)">
        <path class="dark-fill" fill-opacity="0.0" d="m0 0l960.0 0l0 540.0l-960.0 0z" fill-rule="evenodd"/>
        <path d="m127.028725 64.85681l0 0c0 -12.506859 10.138817 -22.645672 22.645668 -22.645672l0 0c6.006012 0 11.766022 2.3858795 16.012909 6.632763c4.246887 4.246887 6.6327667 10.006905 6.6327667 16.012909l0 0c0 12.506859 -10.138809 22.645668 -22.645676 22.645668l0 0c-12.506851 0 -22.645668 -10.138809 -22.645668 -22.645668z" fill-rule="evenodd" class="color-b-fill"/>
        <path class="dark-stroke" stroke-width="3.0" stroke-linejoin="round" stroke-linecap="butt" d="m127.028725 64.85681l0 0c0 -12.506859 10.138817 -22.645672 22.645668 -22.645672l0 0c6.006012 0 11.766022 2.3858795 16.012909 6.632763c4.246887 4.246887 6.6327667 10.006905 6.6327667 16.012909l0 0c0 12.506859 -10.138809 22.645668 -22.645676 22.645668l0 0c-12.506851 0 -22.645668 -10.138809 -22.645668 -22.645668z" fill-rule="evenodd"/>
        <path d="m127.028725 134.1888l0 0c0 -12.506866 10.138817 -22.645676 22.645668 -22.645676l0 0c6.006012 0 11.766022 2.3858795 16.012909 6.6327667c4.246887 4.2468796 6.6327667 10.006897 6.6327667 16.012909l0 0c0 12.506851 -10.138809 22.64566 -22.645676 22.64566l0 0c-12.506851 0 -22.645668 -10.138809 -22.645668 -22.64566z" fill-rule="evenodd" class="color-b-fill"/>
        <path class="dark-stroke" stroke-width="3.0" stroke-linejoin="round" stroke-linecap="butt" d="m127.028725 134.1888l0 0c0 -12.506866 10.138817 -22.645676 22.645668 -22.645676l0 0c6.006012 0 11.766022 2.3858795 16.012909 6.6327667c4.246887 4.2468796 6.6327667 10.006897 6.6327667 16.012909l0 0c0 12.506851 -10.138809 22.64566 -22.645676 22.64566l0 0c-12.506851 0 -22.645668 -10.138809 -22.645668 -22.64566z" fill-rule="evenodd"/>
        <path d="m127.028725 203.52077l0 0c0 -12.506851 10.138817 -22.64566 22.645668 -22.64566l0 0c6.006012 0 11.766022 2.3858643 16.012909 6.6327515c4.246887 4.246887 6.6327667 10.006912 6.6327667 16.012909l0 0c0 12.506866 -10.138809 22.645676 -22.645676 22.645676l0 0c-12.506851 0 -22.645668 -10.138809 -22.645668 -22.645676z" fill-rule="evenodd" class="color-b-fill"/>
        <path class="dark-stroke" stroke-width="3.0" stroke-linejoin="round" stroke-linecap="butt" d="m127.028725 203.52077l0 0c0 -12.506851 10.138817 -22.64566 22.645668 -22.64566l0 0c6.006012 0 11.766022 2.3858643 16.012909 6.6327515c4.246887 4.246887 6.6327667 10.006912 6.6327667 16.012909l0 0c0 12.506866 -10.138809 22.645676 -22.645676 22.645676l0 0c-12.506851 0 -22.645668 -10.138809 -22.645668 -22.645676z" fill-rule="evenodd"/>
        <path d="m127.02874 336.45038l0 0c0 -12.506866 10.138817 -22.64566 22.645668 -22.64566l0 0c6.006012 0 11.766022 2.3858643 16.012909 6.6327515c4.246887 4.246887 6.6327667 10.006897 6.6327667 16.012909l0 0c0 12.506866 -10.138824 22.64566 -22.645676 22.64566l0 0c-12.506851 0 -22.645668 -10.138794 -22.645668 -22.64566z" fill-rule="evenodd" class="color-a-fill"/>
        <path class="dark-stroke" stroke-width="3.0" stroke-linejoin="round" stroke-linecap="butt" d="m127.02874 336.45038l0 0c0 -12.506866 10.138817 -22.64566 22.645668 -22.64566l0 0c6.006012 0 11.766022 2.3858643 16.012909 6.6327515c4.246887 4.246887 6.6327667 10.006897 6.6327667 16.012909l0 0c0 12.506866 -10.138824 22.64566 -22.645676 22.64566l0 0c-12.506851 0 -22.645668 -10.138794 -22.645668 -22.64566z" fill-rule="evenodd"/>
        <path d="m127.02874 405.77652l0 0c0 -12.506836 10.138817 -22.64566 22.645668 -22.64566l0 0c6.006012 0 11.766022 2.3858643 16.012909 6.6327515c4.246887 4.246887 6.6327667 10.0069275 6.6327667 16.012909l0 0c0 12.506866 -10.138824 22.64569 -22.645676 22.64569l0 0c-12.506851 0 -22.645668 -10.138824 -22.645668 -22.64569z" fill-rule="evenodd" class="color-a-fill"/>
        <path class="dark-stroke" stroke-width="3.0" stroke-linejoin="round" stroke-linecap="butt" d="m127.02874 405.77652l0 0c0 -12.506836 10.138817 -22.64566 22.645668 -22.64566l0 0c6.006012 0 11.766022 2.3858643 16.012909 6.6327515c4.246887 4.246887 6.6327667 10.0069275 6.6327667 16.012909l0 0c0 12.506866 -10.138824 22.64569 -22.645676 22.64569l0 0c-12.506851 0 -22.645668 -10.138824 -22.645668 -22.64569z" fill-rule="evenodd"/>
        <path d="m127.02874 475.1027l0 0c0 -12.506866 10.138817 -22.64566 22.645668 -22.64566l0 0c6.006012 0 11.766022 2.3858643 16.012909 6.6327515c4.246887 4.246887 6.6327667 10.006897 6.6327667 16.012909l0 0c0 12.506866 -10.138824 22.64566 -22.645676 22.64566l0 0c-12.506851 0 -22.645668 -10.138794 -22.645668 -22.64566z" fill-rule="evenodd" class="color-a-fill"/>
        <path class="dark-stroke" stroke-width="3.0" stroke-linejoin="round" stroke-linecap="butt" d="m127.02874 475.1027l0 0c0 -12.506866 10.138817 -22.64566 22.645668 -22.64566l0 0c6.006012 0 11.766022 2.3858643 16.012909 6.6327515c4.246887 4.246887 6.6327667 10.006897 6.6327667 16.012909l0 0c0 12.506866 -10.138824 22.64566 -22.645676 22.64566l0 0c-12.506851 0 -22.645668 -10.138794 -22.645668 -22.64566z" fill-rule="evenodd"/>
        <path class="dark-fill" fill-opacity="0.0" d="m127.028725 64.85681c-30.00911 0 -60.0261 102.55905 -60.018227 205.1181c0.007873535 102.55905 30.040611 205.1181 60.081223 205.1181" fill-rule="evenodd"/>
        <path stroke-width="2.0" stroke-linejoin="round" stroke-linecap="butt" d="m127.028725 64.85681c-30.00911 0 -60.0261 102.55905 -60.018227 205.1181c0.0039367676 51.27951 7.5140915 102.55905 18.778336 141.01868c5.632118 19.229828 12.202766 35.2547 19.24292 46.472076c3.520073 5.608734 7.1575317 10.015564 10.853737 13.020172c0.9240494 0.7511902 1.8517685 1.4147034 2.7822495 1.9875183c0.46524048 0.28634644 0.9311676 0.5500183 1.3976746 0.7906189c0.116622925 0.060180664 0.233284 0.118896484 0.34998322 0.17614746l0.021842957 0.010467529" fill-rule="evenodd" class="dark-stroke"/>
        <path stroke-width="2.0" stroke-linecap="butt" d="m120.43724 473.45056l-2.7225952 1.6446838l6.538452 -0.70285034l-5.460533 -3.6644287z" fill-rule="evenodd" class="dark-stroke color-a-fill"/>
        <path class="dark-fill" fill-opacity="0.0" d="m127.028725 134.1888c-21.88575 0 -43.77938 67.89763 -43.771507 135.79527c0.007873535 67.897644 21.917252 135.79526 43.834503 135.79526" fill-rule="evenodd"/>
        <path stroke-width="2.0" stroke-linejoin="round" stroke-linecap="butt" d="m127.028725 134.1888c-21.88575 0 -43.77938 67.89763 -43.771507 135.79527c0.0039367676 33.948822 5.483246 67.897644 13.701241 93.35922c4.108986 12.730804 8.902649 23.339813 14.038887 30.766113c2.5681152 3.7131958 5.2218857 6.630615 7.9185333 8.619843c0.3370819 0.24865723 0.6748352 0.4827881 1.013176 0.70214844c0.16916656 0.10971069 0.3384781 0.21569824 0.5079346 0.31799316l0.0914917 0.0541687" fill-rule="evenodd" class="dark-stroke"/>
        <path stroke-width="2.0" stroke-linecap="butt" d="m120.52848 403.80356l-2.8020325 1.5053711l6.5655746 -0.372406l-5.2689056 -3.9349976z" fill-rule="evenodd" class="dark-stroke color-a-fill"/>
        <path class="dark-fill" fill-opacity="0.0" d="m127.028725 203.52077c-12.5 0 -25.007874 33.23622 -25.0 66.47246c0.007873535 33.236206 12.531494 66.47244 25.062996 66.47244" fill-rule="evenodd"/>
        <path stroke-width="2.0" stroke-linejoin="round" stroke-linecap="butt" d="m127.028725 203.52077c-12.5 0 -25.007874 33.23622 -25.0 66.47246c0.0039367676 16.618103 3.136818 33.236206 7.835144 45.6998c2.3491592 6.231781 5.0896835 11.424957 8.026138 15.06015c0.734108 0.9088135 1.4804688 1.7202454 2.2360306 2.426178c0.18888092 0.17648315 0.3783493 0.3463745 0.56832886 0.509552l0.09579468 0.080444336" fill-rule="evenodd" class="dark-stroke"/>
        <path stroke-width="2.0" stroke-linecap="butt" d="m120.79015 333.76938l-2.9526062 1.1830444l6.5660934 0.36306763l-4.7965393 -4.4987183z" fill-rule="evenodd" class="dark-stroke color-a-fill"/>
        <path class="dark-fill" fill-opacity="0.0" d="m127.028725 64.85681c-25.708588 0 -51.42505 85.22835 -51.417175 170.4567c0.007873535 85.22833 25.740082 170.4567 51.48017 170.4567" fill-rule="evenodd"/>
        <path stroke-width="2.0" stroke-linejoin="round" stroke-linecap="butt" d="m127.028725 64.85681c-25.708588 0 -51.42505 85.22835 -51.417175 170.4567c0.0039367676 42.614166 6.438957 85.22833 16.090508 117.188965c4.8257675 15.980316 10.455681 29.297241 16.487892 38.61908c3.0161057 4.660919 6.1327896 8.32309 9.299843 10.820007c0.7917557 0.62423706 1.5866623 1.1756592 2.3839264 1.6516113c0.19931793 0.11898804 0.39878845 0.23327637 0.59838104 0.34280396l0.013435364 0.007171631" fill-rule="evenodd" class="dark-stroke"/>
        <path stroke-width="2.0" stroke-linecap="butt" d="m120.48553 403.94318l-2.767311 1.5682678l6.555481 -0.5206299l-5.3564377 -3.8149414z" fill-rule="evenodd" class="dark-stroke color-a-fill"/>
        <path class="dark-fill" fill-opacity="0.0" d="m127.028725 134.1888c-16.15084 0 -32.309563 50.566925 -32.30169 101.13385c0.007873535 50.56694 16.182343 101.133865 32.364685 101.133865" fill-rule="evenodd"/>
        <path stroke-width="2.0" stroke-linejoin="round" stroke-linecap="butt" d="m127.028725 134.1888c-16.15084 0 -32.309563 50.566925 -32.30169 101.13385c0.0039367676 25.283463 4.0495224 50.56694 10.11692 69.529526c3.0336914 9.481293 6.5728455 17.382385 10.36496 22.913147c0.94802856 1.3826904 1.9118729 2.617218 2.8875809 3.6912842c0.487854 0.5370178 0.97867584 1.0339355 1.4719696 1.4891663c0.2466507 0.22763062 0.49391174 0.44482422 0.74172974 0.6514282c0.123909 0.103271484 0.24795532 0.20391846 0.3721466 0.3019104l0.038414 0.029418945" fill-rule="evenodd" class="dark-stroke"/>
        <path stroke-width="2.0" stroke-linecap="butt" d="m120.720764 333.92856l-2.9201431 1.2610474l6.5734177 0.1885376l-4.914337 -4.369751z" fill-rule="evenodd" class="dark-stroke color-a-fill"/>
        <path class="dark-fill" fill-opacity="0.0" d="m127.028725 64.85681c-20.45137 0 -40.910614 67.897644 -40.90274 135.79527c0.007873535 67.89763 20.482864 135.79527 40.965736 135.79527" fill-rule="evenodd"/>
        <path stroke-width="2.0" stroke-linejoin="round" stroke-linecap="butt" d="m127.028725 64.85681c-20.45137 0 -40.910614 67.897644 -40.90274 135.79527c0.0039367676 33.948822 5.124649 67.89763 12.804749 93.35927c3.840042 12.730804 8.319931 23.339813 13.1199875 30.766113c2.4000244 3.7131348 4.8800964 6.630615 7.4002533 8.619812c0.3150177 0.24862671 0.63066864 0.4827881 0.94686127 0.70217896l0.20510864 0.13983154" fill-rule="evenodd" class="dark-stroke"/>
        <path stroke-width="2.0" stroke-linecap="butt" d="m120.60295 334.2393l-2.8538284 1.4047241l6.5746613 -0.1385498l-5.125534 -4.119995z" fill-rule="evenodd" class="dark-stroke color-a-fill"/>
        <path class="dark-fill" fill-opacity="0.0" d="m127.028725 134.1888c-25.708588 0 -51.42505 85.22835 -51.417175 170.45668c0.007873535 85.22836 25.740082 170.4567 51.48017 170.4567" fill-rule="evenodd"/>
        <path stroke-width="2.0" stroke-linejoin="round" stroke-linecap="butt" d="m127.028725 134.1888c-25.708588 0 -51.42505 85.22835 -51.417175 170.45668c0.0039367676 42.614166 6.438957 85.22833 16.090508 117.188965c4.8257675 15.980316 10.455681 29.297241 16.487892 38.61908c3.0161057 4.6609497 6.1327896 8.32309 9.299843 10.820007c0.7917557 0.62423706 1.5866623 1.1756592 2.3839264 1.6516418c0.19931793 0.11895752 0.39878845 0.23324585 0.59838104 0.34280396l0.013435364 0.007171631" fill-rule="evenodd" class="dark-stroke"/>
        <path stroke-width="2.0" stroke-linecap="butt" d="m120.48553 473.27515l-2.767311 1.5682678l6.555481 -0.52059937l-5.3564377 -3.814972z" fill-rule="evenodd" class="dark-stroke color-a-fill"/>
        <path class="dark-fill" fill-opacity="0.0" d="m127.028725 203.52077c-18.540611 0 -37.089096 50.56694 -37.081215 101.133865c0.007873535 50.566925 18.572105 101.13385 37.14421 101.13385" fill-rule="evenodd"/>
        <path stroke-width="2.0" stroke-linejoin="round" stroke-linecap="butt" d="m127.028725 203.52077c-18.540611 0 -37.08909 50.56694 -37.081215 101.133865c0.0039367676 25.283447 4.6469574 50.566895 11.610519 69.52951c3.4817734 9.481293 7.543686 17.382385 11.895905 22.913147c2.1761093 2.7653809 4.424797 4.9381714 6.709839 6.4196167l0.38175964 0.24002075" fill-rule="evenodd" class="dark-stroke"/>
        <path stroke-width="2.0" stroke-linecap="butt" d="m120.54553 403.75693l-2.814743 1.4814758l6.5685043 -0.31652832l-5.235222 -3.9796753z" fill-rule="evenodd" class="dark-stroke color-a-fill"/>
        <path class="dark-fill" fill-opacity="0.0" d="m127.028725 203.52077c-23.796516 0 -47.600906 67.89763 -47.593033 135.79527c0.007881165 67.897644 23.828018 135.79529 47.65603 135.79529" fill-rule="evenodd"/>
        <path stroke-width="2.0" stroke-linejoin="round" stroke-linecap="butt" d="m127.028725 203.52077c-23.796516 0 -47.600906 67.89763 -47.593033 135.79527c0.003944397 33.94879 5.9609375 67.89761 14.89547 93.35925c4.4672546 12.730804 9.678894 23.339813 15.26297 30.766113c2.7920303 3.7131653 5.677185 6.630615 8.60894 8.619812c0.7329407 0.49731445 1.4688034 0.93655396 2.2068405 1.3157654l0.044822693 0.02255249" fill-rule="evenodd" class="dark-stroke"/>
        <path stroke-width="2.0" stroke-linecap="butt" d="m120.454735 473.39954l-2.7396011 1.6162109l6.5454254 -0.63464355l-5.4220123 -3.721161z" fill-rule="evenodd" class="dark-stroke color-a-fill"/>
        <path d="m353.29382 64.869934l0 0c0 -12.506859 10.138794 -22.645668 22.64566 -22.645668l0 0c6.006012 0 11.766022 2.3858757 16.012909 6.632763c4.246887 4.246887 6.6327515 10.006901 6.6327515 16.012905l0 0c0 12.506859 -10.138794 22.645668 -22.64566 22.645668l0 0c-12.506866 0 -22.64566 -10.138809 -22.64566 -22.645668z" fill-rule="evenodd" class="color-b-fill"/>
        <path class="dark-stroke" stroke-width="3.0" stroke-linejoin="round" stroke-linecap="butt" d="m353.29382 64.869934l0 0c0 -12.506859 10.138794 -22.645668 22.64566 -22.645668l0 0c6.006012 0 11.766022 2.3858757 16.012909 6.632763c4.246887 4.246887 6.6327515 10.006901 6.6327515 16.012905l0 0c0 12.506859 -10.138794 22.645668 -22.64566 22.645668l0 0c-12.506866 0 -22.64566 -10.138809 -22.64566 -22.645668z" fill-rule="evenodd"/>
        <path d="m353.29382 134.20192l0 0c0 -12.506866 10.138794 -22.645676 22.64566 -22.645676l0 0c6.006012 0 11.766022 2.3858795 16.012909 6.6327667c4.246887 4.246887 6.6327515 10.006897 6.6327515 16.012909l0 0c0 12.506851 -10.138794 22.64566 -22.64566 22.64566l0 0c-12.506866 0 -22.64566 -10.138809 -22.64566 -22.64566z" fill-rule="evenodd" class="color-b-fill"/>
        <path class="dark-stroke" stroke-width="3.0" stroke-linejoin="round" stroke-linecap="butt" d="m353.29382 134.20192l0 0c0 -12.506866 10.138794 -22.645676 22.64566 -22.645676l0 0c6.006012 0 11.766022 2.3858795 16.012909 6.6327667c4.246887 4.246887 6.6327515 10.006897 6.6327515 16.012909l0 0c0 12.506851 -10.138794 22.64566 -22.64566 22.64566l0 0c-12.506866 0 -22.64566 -10.138809 -22.64566 -22.64566z" fill-rule="evenodd"/>
        <path d="m353.29382 203.53389l0 0c0 -12.506851 10.138794 -22.64566 22.64566 -22.64566l0 0c6.006012 0 11.766022 2.3858795 16.012909 6.6327515c4.246887 4.246887 6.6327515 10.006912 6.6327515 16.012909l0 0c0 12.506866 -10.138794 22.645676 -22.64566 22.645676l0 0c-12.506866 0 -22.64566 -10.138809 -22.64566 -22.645676z" fill-rule="evenodd" class="color-b-fill"/>
        <path class="dark-stroke" stroke-width="3.0" stroke-linejoin="round" stroke-linecap="butt" d="m353.29382 203.53389l0 0c0 -12.506851 10.138794 -22.64566 22.64566 -22.64566l0 0c6.006012 0 11.766022 2.3858795 16.012909 6.6327515c4.246887 4.246887 6.6327515 10.006912 6.6327515 16.012909l0 0c0 12.506866 -10.138794 22.645676 -22.64566 22.645676l0 0c-12.506866 0 -22.64566 -10.138809 -22.64566 -22.645676z" fill-rule="evenodd"/>
        <path d="m353.29382 336.4635l0 0c0 -12.506866 10.138824 -22.64566 22.64569 -22.64566l0 0c6.0059814 0 11.765991 2.3858643 16.012878 6.6327515c4.246887 4.246887 6.632782 10.006897 6.632782 16.012909l0 0c0 12.506866 -10.138824 22.64566 -22.64566 22.64566l0 0c-12.506866 0 -22.64569 -10.138794 -22.64569 -22.64566z" fill-rule="evenodd" class="color-a-fill"/>
        <path class="dark-stroke" stroke-width="3.0" stroke-linejoin="round" stroke-linecap="butt" d="m353.29382 336.4635l0 0c0 -12.506866 10.138824 -22.64566 22.64569 -22.64566l0 0c6.0059814 0 11.765991 2.3858643 16.012878 6.6327515c4.246887 4.246887 6.632782 10.006897 6.632782 16.012909l0 0c0 12.506866 -10.138824 22.64566 -22.64566 22.64566l0 0c-12.506866 0 -22.64569 -10.138794 -22.64569 -22.64566z" fill-rule="evenodd"/>
        <path d="m353.29382 405.78964l0 0c0 -12.506836 10.138824 -22.64566 22.64569 -22.64566l0 0c6.0059814 0 11.765991 2.3858948 16.012878 6.6327515c4.246887 4.246887 6.632782 10.0069275 6.632782 16.012909l0 0c0 12.506866 -10.138824 22.64569 -22.64566 22.64569l0 0c-12.506866 0 -22.64569 -10.138824 -22.64569 -22.64569z" fill-rule="evenodd" class="color-a-fill"/>
        <path class="dark-stroke" stroke-width="3.0" stroke-linejoin="round" stroke-linecap="butt" d="m353.29382 405.78964l0 0c0 -12.506836 10.138824 -22.64566 22.64569 -22.64566l0 0c6.0059814 0 11.765991 2.3858948 16.012878 6.6327515c4.246887 4.246887 6.632782 10.0069275 6.632782 16.012909l0 0c0 12.506866 -10.138824 22.64569 -22.64566 22.64569l0 0c-12.506866 0 -22.64569 -10.138824 -22.64569 -22.64569z" fill-rule="evenodd"/>
        <path d="m353.29382 475.1158l0 0c0 -12.506866 10.138824 -22.64566 22.64569 -22.64566l0 0c6.0059814 0 11.765991 2.3858643 16.012878 6.6327515c4.246887 4.246887 6.632782 10.006897 6.632782 16.012909l0 0c0 12.506866 -10.138824 22.64566 -22.64566 22.64566l0 0c-12.506866 0 -22.64569 -10.138794 -22.64569 -22.64566z" fill-rule="evenodd" class="color-a-fill"/>
        <path class="dark-stroke" stroke-width="3.0" stroke-linejoin="round" stroke-linecap="butt" d="m353.29382 475.1158l0 0c0 -12.506866 10.138824 -22.64566 22.64569 -22.64566l0 0c6.0059814 0 11.765991 2.3858643 16.012878 6.6327515c4.246887 4.246887 6.632782 10.006897 6.632782 16.012909l0 0c0 12.506866 -10.138824 22.64566 -22.64566 22.64566l0 0c-12.506866 0 -22.64569 -10.138794 -22.64569 -22.64566z" fill-rule="evenodd"/>
        <path class="dark-fill" fill-opacity="0.0" d="m353.29382 64.869934c-12.5 0 -25.007874 102.55905 -25.0 205.1181c0.007873535 102.55905 12.531494 205.1181 25.062988 205.1181" fill-rule="evenodd"/>
        <path stroke-width="2.0" stroke-linejoin="round" stroke-linecap="butt" d="m353.2938 64.869934c-12.4999695 0 -25.007843 102.55905 -24.99997 205.1181c0.0039367676 51.27951 3.1368103 102.55905 7.835144 141.01868c2.3491516 19.229828 5.089691 35.2547 8.026123 46.472076c0.73410034 2.8043518 1.4804993 5.3082275 2.236023 7.4866333c0.37780762 1.0891724 0.757843 2.0969849 1.1398621 3.0202942c0.190979 0.46166992 0.3824463 0.90219116 0.5743408 1.3211975c0.09597778 0.20950317 0.1920166 0.41363525 0.2881775 0.6123352l0.15203857 0.30514526" fill-rule="evenodd" class="dark-stroke"/>
        <path stroke-width="2.0" stroke-linecap="butt" d="m348.5455 470.2244l-3.1806946 -0.023101807l5.939636 2.8224182l-2.7358093 -5.980011z" fill-rule="evenodd" class="dark-stroke color-a-fill"/>
        <path class="dark-fill" fill-opacity="0.0" d="m353.29382 134.20192c-12.5 0 -25.007874 67.89763 -25.0 135.79527c0.007873535 67.897644 12.531494 135.79529 25.062988 135.79529" fill-rule="evenodd"/>
        <path stroke-width="2.0" stroke-linejoin="round" stroke-linecap="butt" d="m353.2938 134.20192c-12.4999695 0 -25.007843 67.89763 -24.99997 135.79527c0.0039367676 33.948822 3.1368103 67.897644 7.835144 93.35922c2.3491516 12.730804 5.089691 23.339813 8.026123 30.766113c0.73410034 1.8565979 1.4804993 3.5142517 2.236023 4.956421c0.37780762 0.72106934 0.757843 1.3882751 1.1398621 1.9995422c0.095458984 0.15280151 0.19110107 0.30212402 0.2868042 0.4479065l0.08093262 0.12008667" fill-rule="evenodd" class="dark-stroke"/>
        <path stroke-width="2.0" stroke-linecap="butt" d="m347.8987 401.64648l-3.1515503 0.4305725l6.2813416 1.9468384l-3.5603638 -5.5289307z" fill-rule="evenodd" class="dark-stroke color-a-fill"/>
        <path class="dark-fill" fill-opacity="0.0" d="m353.29382 203.53389c-12.5 0 -25.007874 33.23622 -25.0 66.47246c0.007873535 33.236206 12.531494 66.47244 25.062988 66.47244" fill-rule="evenodd"/>
        <path stroke-width="2.0" stroke-linejoin="round" stroke-linecap="butt" d="m353.2938 203.53389c-12.4999695 0 -25.007843 33.23622 -24.99997 66.47246c0.0039367676 16.618103 3.1368103 33.236206 7.835144 45.6998c2.3491516 6.231781 5.089691 11.424957 8.026123 15.06015c0.73410034 0.9088135 1.4804993 1.7202454 2.236023 2.426178c0.18890381 0.17648315 0.37835693 0.3463745 0.56832886 0.509552l0.09579468 0.080444336" fill-rule="evenodd" class="dark-stroke"/>
        <path stroke-width="2.0" stroke-linecap="butt" d="m347.05524 333.78247l-2.9526062 1.183075l6.5660706 0.36306763l-4.7965393 -4.498749z" fill-rule="evenodd" class="dark-stroke color-a-fill"/>
        <path class="dark-fill" fill-opacity="0.0" d="m353.29382 64.869934c-12.5 0 -25.007874 85.22835 -25.0 170.4567c0.007873535 85.22833 12.531494 170.4567 25.062988 170.4567" fill-rule="evenodd"/>
        <path stroke-width="2.0" stroke-linejoin="round" stroke-linecap="butt" d="m353.2938 64.869934c-12.4999695 0 -25.007843 85.22835 -24.99997 170.4567c0.0039367676 42.614166 3.1368103 85.22833 7.835144 117.188965c2.3491516 15.980316 5.089691 29.297241 8.026123 38.61908c0.73410034 2.3304749 1.4804993 4.411255 2.236023 6.2214966c0.37780762 0.90515137 0.757843 1.7426758 1.1398621 2.5099182c0.190979 0.383667 0.3824463 0.74975586 0.5743408 1.0979309l0.14193726 0.2506714" fill-rule="evenodd" class="dark-stroke"/>
        <path stroke-width="2.0" stroke-linecap="butt" d="m348.24725 401.21466l-3.1758423 0.17749023l6.1058044 2.4422913l-3.1074524 -5.795624z" fill-rule="evenodd" class="dark-stroke color-a-fill"/>
        <path class="dark-fill" fill-opacity="0.0" d="m353.29382 134.20192c-12.5 0 -25.007874 50.566925 -25.0 101.13385c0.007873535 50.56694 12.531494 101.133865 25.062988 101.133865" fill-rule="evenodd"/>
        <path stroke-width="2.0" stroke-linejoin="round" stroke-linecap="butt" d="m353.2938 134.20192c-12.4999695 0 -25.007843 50.566925 -24.99997 101.13385c0.0039367676 25.283463 3.1368103 50.56694 7.835144 69.529526c2.3491516 9.481293 5.089691 17.382385 8.026123 22.913147c0.73410034 1.3826904 1.4804993 2.617218 2.236023 3.6912842c0.18890381 0.26852417 0.37835693 0.52697754 0.56832886 0.77523804c0.09503174 0.12414551 0.19012451 0.24572754 0.2854004 0.36471558l0.25094604 0.30630493" fill-rule="evenodd" class="dark-stroke"/>
        <path stroke-width="2.0" stroke-linecap="butt" d="m347.4958 332.916l-3.0893555 0.7571411l6.450226 1.2806091l-4.1180115 -5.127136z" fill-rule="evenodd" class="dark-stroke color-a-fill"/>
        <path class="dark-fill" fill-opacity="0.0" d="m353.29382 64.869934c-12.5 0 -25.007874 67.897644 -25.0 135.79527c0.007873535 67.89763 12.531494 135.79527 25.062988 135.79527" fill-rule="evenodd"/>
        <path stroke-width="2.0" stroke-linejoin="round" stroke-linecap="butt" d="m353.2938 64.869934c-12.4999695 0 -25.007843 67.897644 -24.99997 135.79527c0.0039367676 33.948822 3.1368103 67.89763 7.835144 93.35927c2.3491516 12.730804 5.089691 23.339813 8.026123 30.766113c0.73410034 1.8565674 1.4804993 3.5142212 2.236023 4.9563904c0.37780762 0.72106934 0.757843 1.3882751 1.1398621 1.9995422c0.095458984 0.15283203 0.19110107 0.30212402 0.2868042 0.447937l0.08093262 0.12008667" fill-rule="evenodd" class="dark-stroke"/>
        <path stroke-width="2.0" stroke-linecap="butt" d="m347.8987 332.3145l-3.1515198 0.4305725l6.2813416 1.9468384l-3.5603943 -5.5289307z" fill-rule="evenodd" class="dark-stroke color-a-fill"/>
        <path class="dark-fill" fill-opacity="0.0" d="m353.29382 134.20192c-12.5 0 -25.007874 85.22835 -25.0 170.45668c0.007873535 85.22836 12.531494 170.4567 25.062988 170.4567" fill-rule="evenodd"/>
        <path stroke-width="2.0" stroke-linejoin="round" stroke-linecap="butt" d="m353.2938 134.20192c-12.4999695 0 -25.007843 85.22835 -24.99997 170.45668c0.0039367676 42.614166 3.1368103 85.22833 7.835144 117.188965c2.3491516 15.980316 5.089691 29.297241 8.026123 38.61908c0.73410034 2.3304749 1.4804993 4.411255 2.236023 6.221527c0.37780762 0.90512085 0.757843 1.7426453 1.1398621 2.5099182c0.190979 0.38363647 0.3824463 0.74975586 0.5743408 1.0979309l0.14193726 0.25064087" fill-rule="evenodd" class="dark-stroke"/>
        <path stroke-width="2.0" stroke-linecap="butt" d="m348.24725 470.54666l-3.1758423 0.17749023l6.1058044 2.4422607l-3.1074524 -5.795624z" fill-rule="evenodd" class="dark-stroke color-a-fill"/>
        <path class="dark-fill" fill-opacity="0.0" d="m353.29382 203.53389c-12.5 0 -25.007874 50.56694 -25.0 101.133865c0.007873535 50.566925 12.531494 101.13385 25.062988 101.13385" fill-rule="evenodd"/>
        <path stroke-width="2.0" stroke-linejoin="round" stroke-linecap="butt" d="m353.2938 203.53389c-12.4999695 0 -25.007843 50.56694 -24.99997 101.133865c0.0039367676 25.283447 3.1368103 50.566895 7.835144 69.52951c2.3491516 9.481293 5.089691 17.382385 8.026123 22.913147c0.73410034 1.3826904 1.4804993 2.6172485 2.236023 3.6912537c0.18890381 0.2685547 0.37835693 0.5270386 0.56832886 0.77526855c0.09503174 0.12414551 0.19012451 0.24569702 0.2854004 0.36471558l0.25094604 0.30630493" fill-rule="evenodd" class="dark-stroke"/>
        <path stroke-width="2.0" stroke-linecap="butt" d="m347.4958 402.24796l-3.0893555 0.7571411l6.450226 1.2806091l-4.1180115 -5.127136z" fill-rule="evenodd" class="dark-stroke color-a-fill"/>
        <path class="dark-fill" fill-opacity="0.0" d="m353.29382 203.53389c-12.5 0 -25.007874 67.89763 -25.0 135.79527c0.007873535 67.897644 12.531494 135.79529 25.062988 135.79529" fill-rule="evenodd"/>
        <path stroke-width="2.0" stroke-linejoin="round" stroke-linecap="butt" d="m353.2938 203.53389c-12.4999695 0 -25.007843 67.89763 -24.99997 135.79527c0.0039367676 33.94879 3.1368103 67.89761 7.835144 93.35925c2.3491516 12.730804 5.089691 23.339813 8.026123 30.766113c0.73410034 1.8565674 1.4804993 3.5142212 2.236023 4.9563904c0.37780762 0.72109985 0.757843 1.3883057 1.1398621 1.9995422c0.095458984 0.15283203 0.19110107 0.30212402 0.2868042 0.447937l0.08093262 0.12005615" fill-rule="evenodd" class="dark-stroke"/>
        <path stroke-width="2.0" stroke-linecap="butt" d="m347.8987 470.97845l-3.1515198 0.4305725l6.2813416 1.9468384l-3.5603943 -5.5289307z" fill-rule="evenodd" class="dark-stroke color-a-fill"/>
        <path class="dark-fill" fill-opacity="0.0" d="m172.32007 64.85681c45.24318 0 67.864334 0.01574707 90.48639 0.03149414c22.62204 0.01574707 45.244995 0.03149414 90.48999 0.03149414" fill-rule="evenodd"/>
        <path class="dark-stroke" stroke-width="2.0" stroke-linejoin="round" stroke-linecap="butt" d="m172.32007 64.85681c45.243195 0 67.864334 0.01574707 90.48639 0.03149414c11.311005 0.007873535 22.622253 0.01574707 36.761383 0.021652222c7.06958 0.0029525757 14.846069 0.00541687 23.683014 0.0071411133l23.191406 0.002090454" fill-rule="evenodd"/>
        <path class="dark-fill dark-stroke" stroke-width="2.0" stroke-linecap="butt" d="m346.44226 64.91919l-2.2493896 2.2489624l6.1797485 -2.2486115l-6.1793213 -2.2497253z" fill-rule="evenodd"/>
        <path class="dark-fill" fill-opacity="0.0" d="m172.32007 64.85681c45.24318 0 67.864334 17.338585 90.48639 34.677162c22.62204 17.338585 45.244995 34.677162 90.48999 34.677162" fill-rule="evenodd"/>
        <path class="dark-stroke" stroke-width="2.0" stroke-linejoin="round" stroke-linecap="butt" d="m172.32007 64.85681c45.243195 0 67.864334 17.338585 90.48639 34.677162c11.311005 8.669296 22.622253 17.338585 36.761383 23.840553c7.06958 3.2509842 14.846069 5.960144 23.683014 7.856552c4.4184875 0.9481964 9.102051 1.693222 14.09494 2.2011871c2.4964294 0.25398254 5.07016 0.44869995 7.7268066 0.57992554c0.33206177 0.016403198 0.6654358 0.031814575 1.000061 0.046218872l0.3710022 0.014801025" fill-rule="evenodd"/>
        <path class="dark-fill dark-stroke" stroke-width="2.0" stroke-linecap="butt" d="m346.44363 134.07321l-2.2939758 2.2034607l6.2235413 -2.1243591l-6.133026 -2.3730621z" fill-rule="evenodd"/>
        <path class="dark-fill" fill-opacity="0.0" d="m172.32007 64.85681c45.24318 0 67.864334 34.66929 90.48639 69.33858c22.62204 34.669296 45.244995 69.33859 90.48999 69.33859" fill-rule="evenodd"/>
        <path class="dark-stroke" stroke-width="2.0" stroke-linejoin="round" stroke-linecap="butt" d="m172.32007 64.85681c45.243195 0 67.864334 34.66929 90.48639 69.33858c11.311005 17.334656 22.622253 34.669296 36.761383 47.670288c7.06958 6.5004883 14.846069 11.917557 23.683014 15.709518c4.4184875 1.8959808 9.102051 3.3856812 14.09494 4.401367c2.4964294 0.5078583 5.07016 0.89720154 7.7268066 1.1595917c0.33206177 0.032806396 0.6654358 0.06362915 1.000061 0.092437744l0.37512207 0.029922485" fill-rule="evenodd"/>
        <path class="dark-fill dark-stroke" stroke-width="2.0" stroke-linecap="butt" d="m346.44778 203.25851l-2.337738 2.1569672l6.264923 -1.9990082l-6.084137 -2.495697z" fill-rule="evenodd"/>
        <path class="dark-fill" fill-opacity="0.0" d="m172.32007 134.1888c45.24318 0 67.864334 -17.330711 90.48639 -34.661423c22.62204 -17.330711 45.244995 -34.661415 90.48999 -34.661415" fill-rule="evenodd"/>
        <path class="dark-stroke" stroke-width="2.0" stroke-linejoin="round" stroke-linecap="butt" d="m172.32007 134.1888c45.243195 0 67.864334 -17.330711 90.48639 -34.661423c11.311005 -8.665352 22.622253 -17.330711 36.761383 -23.829727c7.06958 -3.249504 14.846069 -5.957428 23.683014 -7.852974c4.4184875 -0.9477768 9.102051 -1.6924515 14.09494 -2.2001877c2.4964294 -0.2538681 5.07016 -0.4485016 7.7268066 -0.57966614c0.33206177 -0.016395569 0.6654358 -0.031799316 1.000061 -0.046203613l0.3710022 -0.014793396" fill-rule="evenodd"/>
        <path class="dark-fill dark-stroke" stroke-width="2.0" stroke-linecap="butt" d="m346.44363 65.00382l-2.2034607 2.293953l6.133026 -2.3730087l-6.2235107 -2.1244202z" fill-rule="evenodd"/>
        <path class="dark-fill" fill-opacity="0.0" d="m172.32007 134.1888c45.24318 0 67.864334 0.01574707 90.48639 0.03149414c22.62204 0.01574707 45.244995 0.03149414 90.48999 0.03149414" fill-rule="evenodd"/>
        <path class="dark-stroke" stroke-width="2.0" stroke-linejoin="round" stroke-linecap="butt" d="m172.32007 134.1888c45.243195 0 67.864334 0.01574707 90.48639 0.03149414c11.311005 0.007873535 22.622253 0.01574707 36.761383 0.021652222c7.06958 0.0029449463 14.846069 0.00541687 23.683014 0.0071411133l23.191406 0.002090454" fill-rule="evenodd"/>
        <path class="dark-fill dark-stroke" stroke-width="2.0" stroke-linecap="butt" d="m346.44226 134.25116l-2.2493896 2.2489777l6.1797485 -2.2486115l-6.1793213 -2.2497253z" fill-rule="evenodd"/>
        <path class="dark-fill" fill-opacity="0.0" d="m172.32007 134.1888c45.24318 0 67.864334 17.338577 90.48639 34.677155c22.62204 17.338593 45.244995 34.67717 90.48999 34.67717" fill-rule="evenodd"/>
        <path class="dark-stroke" stroke-width="2.0" stroke-linejoin="round" stroke-linecap="butt" d="m172.32007 134.1888c45.243195 0 67.864334 17.338577 90.48639 34.677155c11.311005 8.669296 22.622253 17.338593 36.761383 23.84056c7.06958 3.2509766 14.846069 5.960129 23.683014 7.856537c4.4184875 0.94821167 9.102051 1.693222 14.09494 2.2011871c2.4964294 0.2539978 5.07016 0.4487152 7.7268066 0.57992554c0.33206177 0.016403198 0.6654358 0.031829834 1.000061 0.04623413l0.3710022 0.014801025" fill-rule="evenodd"/>
        <path class="dark-fill dark-stroke" stroke-width="2.0" stroke-linecap="butt" d="m346.44363 203.4052l-2.2939758 2.2034454l6.2235413 -2.1243591l-6.133026 -2.3730621z" fill-rule="evenodd"/>
        <path class="dark-fill" fill-opacity="0.0" d="m172.32007 203.52077c45.24318 0 67.864334 -34.661407 90.48639 -69.32283c22.62204 -34.661415 45.244995 -69.32284 90.48999 -69.32284" fill-rule="evenodd"/>
        <path class="dark-stroke" stroke-width="2.0" stroke-linejoin="round" stroke-linecap="butt" d="m172.32007 203.52077c45.243195 0 67.864334 -34.661407 90.48639 -69.32283c11.311005 -17.330711 22.622253 -34.661415 36.761383 -47.659447c7.06958 -6.499016 14.846069 -11.914864 23.683014 -15.7059555c4.4184875 -1.895546 9.102051 -3.384903 14.09494 -4.4003754c2.4964294 -0.5077362 5.07016 -0.8970032 7.7268066 -1.1593323c0.33206177 -0.032791138 0.6654358 -0.06359863 1.000061 -0.09240723l0.37512207 -0.029922485" fill-rule="evenodd"/>
        <path class="dark-fill dark-stroke" stroke-width="2.0" stroke-linecap="butt" d="m346.44778 65.1505l-2.1569824 2.3377228l6.0841675 -2.4956436l-6.2648926 -1.9990578z" fill-rule="evenodd"/>
        <path class="dark-fill" fill-opacity="0.0" d="m172.32007 203.52077c45.24318 0 67.864334 -17.330704 90.48639 -34.661407c22.62204 -17.330719 45.244995 -34.661423 90.48999 -34.661423" fill-rule="evenodd"/>
        <path class="dark-stroke" stroke-width="2.0" stroke-linejoin="round" stroke-linecap="butt" d="m172.32007 203.52077c45.243195 0 67.864334 -17.330704 90.48639 -34.661407c11.311005 -8.6653595 22.622253 -17.330719 36.761383 -23.829727c7.06958 -3.2495117 14.846069 -5.957428 23.683014 -7.8529816c4.4184875 -0.94776917 9.102051 -1.6924438 14.09494 -2.2001953c2.4964294 -0.25386047 5.07016 -0.44848633 7.7268066 -0.57966614c0.33206177 -0.01638794 0.6654358 -0.031784058 1.000061 -0.046188354l0.3710022 -0.014801025" fill-rule="evenodd"/>
        <path class="dark-fill dark-stroke" stroke-width="2.0" stroke-linecap="butt" d="m346.44363 134.3358l-2.2034607 2.2939453l6.133026 -2.373001l-6.2235107 -2.1244202z" fill-rule="evenodd"/>
        <path class="dark-fill" fill-opacity="0.0" d="m172.32007 203.52077c45.24318 0 67.864334 0.01574707 90.48639 0.03149414c22.62204 0.01574707 45.244995 0.0315094 90.48999 0.0315094" fill-rule="evenodd"/>
        <path class="dark-stroke" stroke-width="2.0" stroke-linejoin="round" stroke-linecap="butt" d="m172.32007 203.52077c45.243195 0 67.864334 0.01574707 90.48639 0.03149414c11.311005 0.007873535 22.622253 0.01574707 36.761383 0.02166748c7.06958 0.0029449463 14.846069 0.0054016113 23.683014 0.0071258545l23.191406 0.002090454" fill-rule="evenodd"/>
        <path class="dark-fill dark-stroke" stroke-width="2.0" stroke-linecap="butt" d="m346.44226 203.58315l-2.2493896 2.2489624l6.1797485 -2.2486115l-6.1793213 -2.2497253z" fill-rule="evenodd"/>
        <path d="m579.50116 64.88306l0 0c0 -12.506859 10.138794 -22.645668 22.64569 -22.645668l0 0c6.0059814 0 11.765991 2.3858757 16.012878 6.632763c4.246887 4.246887 6.6327515 10.006901 6.6327515 16.012905l0 0c0 12.506859 -10.138794 22.645668 -22.64563 22.645668l0 0c-12.506897 0 -22.64569 -10.138809 -22.64569 -22.645668z" fill-rule="evenodd" class="color-b-fill"/>
        <path class="dark-stroke" stroke-width="3.0" stroke-linejoin="round" stroke-linecap="butt" d="m579.50116 64.88306l0 0c0 -12.506859 10.138794 -22.645668 22.64569 -22.645668l0 0c6.0059814 0 11.765991 2.3858757 16.012878 6.632763c4.246887 4.246887 6.6327515 10.006901 6.6327515 16.012905l0 0c0 12.506859 -10.138794 22.645668 -22.64563 22.645668l0 0c-12.506897 0 -22.64569 -10.138809 -22.64569 -22.645668z" fill-rule="evenodd"/>
        <path d="m579.50116 134.21504l0 0c0 -12.506859 10.138794 -22.645676 22.64569 -22.645676l0 0c6.0059814 0 11.765991 2.3858795 16.012878 6.6327667c4.246887 4.246887 6.6327515 10.006897 6.6327515 16.012909l0 0c0 12.506851 -10.138794 22.64566 -22.64563 22.64566l0 0c-12.506897 0 -22.64569 -10.138809 -22.64569 -22.64566z" fill-rule="evenodd" class="color-b-fill"/>
        <path class="dark-stroke" stroke-width="3.0" stroke-linejoin="round" stroke-linecap="butt" d="m579.50116 134.21504l0 0c0 -12.506859 10.138794 -22.645676 22.64569 -22.645676l0 0c6.0059814 0 11.765991 2.3858795 16.012878 6.6327667c4.246887 4.246887 6.6327515 10.006897 6.6327515 16.012909l0 0c0 12.506851 -10.138794 22.64566 -22.64563 22.64566l0 0c-12.506897 0 -22.64569 -10.138809 -22.64569 -22.64566z" fill-rule="evenodd"/>
        <path d="m579.50116 203.54701l0 0c0 -12.506851 10.138794 -22.64566 22.64569 -22.64566l0 0c6.0059814 0 11.765991 2.3858795 16.012878 6.6327667c4.246887 4.246887 6.6327515 10.006897 6.6327515 16.012894l0 0c0 12.506866 -10.138794 22.645676 -22.64563 22.645676l0 0c-12.506897 0 -22.64569 -10.138809 -22.64569 -22.645676z" fill-rule="evenodd" class="color-b-fill"/>
        <path class="dark-stroke" stroke-width="3.0" stroke-linejoin="round" stroke-linecap="butt" d="m579.50116 203.54701l0 0c0 -12.506851 10.138794 -22.64566 22.64569 -22.64566l0 0c6.0059814 0 11.765991 2.3858795 16.012878 6.6327667c4.246887 4.246887 6.6327515 10.006897 6.6327515 16.012894l0 0c0 12.506866 -10.138794 22.645676 -22.64563 22.645676l0 0c-12.506897 0 -22.64569 -10.138809 -22.64569 -22.645676z" fill-rule="evenodd"/>
        <path d="m579.50116 336.47662l0 0c0 -12.506866 10.138855 -22.64566 22.64569 -22.64566l0 0c6.0059814 0 11.765991 2.3858643 16.012878 6.6327515c4.246887 4.246887 6.6328125 10.006897 6.6328125 16.012909l0 0c0 12.506866 -10.138855 22.64566 -22.64569 22.64566l0 0c-12.506836 0 -22.64569 -10.138794 -22.64569 -22.64566z" fill-rule="evenodd" class="color-a-fill"/>
        <path class="dark-stroke" stroke-width="3.0" stroke-linejoin="round" stroke-linecap="butt" d="m579.50116 336.47662l0 0c0 -12.506866 10.138855 -22.64566 22.64569 -22.64566l0 0c6.0059814 0 11.765991 2.3858643 16.012878 6.6327515c4.246887 4.246887 6.6328125 10.006897 6.6328125 16.012909l0 0c0 12.506866 -10.138855 22.64566 -22.64569 22.64566l0 0c-12.506836 0 -22.64569 -10.138794 -22.64569 -22.64566z" fill-rule="evenodd"/>
        <path d="m579.50116 405.80276l0 0c0 -12.506836 10.138855 -22.64566 22.64569 -22.64566l0 0c6.0059814 0 11.765991 2.3858948 16.012878 6.632782c4.246887 4.246887 6.6328125 10.006897 6.6328125 16.012878l0 0c0 12.506866 -10.138855 22.64569 -22.64569 22.64569l0 0c-12.506836 0 -22.64569 -10.138824 -22.64569 -22.64569z" fill-rule="evenodd" class="color-a-fill"/>
        <path class="dark-stroke" stroke-width="3.0" stroke-linejoin="round" stroke-linecap="butt" d="m579.50116 405.80276l0 0c0 -12.506836 10.138855 -22.64566 22.64569 -22.64566l0 0c6.0059814 0 11.765991 2.3858948 16.012878 6.632782c4.246887 4.246887 6.6328125 10.006897 6.6328125 16.012878l0 0c0 12.506866 -10.138855 22.64569 -22.64569 22.64569l0 0c-12.506836 0 -22.64569 -10.138824 -22.64569 -22.64569z" fill-rule="evenodd"/>
        <path d="m579.50116 475.12894l0 0c0 -12.506866 10.138855 -22.64566 22.64569 -22.64566l0 0c6.0059814 0 11.765991 2.3858643 16.012878 6.6327515c4.246887 4.246887 6.6328125 10.006897 6.6328125 16.012909l0 0c0 12.506866 -10.138855 22.64566 -22.64569 22.64566l0 0c-12.506836 0 -22.64569 -10.138794 -22.64569 -22.64566z" fill-rule="evenodd" class="color-a-fill"/>
        <path class="dark-stroke" stroke-width="3.0" stroke-linejoin="round" stroke-linecap="butt" d="m579.50116 475.12894l0 0c0 -12.506866 10.138855 -22.64566 22.64569 -22.64566l0 0c6.0059814 0 11.765991 2.3858643 16.012878 6.6327515c4.246887 4.246887 6.6328125 10.006897 6.6328125 16.012909l0 0c0 12.506866 -10.138855 22.64566 -22.64569 22.64566l0 0c-12.506836 0 -22.64569 -10.138794 -22.64569 -22.64566z" fill-rule="evenodd"/>
        <path class="dark-fill" fill-opacity="0.0" d="m579.50116 64.88306c-12.5 0 -25.007874 102.55905 -25.0 205.1181c0.007873535 102.55905 12.531494 205.1181 25.062988 205.1181" fill-rule="evenodd"/>
        <path stroke-width="2.0" stroke-linejoin="round" stroke-linecap="butt" d="m579.50116 64.88306c-12.5 0 -25.007874 102.55905 -25.0 205.1181c0.00390625 51.27951 3.1367798 102.55905 7.835144 141.01868c2.349121 19.229828 5.0896606 35.2547 8.026123 46.472076c0.73413086 2.8043518 1.4804688 5.308258 2.236023 7.4866333c0.37774658 1.0891724 0.75787354 2.0969849 1.1398926 3.0202942c0.190979 0.46166992 0.3824463 0.90219116 0.5743408 1.3211975c0.095947266 0.20950317 0.1920166 0.41363525 0.28814697 0.6123352l0.15203857 0.30514526" fill-rule="evenodd" class="dark-stroke"/>
        <path stroke-width="2.0" stroke-linecap="butt" d="m574.75287 470.23755l-3.180725 -0.023132324l5.939636 2.8224182l-2.7358398 -5.980011z" fill-rule="evenodd" class="dark-stroke color-a-fill"/>
        <path class="dark-fill" fill-opacity="0.0" d="m579.50116 134.21504c-12.5 0 -25.007874 67.89763 -25.0 135.79527c0.007873535 67.897644 12.531494 135.79529 25.062988 135.79529" fill-rule="evenodd"/>
        <path stroke-width="2.0" stroke-linejoin="round" stroke-linecap="butt" d="m579.50116 134.21504c-12.5 0 -25.007874 67.89763 -25.0 135.79527c0.00390625 33.948822 3.1367798 67.897644 7.835144 93.35922c2.349121 12.730804 5.0896606 23.339813 8.026123 30.766113c0.73413086 1.8565979 1.4804688 3.5142517 2.236023 4.956421c0.37774658 0.72109985 0.75787354 1.3882751 1.1398926 1.9995422c0.095458984 0.15280151 0.19110107 0.30212402 0.2868042 0.4479065l0.08093262 0.12008667" fill-rule="evenodd" class="dark-stroke"/>
        <path stroke-width="2.0" stroke-linecap="butt" d="m574.106 401.6596l-3.1514893 0.4305725l6.281311 1.9468384l-3.5603638 -5.5289307z" fill-rule="evenodd" class="dark-stroke color-a-fill"/>
        <path class="dark-fill" fill-opacity="0.0" d="m579.50116 203.54701c-12.5 0 -25.007874 33.23622 -25.0 66.47246c0.007873535 33.236206 12.531494 66.47244 25.062988 66.47244" fill-rule="evenodd"/>
        <path stroke-width="2.0" stroke-linejoin="round" stroke-linecap="butt" d="m579.50116 203.54701c-12.5 0 -25.007874 33.23622 -25.0 66.47246c0.00390625 16.618103 3.1367798 33.236206 7.835144 45.6998c2.349121 6.231781 5.0896606 11.424957 8.026123 15.06015c0.73413086 0.9088135 1.4804688 1.7202454 2.236023 2.426178c0.18890381 0.17648315 0.37835693 0.3463745 0.5683594 0.509552l0.09576416 0.080444336" fill-rule="evenodd" class="dark-stroke"/>
        <path stroke-width="2.0" stroke-linecap="butt" d="m573.2626 333.79562l-2.9525757 1.1830444l6.56604 0.36306763l-4.796509 -4.4987183z" fill-rule="evenodd" class="dark-stroke color-a-fill"/>
        <path class="dark-fill" fill-opacity="0.0" d="m579.50116 64.88306c-12.5 0 -25.007874 85.22835 -25.0 170.4567c0.007873535 85.22833 12.531494 170.4567 25.062988 170.4567" fill-rule="evenodd"/>
        <path stroke-width="2.0" stroke-linejoin="round" stroke-linecap="butt" d="m579.50116 64.88306c-12.5 0 -25.007874 85.22835 -25.0 170.4567c0.00390625 42.614166 3.1367798 85.22833 7.835144 117.188965c2.349121 15.980316 5.0896606 29.297241 8.026123 38.61908c0.73413086 2.3304749 1.4804688 4.411255 2.236023 6.2214966c0.37774658 0.90515137 0.75787354 1.7426758 1.1398926 2.5099182c0.190979 0.383667 0.3824463 0.74975586 0.5743408 1.0979309l0.14190674 0.2506714" fill-rule="evenodd" class="dark-stroke"/>
        <path stroke-width="2.0" stroke-linecap="butt" d="m574.4546 401.2278l-3.1758423 0.17749023l6.105774 2.4422607l-3.1074219 -5.795624z" fill-rule="evenodd" class="dark-stroke color-a-fill"/>
        <path class="dark-fill" fill-opacity="0.0" d="m579.50116 134.21504c-12.5 0 -25.007874 50.566925 -25.0 101.13385c0.007873535 50.56694 12.531494 101.133865 25.062988 101.133865" fill-rule="evenodd"/>
        <path stroke-width="2.0" stroke-linejoin="round" stroke-linecap="butt" d="m579.50116 134.21504c-12.5 0 -25.007874 50.566925 -25.0 101.13385c0.00390625 25.283463 3.1367798 50.56694 7.835144 69.529526c2.349121 9.481293 5.0896606 17.382385 8.026123 22.913147c0.73413086 1.3826904 1.4804688 2.617218 2.236023 3.6912842c0.18890381 0.26852417 0.37835693 0.52700806 0.5683594 0.77523804c0.0949707 0.12414551 0.19012451 0.24572754 0.2854004 0.36471558l0.25091553 0.30630493" fill-rule="evenodd" class="dark-stroke"/>
        <path stroke-width="2.0" stroke-linecap="butt" d="m573.7031 332.9291l-3.0893555 0.75717163l6.4502563 1.2805786l-4.118042 -5.1271057z" fill-rule="evenodd" class="dark-stroke color-a-fill"/>
        <path class="dark-fill" fill-opacity="0.0" d="m579.50116 64.88306c-12.5 0 -25.007874 67.897644 -25.0 135.79527c0.007873535 67.89763 12.531494 135.79527 25.062988 135.79527" fill-rule="evenodd"/>
        <path stroke-width="2.0" stroke-linejoin="round" stroke-linecap="butt" d="m579.50116 64.88306c-12.5 0 -25.007874 67.897644 -25.0 135.79527c0.00390625 33.948822 3.1367798 67.89763 7.835144 93.35927c2.349121 12.730804 5.0896606 23.339813 8.026123 30.766113c0.73413086 1.8565674 1.4804688 3.5142212 2.236023 4.9563904c0.37774658 0.72106934 0.75787354 1.3882751 1.1398926 1.9995422c0.095458984 0.15283203 0.19110107 0.30212402 0.2868042 0.447937l0.08093262 0.12008667" fill-rule="evenodd" class="dark-stroke"/>
        <path stroke-width="2.0" stroke-linecap="butt" d="m574.106 332.32767l-3.1514893 0.4305725l6.281311 1.9468079l-3.5603638 -5.5289z" fill-rule="evenodd" class="dark-stroke color-a-fill"/>
        <path class="dark-fill" fill-opacity="0.0" d="m579.50116 134.21504c-12.5 0 -25.007874 85.22835 -25.0 170.45668c0.007873535 85.22836 12.531494 170.4567 25.062988 170.4567" fill-rule="evenodd"/>
        <path stroke-width="2.0" stroke-linejoin="round" stroke-linecap="butt" d="m579.50116 134.21504c-12.5 0 -25.007874 85.22835 -25.0 170.45668c0.00390625 42.614166 3.1367798 85.22833 7.835144 117.188965c2.349121 15.980316 5.0896606 29.297241 8.026123 38.61908c0.73413086 2.3304749 1.4804688 4.411255 2.236023 6.221527c0.37774658 0.90512085 0.75787354 1.7426453 1.1398926 2.5099182c0.190979 0.38363647 0.3824463 0.74975586 0.5743408 1.0979309l0.14190674 0.25064087" fill-rule="evenodd" class="dark-stroke"/>
        <path stroke-width="2.0" stroke-linecap="butt" d="m574.4546 470.55978l-3.1758423 0.17749023l6.105774 2.4422913l-3.1074219 -5.795624z" fill-rule="evenodd" class="dark-stroke color-a-fill"/>
        <path class="dark-fill" fill-opacity="0.0" d="m579.50116 203.54701c-12.5 0 -25.007874 50.56694 -25.0 101.133865c0.007873535 50.566925 12.531494 101.13385 25.062988 101.13385" fill-rule="evenodd"/>
        <path stroke-width="2.0" stroke-linejoin="round" stroke-linecap="butt" d="m579.50116 203.54701c-12.5 0 -25.007874 50.56694 -25.0 101.133865c0.00390625 25.283447 3.1367798 50.566895 7.835144 69.52951c2.349121 9.481293 5.0896606 17.382385 8.026123 22.913147c0.73413086 1.3826904 1.4804688 2.6172485 2.236023 3.6912537c0.18890381 0.2685547 0.37835693 0.5270386 0.5683594 0.77526855c0.0949707 0.12414551 0.19012451 0.24569702 0.2854004 0.36471558l0.25091553 0.30630493" fill-rule="evenodd" class="dark-stroke"/>
        <path stroke-width="2.0" stroke-linecap="butt" d="m573.7031 402.26108l-3.0893555 0.7571411l6.4502563 1.2806091l-4.118042 -5.127136z" fill-rule="evenodd" class="dark-stroke color-a-fill"/>
        <path class="dark-fill" fill-opacity="0.0" d="m579.50116 203.54701c-12.5 0 -25.007874 67.89763 -25.0 135.79527c0.007873535 67.897644 12.531494 135.79529 25.062988 135.79529" fill-rule="evenodd"/>
        <path stroke-width="2.0" stroke-linejoin="round" stroke-linecap="butt" d="m579.50116 203.54701c-12.5 0 -25.007874 67.89763 -25.0 135.79527c0.00390625 33.948822 3.1367798 67.89761 7.835144 93.35925c2.349121 12.730804 5.0896606 23.339813 8.026123 30.766113c0.73413086 1.8565674 1.4804688 3.5142212 2.236023 4.9563904c0.37774658 0.72109985 0.75787354 1.3883057 1.1398926 1.9995422c0.095458984 0.15283203 0.19110107 0.30212402 0.2868042 0.447937l0.08093262 0.12008667" fill-rule="evenodd" class="dark-stroke"/>
        <path stroke-width="2.0" stroke-linecap="butt" d="m574.106 470.9916l-3.1514893 0.4305725l6.281311 1.9468079l-3.5603638 -5.5289307z" fill-rule="evenodd" class="dark-stroke color-a-fill"/>
        <path class="dark-fill" fill-opacity="0.0" d="m398.52478 64.82007c45.24411 0 67.86615 0.01574707 90.48819 0.03149414c22.62207 0.01574707 45.24411 0.03149414 90.48819 0.03149414" fill-rule="evenodd"/>
        <path class="dark-stroke" stroke-width="2.0" stroke-linejoin="round" stroke-linecap="butt" d="m398.52478 64.82007c45.24408 0 67.86612 0.01574707 90.48819 0.03149414c11.311005 0.007873535 22.62204 0.01574707 36.760834 0.021652222c7.069397 0.0029525757 14.845703 0.00541687 23.682434 0.007133484l23.190735 0.0020980835" fill-rule="evenodd"/>
        <path class="dark-fill dark-stroke" stroke-width="2.0" stroke-linecap="butt" d="m572.647 64.88244l-2.2493896 2.24897l6.1797485 -2.2486115l-6.1793213 -2.2497253z" fill-rule="evenodd"/>
        <path class="dark-fill" fill-opacity="0.0" d="m398.52478 64.86071c45.24411 0 67.86615 17.338577 90.48819 34.677162c22.62207 17.338585 45.24411 34.67717 90.48819 34.67717" fill-rule="evenodd"/>
        <path class="dark-stroke" stroke-width="2.0" stroke-linejoin="round" stroke-linecap="butt" d="m398.52478 64.86071c45.24408 0 67.86612 17.338577 90.48819 34.677162c11.311005 8.669289 22.62204 17.338585 36.760834 23.840553c7.069397 3.2509842 14.845703 5.9601364 23.682434 7.8565445c4.418335 0.9481964 9.101807 1.693222 14.0946045 2.2011871c2.496338 0.25398254 5.0700684 0.44869995 7.7266235 0.57992554c0.3320923 0.016403198 0.6654053 0.031814575 1.0001221 0.046218872l0.37078857 0.014801025" fill-rule="evenodd"/>
        <path class="dark-fill dark-stroke" stroke-width="2.0" stroke-linecap="butt" d="m572.6484 134.0771l-2.2940063 2.2034607l6.223572 -2.1243591l-6.1330566 -2.3730774z" fill-rule="evenodd"/>
        <path class="dark-fill" fill-opacity="0.0" d="m398.52478 64.86985c45.24411 0 67.86615 34.669296 90.48819 69.338585c22.62207 34.669296 45.24411 69.33858 90.48819 69.33858" fill-rule="evenodd"/>
        <path class="dark-stroke" stroke-width="2.0" stroke-linejoin="round" stroke-linecap="butt" d="m398.52478 64.86985c45.24408 0 67.86612 34.669296 90.48819 69.338585c11.311005 17.33464 22.62204 34.669296 36.760834 47.670273c7.069397 6.5004883 14.845703 11.917572 23.682434 15.709534c4.418335 1.8959656 9.101807 3.3856812 14.0946045 4.401367c2.496338 0.507843 5.0700684 0.89720154 7.7266235 1.1595917c0.3320923 0.032806396 0.6654053 0.06362915 1.0001221 0.092437744l0.37493896 0.029907227" fill-rule="evenodd"/>
        <path class="dark-fill dark-stroke" stroke-width="2.0" stroke-linecap="butt" d="m572.6525 203.27155l-2.3377686 2.1569672l6.2649536 -1.9990082l-6.0841675 -2.495697z" fill-rule="evenodd"/>
        <path class="dark-fill" fill-opacity="0.0" d="m398.52478 134.20589c45.24411 0 67.86615 -17.330704 90.48819 -34.661415c22.62207 -17.330704 45.24411 -34.661415 90.48819 -34.661415" fill-rule="evenodd"/>
        <path class="dark-stroke" stroke-width="2.0" stroke-linejoin="round" stroke-linecap="butt" d="m398.52478 134.20589c45.24408 0 67.86612 -17.330704 90.48819 -34.661407c11.311005 -8.6653595 22.62204 -17.330711 36.760834 -23.829727c7.069397 -3.2495117 14.845703 -5.9574356 23.682434 -7.8529816c4.418335 -0.94776917 9.101807 -1.6924515 14.0946045 -2.2001877c2.496338 -0.2538681 5.0700684 -0.44849396 7.7266235 -0.5796585c0.3320923 -0.016403198 0.6654053 -0.031806946 1.0001221 -0.046203613l0.37078857 -0.014793396" fill-rule="evenodd"/>
        <path class="dark-fill dark-stroke" stroke-width="2.0" stroke-linecap="butt" d="m572.6484 65.02093l-2.2034912 2.293953l6.1330566 -2.3730087l-6.2235107 -2.1244164z" fill-rule="evenodd"/>
        <path class="dark-fill" fill-opacity="0.0" d="m398.52478 134.15204c45.24411 0 67.86615 0.01576233 90.48819 0.0315094c22.62207 0.01574707 45.24411 0.03149414 90.48819 0.03149414" fill-rule="evenodd"/>
        <path class="dark-stroke" stroke-width="2.0" stroke-linejoin="round" stroke-linecap="butt" d="m398.52478 134.15205c45.24408 0 67.86612 0.01574707 90.48819 0.03149414c11.311005 0.007873535 22.62204 0.01574707 36.760834 0.021652222c7.069397 0.0029449463 14.845703 0.0054016113 23.682434 0.0071258545l23.190735 0.002090454" fill-rule="evenodd"/>
        <path class="dark-fill dark-stroke" stroke-width="2.0" stroke-linecap="butt" d="m572.647 134.21442l-2.2493896 2.2489624l6.1797485 -2.2485962l-6.1793213 -2.2497253z" fill-rule="evenodd"/>
        <path class="dark-fill" fill-opacity="0.0" d="m398.52478 134.19269c45.24411 0 67.86615 17.338577 90.48819 34.67717c22.62207 17.338577 45.24411 34.677155 90.48819 34.677155" fill-rule="evenodd"/>
        <path class="dark-stroke" stroke-width="2.0" stroke-linejoin="round" stroke-linecap="butt" d="m398.52478 134.19269c45.24408 0 67.86612 17.338577 90.48819 34.67717c11.311005 8.669281 22.62204 17.338577 36.760834 23.840546c7.069397 3.2509918 14.845703 5.960144 23.682434 7.856552c4.418335 0.9481964 9.101807 1.693222 14.0946045 2.2011719c2.496338 0.2539978 5.0700684 0.4487152 7.7266235 0.57992554c0.3320923 0.016403198 0.6654053 0.031829834 1.0001221 0.04624939l0.37078857 0.014770508" fill-rule="evenodd"/>
        <path class="dark-fill dark-stroke" stroke-width="2.0" stroke-linecap="butt" d="m572.6484 203.40909l-2.2940063 2.2034454l6.223572 -2.1243591l-6.1330566 -2.3730621z" fill-rule="evenodd"/>
        <path class="dark-fill" fill-opacity="0.0" d="m398.52478 203.52873c45.24411 0 67.86615 -34.661423 90.48819 -69.322845c22.62207 -34.661415 45.24411 -69.32283 90.48819 -69.32283" fill-rule="evenodd"/>
        <path class="dark-stroke" stroke-width="2.0" stroke-linejoin="round" stroke-linecap="butt" d="m398.52478 203.52873c45.24408 0 67.86612 -34.661423 90.48819 -69.322845c11.311005 -17.330704 22.62204 -34.661407 36.760834 -47.65944c7.069397 -6.499016 14.845703 -11.914864 23.682434 -15.7059555c4.418335 -1.895546 9.101807 -3.384903 14.0946045 -4.4003754c2.496338 -0.5077362 5.0700684 -0.8970032 7.7266235 -1.1593323c0.3320923 -0.032791138 0.6654053 -0.06359863 1.0001221 -0.09240723l0.37493896 -0.029914856" fill-rule="evenodd"/>
        <path class="dark-fill dark-stroke" stroke-width="2.0" stroke-linecap="butt" d="m572.6525 65.15846l-2.1569824 2.3377304l6.0841675 -2.4956512l-6.2649536 -1.999054z" fill-rule="evenodd"/>
        <path class="dark-fill" fill-opacity="0.0" d="m398.52478 203.53787c45.24411 0 67.86615 -17.330704 90.48819 -34.661423c22.62207 -17.330704 45.24411 -34.661407 90.48819 -34.661407" fill-rule="evenodd"/>
        <path class="dark-stroke" stroke-width="2.0" stroke-linejoin="round" stroke-linecap="butt" d="m398.52478 203.53787c45.24408 0 67.86612 -17.330704 90.48819 -34.661423c11.311005 -8.665344 22.62204 -17.330704 36.760834 -23.829712c7.069397 -3.2495117 14.845703 -5.957443 23.682434 -7.8529816c4.418335 -0.94776917 9.101807 -1.6924591 14.0946045 -2.2001953c2.496338 -0.25386047 5.0700684 -0.44848633 7.7266235 -0.57966614c0.3320923 -0.01638794 0.6654053 -0.031784058 1.0001221 -0.046188354l0.37078857 -0.014801025" fill-rule="evenodd"/>
        <path class="dark-fill dark-stroke" stroke-width="2.0" stroke-linecap="butt" d="m572.6484 134.3529l-2.2034912 2.2939606l6.1330566 -2.3730164l-6.2235107 -2.1244202z" fill-rule="evenodd"/>
        <path class="dark-fill" fill-opacity="0.0" d="m398.52478 203.48402c45.24411 0 67.86615 0.01574707 90.48819 0.03149414c22.62207 0.01574707 45.24411 0.03149414 90.48819 0.03149414" fill-rule="evenodd"/>
        <path class="dark-stroke" stroke-width="2.0" stroke-linejoin="round" stroke-linecap="butt" d="m398.52478 203.48402c45.24408 0 67.86612 0.01574707 90.48819 0.03149414c11.311005 0.007873535 22.62204 0.01574707 36.760834 0.021652222c7.069397 0.002960205 14.845703 0.00541687 23.682434 0.0071411133l23.190735 0.002090454" fill-rule="evenodd"/>
        <path class="dark-fill dark-stroke" stroke-width="2.0" stroke-linecap="butt" d="m572.647 203.5464l-2.2493896 2.2489624l6.1797485 -2.2486115l-6.1793213 -2.2497253z" fill-rule="evenodd"/>
        <path d="m805.6455 64.89618l0 0c0 -12.506855 10.138855 -22.645668 22.64569 -22.645668l0 0c6.0059814 0 11.765991 2.3858757 16.012878 6.632763c4.246887 4.246887 6.6328125 10.006901 6.6328125 16.012905l0 0c0 12.506859 -10.138855 22.645668 -22.64569 22.645668l0 0c-12.506836 0 -22.64569 -10.138809 -22.64569 -22.645668z" fill-rule="evenodd" class="color-b-fill"/>
        <path class="dark-stroke" stroke-width="3.0" stroke-linejoin="round" stroke-linecap="butt" d="m805.6455 64.89618l0 0c0 -12.506855 10.138855 -22.645668 22.64569 -22.645668l0 0c6.0059814 0 11.765991 2.3858757 16.012878 6.632763c4.246887 4.246887 6.6328125 10.006901 6.6328125 16.012905l0 0c0 12.506859 -10.138855 22.645668 -22.64569 22.645668l0 0c-12.506836 0 -22.64569 -10.138809 -22.64569 -22.645668z" fill-rule="evenodd"/>
        <path d="m805.6455 134.22816l0 0c0 -12.506859 10.138855 -22.645676 22.64569 -22.645676l0 0c6.0059814 0 11.765991 2.3858795 16.012878 6.6327667c4.246887 4.246887 6.6328125 10.006897 6.6328125 16.012909l0 0c0 12.506851 -10.138855 22.64566 -22.64569 22.64566l0 0c-12.506836 0 -22.64569 -10.138809 -22.64569 -22.64566z" fill-rule="evenodd" class="color-b-fill"/>
        <path class="dark-stroke" stroke-width="3.0" stroke-linejoin="round" stroke-linecap="butt" d="m805.6455 134.22816l0 0c0 -12.506859 10.138855 -22.645676 22.64569 -22.645676l0 0c6.0059814 0 11.765991 2.3858795 16.012878 6.6327667c4.246887 4.246887 6.6328125 10.006897 6.6328125 16.012909l0 0c0 12.506851 -10.138855 22.64566 -22.64569 22.64566l0 0c-12.506836 0 -22.64569 -10.138809 -22.64569 -22.64566z" fill-rule="evenodd"/>
        <path d="m805.6455 203.56013l0 0c0 -12.506851 10.138855 -22.64566 22.64569 -22.64566l0 0c6.0059814 0 11.765991 2.3858795 16.012878 6.6327667c4.246887 4.246887 6.6328125 10.006897 6.6328125 16.012894l0 0c0 12.506866 -10.138855 22.645676 -22.64569 22.645676l0 0c-12.506836 0 -22.64569 -10.138809 -22.64569 -22.645676z" fill-rule="evenodd" class="color-b-fill"/>
        <path class="dark-stroke" stroke-width="3.0" stroke-linejoin="round" stroke-linecap="butt" d="m805.6455 203.56013l0 0c0 -12.506851 10.138855 -22.64566 22.64569 -22.64566l0 0c6.0059814 0 11.765991 2.3858795 16.012878 6.6327667c4.246887 4.246887 6.6328125 10.006897 6.6328125 16.012894l0 0c0 12.506866 -10.138855 22.645676 -22.64569 22.645676l0 0c-12.506836 0 -22.64569 -10.138809 -22.64569 -22.645676z" fill-rule="evenodd"/>
        <path d="m805.6455 336.48975l0 0c0 -12.506866 10.138855 -22.64566 22.64569 -22.64566l0 0c6.0059814 0 11.766052 2.3858643 16.01294 6.6327515c4.246887 4.246887 6.6327515 10.006897 6.6327515 16.012909l0 0c0 12.506866 -10.138855 22.64566 -22.64569 22.64566l0 0c-12.506836 0 -22.64569 -10.138794 -22.64569 -22.64566z" fill-rule="evenodd" class="color-a-fill"/>
        <path class="dark-stroke" stroke-width="3.0" stroke-linejoin="round" stroke-linecap="butt" d="m805.6455 336.48975l0 0c0 -12.506866 10.138855 -22.64566 22.64569 -22.64566l0 0c6.0059814 0 11.766052 2.3858643 16.01294 6.6327515c4.246887 4.246887 6.6327515 10.006897 6.6327515 16.012909l0 0c0 12.506866 -10.138855 22.64566 -22.64569 22.64566l0 0c-12.506836 0 -22.64569 -10.138794 -22.64569 -22.64566z" fill-rule="evenodd"/>
        <path d="m805.6455 405.8159l0 0c0 -12.506836 10.138855 -22.64566 22.64569 -22.64566l0 0c6.0059814 0 11.766052 2.3858948 16.01294 6.632782c4.246887 4.246887 6.6327515 10.006897 6.6327515 16.012878l0 0c0 12.506866 -10.138855 22.64569 -22.64569 22.64569l0 0c-12.506836 0 -22.64569 -10.138824 -22.64569 -22.64569z" fill-rule="evenodd" class="color-a-fill"/>
        <path class="dark-stroke" stroke-width="3.0" stroke-linejoin="round" stroke-linecap="butt" d="m805.6455 405.8159l0 0c0 -12.506836 10.138855 -22.64566 22.64569 -22.64566l0 0c6.0059814 0 11.766052 2.3858948 16.01294 6.632782c4.246887 4.246887 6.6327515 10.006897 6.6327515 16.012878l0 0c0 12.506866 -10.138855 22.64569 -22.64569 22.64569l0 0c-12.506836 0 -22.64569 -10.138824 -22.64569 -22.64569z" fill-rule="evenodd"/>
        <path d="m805.6455 475.14206l0 0c0 -12.506866 10.138855 -22.64566 22.64569 -22.64566l0 0c6.0059814 0 11.766052 2.3858643 16.01294 6.6327515c4.246887 4.246887 6.6327515 10.006897 6.6327515 16.012909l0 0c0 12.506866 -10.138855 22.64566 -22.64569 22.64566l0 0c-12.506836 0 -22.64569 -10.138794 -22.64569 -22.64566z" fill-rule="evenodd" class="color-a-fill"/>
        <path class="dark-stroke" stroke-width="3.0" stroke-linejoin="round" stroke-linecap="butt" d="m805.6455 475.14206l0 0c0 -12.506866 10.138855 -22.64566 22.64569 -22.64566l0 0c6.0059814 0 11.766052 2.3858643 16.01294 6.6327515c4.246887 4.246887 6.6327515 10.006897 6.6327515 16.012909l0 0c0 12.506866 -10.138855 22.64566 -22.64569 22.64566l0 0c-12.506836 0 -22.64569 -10.138794 -22.64569 -22.64566z" fill-rule="evenodd"/>
        <path class="dark-fill" fill-opacity="0.0" d="m805.6455 64.89618c-12.5 0 -25.007874 102.55905 -25.0 205.1181c0.007873535 102.55905 12.531494 205.11813 25.062988 205.11813" fill-rule="evenodd"/>
        <path stroke-width="2.0" stroke-linejoin="round" stroke-linecap="butt" d="m805.6455 64.89618c-12.5 0 -25.007874 102.55905 -25.0 205.1181c0.00390625 51.27951 3.1367798 102.55905 7.835144 141.01868c2.3491821 19.229828 5.0897217 35.2547 8.026184 46.472076c0.7340698 2.8043518 1.4804688 5.308258 2.235962 7.4866333c0.37774658 1.0891724 0.75787354 2.0969849 1.1398315 3.0202942c0.19104004 0.46166992 0.3824463 0.90219116 0.57440186 1.3211975c0.095947266 0.20950317 0.1920166 0.41363525 0.28814697 0.6123352l0.15203857 0.30517578" fill-rule="evenodd" class="dark-stroke"/>
        <path stroke-width="2.0" stroke-linecap="butt" d="m800.8972 470.25067l-3.180725 -0.023132324l5.939636 2.8224182l-2.7357788 -5.980011z" fill-rule="evenodd" class="dark-stroke color-a-fill"/>
        <path class="dark-fill" fill-opacity="0.0" d="m805.6455 134.22816c-12.5 0 -25.007874 67.89763 -25.0 135.79527c0.007873535 67.897644 12.531494 135.79529 25.062988 135.79529" fill-rule="evenodd"/>
        <path stroke-width="2.0" stroke-linejoin="round" stroke-linecap="butt" d="m805.6455 134.22816c-12.5 0 -25.007874 67.89763 -25.0 135.79527c0.00390625 33.948822 3.1367798 67.897644 7.835144 93.35922c2.3491821 12.730804 5.0897217 23.339813 8.026184 30.766113c0.7340698 1.8565979 1.4804688 3.5142517 2.235962 4.956421c0.37774658 0.72109985 0.75787354 1.3882751 1.1398315 1.9995422c0.095581055 0.15280151 0.19110107 0.30212402 0.2868042 0.4479065l0.08099365 0.12008667" fill-rule="evenodd" class="dark-stroke"/>
        <path stroke-width="2.0" stroke-linecap="butt" d="m800.2504 401.67273l-3.1515503 0.4305725l6.281372 1.9468384l-3.5604248 -5.5289307z" fill-rule="evenodd" class="dark-stroke color-a-fill"/>
        <path class="dark-fill" fill-opacity="0.0" d="m805.6455 203.56013c-12.5 0 -25.007874 33.23622 -25.0 66.47246c0.007873535 33.236206 12.531494 66.47244 25.062988 66.47244" fill-rule="evenodd"/>
        <path stroke-width="2.0" stroke-linejoin="round" stroke-linecap="butt" d="m805.6455 203.56013c-12.5 0 -25.007874 33.23622 -25.0 66.47246c0.00390625 16.618103 3.1367798 33.236206 7.835144 45.6998c2.3491821 6.231781 5.0897217 11.424957 8.026184 15.06015c0.7340698 0.9088135 1.4804688 1.7202454 2.235962 2.426178c0.18890381 0.17651367 0.37835693 0.3463745 0.5683594 0.509552l0.09576416 0.080444336" fill-rule="evenodd" class="dark-stroke"/>
        <path stroke-width="2.0" stroke-linecap="butt" d="m799.4069 333.80875l-2.9525757 1.1830444l6.566101 0.36306763l-4.79657 -4.4987183z" fill-rule="evenodd" class="dark-stroke color-a-fill"/>
        <path class="dark-fill" fill-opacity="0.0" d="m805.6455 64.89618c-12.5 0 -25.007874 85.22835 -25.0 170.4567c0.007873535 85.22833 12.531494 170.4567 25.062988 170.4567" fill-rule="evenodd"/>
        <path stroke-width="2.0" stroke-linejoin="round" stroke-linecap="butt" d="m805.6455 64.89618c-12.5 0 -25.007874 85.22835 -25.0 170.4567c0.00390625 42.614166 3.1367798 85.22833 7.835144 117.188965c2.3491821 15.980316 5.0897217 29.297241 8.026184 38.61908c0.7340698 2.3304749 1.4804688 4.411255 2.235962 6.2214966c0.37774658 0.90515137 0.75787354 1.7426758 1.1398315 2.5099182c0.19104004 0.383667 0.3824463 0.74975586 0.57440186 1.0979614l0.14196777 0.25064087" fill-rule="evenodd" class="dark-stroke"/>
        <path stroke-width="2.0" stroke-linecap="butt" d="m800.59894 401.24094l-3.1758423 0.17749023l6.105835 2.4422607l-3.107483 -5.795624z" fill-rule="evenodd" class="dark-stroke color-a-fill"/>
        <path class="dark-fill" fill-opacity="0.0" d="m805.6455 134.22816c-12.5 0 -25.007874 50.566925 -25.0 101.13385c0.007873535 50.56694 12.531494 101.133865 25.062988 101.133865" fill-rule="evenodd"/>
        <path stroke-width="2.0" stroke-linejoin="round" stroke-linecap="butt" d="m805.6455 134.22816c-12.5 0 -25.007874 50.566925 -25.0 101.13385c0.00390625 25.283463 3.1367798 50.56694 7.835144 69.529526c2.3491821 9.481293 5.0897217 17.382385 8.026184 22.913147c0.7340698 1.3826904 1.4804688 2.617218 2.235962 3.6912842c0.18890381 0.26852417 0.37835693 0.52700806 0.5683594 0.77523804c0.09503174 0.12414551 0.19006348 0.24572754 0.2854004 0.36471558l0.25097656 0.30630493" fill-rule="evenodd" class="dark-stroke"/>
        <path stroke-width="2.0" stroke-linecap="butt" d="m799.8475 332.94223l-3.0893555 0.75717163l6.4502563 1.2805786l-4.118042 -5.1271057z" fill-rule="evenodd" class="dark-stroke color-a-fill"/>
        <path class="dark-fill" fill-opacity="0.0" d="m805.6455 64.89618c-12.5 0 -25.007874 67.897644 -25.0 135.79527c0.007873535 67.89763 12.531494 135.79527 25.062988 135.79527" fill-rule="evenodd"/>
        <path stroke-width="2.0" stroke-linejoin="round" stroke-linecap="butt" d="m805.6455 64.89618c-12.5 0 -25.007874 67.897644 -25.0 135.79527c0.00390625 33.948822 3.1367798 67.89763 7.835144 93.35927c2.3491821 12.730804 5.0897217 23.339813 8.026184 30.766113c0.7340698 1.8565674 1.4804688 3.5142212 2.235962 4.9563904c0.37774658 0.72106934 0.75787354 1.3882751 1.1398315 1.9995422c0.095581055 0.15283203 0.19110107 0.30215454 0.2868042 0.447937l0.08099365 0.12008667" fill-rule="evenodd" class="dark-stroke"/>
        <path stroke-width="2.0" stroke-linecap="butt" d="m800.2504 332.3408l-3.1515503 0.4305725l6.281372 1.9468079l-3.5604248 -5.5289z" fill-rule="evenodd" class="dark-stroke color-a-fill"/>
        <path class="dark-fill" fill-opacity="0.0" d="m805.6455 134.22816c-12.5 0 -25.007874 85.22835 -25.0 170.45668c0.007873535 85.22836 12.531494 170.4567 25.062988 170.4567" fill-rule="evenodd"/>
        <path stroke-width="2.0" stroke-linejoin="round" stroke-linecap="butt" d="m805.6455 134.22816c-12.5 0 -25.007874 85.22835 -25.0 170.45668c0.00390625 42.614166 3.1367798 85.22833 7.835144 117.188965c2.3491821 15.980316 5.0897217 29.297241 8.026184 38.61911c0.7340698 2.3304443 1.4804688 4.4112244 2.235962 6.2214966c0.37774658 0.90512085 0.75787354 1.7426453 1.1398315 2.5099182c0.19104004 0.38363647 0.3824463 0.74975586 0.57440186 1.0979309l0.14196777 0.25064087" fill-rule="evenodd" class="dark-stroke"/>
        <path stroke-width="2.0" stroke-linecap="butt" d="m800.59894 470.5729l-3.1758423 0.17749023l6.105835 2.4422913l-3.107483 -5.795624z" fill-rule="evenodd" class="dark-stroke color-a-fill"/>
        <path class="dark-fill" fill-opacity="0.0" d="m805.6455 203.56013c-12.5 0 -25.007874 50.56694 -25.0 101.133865c0.007873535 50.566925 12.531494 101.13385 25.062988 101.13385" fill-rule="evenodd"/>
        <path stroke-width="2.0" stroke-linejoin="round" stroke-linecap="butt" d="m805.6455 203.56013c-12.5 0 -25.007874 50.56694 -25.0 101.133865c0.00390625 25.283447 3.1367798 50.566895 7.835144 69.52951c2.3491821 9.481293 5.0897217 17.382385 8.026184 22.913147c0.7340698 1.3826904 1.4804688 2.6172485 2.235962 3.6912537c0.18890381 0.2685547 0.37835693 0.5270386 0.5683594 0.77526855c0.09503174 0.12414551 0.19006348 0.24569702 0.2854004 0.36471558l0.25097656 0.30630493" fill-rule="evenodd" class="dark-stroke"/>
        <path stroke-width="2.0" stroke-linecap="butt" d="m799.8475 402.2742l-3.0893555 0.7571411l6.4502563 1.2806091l-4.118042 -5.127136z" fill-rule="evenodd" class="dark-stroke color-a-fill"/>
        <path class="dark-fill" fill-opacity="0.0" d="m805.6455 203.56013c-12.5 0 -25.007874 67.89766 -25.0 135.79527c0.007873535 67.897644 12.531494 135.79529 25.062988 135.79529" fill-rule="evenodd"/>
        <path stroke-width="2.0" stroke-linejoin="round" stroke-linecap="butt" d="m805.6455 203.56013c-12.5 0 -25.007874 67.89766 -25.0 135.79527c0.00390625 33.948822 3.1367798 67.89761 7.835144 93.35925c2.3491821 12.730804 5.0897217 23.339813 8.026184 30.766113c0.7340698 1.8565674 1.4804688 3.5142212 2.235962 4.9563904c0.37774658 0.72109985 0.75787354 1.3883057 1.1398315 1.9995422c0.095581055 0.15283203 0.19110107 0.30212402 0.2868042 0.447937l0.08099365 0.12008667" fill-rule="evenodd" class="dark-stroke"/>
        <path stroke-width="2.0" stroke-linecap="butt" d="m800.2504 471.00473l-3.1515503 0.4305725l6.281372 1.9468079l-3.5604248 -5.5289z" fill-rule="evenodd" class="dark-stroke color-a-fill"/>
        <path class="dark-fill" fill-opacity="0.0" d="m624.6691 64.83319c45.24414 0 67.86615 0.01574707 90.48822 0.03149414c22.62201 0.01574707 45.24408 0.03149414 90.48816 0.03149414" fill-rule="evenodd"/>
        <path class="dark-stroke" stroke-width="2.0" stroke-linejoin="round" stroke-linecap="butt" d="m624.6691 64.83319c45.24408 0 67.86615 0.01574707 90.48816 0.03149414c11.311035 0.007873535 22.62207 0.01574707 36.760864 0.021652222c7.069397 0.0029525757 14.845703 0.00541687 23.682434 0.0071411133l23.190735 0.002090454" fill-rule="evenodd"/>
        <path class="dark-fill dark-stroke" stroke-width="2.0" stroke-linecap="butt" d="m798.7913 64.89556l-2.2493286 2.24897l6.1796875 -2.2486115l-6.1793213 -2.2497253z" fill-rule="evenodd"/>
        <path class="dark-fill" fill-opacity="0.0" d="m624.6691 64.87383c45.24414 0 67.86615 17.338577 90.48822 34.677162c22.62201 17.338585 45.24408 34.67717 90.48816 34.67717" fill-rule="evenodd"/>
        <path class="dark-stroke" stroke-width="2.0" stroke-linejoin="round" stroke-linecap="butt" d="m624.6691 64.87383c45.24408 0 67.86615 17.338585 90.48816 34.677162c11.311035 8.669296 22.62207 17.338585 36.760864 23.840553c7.069397 3.2509842 14.845703 5.9601364 23.682434 7.8565445c4.418335 0.94821167 9.101868 1.693222 14.0946045 2.2011871c2.496399 0.25398254 5.0700684 0.44869995 7.7266235 0.57992554c0.33203125 0.016403198 0.6654663 0.031814575 1.0001221 0.046218872l0.37078857 0.014816284" fill-rule="evenodd"/>
        <path class="dark-fill dark-stroke" stroke-width="2.0" stroke-linecap="butt" d="m798.7927 134.09023l-2.2940063 2.2034607l6.223572 -2.1243591l-6.1329956 -2.3730621z" fill-rule="evenodd"/>
        <path class="dark-fill" fill-opacity="0.0" d="m624.6691 64.88297c45.24414 0 67.86615 34.669296 90.48822 69.338585c22.62201 34.669296 45.24408 69.33858 90.48816 69.33858" fill-rule="evenodd"/>
        <path class="dark-stroke" stroke-width="2.0" stroke-linejoin="round" stroke-linecap="butt" d="m624.6691 64.88298c45.24408 0 67.86615 34.66929 90.48816 69.33858c11.311035 17.33464 22.62207 34.669296 36.760864 47.670273c7.069397 6.5005035 14.845703 11.917572 23.682434 15.709534c4.418335 1.8959656 9.101868 3.3856812 14.0946045 4.401367c2.496399 0.507843 5.0700684 0.89720154 7.7266235 1.1595917c0.33203125 0.032806396 0.6654663 0.06362915 1.0001221 0.092437744l0.37487793 0.029907227" fill-rule="evenodd"/>
        <path class="dark-fill dark-stroke" stroke-width="2.0" stroke-linecap="butt" d="m798.7969 203.28467l-2.3377686 2.1569672l6.2649536 -1.9990082l-6.0841675 -2.495697z" fill-rule="evenodd"/>
        <path class="dark-fill" fill-opacity="0.0" d="m624.6691 134.21901c45.24414 0 67.86615 -17.330704 90.48822 -34.661415c22.62201 -17.330704 45.24408 -34.661415 90.48816 -34.661415" fill-rule="evenodd"/>
        <path class="dark-stroke" stroke-width="2.0" stroke-linejoin="round" stroke-linecap="butt" d="m624.6691 134.21901c45.24408 0 67.86615 -17.330704 90.48816 -34.661407c11.311035 -8.6653595 22.62207 -17.330711 36.760864 -23.829727c7.069397 -3.249504 14.845703 -5.957428 23.682434 -7.852974c4.418335 -0.9477768 9.101868 -1.6924591 14.0946045 -2.2001877c2.496399 -0.25387573 5.0700684 -0.4485016 7.7266235 -0.57966614c0.33203125 -0.016395569 0.6654663 -0.031806946 1.0001221 -0.046203613l0.37078857 -0.014793396" fill-rule="evenodd"/>
        <path class="dark-fill dark-stroke" stroke-width="2.0" stroke-linecap="butt" d="m798.7927 65.03405l-2.2034912 2.293953l6.1330566 -2.3730087l-6.2235107 -2.1244125z" fill-rule="evenodd"/>
        <path class="dark-fill" fill-opacity="0.0" d="m624.6691 134.16518c45.24414 0 67.86615 0.01574707 90.48822 0.03149414c22.62201 0.01574707 45.24408 0.03149414 90.48816 0.03149414" fill-rule="evenodd"/>
        <path class="dark-stroke" stroke-width="2.0" stroke-linejoin="round" stroke-linecap="butt" d="m624.6691 134.16518c45.24408 0 67.86615 0.01574707 90.48816 0.03149414c11.311035 0.007873535 22.62207 0.01574707 36.760864 0.021652222c7.069397 0.0029449463 14.845703 0.00541687 23.682434 0.0071258545l23.190735 0.002105713" fill-rule="evenodd"/>
        <path class="dark-fill dark-stroke" stroke-width="2.0" stroke-linecap="butt" d="m798.7913 134.22754l-2.2493286 2.2489624l6.1796875 -2.2485962l-6.1793213 -2.2497253z" fill-rule="evenodd"/>
        <path class="dark-fill" fill-opacity="0.0" d="m624.6691 134.20581c45.24414 0 67.86615 17.338577 90.48822 34.67717c22.62201 17.338577 45.24408 34.677155 90.48816 34.677155" fill-rule="evenodd"/>
        <path class="dark-stroke" stroke-width="2.0" stroke-linejoin="round" stroke-linecap="butt" d="m624.6691 134.20581c45.24408 0 67.86615 17.338577 90.48816 34.67717c11.311035 8.669281 22.62207 17.338577 36.760864 23.840546c7.069397 3.2509918 14.845703 5.960144 23.682434 7.856552c4.418335 0.9481964 9.101868 1.693222 14.0946045 2.2011719c2.496399 0.2539978 5.0700684 0.4487152 7.7266235 0.57992554c0.33203125 0.016403198 0.6654663 0.031829834 1.0001221 0.04624939l0.37078857 0.014785767" fill-rule="evenodd"/>
        <path class="dark-fill dark-stroke" stroke-width="2.0" stroke-linecap="butt" d="m798.7927 203.42221l-2.2940063 2.2034454l6.223572 -2.1243591l-6.1329956 -2.3730621z" fill-rule="evenodd"/>
        <path class="dark-fill" fill-opacity="0.0" d="m624.6691 203.54185c45.24414 0 67.86615 -34.661423 90.48822 -69.322845c22.62201 -34.661415 45.24408 -69.32283 90.48816 -69.32283" fill-rule="evenodd"/>
        <path class="dark-stroke" stroke-width="2.0" stroke-linejoin="round" stroke-linecap="butt" d="m624.6691 203.54185c45.24408 0 67.86615 -34.661423 90.48816 -69.322845c11.311035 -17.330704 22.62207 -34.661407 36.760864 -47.65944c7.069397 -6.499016 14.845703 -11.914864 23.682434 -15.7059555c4.418335 -1.895546 9.101868 -3.384903 14.0946045 -4.4003754c2.496399 -0.5077362 5.0700684 -0.8970032 7.7266235 -1.1593323c0.33203125 -0.032791138 0.6654663 -0.06359863 1.0001221 -0.09240723l0.37487793 -0.029914856" fill-rule="evenodd"/>
        <path class="dark-fill dark-stroke" stroke-width="2.0" stroke-linecap="butt" d="m798.7969 65.17159l-2.1569824 2.3377228l6.0841675 -2.4956512l-6.2648926 -1.999054z" fill-rule="evenodd"/>
        <path class="dark-fill" fill-opacity="0.0" d="m624.6691 203.551c45.24414 0 67.86615 -17.330704 90.48822 -34.661423c22.62201 -17.330704 45.24408 -34.661407 90.48816 -34.661407" fill-rule="evenodd"/>
        <path class="dark-stroke" stroke-width="2.0" stroke-linejoin="round" stroke-linecap="butt" d="m624.6691 203.551c45.24408 0 67.86615 -17.330704 90.48816 -34.661423c11.311035 -8.665344 22.62207 -17.330704 36.760864 -23.829712c7.069397 -3.2495117 14.845703 -5.957443 23.682434 -7.8529816c4.418335 -0.94776917 9.101868 -1.6924591 14.0946045 -2.2001953c2.496399 -0.25386047 5.0700684 -0.44848633 7.7266235 -0.57966614c0.33203125 -0.01638794 0.6654663 -0.031784058 1.0001221 -0.046188354l0.37078857 -0.014801025" fill-rule="evenodd"/>
        <path class="dark-fill dark-stroke" stroke-width="2.0" stroke-linecap="butt" d="m798.7927 134.36603l-2.2034912 2.2939606l6.1330566 -2.3730164l-6.2235107 -2.124405z" fill-rule="evenodd"/>
        <path class="dark-fill" fill-opacity="0.0" d="m624.6691 203.49715c45.24414 0 67.86615 0.01574707 90.48822 0.03149414c22.62201 0.01574707 45.24408 0.03149414 90.48816 0.03149414" fill-rule="evenodd"/>
        <path class="dark-stroke" stroke-width="2.0" stroke-linejoin="round" stroke-linecap="butt" d="m624.6691 203.49715c45.24408 0 67.86615 0.01574707 90.48816 0.03149414c11.311035 0.007873535 22.62207 0.01574707 36.760864 0.021652222c7.069397 0.002960205 14.845703 0.00541687 23.682434 0.0071411133l23.190735 0.002090454" fill-rule="evenodd"/>
        <path class="dark-fill dark-stroke" stroke-width="2.0" stroke-linecap="butt" d="m798.7913 203.55952l-2.2493286 2.2489624l6.1796875 -2.2486115l-6.1793213 -2.2497253z" fill-rule="evenodd"/>
    </g>
    <g>
        <text x="198" y="260" class="dark-fill">
            Emission
            <tspan x="198" dy="25">Probabilities</tspan>
        </text>
        <text x="480" y="25" class="dark-fill">
            Transition
            <tspan x="480" dy="25">Probabilities</tspan>
        </text>
        <text x="480" y="500" class="dark-fill">Time</text>
    </g>
</svg>