<svg xmlns:xlink="http://www.w3.org/1999/xlink" xmlns="http://www.w3.org/2000/svg" width="460.8pt" height="345.6pt" viewBox="0 0 460.8 345.6" version="1.1">
 <metadata>
  <rdf:RDF xmlns:dc="http://purl.org/dc/elements/1.1/" xmlns:cc="http://creativecommons.org/ns#" xmlns:rdf="http://www.w3.org/1999/02/22-rdf-syntax-ns#">
   <cc:Work>
    <dc:type rdf:resource="http://purl.org/dc/dcmitype/StillImage"/>
    <dc:date>2022-09-30T17:07:26.871036</dc:date>
    <dc:format>image/svg+xml</dc:format>
    <dc:creator>
     <cc:Agent>
      <dc:title>Matplotlib v3.5.3, https://matplotlib.org/</dc:title>
     </cc:Agent>
    </dc:creator>
   </cc:Work>
  </rdf:RDF>
 </metadata>
 <defs>
  <style type="text/css">*{stroke-linejoin: round; stroke-linecap: butt}</style>
 </defs>
 <g id="figure_1">
  <g id="patch_1">
   <path d="M 0 345.6  L 460.8 345.6  L 460.8 0  L 0 0  z " class="light-fill"/>
  </g>
  <g id="axes_1">
   <g id="patch_2">
    <path d="M 57.6 307.584  L 414.72 307.584  L 414.72 41.472  L 57.6 41.472  z " class="light-fill"/>
   </g>
   <g id="matplotlib.axis_1">
    <g id="xtick_1">
     <g id="line2d_1">
      <defs>
       <path id="md7a1ccaa18" d="M 0 0  L 0 3.5  " style="stroke-width: 0.8;" class="dark-stroke"/>
      </defs>
      <g>
       <use xlink:href="#md7a1ccaa18" x="73.832727" y="307.584" style="stroke-width: 0.8;" class="dark-fill dark-stroke"/>
      </g>
     </g>
     <g id="text_1">
      
      <g transform="translate(65.881165 322.182437)scale(0.1 -0.1)">
       <defs>
        <path id="DejaVuSans-30" d="M 2034 4250  Q 1547 4250 1301 3770  Q 1056 3291 1056 2328  Q 1056 1369 1301 889  Q 1547 409 2034 409  Q 2525 409 2770 889  Q 3016 1369 3016 2328  Q 3016 3291 2770 3770  Q 2525 4250 2034 4250  z M 2034 4750  Q 2819 4750 3233 4129  Q 3647 3509 3647 2328  Q 3647 1150 3233 529  Q 2819 -91 2034 -91  Q 1250 -91 836 529  Q 422 1150 422 2328  Q 422 3509 836 4129  Q 1250 4750 2034 4750  z " transform="scale(0.015625)"/>
        <path id="DejaVuSans-2e" d="M 684 794  L 1344 794  L 1344 0  L 684 0  L 684 794  z " transform="scale(0.015625)"/>
       </defs>
       <use xlink:href="#DejaVuSans-30" class="dark-fill"/>
       <use xlink:href="#DejaVuSans-2e" x="63.623047" class="dark-fill"/>
       <use xlink:href="#DejaVuSans-30" x="95.410156" class="dark-fill"/>
      </g>
     </g>
    </g>
    <g id="xtick_2">
     <g id="line2d_2">
      <g>
       <use xlink:href="#md7a1ccaa18" x="114.414545" y="307.584" style="stroke-width: 0.8;" class="dark-fill dark-stroke"/>
      </g>
     </g>
     <g id="text_2">
      
      <g transform="translate(106.462983 322.182437)scale(0.1 -0.1)">
       <defs>
        <path id="DejaVuSans-32" d="M 1228 531  L 3431 531  L 3431 0  L 469 0  L 469 531  Q 828 903 1448 1529  Q 2069 2156 2228 2338  Q 2531 2678 2651 2914  Q 2772 3150 2772 3378  Q 2772 3750 2511 3984  Q 2250 4219 1831 4219  Q 1534 4219 1204 4116  Q 875 4013 500 3803  L 500 4441  Q 881 4594 1212 4672  Q 1544 4750 1819 4750  Q 2544 4750 2975 4387  Q 3406 4025 3406 3419  Q 3406 3131 3298 2873  Q 3191 2616 2906 2266  Q 2828 2175 2409 1742  Q 1991 1309 1228 531  z " transform="scale(0.015625)"/>
        <path id="DejaVuSans-35" d="M 691 4666  L 3169 4666  L 3169 4134  L 1269 4134  L 1269 2991  Q 1406 3038 1543 3061  Q 1681 3084 1819 3084  Q 2600 3084 3056 2656  Q 3513 2228 3513 1497  Q 3513 744 3044 326  Q 2575 -91 1722 -91  Q 1428 -91 1123 -41  Q 819 9 494 109  L 494 744  Q 775 591 1075 516  Q 1375 441 1709 441  Q 2250 441 2565 725  Q 2881 1009 2881 1497  Q 2881 1984 2565 2268  Q 2250 2553 1709 2553  Q 1456 2553 1204 2497  Q 953 2441 691 2322  L 691 4666  z " transform="scale(0.015625)"/>
       </defs>
       <use xlink:href="#DejaVuSans-32" class="dark-fill"/>
       <use xlink:href="#DejaVuSans-2e" x="63.623047" class="dark-fill"/>
       <use xlink:href="#DejaVuSans-35" x="95.410156" class="dark-fill"/>
      </g>
     </g>
    </g>
    <g id="xtick_3">
     <g id="line2d_3">
      <g>
       <use xlink:href="#md7a1ccaa18" x="154.996364" y="307.584" style="stroke-width: 0.8;" class="dark-fill dark-stroke"/>
      </g>
     </g>
     <g id="text_3">
      
      <g transform="translate(147.044801 322.182437)scale(0.1 -0.1)">
       <use xlink:href="#DejaVuSans-35" class="dark-fill"/>
       <use xlink:href="#DejaVuSans-2e" x="63.623047" class="dark-fill"/>
       <use xlink:href="#DejaVuSans-30" x="95.410156" class="dark-fill"/>
      </g>
     </g>
    </g>
    <g id="xtick_4">
     <g id="line2d_4">
      <g>
       <use xlink:href="#md7a1ccaa18" x="195.578182" y="307.584" style="stroke-width: 0.8;" class="dark-fill dark-stroke"/>
      </g>
     </g>
     <g id="text_4">
      
      <g transform="translate(187.626619 322.182437)scale(0.1 -0.1)">
       <defs>
        <path id="DejaVuSans-37" d="M 525 4666  L 3525 4666  L 3525 4397  L 1831 0  L 1172 0  L 2766 4134  L 525 4134  L 525 4666  z " transform="scale(0.015625)"/>
       </defs>
       <use xlink:href="#DejaVuSans-37" class="dark-fill"/>
       <use xlink:href="#DejaVuSans-2e" x="63.623047" class="dark-fill"/>
       <use xlink:href="#DejaVuSans-35" x="95.410156" class="dark-fill"/>
      </g>
     </g>
    </g>
    <g id="xtick_5">
     <g id="line2d_5">
      <g>
       <use xlink:href="#md7a1ccaa18" x="236.16" y="307.584" style="stroke-width: 0.8;" class="dark-fill dark-stroke"/>
      </g>
     </g>
     <g id="text_5">
      
      <g transform="translate(225.027188 322.182437)scale(0.1 -0.1)">
       <defs>
        <path id="DejaVuSans-31" d="M 794 531  L 1825 531  L 1825 4091  L 703 3866  L 703 4441  L 1819 4666  L 2450 4666  L 2450 531  L 3481 531  L 3481 0  L 794 0  L 794 531  z " transform="scale(0.015625)"/>
       </defs>
       <use xlink:href="#DejaVuSans-31" class="dark-fill"/>
       <use xlink:href="#DejaVuSans-30" x="63.623047" class="dark-fill"/>
       <use xlink:href="#DejaVuSans-2e" x="127.246094" class="dark-fill"/>
       <use xlink:href="#DejaVuSans-30" x="159.033203" class="dark-fill"/>
      </g>
     </g>
    </g>
    <g id="xtick_6">
     <g id="line2d_6">
      <g>
       <use xlink:href="#md7a1ccaa18" x="276.741818" y="307.584" style="stroke-width: 0.8;" class="dark-fill dark-stroke"/>
      </g>
     </g>
     <g id="text_6">
      
      <g transform="translate(265.609006 322.182437)scale(0.1 -0.1)">
       <use xlink:href="#DejaVuSans-31" class="dark-fill"/>
       <use xlink:href="#DejaVuSans-32" x="63.623047" class="dark-fill"/>
       <use xlink:href="#DejaVuSans-2e" x="127.246094" class="dark-fill"/>
       <use xlink:href="#DejaVuSans-35" x="159.033203" class="dark-fill"/>
      </g>
     </g>
    </g>
    <g id="xtick_7">
     <g id="line2d_7">
      <g>
       <use xlink:href="#md7a1ccaa18" x="317.323636" y="307.584" style="stroke-width: 0.8;" class="dark-fill dark-stroke"/>
      </g>
     </g>
     <g id="text_7">
      
      <g transform="translate(306.190824 322.182437)scale(0.1 -0.1)">
       <use xlink:href="#DejaVuSans-31" class="dark-fill"/>
       <use xlink:href="#DejaVuSans-35" x="63.623047" class="dark-fill"/>
       <use xlink:href="#DejaVuSans-2e" x="127.246094" class="dark-fill"/>
       <use xlink:href="#DejaVuSans-30" x="159.033203" class="dark-fill"/>
      </g>
     </g>
    </g>
    <g id="xtick_8">
     <g id="line2d_8">
      <g>
       <use xlink:href="#md7a1ccaa18" x="357.905455" y="307.584" style="stroke-width: 0.8;" class="dark-fill dark-stroke"/>
      </g>
     </g>
     <g id="text_8">
      
      <g transform="translate(346.772642 322.182437)scale(0.1 -0.1)">
       <use xlink:href="#DejaVuSans-31" class="dark-fill"/>
       <use xlink:href="#DejaVuSans-37" x="63.623047" class="dark-fill"/>
       <use xlink:href="#DejaVuSans-2e" x="127.246094" class="dark-fill"/>
       <use xlink:href="#DejaVuSans-35" x="159.033203" class="dark-fill"/>
      </g>
     </g>
    </g>
    <g id="xtick_9">
     <g id="line2d_9">
      <g>
       <use xlink:href="#md7a1ccaa18" x="398.487273" y="307.584" style="stroke-width: 0.8;" class="dark-fill dark-stroke"/>
      </g>
     </g>
     <g id="text_9">
      
      <g transform="translate(387.35446 322.182437)scale(0.1 -0.1)">
       <use xlink:href="#DejaVuSans-32" class="dark-fill"/>
       <use xlink:href="#DejaVuSans-30" x="63.623047" class="dark-fill"/>
       <use xlink:href="#DejaVuSans-2e" x="127.246094" class="dark-fill"/>
       <use xlink:href="#DejaVuSans-30" x="159.033203" class="dark-fill"/>
      </g>
     </g>
    </g>
    <g id="text_10">
     
     <g transform="translate(223.926406 335.860562)scale(0.1 -0.1)">
      <defs>
       <path id="DejaVuSans-54" d="M -19 4666  L 3928 4666  L 3928 4134  L 2272 4134  L 2272 0  L 1638 0  L 1638 4134  L -19 4134  L -19 4666  z " transform="scale(0.015625)"/>
       <path id="DejaVuSans-69" d="M 603 3500  L 1178 3500  L 1178 0  L 603 0  L 603 3500  z M 603 4863  L 1178 4863  L 1178 4134  L 603 4134  L 603 4863  z " transform="scale(0.015625)"/>
       <path id="DejaVuSans-6d" d="M 3328 2828  Q 3544 3216 3844 3400  Q 4144 3584 4550 3584  Q 5097 3584 5394 3201  Q 5691 2819 5691 2113  L 5691 0  L 5113 0  L 5113 2094  Q 5113 2597 4934 2840  Q 4756 3084 4391 3084  Q 3944 3084 3684 2787  Q 3425 2491 3425 1978  L 3425 0  L 2847 0  L 2847 2094  Q 2847 2600 2669 2842  Q 2491 3084 2119 3084  Q 1678 3084 1418 2786  Q 1159 2488 1159 1978  L 1159 0  L 581 0  L 581 3500  L 1159 3500  L 1159 2956  Q 1356 3278 1631 3431  Q 1906 3584 2284 3584  Q 2666 3584 2933 3390  Q 3200 3197 3328 2828  z " transform="scale(0.015625)"/>
       <path id="DejaVuSans-65" d="M 3597 1894  L 3597 1613  L 953 1613  Q 991 1019 1311 708  Q 1631 397 2203 397  Q 2534 397 2845 478  Q 3156 559 3463 722  L 3463 178  Q 3153 47 2828 -22  Q 2503 -91 2169 -91  Q 1331 -91 842 396  Q 353 884 353 1716  Q 353 2575 817 3079  Q 1281 3584 2069 3584  Q 2775 3584 3186 3129  Q 3597 2675 3597 1894  z M 3022 2063  Q 3016 2534 2758 2815  Q 2500 3097 2075 3097  Q 1594 3097 1305 2825  Q 1016 2553 972 2059  L 3022 2063  z " transform="scale(0.015625)"/>
      </defs>
      <use xlink:href="#DejaVuSans-54" class="dark-fill"/>
      <use xlink:href="#DejaVuSans-69" x="57.958984" class="dark-fill"/>
      <use xlink:href="#DejaVuSans-6d" x="85.742188" class="dark-fill"/>
      <use xlink:href="#DejaVuSans-65" x="183.154297" class="dark-fill"/>
     </g>
    </g>
   </g>
   <g id="matplotlib.axis_2">
    <g id="ytick_1">
     <g id="line2d_10">
      <defs>
       <path id="me11969e699" d="M 0 0  L -3.5 0  " style="stroke-width: 0.8;" class="dark-stroke"/>
      </defs>
      <g>
       <use xlink:href="#me11969e699" x="57.6" y="264.693894" style="stroke-width: 0.8;" class="dark-fill dark-stroke"/>
      </g>
     </g>
     <g id="text_11">
      
      <g transform="translate(37.875 268.493113)scale(0.1 -0.1)">
       <use xlink:href="#DejaVuSans-35" class="dark-fill"/>
       <use xlink:href="#DejaVuSans-30" x="63.623047" class="dark-fill"/>
      </g>
     </g>
    </g>
    <g id="ytick_2">
     <g id="line2d_11">
      <g>
       <use xlink:href="#me11969e699" x="57.6" y="213.370384" style="stroke-width: 0.8;" class="dark-fill dark-stroke"/>
      </g>
     </g>
     <g id="text_12">
      
      <g transform="translate(31.5125 217.169602)scale(0.1 -0.1)">
       <use xlink:href="#DejaVuSans-31" class="dark-fill"/>
       <use xlink:href="#DejaVuSans-30" x="63.623047" class="dark-fill"/>
       <use xlink:href="#DejaVuSans-30" x="127.246094" class="dark-fill"/>
      </g>
     </g>
    </g>
    <g id="ytick_3">
     <g id="line2d_12">
      <g>
       <use xlink:href="#me11969e699" x="57.6" y="162.046873" style="stroke-width: 0.8;" class="dark-fill dark-stroke"/>
      </g>
     </g>
     <g id="text_13">
      
      <g transform="translate(31.5125 165.846092)scale(0.1 -0.1)">
       <use xlink:href="#DejaVuSans-31" class="dark-fill"/>
       <use xlink:href="#DejaVuSans-35" x="63.623047" class="dark-fill"/>
       <use xlink:href="#DejaVuSans-30" x="127.246094" class="dark-fill"/>
      </g>
     </g>
    </g>
    <g id="ytick_4">
     <g id="line2d_13">
      <g>
       <use xlink:href="#me11969e699" x="57.6" y="110.723363" style="stroke-width: 0.8;" class="dark-fill dark-stroke"/>
      </g>
     </g>
     <g id="text_14">
      
      <g transform="translate(31.5125 114.522582)scale(0.1 -0.1)">
       <use xlink:href="#DejaVuSans-32" class="dark-fill"/>
       <use xlink:href="#DejaVuSans-30" x="63.623047" class="dark-fill"/>
       <use xlink:href="#DejaVuSans-30" x="127.246094" class="dark-fill"/>
      </g>
     </g>
    </g>
    <g id="ytick_5">
     <g id="line2d_14">
      <g>
       <use xlink:href="#me11969e699" x="57.6" y="59.399853" style="stroke-width: 0.8;" class="dark-fill dark-stroke"/>
      </g>
     </g>
     <g id="text_15">
      
      <g transform="translate(31.5125 63.199072)scale(0.1 -0.1)">
       <use xlink:href="#DejaVuSans-32" class="dark-fill"/>
       <use xlink:href="#DejaVuSans-35" x="63.623047" class="dark-fill"/>
       <use xlink:href="#DejaVuSans-30" x="127.246094" class="dark-fill"/>
      </g>
     </g>
    </g>
    <g id="text_16">
     
     <g transform="translate(25.432812 206.197531)rotate(-90)scale(0.1 -0.1)">
      <defs>
       <path id="DejaVuSans-70" d="M 1159 525  L 1159 -1331  L 581 -1331  L 581 3500  L 1159 3500  L 1159 2969  Q 1341 3281 1617 3432  Q 1894 3584 2278 3584  Q 2916 3584 3314 3078  Q 3713 2572 3713 1747  Q 3713 922 3314 415  Q 2916 -91 2278 -91  Q 1894 -91 1617 61  Q 1341 213 1159 525  z M 3116 1747  Q 3116 2381 2855 2742  Q 2594 3103 2138 3103  Q 1681 3103 1420 2742  Q 1159 2381 1159 1747  Q 1159 1113 1420 752  Q 1681 391 2138 391  Q 2594 391 2855 752  Q 3116 1113 3116 1747  z " transform="scale(0.015625)"/>
       <path id="DejaVuSans-72" d="M 2631 2963  Q 2534 3019 2420 3045  Q 2306 3072 2169 3072  Q 1681 3072 1420 2755  Q 1159 2438 1159 1844  L 1159 0  L 581 0  L 581 3500  L 1159 3500  L 1159 2956  Q 1341 3275 1631 3429  Q 1922 3584 2338 3584  Q 2397 3584 2469 3576  Q 2541 3569 2628 3553  L 2631 2963  z " transform="scale(0.015625)"/>
       <path id="DejaVuSans-61" d="M 2194 1759  Q 1497 1759 1228 1600  Q 959 1441 959 1056  Q 959 750 1161 570  Q 1363 391 1709 391  Q 2188 391 2477 730  Q 2766 1069 2766 1631  L 2766 1759  L 2194 1759  z M 3341 1997  L 3341 0  L 2766 0  L 2766 531  Q 2569 213 2275 61  Q 1981 -91 1556 -91  Q 1019 -91 701 211  Q 384 513 384 1019  Q 384 1609 779 1909  Q 1175 2209 1959 2209  L 2766 2209  L 2766 2266  Q 2766 2663 2505 2880  Q 2244 3097 1772 3097  Q 1472 3097 1187 3025  Q 903 2953 641 2809  L 641 3341  Q 956 3463 1253 3523  Q 1550 3584 1831 3584  Q 2591 3584 2966 3190  Q 3341 2797 3341 1997  z " transform="scale(0.015625)"/>
       <path id="DejaVuSans-74" d="M 1172 4494  L 1172 3500  L 2356 3500  L 2356 3053  L 1172 3053  L 1172 1153  Q 1172 725 1289 603  Q 1406 481 1766 481  L 2356 481  L 2356 0  L 1766 0  Q 1100 0 847 248  Q 594 497 594 1153  L 594 3053  L 172 3053  L 172 3500  L 594 3500  L 594 4494  L 1172 4494  z " transform="scale(0.015625)"/>
       <path id="DejaVuSans-75" d="M 544 1381  L 544 3500  L 1119 3500  L 1119 1403  Q 1119 906 1312 657  Q 1506 409 1894 409  Q 2359 409 2629 706  Q 2900 1003 2900 1516  L 2900 3500  L 3475 3500  L 3475 0  L 2900 0  L 2900 538  Q 2691 219 2414 64  Q 2138 -91 1772 -91  Q 1169 -91 856 284  Q 544 659 544 1381  z M 1991 3584  L 1991 3584  z " transform="scale(0.015625)"/>
      </defs>
      <use xlink:href="#DejaVuSans-54" class="dark-fill"/>
      <use xlink:href="#DejaVuSans-65" x="44.083984" class="dark-fill"/>
      <use xlink:href="#DejaVuSans-6d" x="105.607422" class="dark-fill"/>
      <use xlink:href="#DejaVuSans-70" x="203.019531" class="dark-fill"/>
      <use xlink:href="#DejaVuSans-65" x="266.496094" class="dark-fill"/>
      <use xlink:href="#DejaVuSans-72" x="328.019531" class="dark-fill"/>
      <use xlink:href="#DejaVuSans-61" x="369.132812" class="dark-fill"/>
      <use xlink:href="#DejaVuSans-74" x="430.412109" class="dark-fill"/>
      <use xlink:href="#DejaVuSans-75" x="469.621094" class="dark-fill"/>
      <use xlink:href="#DejaVuSans-72" x="533" class="dark-fill"/>
      <use xlink:href="#DejaVuSans-65" x="571.863281" class="dark-fill"/>
     </g>
    </g>
   </g>
   <g id="line2d_15">
    <path d="M 73.832727 295.488  L 74.319709 295.265959  L 74.806691 294.718949  L 75.456 293.502508  L 76.105309 291.753146  L 76.916945 288.85751  L 77.890909 284.413134  L 79.0272 278.009555  L 80.325818 269.269177  L 81.786764 257.893782  L 83.572364 242.222627  L 86.007273 218.686181  L 94.772945 131.704912  L 96.8832 113.750269  L 98.831127 99.019104  L 100.616727 87.248673  L 102.24 78.073871  L 103.700945 71.091808  L 104.999564 65.904527  L 106.298182 61.666565  L 107.434473 58.721025  L 108.408436 56.747094  L 109.3824 55.265067  L 110.194036 54.392649  L 111.005673 53.837315  L 111.817309 53.586261  L 112.466618 53.595333  L 113.278255 53.857001  L 114.089891 54.382808  L 115.063855 55.340537  L 116.037818 56.628531  L 117.174109 58.510677  L 118.472727 61.105884  L 120.096 64.915045  L 122.043927 70.13834  L 124.641164 77.84217  L 132.757527 102.499192  L 135.030109 108.481857  L 136.978036 113.036792  L 138.763636 116.68839  L 140.386909 119.545087  L 142.010182 121.94761  L 143.471127 123.719164  L 144.932073 125.124893  L 146.230691 126.075029  L 147.529309 126.75365  L 148.827927 127.173313  L 150.126545 127.348814  L 151.425164 127.296838  L 152.723782 127.035605  L 154.184727 126.515791  L 155.808 125.691619  L 157.5936 124.532338  L 159.703855 122.893543  L 162.463418 120.451017  L 172.365382 111.402708  L 174.962618 109.470115  L 177.2352 108.038348  L 179.507782 106.870793  L 181.618036 106.030648  L 183.728291 105.423606  L 185.838545 105.04049  L 188.111127 104.860784  L 190.546036 104.908115  L 193.143273 105.19135  L 196.065164 105.736846  L 199.798691 106.671863  L 213.596509 110.363202  L 217.492364 111.045988  L 221.225891 111.473128  L 225.121745 111.687797  L 229.342255 111.687485  L 234.3744 111.447758  L 242.003782 110.823674  L 252.555055 109.996677  L 259.3728 109.700479  L 266.352873 109.622428  L 275.280873 109.759943  L 299.954618 110.250248  L 314.401745 110.211731  L 347.354182 110.069057  L 398.487273 110.114394  L 398.487273 110.114394  " clip-path="url(#p7910aeacdc)" style="fill: none; stroke-width: 1.5; stroke-linecap: square;" class="color-c-stroke"/>
   </g>
   <g id="line2d_16">
    <path d="M 73.832727 295.488  L 74.319709 295.265974  L 74.806691 294.719077  L 75.456 293.503098  L 76.105309 291.754736  L 76.916945 288.861383  L 77.890909 284.421665  L 79.0272 278.026714  L 80.325818 269.301046  L 81.786764 257.948981  L 83.572364 242.316469  L 86.007273 218.850003  L 94.772945 132.221181  L 96.8832 114.352161  L 98.831127 99.692107  L 100.616727 87.977363  L 102.24 78.843461  L 103.700945 71.889173  L 104.999564 66.71877  L 106.298182 62.489945  L 107.434473 59.54586  L 108.408436 57.568257  L 109.3824 56.078017  L 110.194036 55.195315  L 111.005673 54.62662  L 111.817309 54.359191  L 112.466618 54.35305  L 113.278255 54.593141  L 114.089891 55.094636  L 114.901527 55.842129  L 115.875491 57.04149  L 117.011782 58.822148  L 118.3104 61.304583  L 119.771345 64.586173  L 121.556945 69.163816  L 123.829527 75.635432  L 128.050036 88.510322  L 131.783564 99.595767  L 134.218473 106.164462  L 136.328727 111.246426  L 138.276655 115.349194  L 140.062255 118.571713  L 141.685527 121.036579  L 143.146473 122.872299  L 144.607418 124.348431  L 145.906036 125.365306  L 147.204655 126.113627  L 148.503273 126.605057  L 149.801891 126.853539  L 151.100509 126.874939  L 152.399127 126.686704  L 153.860073 126.247667  L 155.483345 125.510475  L 157.268945 124.44217  L 159.3792 122.902791  L 161.976436 120.718199  L 166.846255 116.255359  L 170.904436 112.677841  L 173.664 110.525085  L 176.098909 108.888792  L 178.371491 107.615981  L 180.644073 106.603569  L 182.754327 105.899202  L 184.864582 105.416235  L 187.137164 105.129871  L 189.409745 105.064686  L 191.844655 105.20964  L 194.604218 105.595895  L 198.013091 106.31474  L 202.882909 107.600969  L 210.836945 109.705828  L 215.057455 110.577322  L 218.953309 111.153714  L 222.849164 111.498781  L 226.907345 111.628349  L 231.452509 111.542507  L 237.133964 111.200321  L 257.100218 109.806246  L 264.080291 109.658868  L 272.358982 109.717598  L 307.584 110.242546  L 379.170327 110.122822  L 398.487273 110.114311  L 398.487273 110.114311  " clip-path="url(#p7910aeacdc)" style="fill: none; stroke-width: 1.5; stroke-linecap: square;" class="color-a-stroke"/>
   </g>
   <g id="line2d_17">
    <path d="M 73.832727 295.488  L 74.319709 295.266107  L 74.806691 294.720225  L 75.456 293.508392  L 76.105309 291.769006  L 76.916945 288.896101  L 77.890909 284.498014  L 79.0272 278.180018  L 80.325818 269.585254  L 81.949091 257.118782  L 83.897018 240.213114  L 86.494255 215.557049  L 93.636655 146.68464  L 95.909236 127.287642  L 97.857164 112.36261  L 99.642764 100.253515  L 101.266036 90.643776  L 102.726982 83.172691  L 104.187927 76.82872  L 105.486545 72.12971  L 106.785164 68.298323  L 107.921455 65.637275  L 108.895418 63.852211  L 109.869382 62.507231  L 110.681018 61.709084  L 111.492655 61.191709  L 112.304291 60.942541  L 113.115927 60.948375  L 113.927564 61.195462  L 114.7392 61.669608  L 115.713164 62.517799  L 116.849455 63.859916  L 118.148073 65.80818  L 119.609018 68.454564  L 121.394618 72.220218  L 123.504873 77.225312  L 126.751418 85.575428  L 131.783564 98.500966  L 134.3808 104.539467  L 136.491055 108.925354  L 138.438982 112.487121  L 140.224582 115.30699  L 141.847855 117.48674  L 143.471127 119.297346  L 144.932073 120.614496  L 146.393018 121.643382  L 147.853964 122.395305  L 149.314909 122.884808  L 150.775855 123.12914  L 152.2368 123.147727  L 153.860073 122.929327  L 155.483345 122.488934  L 157.431273 121.712036  L 159.541527 120.625115  L 162.301091 118.93036  L 166.846255 115.81513  L 171.716073 112.558209  L 174.800291 110.757197  L 177.559855 109.397775  L 180.157091 108.365401  L 182.754327 107.58288  L 185.351564 107.046635  L 187.9488 106.74204  L 190.708364 106.646174  L 193.792582 106.7739  L 197.363782 107.160391  L 202.071273 107.916524  L 214.895127 110.098563  L 219.764945 110.633617  L 224.634764 110.937822  L 229.829236 111.029609  L 235.997673 110.904267  L 246.711273 110.415733  L 257.911855 109.990632  L 267.326836 109.867736  L 279.663709 109.952494  L 306.285382 110.174993  L 398.487273 110.11302  L 398.487273 110.11302  " clip-path="url(#p7910aeacdc)" style="fill: none; stroke-width: 1.5; stroke-linecap: square;" class="color-b-stroke"/>
   </g>
   <g id="line2d_18">
    <path d="M 73.832727 295.488  L 74.319709 295.267438  L 74.806691 294.731597  L 75.456 293.560305  L 76.105309 291.907579  L 76.916945 289.229262  L 77.890909 285.220519  L 79.0272 279.607867  L 80.488145 271.194577  L 82.273745 259.558211  L 84.870982 241.036973  L 91.688727 191.755195  L 94.285964 174.957239  L 96.558545 161.705157  L 98.6688 150.725577  L 100.616727 141.75677  L 102.402327 134.512227  L 104.187927 128.174836  L 105.8112 123.166117  L 107.434473 118.834014  L 109.057745 115.134265  L 110.681018 112.019098  L 112.141964 109.674157  L 113.602909 107.725621  L 115.063855 106.136849  L 116.5248 104.871887  L 117.985745 103.895898  L 119.446691 103.175496  L 121.069964 102.636351  L 122.693236 102.333007  L 124.478836 102.22694  L 126.426764 102.331559  L 128.699345 102.676479  L 131.621236 103.363774  L 135.841745 104.614001  L 144.445091 107.198513  L 148.827927 108.259783  L 153.048436 109.057167  L 157.431273 109.658372  L 162.138764 110.080394  L 167.657891 110.34556  L 174.637964 110.445331  L 186.000873 110.35203  L 212.460218 110.113083  L 250.931782 110.107435  L 398.487273 110.110546  L 398.487273 110.110546  " clip-path="url(#p7910aeacdc)" style="fill: none; stroke-width: 1.5; stroke-linecap: square;" class="color-a-stroke"/>
   </g>
   <g id="line2d_19">
    <path d="M 73.832727 295.488  L 74.319709 295.280415  L 74.969018 294.646049  L 75.780655 293.491821  L 77.079273 291.213752  L 80.163491 285.183269  L 85.682618 274.502054  L 90.390109 265.884323  L 95.0976 257.717798  L 99.967418 249.719907  L 104.837236 242.155369  L 109.707055 235.000705  L 114.576873 228.233707  L 119.609018 221.626104  L 124.641164 215.388119  L 129.673309 209.499076  L 134.867782 203.765387  L 140.062255 198.362472  L 145.419055 193.116973  L 150.775855 188.183254  L 156.294982 183.406555  L 161.814109 178.922108  L 167.495564 174.592184  L 173.339345 170.422621  L 179.183127 166.522674  L 185.189236 162.777021  L 191.357673 159.188854  L 197.688436 155.760303  L 204.181527 152.492495  L 210.999273 149.312752  L 217.979345 146.304301  L 225.284073 143.402854  L 232.751127 140.677188  L 240.542836 138.070643  L 248.6592 135.591562  L 257.100218 133.246208  L 266.028218 131.000034  L 275.280873 128.902018  L 285.020509 126.920808  L 295.409455 125.037198  L 306.447709 123.266567  L 318.135273 121.620166  L 330.634473 120.086747  L 344.107636 118.661819  L 358.554764 117.359206  L 374.300509 116.164417  L 391.669527 115.073546  L 398.487273 114.701192  L 398.487273 114.701192  " clip-path="url(#p7910aeacdc)" style="fill: none; stroke-width: 1.5; stroke-linecap: square;" class="color-e-stroke"/>
   </g>
   <g id="patch_3">
    <path d="M 57.6 307.584  L 57.6 41.472  " style="fill: none; stroke-width: 0.8; stroke-linejoin: miter; stroke-linecap: square;" class="dark-stroke"/>
   </g>
   <g id="patch_4">
    <path d="M 414.72 307.584  L 414.72 41.472  " style="fill: none; stroke-width: 0.8; stroke-linejoin: miter; stroke-linecap: square;" class="dark-stroke"/>
   </g>
   <g id="patch_5">
    <path d="M 57.6 307.584  L 414.72 307.584  " style="fill: none; stroke-width: 0.8; stroke-linejoin: miter; stroke-linecap: square;" class="dark-stroke"/>
   </g>
   <g id="patch_6">
    <path d="M 57.6 41.472  L 414.72 41.472  " style="fill: none; stroke-width: 0.8; stroke-linejoin: miter; stroke-linecap: square;" class="dark-stroke"/>
   </g>
   <g id="legend_1">
    <g id="patch_7">
     <path d="M 282.266875 302.584  L 407.72 302.584  Q 409.72 302.584 409.72 300.584  L 409.72 228.193375  Q 409.72 226.193375 407.72 226.193375  L 282.266875 226.193375  Q 280.266875 226.193375 280.266875 228.193375  L 280.266875 300.584  Q 280.266875 302.584 282.266875 302.584  z " style="opacity: 0.8; stroke-linejoin: miter;" class="light-fill color-d-stroke"/>
    </g>
    <g id="line2d_20">
     <path d="M 284.266875 234.291812  L 294.266875 234.291812  L 304.266875 234.291812  " style="fill: none; stroke-width: 1.5; stroke-linecap: square;" class="color-c-stroke"/>
    </g>
    <g id="text_17">
     
     <g transform="translate(312.266875 237.791812)scale(0.1 -0.1)">
      <defs>
       <path id="DejaVuSans-4b" d="M 628 4666  L 1259 4666  L 1259 2694  L 3353 4666  L 4166 4666  L 1850 2491  L 4331 0  L 3500 0  L 1259 2247  L 1259 0  L 628 0  L 628 4666  z " transform="scale(0.015625)"/>
       <path id="DejaVuSans-20" transform="scale(0.015625)"/>
       <path id="DejaVuSans-3d" d="M 678 2906  L 4684 2906  L 4684 2381  L 678 2381  L 678 2906  z M 678 1631  L 4684 1631  L 4684 1100  L 678 1100  L 678 1631  z " transform="scale(0.015625)"/>
       <path id="DejaVuSans-2c" d="M 750 794  L 1409 794  L 1409 256  L 897 -744  L 494 -744  L 750 256  L 750 794  z " transform="scale(0.015625)"/>
       <path id="DejaVuSans-64" d="M 2906 2969  L 2906 4863  L 3481 4863  L 3481 0  L 2906 0  L 2906 525  Q 2725 213 2448 61  Q 2172 -91 1784 -91  Q 1150 -91 751 415  Q 353 922 353 1747  Q 353 2572 751 3078  Q 1150 3584 1784 3584  Q 2172 3584 2448 3432  Q 2725 3281 2906 2969  z M 947 1747  Q 947 1113 1208 752  Q 1469 391 1925 391  Q 2381 391 2643 752  Q 2906 1113 2906 1747  Q 2906 2381 2643 2742  Q 2381 3103 1925 3103  Q 1469 3103 1208 2742  Q 947 2381 947 1747  z " transform="scale(0.015625)"/>
      </defs>
      <use xlink:href="#DejaVuSans-4b" class="dark-fill"/>
      <use xlink:href="#DejaVuSans-70" x="65.576172" class="dark-fill"/>
      <use xlink:href="#DejaVuSans-20" x="129.052734" class="dark-fill"/>
      <use xlink:href="#DejaVuSans-3d" x="160.839844" class="dark-fill"/>
      <use xlink:href="#DejaVuSans-20" x="244.628906" class="dark-fill"/>
      <use xlink:href="#DejaVuSans-32" x="276.416016" class="dark-fill"/>
      <use xlink:href="#DejaVuSans-2c" x="340.039062" class="dark-fill"/>
      <use xlink:href="#DejaVuSans-20" x="371.826172" class="dark-fill"/>
      <use xlink:href="#DejaVuSans-4b" x="403.613281" class="dark-fill"/>
      <use xlink:href="#DejaVuSans-64" x="469.189453" class="dark-fill"/>
      <use xlink:href="#DejaVuSans-20" x="532.666016" class="dark-fill"/>
      <use xlink:href="#DejaVuSans-3d" x="564.453125" class="dark-fill"/>
      <use xlink:href="#DejaVuSans-20" x="648.242188" class="dark-fill"/>
      <use xlink:href="#DejaVuSans-30" x="680.029297" class="dark-fill"/>
     </g>
    </g>
    <g id="line2d_21">
     <path d="M 284.266875 248.969937  L 294.266875 248.969937  L 304.266875 248.969937  " style="fill: none; stroke-width: 1.5; stroke-linecap: square;" class="color-a-stroke"/>
    </g>
    <g id="text_18">
     
     <g transform="translate(312.266875 252.469937)scale(0.1 -0.1)">
      <use xlink:href="#DejaVuSans-4b" class="dark-fill"/>
      <use xlink:href="#DejaVuSans-70" x="65.576172" class="dark-fill"/>
      <use xlink:href="#DejaVuSans-20" x="129.052734" class="dark-fill"/>
      <use xlink:href="#DejaVuSans-3d" x="160.839844" class="dark-fill"/>
      <use xlink:href="#DejaVuSans-20" x="244.628906" class="dark-fill"/>
      <use xlink:href="#DejaVuSans-32" x="276.416016" class="dark-fill"/>
      <use xlink:href="#DejaVuSans-2c" x="340.039062" class="dark-fill"/>
      <use xlink:href="#DejaVuSans-20" x="371.826172" class="dark-fill"/>
      <use xlink:href="#DejaVuSans-4b" x="403.613281" class="dark-fill"/>
      <use xlink:href="#DejaVuSans-64" x="469.189453" class="dark-fill"/>
      <use xlink:href="#DejaVuSans-20" x="532.666016" class="dark-fill"/>
      <use xlink:href="#DejaVuSans-3d" x="564.453125" class="dark-fill"/>
      <use xlink:href="#DejaVuSans-20" x="648.242188" class="dark-fill"/>
      <use xlink:href="#DejaVuSans-31" x="680.029297" class="dark-fill"/>
     </g>
    </g>
    <g id="line2d_22">
     <path d="M 284.266875 263.648062  L 294.266875 263.648062  L 304.266875 263.648062  " style="fill: none; stroke-width: 1.5; stroke-linecap: square;" class="color-b-stroke"/>
    </g>
    <g id="text_19">
     
     <g transform="translate(312.266875 267.148062)scale(0.1 -0.1)">
      <use xlink:href="#DejaVuSans-4b" class="dark-fill"/>
      <use xlink:href="#DejaVuSans-70" x="65.576172" class="dark-fill"/>
      <use xlink:href="#DejaVuSans-20" x="129.052734" class="dark-fill"/>
      <use xlink:href="#DejaVuSans-3d" x="160.839844" class="dark-fill"/>
      <use xlink:href="#DejaVuSans-20" x="244.628906" class="dark-fill"/>
      <use xlink:href="#DejaVuSans-32" x="276.416016" class="dark-fill"/>
      <use xlink:href="#DejaVuSans-2c" x="340.039062" class="dark-fill"/>
      <use xlink:href="#DejaVuSans-20" x="371.826172" class="dark-fill"/>
      <use xlink:href="#DejaVuSans-4b" x="403.613281" class="dark-fill"/>
      <use xlink:href="#DejaVuSans-64" x="469.189453" class="dark-fill"/>
      <use xlink:href="#DejaVuSans-20" x="532.666016" class="dark-fill"/>
      <use xlink:href="#DejaVuSans-3d" x="564.453125" class="dark-fill"/>
      <use xlink:href="#DejaVuSans-20" x="648.242188" class="dark-fill"/>
      <use xlink:href="#DejaVuSans-31" x="680.029297" class="dark-fill"/>
      <use xlink:href="#DejaVuSans-30" x="743.652344" class="dark-fill"/>
     </g>
    </g>
    <g id="line2d_23">
     <path d="M 284.266875 278.326188  L 294.266875 278.326188  L 304.266875 278.326188  " style="fill: none; stroke-width: 1.5; stroke-linecap: square;" class="color-a-stroke"/>
    </g>
    <g id="text_20">
     
     <g transform="translate(312.266875 281.826188)scale(0.1 -0.1)">
      <use xlink:href="#DejaVuSans-4b" class="dark-fill"/>
      <use xlink:href="#DejaVuSans-70" x="65.576172" class="dark-fill"/>
      <use xlink:href="#DejaVuSans-20" x="129.052734" class="dark-fill"/>
      <use xlink:href="#DejaVuSans-3d" x="160.839844" class="dark-fill"/>
      <use xlink:href="#DejaVuSans-20" x="244.628906" class="dark-fill"/>
      <use xlink:href="#DejaVuSans-32" x="276.416016" class="dark-fill"/>
      <use xlink:href="#DejaVuSans-2c" x="340.039062" class="dark-fill"/>
      <use xlink:href="#DejaVuSans-20" x="371.826172" class="dark-fill"/>
      <use xlink:href="#DejaVuSans-4b" x="403.613281" class="dark-fill"/>
      <use xlink:href="#DejaVuSans-64" x="469.189453" class="dark-fill"/>
      <use xlink:href="#DejaVuSans-20" x="532.666016" class="dark-fill"/>
      <use xlink:href="#DejaVuSans-3d" x="564.453125" class="dark-fill"/>
      <use xlink:href="#DejaVuSans-20" x="648.242188" class="dark-fill"/>
      <use xlink:href="#DejaVuSans-31" x="680.029297" class="dark-fill"/>
      <use xlink:href="#DejaVuSans-30" x="743.652344" class="dark-fill"/>
      <use xlink:href="#DejaVuSans-30" x="807.275391" class="dark-fill"/>
     </g>
    </g>
    <g id="line2d_24">
     <path d="M 284.266875 293.004312  L 294.266875 293.004312  L 304.266875 293.004312  " style="fill: none; stroke-width: 1.5; stroke-linecap: square;" class="color-e-stroke"/>
    </g>
    <g id="text_21">
     
     <g transform="translate(312.266875 296.504312)scale(0.1 -0.1)">
      <use xlink:href="#DejaVuSans-4b" class="dark-fill"/>
      <use xlink:href="#DejaVuSans-70" x="65.576172" class="dark-fill"/>
      <use xlink:href="#DejaVuSans-20" x="129.052734" class="dark-fill"/>
      <use xlink:href="#DejaVuSans-3d" x="160.839844" class="dark-fill"/>
      <use xlink:href="#DejaVuSans-20" x="244.628906" class="dark-fill"/>
      <use xlink:href="#DejaVuSans-32" x="276.416016" class="dark-fill"/>
      <use xlink:href="#DejaVuSans-2c" x="340.039062" class="dark-fill"/>
      <use xlink:href="#DejaVuSans-20" x="371.826172" class="dark-fill"/>
      <use xlink:href="#DejaVuSans-4b" x="403.613281" class="dark-fill"/>
      <use xlink:href="#DejaVuSans-64" x="469.189453" class="dark-fill"/>
      <use xlink:href="#DejaVuSans-20" x="532.666016" class="dark-fill"/>
      <use xlink:href="#DejaVuSans-3d" x="564.453125" class="dark-fill"/>
      <use xlink:href="#DejaVuSans-20" x="648.242188" class="dark-fill"/>
      <use xlink:href="#DejaVuSans-31" x="680.029297" class="dark-fill"/>
      <use xlink:href="#DejaVuSans-30" x="743.652344" class="dark-fill"/>
      <use xlink:href="#DejaVuSans-30" x="807.275391" class="dark-fill"/>
      <use xlink:href="#DejaVuSans-30" x="870.898438" class="dark-fill"/>
     </g>
    </g>
   </g>
  </g>
 </g>
 <defs>
  <clipPath id="p7910aeacdc">
   <rect x="57.6" y="41.472" width="357.12" height="266.112"/>
  </clipPath>
 </defs>
</svg>