<svg xmlns:xlink="http://www.w3.org/1999/xlink" xmlns="http://www.w3.org/2000/svg" width="460.8pt" height="345.6pt" viewBox="0 0 460.8 345.6" version="1.1">
 <metadata>
  <rdf:RDF xmlns:dc="http://purl.org/dc/elements/1.1/" xmlns:cc="http://creativecommons.org/ns#" xmlns:rdf="http://www.w3.org/1999/02/22-rdf-syntax-ns#">
   <cc:Work>
    <dc:type rdf:resource="http://purl.org/dc/dcmitype/StillImage"/>
    <dc:date>2022-10-01T23:05:47.246328</dc:date>
    <dc:format>image/svg+xml</dc:format>
    <dc:creator>
     <cc:Agent>
      <dc:title>Matplotlib v3.6.0, https://matplotlib.org/</dc:title>
     </cc:Agent>
    </dc:creator>
   </cc:Work>
  </rdf:RDF>
 </metadata>
 <defs>
  <style type="text/css">*{stroke-linejoin: round; stroke-linecap: butt}</style>
 </defs>
 <g id="figure_1">
  <g id="patch_1">
   <path d="M 0 345.6  L 460.8 345.6  L 460.8 0  L 0 0  z " class="light-fill"/>
  </g>
  <g id="axes_1">
   <g id="patch_2">
    <path d="M 57.6 307.584  L 414.72 307.584  L 414.72 41.472  L 57.6 41.472  z " class="light-fill"/>
   </g>
   <g id="matplotlib.axis_1">
    <g id="xtick_1">
     <g id="line2d_1">
      <defs>
       <path id="m2daf9e8527" d="M 0 0  L 0 3.5  " style="stroke-width: 0.8;" class="dark-stroke"/>
      </defs>
      <g>
       <use xlink:href="#m2daf9e8527" x="73.832727" y="307.584" style="stroke-width: 0.8;" class="dark-fill dark-stroke"/>
      </g>
     </g>
     <g id="text_1">

      <g transform="translate(70.651477 322.182437) scale(0.1 -0.1)">
       <defs>
        <path id="DejaVuSans-30" d="M 2034 4250  Q 1547 4250 1301 3770  Q 1056 3291 1056 2328  Q 1056 1369 1301 889  Q 1547 409 2034 409  Q 2525 409 2770 889  Q 3016 1369 3016 2328  Q 3016 3291 2770 3770  Q 2525 4250 2034 4250  z M 2034 4750  Q 2819 4750 3233 4129  Q 3647 3509 3647 2328  Q 3647 1150 3233 529  Q 2819 -91 2034 -91  Q 1250 -91 836 529  Q 422 1150 422 2328  Q 422 3509 836 4129  Q 1250 4750 2034 4750  z " transform="scale(0.015625)"/>
       </defs>
       <use xlink:href="#DejaVuSans-30" class="dark-fill"/>
      </g>
     </g>
    </g>
    <g id="xtick_2">
     <g id="line2d_2">
      <g>
       <use xlink:href="#m2daf9e8527" x="138.763636" y="307.584" style="stroke-width: 0.8;" class="dark-fill dark-stroke"/>
      </g>
     </g>
     <g id="text_2">

      <g transform="translate(132.401136 322.182437) scale(0.1 -0.1)">
       <defs>
        <path id="DejaVuSans-32" d="M 1228 531  L 3431 531  L 3431 0  L 469 0  L 469 531  Q 828 903 1448 1529  Q 2069 2156 2228 2338  Q 2531 2678 2651 2914  Q 2772 3150 2772 3378  Q 2772 3750 2511 3984  Q 2250 4219 1831 4219  Q 1534 4219 1204 4116  Q 875 4013 500 3803  L 500 4441  Q 881 4594 1212 4672  Q 1544 4750 1819 4750  Q 2544 4750 2975 4387  Q 3406 4025 3406 3419  Q 3406 3131 3298 2873  Q 3191 2616 2906 2266  Q 2828 2175 2409 1742  Q 1991 1309 1228 531  z " transform="scale(0.015625)"/>
       </defs>
       <use xlink:href="#DejaVuSans-32" class="dark-fill"/>
       <use xlink:href="#DejaVuSans-30" x="63.623047" class="dark-fill"/>
      </g>
     </g>
    </g>
    <g id="xtick_3">
     <g id="line2d_3">
      <g>
       <use xlink:href="#m2daf9e8527" x="203.694545" y="307.584" style="stroke-width: 0.8;" class="dark-fill dark-stroke"/>
      </g>
     </g>
     <g id="text_3">

      <g transform="translate(197.332045 322.182437) scale(0.1 -0.1)">
       <defs>
        <path id="DejaVuSans-34" d="M 2419 4116  L 825 1625  L 2419 1625  L 2419 4116  z M 2253 4666  L 3047 4666  L 3047 1625  L 3713 1625  L 3713 1100  L 3047 1100  L 3047 0  L 2419 0  L 2419 1100  L 313 1100  L 313 1709  L 2253 4666  z " transform="scale(0.015625)"/>
       </defs>
       <use xlink:href="#DejaVuSans-34" class="dark-fill"/>
       <use xlink:href="#DejaVuSans-30" x="63.623047" class="dark-fill"/>
      </g>
     </g>
    </g>
    <g id="xtick_4">
     <g id="line2d_4">
      <g>
       <use xlink:href="#m2daf9e8527" x="268.625455" y="307.584" style="stroke-width: 0.8;" class="dark-fill dark-stroke"/>
      </g>
     </g>
     <g id="text_4">

      <g transform="translate(262.262955 322.182437) scale(0.1 -0.1)">
       <defs>
        <path id="DejaVuSans-36" d="M 2113 2584  Q 1688 2584 1439 2293  Q 1191 2003 1191 1497  Q 1191 994 1439 701  Q 1688 409 2113 409  Q 2538 409 2786 701  Q 3034 994 3034 1497  Q 3034 2003 2786 2293  Q 2538 2584 2113 2584  z M 3366 4563  L 3366 3988  Q 3128 4100 2886 4159  Q 2644 4219 2406 4219  Q 1781 4219 1451 3797  Q 1122 3375 1075 2522  Q 1259 2794 1537 2939  Q 1816 3084 2150 3084  Q 2853 3084 3261 2657  Q 3669 2231 3669 1497  Q 3669 778 3244 343  Q 2819 -91 2113 -91  Q 1303 -91 875 529  Q 447 1150 447 2328  Q 447 3434 972 4092  Q 1497 4750 2381 4750  Q 2619 4750 2861 4703  Q 3103 4656 3366 4563  z " transform="scale(0.015625)"/>
       </defs>
       <use xlink:href="#DejaVuSans-36" class="dark-fill"/>
       <use xlink:href="#DejaVuSans-30" x="63.623047" class="dark-fill"/>
      </g>
     </g>
    </g>
    <g id="xtick_5">
     <g id="line2d_5">
      <g>
       <use xlink:href="#m2daf9e8527" x="333.556364" y="307.584" style="stroke-width: 0.8;" class="dark-fill dark-stroke"/>
      </g>
     </g>
     <g id="text_5">

      <g transform="translate(327.193864 322.182437) scale(0.1 -0.1)">
       <defs>
        <path id="DejaVuSans-38" d="M 2034 2216  Q 1584 2216 1326 1975  Q 1069 1734 1069 1313  Q 1069 891 1326 650  Q 1584 409 2034 409  Q 2484 409 2743 651  Q 3003 894 3003 1313  Q 3003 1734 2745 1975  Q 2488 2216 2034 2216  z M 1403 2484  Q 997 2584 770 2862  Q 544 3141 544 3541  Q 544 4100 942 4425  Q 1341 4750 2034 4750  Q 2731 4750 3128 4425  Q 3525 4100 3525 3541  Q 3525 3141 3298 2862  Q 3072 2584 2669 2484  Q 3125 2378 3379 2068  Q 3634 1759 3634 1313  Q 3634 634 3220 271  Q 2806 -91 2034 -91  Q 1263 -91 848 271  Q 434 634 434 1313  Q 434 1759 690 2068  Q 947 2378 1403 2484  z M 1172 3481  Q 1172 3119 1398 2916  Q 1625 2713 2034 2713  Q 2441 2713 2670 2916  Q 2900 3119 2900 3481  Q 2900 3844 2670 4047  Q 2441 4250 2034 4250  Q 1625 4250 1398 4047  Q 1172 3844 1172 3481  z " transform="scale(0.015625)"/>
       </defs>
       <use xlink:href="#DejaVuSans-38" class="dark-fill"/>
       <use xlink:href="#DejaVuSans-30" x="63.623047" class="dark-fill"/>
      </g>
     </g>
    </g>
    <g id="xtick_6">
     <g id="line2d_6">
      <g>
       <use xlink:href="#m2daf9e8527" x="398.487273" y="307.584" style="stroke-width: 0.8;" class="dark-fill dark-stroke"/>
      </g>
     </g>
     <g id="text_6">

      <g transform="translate(388.943523 322.182437) scale(0.1 -0.1)">
       <defs>
        <path id="DejaVuSans-31" d="M 794 531  L 1825 531  L 1825 4091  L 703 3866  L 703 4441  L 1819 4666  L 2450 4666  L 2450 531  L 3481 531  L 3481 0  L 794 0  L 794 531  z " transform="scale(0.015625)"/>
       </defs>
       <use xlink:href="#DejaVuSans-31" class="dark-fill"/>
       <use xlink:href="#DejaVuSans-30" x="63.623047" class="dark-fill"/>
       <use xlink:href="#DejaVuSans-30" x="127.246094" class="dark-fill"/>
      </g>
     </g>
    </g>
    <g id="text_7">

     <g transform="translate(223.926406 335.860562) scale(0.1 -0.1)">
      <defs>
       <path id="DejaVuSans-54" d="M -19 4666  L 3928 4666  L 3928 4134  L 2272 4134  L 2272 0  L 1638 0  L 1638 4134  L -19 4134  L -19 4666  z " transform="scale(0.015625)"/>
       <path id="DejaVuSans-69" d="M 603 3500  L 1178 3500  L 1178 0  L 603 0  L 603 3500  z M 603 4863  L 1178 4863  L 1178 4134  L 603 4134  L 603 4863  z " transform="scale(0.015625)"/>
       <path id="DejaVuSans-6d" d="M 3328 2828  Q 3544 3216 3844 3400  Q 4144 3584 4550 3584  Q 5097 3584 5394 3201  Q 5691 2819 5691 2113  L 5691 0  L 5113 0  L 5113 2094  Q 5113 2597 4934 2840  Q 4756 3084 4391 3084  Q 3944 3084 3684 2787  Q 3425 2491 3425 1978  L 3425 0  L 2847 0  L 2847 2094  Q 2847 2600 2669 2842  Q 2491 3084 2119 3084  Q 1678 3084 1418 2786  Q 1159 2488 1159 1978  L 1159 0  L 581 0  L 581 3500  L 1159 3500  L 1159 2956  Q 1356 3278 1631 3431  Q 1906 3584 2284 3584  Q 2666 3584 2933 3390  Q 3200 3197 3328 2828  z " transform="scale(0.015625)"/>
       <path id="DejaVuSans-65" d="M 3597 1894  L 3597 1613  L 953 1613  Q 991 1019 1311 708  Q 1631 397 2203 397  Q 2534 397 2845 478  Q 3156 559 3463 722  L 3463 178  Q 3153 47 2828 -22  Q 2503 -91 2169 -91  Q 1331 -91 842 396  Q 353 884 353 1716  Q 353 2575 817 3079  Q 1281 3584 2069 3584  Q 2775 3584 3186 3129  Q 3597 2675 3597 1894  z M 3022 2063  Q 3016 2534 2758 2815  Q 2500 3097 2075 3097  Q 1594 3097 1305 2825  Q 1016 2553 972 2059  L 3022 2063  z " transform="scale(0.015625)"/>
      </defs>
      <use xlink:href="#DejaVuSans-54" class="dark-fill"/>
      <use xlink:href="#DejaVuSans-69" x="57.958984" class="dark-fill"/>
      <use xlink:href="#DejaVuSans-6d" x="85.742188" class="dark-fill"/>
      <use xlink:href="#DejaVuSans-65" x="183.154297" class="dark-fill"/>
     </g>
    </g>
   </g>
   <g id="matplotlib.axis_2">
    <g id="ytick_1">
     <g id="line2d_7">
      <defs>
       <path id="m3861e12712" d="M 0 0  L -3.5 0  " style="stroke-width: 0.8;" class="dark-stroke"/>
      </defs>
      <g>
       <use xlink:href="#m3861e12712" x="57.6" y="288.925519" style="stroke-width: 0.8;" class="dark-fill dark-stroke"/>
      </g>
     </g>
     <g id="text_8">

      <g transform="translate(37.875 292.724738) scale(0.1 -0.1)">
       <defs>
        <path id="DejaVuSans-35" d="M 691 4666  L 3169 4666  L 3169 4134  L 1269 4134  L 1269 2991  Q 1406 3038 1543 3061  Q 1681 3084 1819 3084  Q 2600 3084 3056 2656  Q 3513 2228 3513 1497  Q 3513 744 3044 326  Q 2575 -91 1722 -91  Q 1428 -91 1123 -41  Q 819 9 494 109  L 494 744  Q 775 591 1075 516  Q 1375 441 1709 441  Q 2250 441 2565 725  Q 2881 1009 2881 1497  Q 2881 1984 2565 2268  Q 2250 2553 1709 2553  Q 1456 2553 1204 2497  Q 953 2441 691 2322  L 691 4666  z " transform="scale(0.015625)"/>
       </defs>
       <use xlink:href="#DejaVuSans-32" class="dark-fill"/>
       <use xlink:href="#DejaVuSans-35" x="63.623047" class="dark-fill"/>
      </g>
     </g>
    </g>
    <g id="ytick_2">
     <g id="line2d_8">
      <g>
       <use xlink:href="#m3861e12712" x="57.6" y="256.113115" style="stroke-width: 0.8;" class="dark-fill dark-stroke"/>
      </g>
     </g>
     <g id="text_9">

      <g transform="translate(37.875 259.912334) scale(0.1 -0.1)">
       <use xlink:href="#DejaVuSans-35" class="dark-fill"/>
       <use xlink:href="#DejaVuSans-30" x="63.623047" class="dark-fill"/>
      </g>
     </g>
    </g>
    <g id="ytick_3">
     <g id="line2d_9">
      <g>
       <use xlink:href="#m3861e12712" x="57.6" y="223.30071" style="stroke-width: 0.8;" class="dark-fill dark-stroke"/>
      </g>
     </g>
     <g id="text_10">

      <g transform="translate(37.875 227.099929) scale(0.1 -0.1)">
       <defs>
        <path id="DejaVuSans-37" d="M 525 4666  L 3525 4666  L 3525 4397  L 1831 0  L 1172 0  L 2766 4134  L 525 4134  L 525 4666  z " transform="scale(0.015625)"/>
       </defs>
       <use xlink:href="#DejaVuSans-37" class="dark-fill"/>
       <use xlink:href="#DejaVuSans-35" x="63.623047" class="dark-fill"/>
      </g>
     </g>
    </g>
    <g id="ytick_4">
     <g id="line2d_10">
      <g>
       <use xlink:href="#m3861e12712" x="57.6" y="190.488306" style="stroke-width: 0.8;" class="dark-fill dark-stroke"/>
      </g>
     </g>
     <g id="text_11">

      <g transform="translate(31.5125 194.287525) scale(0.1 -0.1)">
       <use xlink:href="#DejaVuSans-31" class="dark-fill"/>
       <use xlink:href="#DejaVuSans-30" x="63.623047" class="dark-fill"/>
       <use xlink:href="#DejaVuSans-30" x="127.246094" class="dark-fill"/>
      </g>
     </g>
    </g>
    <g id="ytick_5">
     <g id="line2d_11">
      <g>
       <use xlink:href="#m3861e12712" x="57.6" y="157.675902" style="stroke-width: 0.8;" class="dark-fill dark-stroke"/>
      </g>
     </g>
     <g id="text_12">

      <g transform="translate(31.5125 161.47512) scale(0.1 -0.1)">
       <use xlink:href="#DejaVuSans-31" class="dark-fill"/>
       <use xlink:href="#DejaVuSans-32" x="63.623047" class="dark-fill"/>
       <use xlink:href="#DejaVuSans-35" x="127.246094" class="dark-fill"/>
      </g>
     </g>
    </g>
    <g id="ytick_6">
     <g id="line2d_12">
      <g>
       <use xlink:href="#m3861e12712" x="57.6" y="124.863497" style="stroke-width: 0.8;" class="dark-fill dark-stroke"/>
      </g>
     </g>
     <g id="text_13">

      <g transform="translate(31.5125 128.662716) scale(0.1 -0.1)">
       <use xlink:href="#DejaVuSans-31" class="dark-fill"/>
       <use xlink:href="#DejaVuSans-35" x="63.623047" class="dark-fill"/>
       <use xlink:href="#DejaVuSans-30" x="127.246094" class="dark-fill"/>
      </g>
     </g>
    </g>
    <g id="ytick_7">
     <g id="line2d_13">
      <g>
       <use xlink:href="#m3861e12712" x="57.6" y="92.051093" style="stroke-width: 0.8;" class="dark-fill dark-stroke"/>
      </g>
     </g>
     <g id="text_14">

      <g transform="translate(31.5125 95.850312) scale(0.1 -0.1)">
       <use xlink:href="#DejaVuSans-31" class="dark-fill"/>
       <use xlink:href="#DejaVuSans-37" x="63.623047" class="dark-fill"/>
       <use xlink:href="#DejaVuSans-35" x="127.246094" class="dark-fill"/>
      </g>
     </g>
    </g>
    <g id="ytick_8">
     <g id="line2d_14">
      <g>
       <use xlink:href="#m3861e12712" x="57.6" y="59.238689" style="stroke-width: 0.8;" class="dark-fill dark-stroke"/>
      </g>
     </g>
     <g id="text_15">

      <g transform="translate(31.5125 63.037907) scale(0.1 -0.1)">
       <use xlink:href="#DejaVuSans-32" class="dark-fill"/>
       <use xlink:href="#DejaVuSans-30" x="63.623047" class="dark-fill"/>
       <use xlink:href="#DejaVuSans-30" x="127.246094" class="dark-fill"/>
      </g>
     </g>
    </g>
    <g id="text_16">

     <g transform="translate(25.432812 206.197531) rotate(-90) scale(0.1 -0.1)">
      <defs>
       <path id="DejaVuSans-70" d="M 1159 525  L 1159 -1331  L 581 -1331  L 581 3500  L 1159 3500  L 1159 2969  Q 1341 3281 1617 3432  Q 1894 3584 2278 3584  Q 2916 3584 3314 3078  Q 3713 2572 3713 1747  Q 3713 922 3314 415  Q 2916 -91 2278 -91  Q 1894 -91 1617 61  Q 1341 213 1159 525  z M 3116 1747  Q 3116 2381 2855 2742  Q 2594 3103 2138 3103  Q 1681 3103 1420 2742  Q 1159 2381 1159 1747  Q 1159 1113 1420 752  Q 1681 391 2138 391  Q 2594 391 2855 752  Q 3116 1113 3116 1747  z " transform="scale(0.015625)"/>
       <path id="DejaVuSans-72" d="M 2631 2963  Q 2534 3019 2420 3045  Q 2306 3072 2169 3072  Q 1681 3072 1420 2755  Q 1159 2438 1159 1844  L 1159 0  L 581 0  L 581 3500  L 1159 3500  L 1159 2956  Q 1341 3275 1631 3429  Q 1922 3584 2338 3584  Q 2397 3584 2469 3576  Q 2541 3569 2628 3553  L 2631 2963  z " transform="scale(0.015625)"/>
       <path id="DejaVuSans-61" d="M 2194 1759  Q 1497 1759 1228 1600  Q 959 1441 959 1056  Q 959 750 1161 570  Q 1363 391 1709 391  Q 2188 391 2477 730  Q 2766 1069 2766 1631  L 2766 1759  L 2194 1759  z M 3341 1997  L 3341 0  L 2766 0  L 2766 531  Q 2569 213 2275 61  Q 1981 -91 1556 -91  Q 1019 -91 701 211  Q 384 513 384 1019  Q 384 1609 779 1909  Q 1175 2209 1959 2209  L 2766 2209  L 2766 2266  Q 2766 2663 2505 2880  Q 2244 3097 1772 3097  Q 1472 3097 1187 3025  Q 903 2953 641 2809  L 641 3341  Q 956 3463 1253 3523  Q 1550 3584 1831 3584  Q 2591 3584 2966 3190  Q 3341 2797 3341 1997  z " transform="scale(0.015625)"/>
       <path id="DejaVuSans-74" d="M 1172 4494  L 1172 3500  L 2356 3500  L 2356 3053  L 1172 3053  L 1172 1153  Q 1172 725 1289 603  Q 1406 481 1766 481  L 2356 481  L 2356 0  L 1766 0  Q 1100 0 847 248  Q 594 497 594 1153  L 594 3053  L 172 3053  L 172 3500  L 594 3500  L 594 4494  L 1172 4494  z " transform="scale(0.015625)"/>
       <path id="DejaVuSans-75" d="M 544 1381  L 544 3500  L 1119 3500  L 1119 1403  Q 1119 906 1312 657  Q 1506 409 1894 409  Q 2359 409 2629 706  Q 2900 1003 2900 1516  L 2900 3500  L 3475 3500  L 3475 0  L 2900 0  L 2900 538  Q 2691 219 2414 64  Q 2138 -91 1772 -91  Q 1169 -91 856 284  Q 544 659 544 1381  z M 1991 3584  L 1991 3584  z " transform="scale(0.015625)"/>
      </defs>
      <use xlink:href="#DejaVuSans-54" class="dark-fill"/>
      <use xlink:href="#DejaVuSans-65" x="44.083984" class="dark-fill"/>
      <use xlink:href="#DejaVuSans-6d" x="105.607422" class="dark-fill"/>
      <use xlink:href="#DejaVuSans-70" x="203.019531" class="dark-fill"/>
      <use xlink:href="#DejaVuSans-65" x="266.496094" class="dark-fill"/>
      <use xlink:href="#DejaVuSans-72" x="328.019531" class="dark-fill"/>
      <use xlink:href="#DejaVuSans-61" x="369.132812" class="dark-fill"/>
      <use xlink:href="#DejaVuSans-74" x="430.412109" class="dark-fill"/>
      <use xlink:href="#DejaVuSans-75" x="469.621094" class="dark-fill"/>
      <use xlink:href="#DejaVuSans-72" x="533" class="dark-fill"/>
      <use xlink:href="#DejaVuSans-65" x="571.863281" class="dark-fill"/>
     </g>
    </g>
   </g>
   <g id="line2d_15">
    <path d="M 73.832727 295.488  L 73.930124 295.254917  L 74.124916 293.809439  L 74.417105 289.488282  L 74.839156 279.567925  L 75.488465 258.419237  L 76.787084 206.957734  L 78.31296 149.455932  L 79.351855 118.155428  L 80.260887 96.881478  L 81.104989 81.939227  L 81.88416 71.747509  L 82.630865 64.703504  L 83.31264 60.175879  L 83.961949 57.219044  L 84.578793 55.378689  L 85.130705 54.358287  L 85.650153 53.817628  L 86.1696 53.589759  L 86.721513 53.603286  L 87.370822 53.854336  L 88.31232 54.481476  L 91.851055 57.050636  L 93.214604 57.661185  L 94.675549 58.064988  L 96.396218 58.299331  L 98.831127 58.383692  L 107.694196 58.2928  L 142.529629 58.289896  L 398.487273 58.289896  L 398.487273 58.289896  " clip-path="url(#pd135bc5ed8)" style="fill: none; stroke-width: 1.5; stroke-linecap: square;" class="color-b-stroke"/>
   </g>
   <g id="patch_3">
    <path d="M 57.6 307.584  L 57.6 41.472  " style="fill: none; stroke-width: 0.8; stroke-linejoin: miter; stroke-linecap: square;" class="dark-stroke"/>
   </g>
   <g id="patch_4">
    <path d="M 414.72 307.584  L 414.72 41.472  " style="fill: none; stroke-width: 0.8; stroke-linejoin: miter; stroke-linecap: square;" class="dark-stroke"/>
   </g>
   <g id="patch_5">
    <path d="M 57.6 307.584  L 414.72 307.584  " style="fill: none; stroke-width: 0.8; stroke-linejoin: miter; stroke-linecap: square;" class="dark-stroke"/>
   </g>
   <g id="patch_6">
    <path d="M 57.6 41.472  L 414.72 41.472  " style="fill: none; stroke-width: 0.8; stroke-linejoin: miter; stroke-linecap: square;" class="dark-stroke"/>
   </g>
   <g id="legend_1">
    <g id="patch_7">
     <path d="M 235.935625 302.584  L 407.72 302.584  Q 409.72 302.584 409.72 300.584  L 409.72 286.905875  Q 409.72 284.905875 407.72 284.905875  L 235.935625 284.905875  Q 233.935625 284.905875 233.935625 286.905875  L 233.935625 300.584  Q 233.935625 302.584 235.935625 302.584  z " style="opacity: 0.8; stroke-linejoin: miter;" class="light-fill color-a-stroke"/>
    </g>
    <g id="line2d_16">
     <path d="M 237.935625 293.004312  L 247.935625 293.004312  L 257.935625 293.004312  " style="fill: none; stroke-width: 1.5; stroke-linecap: square;" class="color-b-stroke"/>
    </g>
    <g id="text_17">

     <g transform="translate(265.935625 296.504312) scale(0.1 -0.1)">
      <defs>
       <path id="DejaVuSans-4b" d="M 628 4666  L 1259 4666  L 1259 2694  L 3353 4666  L 4166 4666  L 1850 2491  L 4331 0  L 3500 0  L 1259 2247  L 1259 0  L 628 0  L 628 4666  z " transform="scale(0.015625)"/>
       <path id="DejaVuSans-20" transform="scale(0.015625)"/>
       <path id="DejaVuSans-3d" d="M 678 2906  L 4684 2906  L 4684 2381  L 678 2381  L 678 2906  z M 678 1631  L 4684 1631  L 4684 1100  L 678 1100  L 678 1631  z " transform="scale(0.015625)"/>
       <path id="DejaVuSans-2e" d="M 684 794  L 1344 794  L 1344 0  L 684 0  L 684 794  z " transform="scale(0.015625)"/>
       <path id="DejaVuSans-2c" d="M 750 794  L 1409 794  L 1409 256  L 897 -744  L 494 -744  L 750 256  L 750 794  z " transform="scale(0.015625)"/>
       <path id="DejaVuSans-64" d="M 2906 2969  L 2906 4863  L 3481 4863  L 3481 0  L 2906 0  L 2906 525  Q 2725 213 2448 61  Q 2172 -91 1784 -91  Q 1150 -91 751 415  Q 353 922 353 1747  Q 353 2572 751 3078  Q 1150 3584 1784 3584  Q 2172 3584 2448 3432  Q 2725 3281 2906 2969  z M 947 1747  Q 947 1113 1208 752  Q 1469 391 1925 391  Q 2381 391 2643 752  Q 2906 1113 2906 1747  Q 2906 2381 2643 2742  Q 2381 3103 1925 3103  Q 1469 3103 1208 2742  Q 947 2381 947 1747  z " transform="scale(0.015625)"/>
      </defs>
      <use xlink:href="#DejaVuSans-4b" class="dark-fill"/>
      <use xlink:href="#DejaVuSans-70" x="65.576172" class="dark-fill"/>
      <use xlink:href="#DejaVuSans-20" x="129.052734" class="dark-fill"/>
      <use xlink:href="#DejaVuSans-3d" x="160.839844" class="dark-fill"/>
      <use xlink:href="#DejaVuSans-20" x="244.628906" class="dark-fill"/>
      <use xlink:href="#DejaVuSans-31" x="276.416016" class="dark-fill"/>
      <use xlink:href="#DejaVuSans-2e" x="340.039062" class="dark-fill"/>
      <use xlink:href="#DejaVuSans-36" x="371.826172" class="dark-fill"/>
      <use xlink:href="#DejaVuSans-35" x="435.449219" class="dark-fill"/>
      <use xlink:href="#DejaVuSans-2c" x="499.072266" class="dark-fill"/>
      <use xlink:href="#DejaVuSans-20" x="530.859375" class="dark-fill"/>
      <use xlink:href="#DejaVuSans-4b" x="562.646484" class="dark-fill"/>
      <use xlink:href="#DejaVuSans-69" x="628.222656" class="dark-fill"/>
      <use xlink:href="#DejaVuSans-20" x="656.005859" class="dark-fill"/>
      <use xlink:href="#DejaVuSans-3d" x="687.792969" class="dark-fill"/>
      <use xlink:href="#DejaVuSans-20" x="771.582031" class="dark-fill"/>
      <use xlink:href="#DejaVuSans-30" x="803.369141" class="dark-fill"/>
      <use xlink:href="#DejaVuSans-2c" x="866.992188" class="dark-fill"/>
      <use xlink:href="#DejaVuSans-20" x="898.779297" class="dark-fill"/>
      <use xlink:href="#DejaVuSans-4b" x="930.566406" class="dark-fill"/>
      <use xlink:href="#DejaVuSans-64" x="996.142578" class="dark-fill"/>
      <use xlink:href="#DejaVuSans-20" x="1059.619141" class="dark-fill"/>
      <use xlink:href="#DejaVuSans-3d" x="1091.40625" class="dark-fill"/>
      <use xlink:href="#DejaVuSans-20" x="1175.195312" class="dark-fill"/>
      <use xlink:href="#DejaVuSans-31" x="1206.982422" class="dark-fill"/>
      <use xlink:href="#DejaVuSans-30" x="1270.605469" class="dark-fill"/>
      <use xlink:href="#DejaVuSans-30" x="1334.228516" class="dark-fill"/>
     </g>
    </g>
   </g>
  </g>
 </g>
 <defs>
  <clipPath id="pd135bc5ed8">
   <rect x="57.6" y="41.472" width="357.12" height="266.112"/>
  </clipPath>
 </defs>
</svg>
