<svg xmlns:xlink="http://www.w3.org/1999/xlink" xmlns="http://www.w3.org/2000/svg" width="460.8pt" height="345.6pt" viewBox="0 0 460.8 345.6" version="1.1">
 <metadata>
  <rdf:RDF xmlns:dc="http://purl.org/dc/elements/1.1/" xmlns:cc="http://creativecommons.org/ns#" xmlns:rdf="http://www.w3.org/1999/02/22-rdf-syntax-ns#">
   <cc:Work>
    <dc:type rdf:resource="http://purl.org/dc/dcmitype/StillImage"/>
    <dc:date>2022-09-30T16:00:16.408020</dc:date>
    <dc:format>image/svg+xml</dc:format>
    <dc:creator>
     <cc:Agent>
      <dc:title>Matplotlib v3.5.3, https://matplotlib.org/</dc:title>
     </cc:Agent>
    </dc:creator>
   </cc:Work>
  </rdf:RDF>
 </metadata>
 <defs>
  <style type="text/css">*{stroke-linejoin: round; stroke-linecap: butt}</style>
 </defs>
 <g id="figure_1">
  <g id="patch_1">
   <path d="M 0 345.6  L 460.8 345.6  L 460.8 0  L 0 0  z " class="light-fill"/>
  </g>
  <g id="axes_1">
   <g id="patch_2">
    <path d="M 57.6 307.584  L 414.72 307.584  L 414.72 41.472  L 57.6 41.472  z " class="light-fill dark-stroke"/>
   </g>
   <g id="matplotlib.axis_1">
    <g id="xtick_1">
     <g id="line2d_1">
      <defs>
       <path id="mca2dc301dc" d="M 0 0  L 0 3.5  " style="stroke-width: 0.8;" class="dark-stroke"/>
      </defs>
      <g>
       <use xlink:href="#mca2dc301dc" x="73.832727" y="307.584" style="stroke-width: 0.8;" class="dark-fill dark-stroke"/>
      </g>
     </g>
     <g id="text_1">

      <g transform="translate(70.651477 322.182437)scale(0.1 -0.1)">
       <defs>
        <path id="DejaVuSans-30" d="M 2034 4250  Q 1547 4250 1301 3770  Q 1056 3291 1056 2328  Q 1056 1369 1301 889  Q 1547 409 2034 409  Q 2525 409 2770 889  Q 3016 1369 3016 2328  Q 3016 3291 2770 3770  Q 2525 4250 2034 4250  z M 2034 4750  Q 2819 4750 3233 4129  Q 3647 3509 3647 2328  Q 3647 1150 3233 529  Q 2819 -91 2034 -91  Q 1250 -91 836 529  Q 422 1150 422 2328  Q 422 3509 836 4129  Q 1250 4750 2034 4750  z " transform="scale(0.015625)" class="dark-stroke"/>
       </defs>
       <use xlink:href="#DejaVuSans-30" class="dark-fill dark-stroke"/>
      </g>
     </g>
    </g>
    <g id="xtick_2">
     <g id="line2d_2">
      <g>
       <use xlink:href="#mca2dc301dc" x="138.763636" y="307.584" style="stroke-width: 0.8;" class="dark-fill dark-stroke"/>
      </g>
     </g>
     <g id="text_2">

      <g transform="translate(132.401136 322.182437)scale(0.1 -0.1)">
       <defs>
        <path id="DejaVuSans-32" d="M 1228 531  L 3431 531  L 3431 0  L 469 0  L 469 531  Q 828 903 1448 1529  Q 2069 2156 2228 2338  Q 2531 2678 2651 2914  Q 2772 3150 2772 3378  Q 2772 3750 2511 3984  Q 2250 4219 1831 4219  Q 1534 4219 1204 4116  Q 875 4013 500 3803  L 500 4441  Q 881 4594 1212 4672  Q 1544 4750 1819 4750  Q 2544 4750 2975 4387  Q 3406 4025 3406 3419  Q 3406 3131 3298 2873  Q 3191 2616 2906 2266  Q 2828 2175 2409 1742  Q 1991 1309 1228 531  z " transform="scale(0.015625)" class="dark-stroke"/>
       </defs>
       <use xlink:href="#DejaVuSans-32" class="dark-fill dark-stroke"/>
       <use xlink:href="#DejaVuSans-30" x="63.623047" class="dark-fill dark-stroke"/>
      </g>
     </g>
    </g>
    <g id="xtick_3">
     <g id="line2d_3">
      <g>
       <use xlink:href="#mca2dc301dc" x="203.694545" y="307.584" style="stroke-width: 0.8;" class="dark-fill dark-stroke"/>
      </g>
     </g>
     <g id="text_3">

      <g transform="translate(197.332045 322.182437)scale(0.1 -0.1)">
       <defs>
        <path id="DejaVuSans-34" d="M 2419 4116  L 825 1625  L 2419 1625  L 2419 4116  z M 2253 4666  L 3047 4666  L 3047 1625  L 3713 1625  L 3713 1100  L 3047 1100  L 3047 0  L 2419 0  L 2419 1100  L 313 1100  L 313 1709  L 2253 4666  z " transform="scale(0.015625)" class="dark-stroke"/>
       </defs>
       <use xlink:href="#DejaVuSans-34" class="dark-fill dark-stroke"/>
       <use xlink:href="#DejaVuSans-30" x="63.623047" class="dark-fill dark-stroke"/>
      </g>
     </g>
    </g>
    <g id="xtick_4">
     <g id="line2d_4">
      <g>
       <use xlink:href="#mca2dc301dc" x="268.625455" y="307.584" style="stroke-width: 0.8;" class="dark-fill dark-stroke"/>
      </g>
     </g>
     <g id="text_4">

      <g transform="translate(262.262955 322.182437)scale(0.1 -0.1)">
       <defs>
        <path id="DejaVuSans-36" d="M 2113 2584  Q 1688 2584 1439 2293  Q 1191 2003 1191 1497  Q 1191 994 1439 701  Q 1688 409 2113 409  Q 2538 409 2786 701  Q 3034 994 3034 1497  Q 3034 2003 2786 2293  Q 2538 2584 2113 2584  z M 3366 4563  L 3366 3988  Q 3128 4100 2886 4159  Q 2644 4219 2406 4219  Q 1781 4219 1451 3797  Q 1122 3375 1075 2522  Q 1259 2794 1537 2939  Q 1816 3084 2150 3084  Q 2853 3084 3261 2657  Q 3669 2231 3669 1497  Q 3669 778 3244 343  Q 2819 -91 2113 -91  Q 1303 -91 875 529  Q 447 1150 447 2328  Q 447 3434 972 4092  Q 1497 4750 2381 4750  Q 2619 4750 2861 4703  Q 3103 4656 3366 4563  z " transform="scale(0.015625)" class="dark-stroke"/>
       </defs>
       <use xlink:href="#DejaVuSans-36" class="dark-fill dark-stroke"/>
       <use xlink:href="#DejaVuSans-30" x="63.623047" class="dark-fill dark-stroke"/>
      </g>
     </g>
    </g>
    <g id="xtick_5">
     <g id="line2d_5">
      <g>
       <use xlink:href="#mca2dc301dc" x="333.556364" y="307.584" style="stroke-width: 0.8;" class="dark-fill dark-stroke"/>
      </g>
     </g>
     <g id="text_5">

      <g transform="translate(327.193864 322.182437)scale(0.1 -0.1)">
       <defs>
        <path id="DejaVuSans-38" d="M 2034 2216  Q 1584 2216 1326 1975  Q 1069 1734 1069 1313  Q 1069 891 1326 650  Q 1584 409 2034 409  Q 2484 409 2743 651  Q 3003 894 3003 1313  Q 3003 1734 2745 1975  Q 2488 2216 2034 2216  z M 1403 2484  Q 997 2584 770 2862  Q 544 3141 544 3541  Q 544 4100 942 4425  Q 1341 4750 2034 4750  Q 2731 4750 3128 4425  Q 3525 4100 3525 3541  Q 3525 3141 3298 2862  Q 3072 2584 2669 2484  Q 3125 2378 3379 2068  Q 3634 1759 3634 1313  Q 3634 634 3220 271  Q 2806 -91 2034 -91  Q 1263 -91 848 271  Q 434 634 434 1313  Q 434 1759 690 2068  Q 947 2378 1403 2484  z M 1172 3481  Q 1172 3119 1398 2916  Q 1625 2713 2034 2713  Q 2441 2713 2670 2916  Q 2900 3119 2900 3481  Q 2900 3844 2670 4047  Q 2441 4250 2034 4250  Q 1625 4250 1398 4047  Q 1172 3844 1172 3481  z " transform="scale(0.015625)" class="dark-stroke"/>
       </defs>
       <use xlink:href="#DejaVuSans-38" class="dark-fill dark-stroke"/>
       <use xlink:href="#DejaVuSans-30" x="63.623047" class="dark-fill dark-stroke"/>
      </g>
     </g>
    </g>
    <g id="xtick_6">
     <g id="line2d_6">
      <g>
       <use xlink:href="#mca2dc301dc" x="398.487273" y="307.584" style="stroke-width: 0.8;" class="dark-fill dark-stroke"/>
      </g>
     </g>
     <g id="text_6">

      <g transform="translate(388.943523 322.182437)scale(0.1 -0.1)">
       <defs>
        <path id="DejaVuSans-31" d="M 794 531  L 1825 531  L 1825 4091  L 703 3866  L 703 4441  L 1819 4666  L 2450 4666  L 2450 531  L 3481 531  L 3481 0  L 794 0  L 794 531  z " transform="scale(0.015625)" class="dark-stroke"/>
       </defs>
       <use xlink:href="#DejaVuSans-31" class="dark-fill dark-stroke"/>
       <use xlink:href="#DejaVuSans-30" x="63.623047" class="dark-fill dark-stroke"/>
       <use xlink:href="#DejaVuSans-30" x="127.246094" class="dark-fill dark-stroke"/>
      </g>
     </g>
    </g>
    <g id="text_7">

     <g transform="translate(223.926406 335.860562)scale(0.1 -0.1)">
      <defs>
       <path id="DejaVuSans-54" d="M -19 4666  L 3928 4666  L 3928 4134  L 2272 4134  L 2272 0  L 1638 0  L 1638 4134  L -19 4134  L -19 4666  z " transform="scale(0.015625)" class="dark-stroke"/>
       <path id="DejaVuSans-69" d="M 603 3500  L 1178 3500  L 1178 0  L 603 0  L 603 3500  z M 603 4863  L 1178 4863  L 1178 4134  L 603 4134  L 603 4863  z " transform="scale(0.015625)" class="dark-stroke"/>
       <path id="DejaVuSans-6d" d="M 3328 2828  Q 3544 3216 3844 3400  Q 4144 3584 4550 3584  Q 5097 3584 5394 3201  Q 5691 2819 5691 2113  L 5691 0  L 5113 0  L 5113 2094  Q 5113 2597 4934 2840  Q 4756 3084 4391 3084  Q 3944 3084 3684 2787  Q 3425 2491 3425 1978  L 3425 0  L 2847 0  L 2847 2094  Q 2847 2600 2669 2842  Q 2491 3084 2119 3084  Q 1678 3084 1418 2786  Q 1159 2488 1159 1978  L 1159 0  L 581 0  L 581 3500  L 1159 3500  L 1159 2956  Q 1356 3278 1631 3431  Q 1906 3584 2284 3584  Q 2666 3584 2933 3390  Q 3200 3197 3328 2828  z " transform="scale(0.015625)" class="dark-stroke"/>
       <path id="DejaVuSans-65" d="M 3597 1894  L 3597 1613  L 953 1613  Q 991 1019 1311 708  Q 1631 397 2203 397  Q 2534 397 2845 478  Q 3156 559 3463 722  L 3463 178  Q 3153 47 2828 -22  Q 2503 -91 2169 -91  Q 1331 -91 842 396  Q 353 884 353 1716  Q 353 2575 817 3079  Q 1281 3584 2069 3584  Q 2775 3584 3186 3129  Q 3597 2675 3597 1894  z M 3022 2063  Q 3016 2534 2758 2815  Q 2500 3097 2075 3097  Q 1594 3097 1305 2825  Q 1016 2553 972 2059  L 3022 2063  z " transform="scale(0.015625)" class="dark-stroke"/>
      </defs>
      <use xlink:href="#DejaVuSans-54" class="dark-fill dark-stroke"/>
      <use xlink:href="#DejaVuSans-69" x="57.958984" class="dark-fill dark-stroke"/>
      <use xlink:href="#DejaVuSans-6d" x="85.742188" class="dark-fill dark-stroke"/>
      <use xlink:href="#DejaVuSans-65" x="183.154297" class="dark-fill dark-stroke"/>
     </g>
    </g>
   </g>
   <g id="matplotlib.axis_2">
    <g id="ytick_1">
     <g id="line2d_7">
      <defs>
       <path id="m08ca613f5d" d="M 0 0  L -3.5 0  " style="stroke-width: 0.8;" class="dark-stroke"/>
      </defs>
      <g>
       <use xlink:href="#m08ca613f5d" x="57.6" y="289.545679" style="stroke-width: 0.8;" class="dark-fill dark-stroke"/>
      </g>
     </g>
     <g id="text_8">

      <g transform="translate(37.875 293.344898)scale(0.1 -0.1)">
       <defs>
        <path id="DejaVuSans-35" d="M 691 4666  L 3169 4666  L 3169 4134  L 1269 4134  L 1269 2991  Q 1406 3038 1543 3061  Q 1681 3084 1819 3084  Q 2600 3084 3056 2656  Q 3513 2228 3513 1497  Q 3513 744 3044 326  Q 2575 -91 1722 -91  Q 1428 -91 1123 -41  Q 819 9 494 109  L 494 744  Q 775 591 1075 516  Q 1375 441 1709 441  Q 2250 441 2565 725  Q 2881 1009 2881 1497  Q 2881 1984 2565 2268  Q 2250 2553 1709 2553  Q 1456 2553 1204 2497  Q 953 2441 691 2322  L 691 4666  z " transform="scale(0.015625)" class="dark-stroke"/>
       </defs>
       <use xlink:href="#DejaVuSans-32" class="dark-fill dark-stroke"/>
       <use xlink:href="#DejaVuSans-35" x="63.623047" class="dark-fill dark-stroke"/>
      </g>
     </g>
    </g>
    <g id="ytick_2">
     <g id="line2d_8">
      <g>
       <use xlink:href="#m08ca613f5d" x="57.6" y="259.834075" style="stroke-width: 0.8;" class="dark-fill dark-stroke"/>
      </g>
     </g>
     <g id="text_9">

      <g transform="translate(37.875 263.633294)scale(0.1 -0.1)">
       <use xlink:href="#DejaVuSans-35" class="dark-fill dark-stroke"/>
       <use xlink:href="#DejaVuSans-30" x="63.623047" class="dark-fill dark-stroke"/>
      </g>
     </g>
    </g>
    <g id="ytick_3">
     <g id="line2d_9">
      <g>
       <use xlink:href="#m08ca613f5d" x="57.6" y="230.122471" style="stroke-width: 0.8;" class="dark-fill dark-stroke"/>
      </g>
     </g>
     <g id="text_10">

      <g transform="translate(37.875 233.92169)scale(0.1 -0.1)">
       <defs>
        <path id="DejaVuSans-37" d="M 525 4666  L 3525 4666  L 3525 4397  L 1831 0  L 1172 0  L 2766 4134  L 525 4134  L 525 4666  z " transform="scale(0.015625)" class="dark-stroke"/>
       </defs>
       <use xlink:href="#DejaVuSans-37" class="dark-fill dark-stroke"/>
       <use xlink:href="#DejaVuSans-35" x="63.623047" class="dark-fill dark-stroke"/>
      </g>
     </g>
    </g>
    <g id="ytick_4">
     <g id="line2d_10">
      <g>
       <use xlink:href="#m08ca613f5d" x="57.6" y="200.410867" style="stroke-width: 0.8;" class="dark-fill dark-stroke"/>
      </g>
     </g>
     <g id="text_11">

      <g transform="translate(31.5125 204.210086)scale(0.1 -0.1)">
       <use xlink:href="#DejaVuSans-31" class="dark-fill dark-stroke"/>
       <use xlink:href="#DejaVuSans-30" x="63.623047" class="dark-fill dark-stroke"/>
       <use xlink:href="#DejaVuSans-30" x="127.246094" class="dark-fill dark-stroke"/>
      </g>
     </g>
    </g>
    <g id="ytick_5">
     <g id="line2d_11">
      <g>
       <use xlink:href="#m08ca613f5d" x="57.6" y="170.699263" style="stroke-width: 0.8;" class="dark-fill dark-stroke"/>
      </g>
     </g>
     <g id="text_12">

      <g transform="translate(31.5125 174.498482)scale(0.1 -0.1)">
       <use xlink:href="#DejaVuSans-31" class="dark-fill dark-stroke"/>
       <use xlink:href="#DejaVuSans-32" x="63.623047" class="dark-fill dark-stroke"/>
       <use xlink:href="#DejaVuSans-35" x="127.246094" class="dark-fill dark-stroke"/>
      </g>
     </g>
    </g>
    <g id="ytick_6">
     <g id="line2d_12">
      <g>
       <use xlink:href="#m08ca613f5d" x="57.6" y="140.987659" style="stroke-width: 0.8;" class="dark-fill dark-stroke"/>
      </g>
     </g>
     <g id="text_13">

      <g transform="translate(31.5125 144.786878)scale(0.1 -0.1)">
       <use xlink:href="#DejaVuSans-31" class="dark-fill dark-stroke"/>
       <use xlink:href="#DejaVuSans-35" x="63.623047" class="dark-fill dark-stroke"/>
       <use xlink:href="#DejaVuSans-30" x="127.246094" class="dark-fill dark-stroke"/>
      </g>
     </g>
    </g>
    <g id="ytick_7">
     <g id="line2d_13">
      <g>
       <use xlink:href="#m08ca613f5d" x="57.6" y="111.276055" style="stroke-width: 0.8;" class="dark-fill dark-stroke"/>
      </g>
     </g>
     <g id="text_14">

      <g transform="translate(31.5125 115.075274)scale(0.1 -0.1)">
       <use xlink:href="#DejaVuSans-31" class="dark-fill dark-stroke"/>
       <use xlink:href="#DejaVuSans-37" x="63.623047" class="dark-fill dark-stroke"/>
       <use xlink:href="#DejaVuSans-35" x="127.246094" class="dark-fill dark-stroke"/>
      </g>
     </g>
    </g>
    <g id="ytick_8">
     <g id="line2d_14">
      <g>
       <use xlink:href="#m08ca613f5d" x="57.6" y="81.564451" style="stroke-width: 0.8;" class="dark-fill dark-stroke"/>
      </g>
     </g>
     <g id="text_15">

      <g transform="translate(31.5125 85.36367)scale(0.1 -0.1)">
       <use xlink:href="#DejaVuSans-32" class="dark-fill dark-stroke"/>
       <use xlink:href="#DejaVuSans-30" x="63.623047" class="dark-fill dark-stroke"/>
       <use xlink:href="#DejaVuSans-30" x="127.246094" class="dark-fill dark-stroke"/>
      </g>
     </g>
    </g>
    <g id="ytick_9">
     <g id="line2d_15">
      <g>
       <use xlink:href="#m08ca613f5d" x="57.6" y="51.852847" style="stroke-width: 0.8;" class="dark-fill dark-stroke"/>
      </g>
     </g>
     <g id="text_16">

      <g transform="translate(31.5125 55.652066)scale(0.1 -0.1)">
       <use xlink:href="#DejaVuSans-32" class="dark-fill dark-stroke"/>
       <use xlink:href="#DejaVuSans-32" x="63.623047" class="dark-fill dark-stroke"/>
       <use xlink:href="#DejaVuSans-35" x="127.246094" class="dark-fill dark-stroke"/>
      </g>
     </g>
    </g>
    <g id="text_17">

     <g transform="translate(25.432812 206.197531)rotate(-90)scale(0.1 -0.1)">
      <defs>
       <path id="DejaVuSans-70" d="M 1159 525  L 1159 -1331  L 581 -1331  L 581 3500  L 1159 3500  L 1159 2969  Q 1341 3281 1617 3432  Q 1894 3584 2278 3584  Q 2916 3584 3314 3078  Q 3713 2572 3713 1747  Q 3713 922 3314 415  Q 2916 -91 2278 -91  Q 1894 -91 1617 61  Q 1341 213 1159 525  z M 3116 1747  Q 3116 2381 2855 2742  Q 2594 3103 2138 3103  Q 1681 3103 1420 2742  Q 1159 2381 1159 1747  Q 1159 1113 1420 752  Q 1681 391 2138 391  Q 2594 391 2855 752  Q 3116 1113 3116 1747  z " transform="scale(0.015625)" class="dark-stroke"/>
       <path id="DejaVuSans-72" d="M 2631 2963  Q 2534 3019 2420 3045  Q 2306 3072 2169 3072  Q 1681 3072 1420 2755  Q 1159 2438 1159 1844  L 1159 0  L 581 0  L 581 3500  L 1159 3500  L 1159 2956  Q 1341 3275 1631 3429  Q 1922 3584 2338 3584  Q 2397 3584 2469 3576  Q 2541 3569 2628 3553  L 2631 2963  z " transform="scale(0.015625)" class="dark-stroke"/>
       <path id="DejaVuSans-61" d="M 2194 1759  Q 1497 1759 1228 1600  Q 959 1441 959 1056  Q 959 750 1161 570  Q 1363 391 1709 391  Q 2188 391 2477 730  Q 2766 1069 2766 1631  L 2766 1759  L 2194 1759  z M 3341 1997  L 3341 0  L 2766 0  L 2766 531  Q 2569 213 2275 61  Q 1981 -91 1556 -91  Q 1019 -91 701 211  Q 384 513 384 1019  Q 384 1609 779 1909  Q 1175 2209 1959 2209  L 2766 2209  L 2766 2266  Q 2766 2663 2505 2880  Q 2244 3097 1772 3097  Q 1472 3097 1187 3025  Q 903 2953 641 2809  L 641 3341  Q 956 3463 1253 3523  Q 1550 3584 1831 3584  Q 2591 3584 2966 3190  Q 3341 2797 3341 1997  z " transform="scale(0.015625)" class="dark-stroke"/>
       <path id="DejaVuSans-74" d="M 1172 4494  L 1172 3500  L 2356 3500  L 2356 3053  L 1172 3053  L 1172 1153  Q 1172 725 1289 603  Q 1406 481 1766 481  L 2356 481  L 2356 0  L 1766 0  Q 1100 0 847 248  Q 594 497 594 1153  L 594 3053  L 172 3053  L 172 3500  L 594 3500  L 594 4494  L 1172 4494  z " transform="scale(0.015625)" class="dark-stroke"/>
       <path id="DejaVuSans-75" d="M 544 1381  L 544 3500  L 1119 3500  L 1119 1403  Q 1119 906 1312 657  Q 1506 409 1894 409  Q 2359 409 2629 706  Q 2900 1003 2900 1516  L 2900 3500  L 3475 3500  L 3475 0  L 2900 0  L 2900 538  Q 2691 219 2414 64  Q 2138 -91 1772 -91  Q 1169 -91 856 284  Q 544 659 544 1381  z M 1991 3584  L 1991 3584  z " transform="scale(0.015625)" class="dark-stroke"/>
      </defs>
      <use xlink:href="#DejaVuSans-54" class="dark-fill dark-stroke"/>
      <use xlink:href="#DejaVuSans-65" x="44.083984" class="dark-fill dark-stroke"/>
      <use xlink:href="#DejaVuSans-6d" x="105.607422" class="dark-fill dark-stroke"/>
      <use xlink:href="#DejaVuSans-70" x="203.019531" class="dark-fill dark-stroke"/>
      <use xlink:href="#DejaVuSans-65" x="266.496094" class="dark-fill dark-stroke"/>
      <use xlink:href="#DejaVuSans-72" x="328.019531" class="dark-fill dark-stroke"/>
      <use xlink:href="#DejaVuSans-61" x="369.132812" class="dark-fill dark-stroke"/>
      <use xlink:href="#DejaVuSans-74" x="430.412109" class="dark-fill dark-stroke"/>
      <use xlink:href="#DejaVuSans-75" x="469.621094" class="dark-fill dark-stroke"/>
      <use xlink:href="#DejaVuSans-72" x="533" class="dark-fill dark-stroke"/>
      <use xlink:href="#DejaVuSans-65" x="571.863281" class="dark-fill dark-stroke"/>
     </g>
    </g>
   </g>
   <g id="line2d_16">
    <path d="M 73.832727 295.488  L 74.254778 295.363282  L 74.74176 294.958079  L 75.326138 294.155582  L 76.072844 292.715701  L 77.014342 290.380899  L 78.248029 286.686793  L 79.968698 280.770614  L 82.825658 270.028056  L 89.675869 244.124534  L 93.409396 230.989374  L 96.980596 219.234674  L 100.486865 208.450853  L 103.993135 198.380486  L 107.499404 188.980768  L 111.005673 180.208626  L 114.544407 171.949554  L 118.083142 164.247592  L 121.654342 157.001638  L 125.258007 150.189651  L 128.894138 143.790273  L 132.562735 137.782846  L 136.263796 132.147419  L 139.997324 126.864749  L 143.795782 121.875223  L 147.626705 117.208048  L 151.52256 112.81024  L 155.483345 108.672709  L 159.509062 104.786083  L 163.632175 101.113  L 167.852684 97.650327  L 172.170589 94.394015  L 176.618356 91.317712  L 181.195985 88.421377  L 185.935942 85.68577  L 190.838225 83.113257  L 195.935302 80.689817  L 201.259636 78.405681  L 206.811229 76.266378  L 212.655011 74.253922  L 218.823447 72.36704  L 225.349004 70.605847  L 232.296611 68.964077  L 239.698735 67.445734  L 247.652771 66.043447  L 256.256116 64.755138  L 265.638633 63.578414  L 275.930182 62.515177  L 287.358022 61.561969  L 300.214342 60.717679  L 314.856262 59.984098  L 331.900625 59.358718  L 352.288931 58.840668  L 377.57952 58.429781  L 398.487273 58.215186  L 398.487273 58.215186  " clip-path="url(#pef3ce7175f)" style="fill: none; stroke-width: 1.5; stroke-linecap: square;" class="color-f-stroke"/>
   </g>
   <g id="line2d_17">
    <path d="M 73.832727 295.488  L 74.157382 295.354782  L 74.546967 294.89891  L 75.033949 293.928744  L 75.650793 292.155452  L 76.462429 289.07061  L 77.501324 284.181655  L 78.929804 276.305284  L 81.202385 262.363895  L 87.046167 226.15259  L 89.838196 210.455865  L 92.467898 196.924211  L 95.000204 185.034602  L 97.500044 174.339591  L 99.999884 164.607453  L 102.499724 155.761137  L 104.999564 147.724902  L 107.499404 140.427044  L 109.999244 133.80098  L 112.531549 127.711147  L 115.063855 122.189764  L 117.628625 117.122894  L 120.225862 112.479796  L 122.855564 108.231081  L 125.517731 104.34875  L 128.212364 100.806203  L 130.971927 97.541826  L 133.796422 94.542994  L 136.685847 91.796477  L 139.672669 89.262632  L 142.756887 86.936268  L 145.970967 84.790185  L 149.314909 82.823556  L 152.853644 81.001891  L 156.587171 79.332252  L 160.547956 77.805996  L 164.800931 76.40792  L 169.37856 75.139404  L 174.37824 73.98816  L 179.864902 72.956616  L 185.968407 72.03937  L 192.851084 71.234489  L 200.740189 70.540772  L 210.025309 69.954409  L 221.258356 69.476427  L 235.44576 69.105682  L 254.665309 68.839908  L 284.208873 68.675993  L 345.049135 68.606648  L 398.487273 68.600304  L 398.487273 68.600304  " clip-path="url(#pef3ce7175f)" style="fill: none; stroke-width: 1.5; stroke-linecap: square;" class="color-h-stroke"/>
   </g>
   <g id="line2d_18">
    <path d="M 73.832727 295.488  L 74.059985 295.360795  L 74.352175 294.888363  L 74.74176 293.767475  L 75.261207 291.506745  L 75.942982 287.428614  L 76.852015 280.466216  L 78.085702 269.094396  L 80.066095 248.439879  L 84.319069 203.802341  L 86.429324 184.178891  L 88.344785 168.357894  L 90.162851 155.120201  L 91.915985 143.922132  L 93.636655 134.315524  L 95.357324 125.952787  L 97.045527 118.830023  L 98.733731 112.657474  L 100.421935 107.321432  L 102.110138 102.717467  L 103.798342 98.75127  L 105.486545 95.338705  L 107.207215 92.353232  L 108.960349 89.752069  L 110.745949 87.494687  L 112.59648 85.511152  L 114.511942 83.781459  L 116.5248 82.261994  L 118.66752 80.924202  L 120.972567 79.750018  L 123.472407 78.72811  L 126.231971 77.841586  L 129.348655 77.076667  L 132.95232 76.426548  L 137.23776 75.887679  L 142.497164 75.459994  L 149.347375 75.138773  L 159.087011 74.922348  L 175.709324 74.805508  L 223.888058 74.77361  L 398.487273 74.773227  L 398.487273 74.773227  " clip-path="url(#pef3ce7175f)" style="fill: none; stroke-width: 1.5; stroke-linecap: square;" class="color-b-stroke"/>
   </g>
   <g id="line2d_19">
    <path d="M 73.832727 295.488  L 73.995055 295.35608  L 74.222313 294.817966  L 74.546967 293.38673  L 75.001484 290.212567  L 75.585862 284.423643  L 76.365033 274.341014  L 77.468858 256.850305  L 79.416785 221.694768  L 82.046487 175.198544  L 83.66976 150.414924  L 85.09824 131.892311  L 86.396858 117.810287  L 87.630545 106.766442  L 88.799302 98.239254  L 89.903127 91.740786  L 90.974487 86.70911  L 92.013382 82.874503  L 92.987345 80.083605  L 93.928844 78.016809  L 94.837876 76.520043  L 95.746909 75.434382  L 96.655942 74.689478  L 97.564975 74.222668  L 98.538938 73.968661  L 99.642764 73.916823  L 100.973847 74.091595  L 102.726982 74.562982  L 111.492655 77.237094  L 114.349615 77.700849  L 117.628625 77.998998  L 121.8816 78.14705  L 129.446051 78.146059  L 155.158691 78.084889  L 398.487273 78.086019  L 398.487273 78.086019  " clip-path="url(#pef3ce7175f)" style="fill: none; stroke-width: 1.5; stroke-linecap: square;" class="color-a-stroke"/>
   </g>
   <g id="line2d_20">
    <path d="M 73.832727 295.488  L 73.962589 295.315055  L 74.157382 294.556063  L 74.449571 292.36749  L 74.871622 287.207403  L 75.423535 277.435265  L 76.202705 259.155492  L 77.371462 225.654911  L 80.553076 131.98502  L 81.721833 105.047171  L 82.728262 86.620971  L 83.637295 73.831843  L 84.448931 65.352166  L 85.163171 59.993445  L 85.81248 56.655767  L 86.364393 54.83885  L 86.851375 53.92368  L 87.24096 53.603649  L 87.565615 53.587122  L 87.922735 53.804319  L 88.344785 54.3419  L 88.896698 55.433843  L 89.643404 57.458954  L 90.714764 61.082029  L 94.545687 74.603905  L 95.681978 77.574247  L 96.688407 79.624774  L 97.629905 81.056195  L 98.506473 81.996095  L 99.350575 82.582346  L 100.194676 82.899835  L 101.071244 82.99492  L 102.077673 82.87575  L 103.343825 82.488016  L 105.45408 81.567784  L 108.278575 80.393409  L 110.194036 79.848415  L 112.109498 79.537882  L 114.284684 79.41763  L 117.303971 79.494006  L 126.589091 79.845011  L 136.361193 79.80842  L 163.30752 79.80385  L 398.487273 79.803763  L 398.487273 79.803763  " clip-path="url(#pef3ce7175f)" style="fill: none; stroke-width: 1.5; stroke-linecap: square;" class="color-e-stroke"/>
   </g>
   <g id="patch_3">
    <path d="M 57.6 307.584  L 57.6 41.472  " style="fill: none; stroke-width: 0.8; stroke-linejoin: miter; stroke-linecap: square;" class="dark-stroke"/>
   </g>
   <g id="patch_4">
    <path d="M 414.72 307.584  L 414.72 41.472  " style="fill: none; stroke-width: 0.8; stroke-linejoin: miter; stroke-linecap: square;" class="dark-stroke"/>
   </g>
   <g id="patch_5">
    <path d="M 57.6 307.584  L 414.72 307.584  " style="fill: none; stroke-width: 0.8; stroke-linejoin: miter; stroke-linecap: square;" class="dark-stroke"/>
   </g>
   <g id="patch_6">
    <path d="M 57.6 41.472  L 414.72 41.472  " style="fill: none; stroke-width: 0.8; stroke-linejoin: miter; stroke-linecap: square;" class="dark-stroke"/>
   </g>
   <g id="legend_1">
    <g id="patch_7">
     <path d="M 325.812188 302.584  L 407.72 302.584  Q 409.72 302.584 409.72 300.584  L 409.72 228.193375  Q 409.72 226.193375 407.72 226.193375  L 325.812188 226.193375  Q 323.812188 226.193375 323.812188 228.193375  L 323.812188 300.584  Q 323.812188 302.584 325.812188 302.584  z " style="opacity: 0.8; stroke-linejoin: miter;" class="light-fill color-d-stroke"/>
    </g>
    <g id="line2d_21">
     <path d="M 327.812188 234.291812  L 337.812188 234.291812  L 347.812188 234.291812  " style="fill: none; stroke-width: 1.5; stroke-linecap: square;" class="color-f-stroke"/>
    </g>
    <g id="text_18">

     <g transform="translate(355.812188 237.791812)scale(0.1 -0.1)">
      <defs>
       <path id="DejaVuSans-4b" d="M 628 4666  L 1259 4666  L 1259 2694  L 3353 4666  L 4166 4666  L 1850 2491  L 4331 0  L 3500 0  L 1259 2247  L 1259 0  L 628 0  L 628 4666  z " transform="scale(0.015625)" class="dark-stroke"/>
       <path id="DejaVuSans-20" transform="scale(0.015625)" class="dark-stroke"/>
       <path id="DejaVuSans-3d" d="M 678 2906  L 4684 2906  L 4684 2381  L 678 2381  L 678 2906  z M 678 1631  L 4684 1631  L 4684 1100  L 678 1100  L 678 1631  z " transform="scale(0.015625)" class="dark-stroke"/>
       <path id="DejaVuSans-2e" d="M 684 794  L 1344 794  L 1344 0  L 684 0  L 684 794  z " transform="scale(0.015625)" class="dark-stroke"/>
      </defs>
      <use xlink:href="#DejaVuSans-4b" class="dark-fill dark-stroke"/>
      <use xlink:href="#DejaVuSans-70" x="65.576172" class="dark-fill dark-stroke"/>
      <use xlink:href="#DejaVuSans-20" x="129.052734" class="dark-fill dark-stroke"/>
      <use xlink:href="#DejaVuSans-3d" x="160.839844" class="dark-fill dark-stroke"/>
      <use xlink:href="#DejaVuSans-20" x="244.628906" class="dark-fill dark-stroke"/>
      <use xlink:href="#DejaVuSans-30" x="276.416016" class="dark-fill dark-stroke"/>
      <use xlink:href="#DejaVuSans-2e" x="340.039062" class="dark-fill dark-stroke"/>
      <use xlink:href="#DejaVuSans-30" x="371.826172" class="dark-fill dark-stroke"/>
      <use xlink:href="#DejaVuSans-35" x="435.449219" class="dark-fill dark-stroke"/>
     </g>
    </g>
    <g id="line2d_22">
     <path d="M 327.812188 248.969937  L 337.812188 248.969937  L 347.812188 248.969937  " style="fill: none; stroke-width: 1.5; stroke-linecap: square;" class="color-h-stroke"/>
    </g>
    <g id="text_19">

     <g transform="translate(355.812188 252.469937)scale(0.1 -0.1)">
      <use xlink:href="#DejaVuSans-4b" class="dark-fill dark-stroke"/>
      <use xlink:href="#DejaVuSans-70" x="65.576172" class="dark-fill dark-stroke"/>
      <use xlink:href="#DejaVuSans-20" x="129.052734" class="dark-fill dark-stroke"/>
      <use xlink:href="#DejaVuSans-3d" x="160.839844" class="dark-fill dark-stroke"/>
      <use xlink:href="#DejaVuSans-20" x="244.628906" class="dark-fill dark-stroke"/>
      <use xlink:href="#DejaVuSans-30" x="276.416016" class="dark-fill dark-stroke"/>
      <use xlink:href="#DejaVuSans-2e" x="340.039062" class="dark-fill dark-stroke"/>
      <use xlink:href="#DejaVuSans-31" x="371.826172" class="dark-fill dark-stroke"/>
     </g>
    </g>
    <g id="line2d_23">
     <path d="M 327.812188 263.648062  L 337.812188 263.648062  L 347.812188 263.648062  " style="fill: none; stroke-width: 1.5; stroke-linecap: square;" class="color-b-stroke"/>
    </g>
    <g id="text_20">

     <g transform="translate(355.812188 267.148062)scale(0.1 -0.1)">
      <use xlink:href="#DejaVuSans-4b" class="dark-fill dark-stroke"/>
      <use xlink:href="#DejaVuSans-70" x="65.576172" class="dark-fill dark-stroke"/>
      <use xlink:href="#DejaVuSans-20" x="129.052734" class="dark-fill dark-stroke"/>
      <use xlink:href="#DejaVuSans-3d" x="160.839844" class="dark-fill dark-stroke"/>
      <use xlink:href="#DejaVuSans-20" x="244.628906" class="dark-fill dark-stroke"/>
      <use xlink:href="#DejaVuSans-30" x="276.416016" class="dark-fill dark-stroke"/>
      <use xlink:href="#DejaVuSans-2e" x="340.039062" class="dark-fill dark-stroke"/>
      <use xlink:href="#DejaVuSans-32" x="371.826172" class="dark-fill dark-stroke"/>
     </g>
    </g>
    <g id="line2d_24">
     <path d="M 327.812188 278.326188  L 337.812188 278.326188  L 347.812188 278.326188  " style="fill: none; stroke-width: 1.5; stroke-linecap: square;" class="color-a-stroke"/>
    </g>
    <g id="text_21">

     <g transform="translate(355.812188 281.826188)scale(0.1 -0.1)">
      <use xlink:href="#DejaVuSans-4b" class="dark-fill dark-stroke"/>
      <use xlink:href="#DejaVuSans-70" x="65.576172" class="dark-fill dark-stroke"/>
      <use xlink:href="#DejaVuSans-20" x="129.052734" class="dark-fill dark-stroke"/>
      <use xlink:href="#DejaVuSans-3d" x="160.839844" class="dark-fill dark-stroke"/>
      <use xlink:href="#DejaVuSans-20" x="244.628906" class="dark-fill dark-stroke"/>
      <use xlink:href="#DejaVuSans-30" x="276.416016" class="dark-fill dark-stroke"/>
      <use xlink:href="#DejaVuSans-2e" x="340.039062" class="dark-fill dark-stroke"/>
      <use xlink:href="#DejaVuSans-34" x="371.826172" class="dark-fill dark-stroke"/>
     </g>
    </g>
    <g id="line2d_25">
     <path d="M 327.812188 293.004312  L 337.812188 293.004312  L 347.812188 293.004312  " style="fill: none; stroke-width: 1.5; stroke-linecap: square;" class="color-e-stroke"/>
    </g>
    <g id="text_22">

     <g transform="translate(355.812188 296.504312)scale(0.1 -0.1)">
      <use xlink:href="#DejaVuSans-4b" class="dark-fill dark-stroke"/>
      <use xlink:href="#DejaVuSans-70" x="65.576172" class="dark-fill dark-stroke"/>
      <use xlink:href="#DejaVuSans-20" x="129.052734" class="dark-fill dark-stroke"/>
      <use xlink:href="#DejaVuSans-3d" x="160.839844" class="dark-fill dark-stroke"/>
      <use xlink:href="#DejaVuSans-20" x="244.628906" class="dark-fill dark-stroke"/>
      <use xlink:href="#DejaVuSans-30" x="276.416016" class="dark-fill dark-stroke"/>
      <use xlink:href="#DejaVuSans-2e" x="340.039062" class="dark-fill dark-stroke"/>
      <use xlink:href="#DejaVuSans-38" x="371.826172" class="dark-fill dark-stroke"/>
     </g>
    </g>
   </g>
  </g>
 </g>
 <defs>
  <clipPath id="pef3ce7175f">
   <rect x="57.6" y="41.472" width="357.12" height="266.112"/>
  </clipPath>
 </defs>
</svg>
