<svg xmlns:xlink="http://www.w3.org/1999/xlink" xmlns="http://www.w3.org/2000/svg" version="1.1" viewBox="0.0 0.0 960 418" fill="none" stroke="none" stroke-linecap="square" stroke-miterlimit="10">
    <g>
        <path class="dark-fill" fill-opacity="0.0" d="m0 0l960 0l0 418-960 0z" fill-rule="evenodd"/>
        <path d="m20.030184 375.79004l0 0c0 -13.150482 10.660559 -23.811035 23.811022 -23.811035l0 0c6.3150787 0 12.371506 2.508667 16.836937 6.9740906c4.465435 4.4654236 6.9740868 10.521851 6.9740868 16.836945l0 0c0 13.150452 -10.660557 23.811005 -23.811024 23.811005l0 0c-13.150463 0 -23.811022 -10.660553 -23.811022 -23.811005z" fill-rule="evenodd" class="color-a-fill"/>
        <path class="dark-stroke" stroke-width="1.0" stroke-linejoin="round" stroke-linecap="butt" d="m20.030184 375.79004l0 0c0 -13.150482 10.660559 -23.811035 23.811022 -23.811035l0 0c6.3150787 0 12.371506 2.508667 16.836937 6.9740906c4.465435 4.4654236 6.9740868 10.521851 6.9740868 16.836945l0 0c0 13.150452 -10.660557 23.811005 -23.811024 23.811005l0 0c-13.150463 0 -23.811022 -10.660553 -23.811022 -23.811005z" fill-rule="evenodd"/>
        <path d="m144.64699 375.79004l0 0c0 -13.150482 10.660553 -23.811035 23.81102 -23.811035l0 0c6.3150787 0 12.371506 2.508667 16.83693 6.9740906c4.465439 4.4654236 6.9740906 10.521851 6.9740906 16.836945l0 0c0 13.150452 -10.660553 23.811005 -23.81102 23.811005l0 0c-13.150467 0 -23.81102 -10.660553 -23.81102 -23.811005z" fill-rule="evenodd" class="color-a-fill"/>
        <path class="dark-stroke" stroke-width="1.0" stroke-linejoin="round" stroke-linecap="butt" d="m144.64699 375.79004l0 0c0 -13.150482 10.660553 -23.811035 23.81102 -23.811035l0 0c6.3150787 0 12.371506 2.508667 16.83693 6.9740906c4.465439 4.4654236 6.9740906 10.521851 6.9740906 16.836945l0 0c0 13.150452 -10.660553 23.811005 -23.81102 23.811005l0 0c-13.150467 0 -23.81102 -10.660553 -23.81102 -23.811005z" fill-rule="evenodd"/>
        <path d="m269.2638 375.79004l0 0c0 -13.150482 10.660553 -23.811035 23.811005 -23.811035l0 0c6.315094 0 12.371521 2.508667 16.836945 6.9740906c4.4654236 4.4654236 6.9740906 10.521851 6.9740906 16.836945l0 0c0 13.150452 -10.660553 23.811005 -23.811035 23.811005l0 0c-13.150452 0 -23.811005 -10.660553 -23.811005 -23.811005z" fill-rule="evenodd" class="color-a-fill"/>
        <path class="dark-stroke" stroke-width="1.0" stroke-linejoin="round" stroke-linecap="butt" d="m269.2638 375.79004l0 0c0 -13.150482 10.660553 -23.811035 23.811005 -23.811035l0 0c6.315094 0 12.371521 2.508667 16.836945 6.9740906c4.4654236 4.4654236 6.9740906 10.521851 6.9740906 16.836945l0 0c0 13.150452 -10.660553 23.811005 -23.811035 23.811005l0 0c-13.150452 0 -23.811005 -10.660553 -23.811005 -23.811005z" fill-rule="evenodd"/>
        <path d="m393.88058 375.79004l0 0c0 -13.150482 10.660553 -23.811035 23.811005 -23.811035l0 0c6.315094 0 12.371521 2.508667 16.836945 6.9740906c4.4654236 4.4654236 6.9740906 10.521851 6.9740906 16.836945l0 0c0 13.150452 -10.660553 23.811005 -23.811035 23.811005l0 0c-13.150452 0 -23.811005 -10.660553 -23.811005 -23.811005z" fill-rule="evenodd" class="color-a-fill"/>
        <path class="dark-stroke" stroke-width="1.0" stroke-linejoin="round" stroke-linecap="butt" d="m393.88058 375.79004l0 0c0 -13.150482 10.660553 -23.811035 23.811005 -23.811035l0 0c6.315094 0 12.371521 2.508667 16.836945 6.9740906c4.4654236 4.4654236 6.9740906 10.521851 6.9740906 16.836945l0 0c0 13.150452 -10.660553 23.811005 -23.811035 23.811005l0 0c-13.150452 0 -23.811005 -10.660553 -23.811005 -23.811005z" fill-rule="evenodd"/>
        <path d="m518.4974 375.79004l0 0c0 -13.150482 10.6605835 -23.811035 23.811035 -23.811035l0 0c6.3150635 0 12.371521 2.508667 16.836914 6.9740906c4.465454 4.4654236 6.974121 10.521851 6.974121 16.836945l0 0c0 13.150452 -10.6605835 23.811005 -23.811035 23.811005l0 0c-13.150452 0 -23.811035 -10.660553 -23.811035 -23.811005z" fill-rule="evenodd" class="color-a-fill"/>
        <path class="dark-stroke" stroke-width="1.0" stroke-linejoin="round" stroke-linecap="butt" d="m518.4974 375.79004l0 0c0 -13.150482 10.6605835 -23.811035 23.811035 -23.811035l0 0c6.3150635 0 12.371521 2.508667 16.836914 6.9740906c4.465454 4.4654236 6.974121 10.521851 6.974121 16.836945l0 0c0 13.150452 -10.6605835 23.811005 -23.811035 23.811005l0 0c-13.150452 0 -23.811035 -10.660553 -23.811035 -23.811005z" fill-rule="evenodd"/>
        <path d="m643.1142 375.79004l0 0c0 -13.150482 10.660522 -23.811035 23.810974 -23.811035l0 0c6.3151245 0 12.371521 2.508667 16.836975 6.9740906c4.465393 4.4654236 6.97406 10.521851 6.97406 16.836945l0 0c0 13.150452 -10.660522 23.811005 -23.811035 23.811005l0 0c-13.150452 0 -23.810974 -10.660553 -23.810974 -23.811005z" fill-rule="evenodd" class="color-a-fill"/>
        <path class="dark-stroke" stroke-width="1.0" stroke-linejoin="round" stroke-linecap="butt" d="m643.1142 375.79004l0 0c0 -13.150482 10.660522 -23.811035 23.810974 -23.811035l0 0c6.3151245 0 12.371521 2.508667 16.836975 6.9740906c4.465393 4.4654236 6.97406 10.521851 6.97406 16.836945l0 0c0 13.150452 -10.660522 23.811005 -23.811035 23.811005l0 0c-13.150452 0 -23.810974 -10.660553 -23.810974 -23.811005z" fill-rule="evenodd"/>
        <path d="m767.73096 375.79004l0 0c0 -13.150482 10.6605835 -23.811035 23.811035 -23.811035l0 0c6.3150635 0 12.371521 2.508667 16.836914 6.9740906c4.465454 4.4654236 6.974121 10.521851 6.974121 16.836945l0 0c0 13.150452 -10.6605835 23.811005 -23.811035 23.811005l0 0c-13.150452 0 -23.811035 -10.660553 -23.811035 -23.811005z" fill-rule="evenodd" class="color-a-fill"/>
        <path class="dark-stroke" stroke-width="1.0" stroke-linejoin="round" stroke-linecap="butt" d="m767.73096 375.79004l0 0c0 -13.150482 10.6605835 -23.811035 23.811035 -23.811035l0 0c6.3150635 0 12.371521 2.508667 16.836914 6.9740906c4.465454 4.4654236 6.974121 10.521851 6.974121 16.836945l0 0c0 13.150452 -10.6605835 23.811005 -23.811035 23.811005l0 0c-13.150452 0 -23.811035 -10.660553 -23.811035 -23.811005z" fill-rule="evenodd"/>
        <path d="m892.3478 375.79004l0 0c0 -13.150482 10.660522 -23.811035 23.811035 -23.811035l0 0c6.3150635 0 12.37146 2.508667 16.836914 6.9740906c4.465454 4.4654236 6.97406 10.521851 6.97406 16.836945l0 0c0 13.150452 -10.660522 23.811005 -23.810974 23.811005l0 0c-13.150513 0 -23.811035 -10.660553 -23.811035 -23.811005z" fill-rule="evenodd" class="color-a-fill"/>
        <path class="dark-stroke" stroke-width="1.0" stroke-linejoin="round" stroke-linecap="butt" d="m892.3478 375.79004l0 0c0 -13.150482 10.660522 -23.811035 23.811035 -23.811035l0 0c6.3150635 0 12.37146 2.508667 16.836914 6.9740906c4.465454 4.4654236 6.97406 10.521851 6.97406 16.836945l0 0c0 13.150452 -10.660522 23.811005 -23.810974 23.811005l0 0c-13.150513 0 -23.811035 -10.660553 -23.811035 -23.811005z" fill-rule="evenodd"/>
        <path d="m82.3399 328.16797l0 0c0 -13.150452 10.660553 -23.811005 23.81102 -23.811005l0 0c6.3150787 0 12.371506 2.5086365 16.836937 6.9740906c4.465431 4.4654236 6.9740906 10.521851 6.9740906 16.836914l0 0c0 13.150482 -10.660561 23.811035 -23.811028 23.811035l0 0c-13.150467 0 -23.81102 -10.660553 -23.81102 -23.811035z" fill-rule="evenodd" class="color-b-fill"/>
        <path class="dark-stroke" stroke-width="1.0" stroke-linejoin="round" stroke-linecap="butt" d="m82.3399 328.16797l0 0c0 -13.150452 10.660553 -23.811005 23.81102 -23.811005l0 0c6.3150787 0 12.371506 2.5086365 16.836937 6.9740906c4.465431 4.4654236 6.9740906 10.521851 6.9740906 16.836914l0 0c0 13.150482 -10.660561 23.811035 -23.811028 23.811035l0 0c-13.150467 0 -23.81102 -10.660553 -23.81102 -23.811035z" fill-rule="evenodd"/>
        <path d="m206.9567 280.54593l0 0c0 -13.150452 10.660553 -23.811035 23.81102 -23.811035l0 0c6.3150787 0 12.371506 2.508667 16.836945 6.9740906c4.4654236 4.465454 6.9740753 10.521881 6.9740753 16.836945l0 0c0 13.150482 -10.660553 23.811035 -23.81102 23.811035l0 0c-13.150467 0 -23.81102 -10.660553 -23.81102 -23.811035z" fill-rule="evenodd" class="color-b-fill"/>
        <path class="dark-stroke" stroke-width="1.0" stroke-linejoin="round" stroke-linecap="butt" d="m206.9567 280.54593l0 0c0 -13.150452 10.660553 -23.811035 23.81102 -23.811035l0 0c6.3150787 0 12.371506 2.508667 16.836945 6.9740906c4.4654236 4.465454 6.9740753 10.521881 6.9740753 16.836945l0 0c0 13.150482 -10.660553 23.811035 -23.81102 23.811035l0 0c-13.150467 0 -23.81102 -10.660553 -23.81102 -23.811035z" fill-rule="evenodd"/>
        <path d="m331.57217 232.92389l0 0c0 -13.150467 10.660553 -23.811035 23.811035 -23.811035l0 0c6.3150635 0 12.3714905 2.508667 16.836914 6.9740906c4.465454 4.465439 6.9740906 10.521866 6.9740906 16.836945l0 0c0 13.150467 -10.660553 23.811005 -23.811005 23.811005l0 0c-13.150482 0 -23.811035 -10.660538 -23.811035 -23.811005z" fill-rule="evenodd" class="color-b-fill"/>
        <path class="dark-stroke" stroke-width="1.0" stroke-linejoin="round" stroke-linecap="butt" d="m331.57217 232.92389l0 0c0 -13.150467 10.660553 -23.811035 23.811035 -23.811035l0 0c6.3150635 0 12.3714905 2.508667 16.836914 6.9740906c4.465454 4.465439 6.9740906 10.521866 6.9740906 16.836945l0 0c0 13.150467 -10.660553 23.811005 -23.811005 23.811005l0 0c-13.150482 0 -23.811035 -10.660538 -23.811035 -23.811005z" fill-rule="evenodd"/>
        <path d="m456.18896 185.30183l0 0c0 -13.150467 10.6605835 -23.81102 23.811035 -23.81102l0 0c6.3150635 0 12.3714905 2.5086517 16.836945 6.9740906c4.4654236 4.4654236 6.9740906 10.521851 6.9740906 16.83693l0 0c0 13.150467 -10.6605835 23.81102 -23.811035 23.81102l0 0c-13.150452 0 -23.811035 -10.660553 -23.811035 -23.81102z" fill-rule="evenodd" class="color-b-fill"/>
        <path class="dark-stroke" stroke-width="1.0" stroke-linejoin="round" stroke-linecap="butt" d="m456.18896 185.30183l0 0c0 -13.150467 10.6605835 -23.81102 23.811035 -23.81102l0 0c6.3150635 0 12.3714905 2.5086517 16.836945 6.9740906c4.4654236 4.4654236 6.9740906 10.521851 6.9740906 16.83693l0 0c0 13.150467 -10.6605835 23.81102 -23.811035 23.81102l0 0c-13.150452 0 -23.811035 -10.660553 -23.811035 -23.81102z" fill-rule="evenodd"/>
        <path d="m580.8058 137.6798l0 0c0 -13.150467 10.660522 -23.811028 23.811035 -23.811028l0 0c6.3150635 0 12.37146 2.5086517 16.836914 6.9740906c4.465454 4.465431 6.97406 10.521858 6.97406 16.836937l0 0c0 13.150467 -10.660522 23.81102 -23.810974 23.81102l0 0c-13.150513 0 -23.811035 -10.660553 -23.811035 -23.81102z" fill-rule="evenodd" class="color-b-fill"/>
        <path class="dark-stroke" stroke-width="1.0" stroke-linejoin="round" stroke-linecap="butt" d="m580.8058 137.6798l0 0c0 -13.150467 10.660522 -23.811028 23.811035 -23.811028l0 0c6.3150635 0 12.37146 2.5086517 16.836914 6.9740906c4.465454 4.465431 6.97406 10.521858 6.97406 16.836937l0 0c0 13.150467 -10.660522 23.81102 -23.810974 23.81102l0 0c-13.150513 0 -23.811035 -10.660553 -23.811035 -23.81102z" fill-rule="evenodd"/>
        <path d="m705.42255 90.05774l0 0c0 -13.150459 10.6605835 -23.81102 23.811035 -23.81102l0 0c6.3150635 0 12.371521 2.5086517 16.836975 6.9740906c4.465393 4.465431 6.97406 10.521858 6.97406 16.83693l0 0c0 13.150467 -10.6605835 23.811028 -23.811035 23.811028l0 0c-13.150452 0 -23.811035 -10.660561 -23.811035 -23.811028z" fill-rule="evenodd" class="color-b-fill"/>
        <path class="dark-stroke" stroke-width="1.0" stroke-linejoin="round" stroke-linecap="butt" d="m705.42255 90.05774l0 0c0 -13.150459 10.6605835 -23.81102 23.811035 -23.81102l0 0c6.3150635 0 12.371521 2.5086517 16.836975 6.9740906c4.465393 4.465431 6.97406 10.521858 6.97406 16.83693l0 0c0 13.150467 -10.6605835 23.811028 -23.811035 23.811028l0 0c-13.150452 0 -23.811035 -10.660561 -23.811035 -23.811028z" fill-rule="evenodd"/>
        <path d="m830.03937 42.435696l0 0c0 -13.150465 10.6605835 -23.811024 23.811035 -23.811024l0 0c6.3150635 0 12.371521 2.5086536 16.836914 6.9740868c4.465454 4.465433 6.974121 10.521862 6.974121 16.836937l0 0c0 13.150467 -10.6605835 23.811024 -23.811035 23.811024l0 0c-13.150452 0 -23.811035 -10.660557 -23.811035 -23.811024z" fill-rule="evenodd" class="color-b-fill"/>
        <path class="dark-stroke" stroke-width="1.0" stroke-linejoin="round" stroke-linecap="butt" d="m830.03937 42.435696l0 0c0 -13.150465 10.6605835 -23.811024 23.811035 -23.811024l0 0c6.3150635 0 12.371521 2.5086536 16.836914 6.9740868c4.465454 4.465433 6.974121 10.521862 6.974121 16.836937l0 0c0 13.150467 -10.6605835 23.811024 -23.811035 23.811024l0 0c-13.150452 0 -23.811035 -10.660557 -23.811035 -23.811024z" fill-rule="evenodd"/>
        <path class="dark-fill" fill-opacity="0.0" d="m122.987854 311.33105l83.968506 -30.771667" fill-rule="evenodd"/>
        <path class="dark-stroke" stroke-width="1.0" stroke-linejoin="round" stroke-linecap="butt" d="m122.987854 311.33102l78.3349 -28.707123" fill-rule="evenodd"/>
        <path class="dark-fill dark-stroke" stroke-width="1.0" stroke-linecap="butt" d="m201.89108 284.1748l3.6926422 -3.1123962l-4.8293304 0.010650635z" fill-rule="evenodd"/>
        <path class="dark-fill" fill-opacity="0.0" d="m247.60466 263.70898l83.96849 -30.771637" fill-rule="evenodd"/>
        <path class="dark-stroke" stroke-width="1.0" stroke-linejoin="round" stroke-linecap="butt" d="m247.60466 263.70898l78.334885 -28.707123" fill-rule="evenodd"/>
        <path class="dark-fill dark-stroke" stroke-width="1.0" stroke-linecap="butt" d="m326.50787 236.55275l3.6926575 -3.1123962l-4.8293457 0.010650635z" fill-rule="evenodd"/>
        <path class="dark-fill" fill-opacity="0.0" d="m372.22012 216.08694l83.968506 -30.771652" fill-rule="evenodd"/>
        <path class="dark-stroke" stroke-width="1.0" stroke-linejoin="round" stroke-linecap="butt" d="m372.22015 216.08694l78.33487 -28.707123" fill-rule="evenodd"/>
        <path class="dark-fill dark-stroke" stroke-width="1.0" stroke-linecap="butt" d="m451.12338 188.9307l3.692627 -3.112381l-4.829315 0.010635376z" fill-rule="evenodd"/>
        <path class="dark-fill" fill-opacity="0.0" d="m496.83694 168.4649l83.968475 -30.771652" fill-rule="evenodd"/>
        <path class="dark-stroke" stroke-width="1.0" stroke-linejoin="round" stroke-linecap="butt" d="m496.83694 168.4649l78.33487 -28.707123" fill-rule="evenodd"/>
        <path class="dark-fill dark-stroke" stroke-width="1.0" stroke-linecap="butt" d="m575.7402 141.30865l3.692627 -3.112381l-4.8293457 0.010635376z" fill-rule="evenodd"/>
        <path class="dark-fill" fill-opacity="0.0" d="m621.45374 120.84286l83.968506 -30.77166" fill-rule="evenodd"/>
        <path class="dark-stroke" stroke-width="1.0" stroke-linejoin="round" stroke-linecap="butt" d="m621.45374 120.84286l78.3349 -28.707123" fill-rule="evenodd"/>
        <path class="dark-fill dark-stroke" stroke-width="1.0" stroke-linecap="butt" d="m700.357 93.686615l3.692627 -3.1123886l-4.8293457 0.010643005z" fill-rule="evenodd"/>
        <path class="dark-fill" fill-opacity="0.0" d="m746.07056 73.22081l83.968506 -30.771656" fill-rule="evenodd"/>
        <path class="dark-stroke" stroke-width="1.0" stroke-linejoin="round" stroke-linecap="butt" d="m746.07056 73.2208l78.3349 -28.707115" fill-rule="evenodd"/>
        <path class="dark-fill dark-stroke" stroke-width="1.0" stroke-linecap="butt" d="m824.97375 46.06456l3.692627 -3.1123848l-4.8292847 0.010639191z" fill-rule="evenodd"/>
        <path class="dark-fill" fill-opacity="0.0" d="m916.1588 351.979l-62.299255 -285.7323" fill-rule="evenodd"/>
        <path class="dark-stroke" stroke-width="1.0" stroke-linejoin="round" stroke-linecap="butt" d="m916.1588 351.979l-61.02112 -279.87" fill-rule="evenodd"/>
        <path class="dark-fill dark-stroke" stroke-width="1.0" stroke-linecap="butt" d="m856.7516 71.757126l-2.5805664 -4.082062l-0.6470947 4.785797z" fill-rule="evenodd"/>
        <path class="dark-fill" fill-opacity="0.0" d="m791.542 351.979l-62.299194 -238.11023" fill-rule="evenodd"/>
        <path class="dark-stroke" stroke-width="1.0" stroke-linejoin="round" stroke-linecap="butt" d="m791.542 351.979l-60.780518 -232.30563" fill-rule="evenodd"/>
        <path class="dark-fill dark-stroke" stroke-width="1.0" stroke-linecap="butt" d="m732.35944 119.25529l-2.746643 -3.972229l-0.44921875 4.808403z" fill-rule="evenodd"/>
        <path class="dark-fill" fill-opacity="0.0" d="m666.9252 351.979l-62.299194 -190.48819" fill-rule="evenodd"/>
        <path class="dark-stroke" stroke-width="1.0" stroke-linejoin="round" stroke-linecap="butt" d="m666.9252 351.979l-60.434082 -184.78543" fill-rule="evenodd"/>
        <path class="dark-fill dark-stroke" stroke-width="1.0" stroke-linecap="butt" d="m608.061 166.68013l-2.9805908 -3.7998352l-0.15924072 4.826721z" fill-rule="evenodd"/>
        <path class="dark-fill" fill-opacity="0.0" d="m542.3084 351.979l-62.299225 -142.86615" fill-rule="evenodd"/>
        <path class="dark-stroke" stroke-width="1.0" stroke-linejoin="round" stroke-linecap="butt" d="m542.3084 351.979l-59.90094 -137.3663" fill-rule="evenodd"/>
        <path class="dark-fill dark-stroke" stroke-width="1.0" stroke-linecap="butt" d="m483.92154 213.95247l-3.328003 -3.4995728l0.29989624 4.8200226z" fill-rule="evenodd"/>
        <path class="dark-fill" fill-opacity="0.0" d="m417.6916 351.979l-62.299194 -95.24411" fill-rule="evenodd"/>
        <path class="dark-stroke" stroke-width="1.0" stroke-linejoin="round" stroke-linecap="butt" d="m417.6916 351.979l-59.0148 -90.22287" fill-rule="evenodd"/>
        <path class="dark-fill dark-stroke" stroke-width="1.0" stroke-linecap="butt" d="m360.05908 260.852l-3.866455 -2.8936462l1.1018677 4.7019653z" fill-rule="evenodd"/>
        <path class="dark-fill" fill-opacity="0.0" d="m293.0748 351.979l-62.29921 -47.62204" fill-rule="evenodd"/>
        <path class="dark-stroke" stroke-width="1.0" stroke-linejoin="round" stroke-linecap="butt" d="m293.0748 351.979l-57.53238 -43.97824" fill-rule="evenodd"/>
        <path class="dark-fill dark-stroke" stroke-width="1.0" stroke-linecap="butt" d="m236.54552 306.6885l-4.60849 -1.4437256l2.602295 4.0682373z" fill-rule="evenodd"/>
        <path class="dark-fill" fill-opacity="0.0" d="m168.45801 351.979l-45.480316 -6.9606323" fill-rule="evenodd"/>
        <path class="dark-stroke" stroke-width="1.0" stroke-linejoin="round" stroke-linecap="butt" d="m168.45801 351.979l-39.549377 -6.0529175" fill-rule="evenodd"/>
        <path class="dark-fill dark-stroke" stroke-width="1.0" stroke-linecap="butt" d="m129.15851 344.29337l-4.7357407 0.946167l4.235985 2.319275z" fill-rule="evenodd"/>
        <path class="dark-fill" fill-opacity="0.0" d="m43.841206 351.979l45.48032 -6.9606323" fill-rule="evenodd"/>
        <path class="dark-stroke" stroke-width="1.0" stroke-linejoin="round" stroke-linecap="butt" d="m43.841206 351.979l39.54938 -6.0529175" fill-rule="evenodd"/>
        <path class="dark-fill dark-stroke" stroke-width="1.0" stroke-linecap="butt" d="m83.640465 347.5588l4.235985 -2.319275l-4.7357483 -0.946167z" fill-rule="evenodd"/>
    </g>
</svg>