<svg xmlns:xlink="http://www.w3.org/1999/xlink" xmlns="http://www.w3.org/2000/svg" version="1.1" viewBox="0.0 0.0 960.8346456692914 254.82939632545933" fill="none" stroke="none" stroke-linecap="square" stroke-miterlimit="10">
    <g>
        <path class="dark-fill" fill-opacity="0.0" d="m0 0l960.83466 0l0 254.82939l-960.83466 0z" fill-rule="evenodd"/>
        <path d="m25.866142 124.57743l14.204723 0l0 70.07874l-14.204723 0z" fill-rule="evenodd" class="color-b-fill"/>
        <path class="dark-stroke" stroke-width="1.0" stroke-linejoin="round" stroke-linecap="butt" d="m25.866142 124.57743l14.204723 0l0 70.07874l-14.204723 0z" fill-rule="evenodd"/>
        <path d="m40.070866 124.57743l14.204723 0l0 70.07874l-14.204723 0z" fill-rule="evenodd" class="color-c-fill"/>
        <path class="dark-stroke" stroke-width="1.0" stroke-linejoin="round" stroke-linecap="butt" d="m40.070866 124.57743l14.204723 0l0 70.07874l-14.204723 0z" fill-rule="evenodd"/>
        <path d="m54.27559 124.57743l14.204727 0l0 70.07874l-14.204727 0z" fill-rule="evenodd" class="color-c-fill"/>
        <path class="dark-stroke" stroke-width="1.0" stroke-linejoin="round" stroke-linecap="butt" d="m54.27559 124.57743l14.204727 0l0 70.07874l-14.204727 0z" fill-rule="evenodd"/>
        <path d="m68.480316 124.57743l14.20472 0l0 70.07874l-14.20472 0z" fill-rule="evenodd" class="color-c-fill"/>
        <path class="dark-stroke" stroke-width="1.0" stroke-linejoin="round" stroke-linecap="butt" d="m68.480316 124.57743l14.20472 0l0 70.07874l-14.20472 0z" fill-rule="evenodd"/>
        <path d="m82.685036 124.57743l14.204727 0l0 70.07874l-14.204727 0z" fill-rule="evenodd" class="color-c-fill"/>
        <path class="dark-stroke" stroke-width="1.0" stroke-linejoin="round" stroke-linecap="butt" d="m82.685036 124.57743l14.204727 0l0 70.07874l-14.204727 0z" fill-rule="evenodd"/>
        <path d="m96.88976 124.57743l14.204727 0l0 70.07874l-14.204727 0z" fill-rule="evenodd" class="color-c-fill"/>
        <path class="dark-stroke" stroke-width="1.0" stroke-linejoin="round" stroke-linecap="butt" d="m96.88976 124.57743l14.204727 0l0 70.07874l-14.204727 0z" fill-rule="evenodd"/>
        <path d="m111.09449 124.57743l14.20472 0l0 70.07874l-14.20472 0z" fill-rule="evenodd" class="color-c-fill"/>
        <path class="dark-stroke" stroke-width="1.0" stroke-linejoin="round" stroke-linecap="butt" d="m111.09449 124.57743l14.20472 0l0 70.07874l-14.20472 0z" fill-rule="evenodd"/>
        <path d="m125.29921 124.57743l14.204727 0l0 70.07874l-14.204727 0z" fill-rule="evenodd" class="color-c-fill"/>
        <path class="dark-stroke" stroke-width="1.0" stroke-linejoin="round" stroke-linecap="butt" d="m125.29921 124.57743l14.204727 0l0 70.07874l-14.204727 0z" fill-rule="evenodd"/>
        <path d="m139.50394 124.57743l14.204727 0l0 70.07874l-14.204727 0z" fill-rule="evenodd" class="color-c-fill"/>
        <path class="dark-stroke" stroke-width="1.0" stroke-linejoin="round" stroke-linecap="butt" d="m139.50394 124.57743l14.204727 0l0 70.07874l-14.204727 0z" fill-rule="evenodd"/>
        <path d="m153.70866 124.57743l14.204727 0l0 70.07874l-14.204727 0z" fill-rule="evenodd" class="color-c-fill"/>
        <path class="dark-stroke" stroke-width="1.0" stroke-linejoin="round" stroke-linecap="butt" d="m153.70866 124.57743l14.204727 0l0 70.07874l-14.204727 0z" fill-rule="evenodd"/>
        <path d="m167.91339 124.57743l14.204712 0l0 70.07874l-14.204712 0z" fill-rule="evenodd" class="color-c-fill"/>
        <path class="dark-stroke" stroke-width="1.0" stroke-linejoin="round" stroke-linecap="butt" d="m167.91339 124.57743l14.204712 0l0 70.07874l-14.204712 0z" fill-rule="evenodd"/>
        <path d="m182.1181 124.57743l14.204727 0l0 70.07874l-14.204727 0z" fill-rule="evenodd" class="color-c-fill"/>
        <path class="dark-stroke" stroke-width="1.0" stroke-linejoin="round" stroke-linecap="butt" d="m182.1181 124.57743l14.204727 0l0 70.07874l-14.204727 0z" fill-rule="evenodd"/>
        <path d="m196.32283 124.57743l14.204727 0l0 70.07874l-14.204727 0z" fill-rule="evenodd" class="color-a-fill"/>
        <path class="dark-stroke" stroke-width="1.0" stroke-linejoin="round" stroke-linecap="butt" d="m196.32283 124.57743l14.204727 0l0 70.07874l-14.204727 0z" fill-rule="evenodd"/>
        <path d="m210.52756 124.57743l14.204727 0l0 70.07874l-14.204727 0z" fill-rule="evenodd" class="color-a-fill"/>
        <path class="dark-stroke" stroke-width="1.0" stroke-linejoin="round" stroke-linecap="butt" d="m210.52756 124.57743l14.204727 0l0 70.07874l-14.204727 0z" fill-rule="evenodd"/>
        <path d="m224.73228 124.57743l14.204727 0l0 70.07874l-14.204727 0z" fill-rule="evenodd" class="color-a-fill"/>
        <path class="dark-stroke" stroke-width="1.0" stroke-linejoin="round" stroke-linecap="butt" d="m224.73228 124.57743l14.204727 0l0 70.07874l-14.204727 0z" fill-rule="evenodd"/>
        <path d="m238.93701 124.57743l14.204727 0l0 70.07874l-14.204727 0z" fill-rule="evenodd" class="color-a-fill"/>
        <path class="dark-stroke" stroke-width="1.0" stroke-linejoin="round" stroke-linecap="butt" d="m238.93701 124.57743l14.204727 0l0 70.07874l-14.204727 0z" fill-rule="evenodd"/>
        <path d="m253.14174 124.57743l14.204727 0l0 70.07874l-14.204727 0z" fill-rule="evenodd" class="color-a-fill"/>
        <path class="dark-stroke" stroke-width="1.0" stroke-linejoin="round" stroke-linecap="butt" d="m253.14174 124.57743l14.204727 0l0 70.07874l-14.204727 0z" fill-rule="evenodd"/>
        <path d="m267.34647 124.57743l14.204712 0l0 70.07874l-14.204712 0z" fill-rule="evenodd" class="color-a-fill"/>
        <path class="dark-stroke" stroke-width="1.0" stroke-linejoin="round" stroke-linecap="butt" d="m267.34647 124.57743l14.204712 0l0 70.07874l-14.204712 0z" fill-rule="evenodd"/>
        <path d="m281.55118 124.57743l14.204742 0l0 70.07874l-14.204742 0z" fill-rule="evenodd" class="color-a-fill"/>
        <path class="dark-stroke" stroke-width="1.0" stroke-linejoin="round" stroke-linecap="butt" d="m281.55118 124.57743l14.204742 0l0 70.07874l-14.204742 0z" fill-rule="evenodd"/>
        <path d="m295.75592 124.57743l14.204712 0l0 70.07874l-14.204712 0z" fill-rule="evenodd" class="color-a-fill"/>
        <path class="dark-stroke" stroke-width="1.0" stroke-linejoin="round" stroke-linecap="butt" d="m295.75592 124.57743l14.204712 0l0 70.07874l-14.204712 0z" fill-rule="evenodd"/>
        <path d="m309.96063 124.57743l14.204712 0l0 70.07874l-14.204712 0z" fill-rule="evenodd" class="color-a-fill"/>
        <path class="dark-stroke" stroke-width="1.0" stroke-linejoin="round" stroke-linecap="butt" d="m309.96063 124.57743l14.204712 0l0 70.07874l-14.204712 0z" fill-rule="evenodd"/>
        <path d="m324.16534 124.57743l14.204742 0l0 70.07874l-14.204742 0z" fill-rule="evenodd" class="color-a-fill"/>
        <path class="dark-stroke" stroke-width="1.0" stroke-linejoin="round" stroke-linecap="butt" d="m324.16534 124.57743l14.204742 0l0 70.07874l-14.204742 0z" fill-rule="evenodd"/>
        <path d="m338.3701 124.57743l14.204712 0l0 70.07874l-14.204712 0z" fill-rule="evenodd" class="color-a-fill"/>
        <path class="dark-stroke" stroke-width="1.0" stroke-linejoin="round" stroke-linecap="butt" d="m338.3701 124.57743l14.204712 0l0 70.07874l-14.204712 0z" fill-rule="evenodd"/>
        <path d="m352.5748 124.57743l14.204742 0l0 70.07874l-14.204742 0z" fill-rule="evenodd" class="color-a-fill"/>
        <path class="dark-stroke" stroke-width="1.0" stroke-linejoin="round" stroke-linecap="butt" d="m352.5748 124.57743l14.204742 0l0 70.07874l-14.204742 0z" fill-rule="evenodd"/>
        <path d="m366.77954 124.57743l14.204712 0l0 70.07874l-14.204712 0z" fill-rule="evenodd" class="color-a-fill"/>
        <path class="dark-stroke" stroke-width="1.0" stroke-linejoin="round" stroke-linecap="butt" d="m366.77954 124.57743l14.204712 0l0 70.07874l-14.204712 0z" fill-rule="evenodd"/>
        <path d="m380.98425 124.57743l14.204712 0l0 70.07874l-14.204712 0z" fill-rule="evenodd" class="color-a-fill"/>
        <path class="dark-stroke" stroke-width="1.0" stroke-linejoin="round" stroke-linecap="butt" d="m380.98425 124.57743l14.204712 0l0 70.07874l-14.204712 0z" fill-rule="evenodd"/>
        <path d="m395.18896 124.57743l14.204742 0l0 70.07874l-14.204742 0z" fill-rule="evenodd" class="color-a-fill"/>
        <path class="dark-stroke" stroke-width="1.0" stroke-linejoin="round" stroke-linecap="butt" d="m395.18896 124.57743l14.204742 0l0 70.07874l-14.204742 0z" fill-rule="evenodd"/>
        <path d="m409.3937 124.57743l14.204712 0l0 70.07874l-14.204712 0z" fill-rule="evenodd" class="color-a-fill"/>
        <path class="dark-stroke" stroke-width="1.0" stroke-linejoin="round" stroke-linecap="butt" d="m409.3937 124.57743l14.204712 0l0 70.07874l-14.204712 0z" fill-rule="evenodd"/>
        <path d="m423.59842 124.57743l14.204742 0l0 70.07874l-14.204742 0z" fill-rule="evenodd" class="color-a-fill"/>
        <path class="dark-stroke" stroke-width="1.0" stroke-linejoin="round" stroke-linecap="butt" d="m423.59842 124.57743l14.204742 0l0 70.07874l-14.204742 0z" fill-rule="evenodd"/>
        <path d="m437.80316 124.57743l14.204712 0l0 70.07874l-14.204712 0z" fill-rule="evenodd" class="color-a-fill"/>
        <path class="dark-stroke" stroke-width="1.0" stroke-linejoin="round" stroke-linecap="butt" d="m437.80316 124.57743l14.204712 0l0 70.07874l-14.204712 0z" fill-rule="evenodd"/>
        <path d="m452.00787 124.57743l14.204712 0l0 70.07874l-14.204712 0z" fill-rule="evenodd" class="color-a-fill"/>
        <path class="dark-stroke" stroke-width="1.0" stroke-linejoin="round" stroke-linecap="butt" d="m452.00787 124.57743l14.204712 0l0 70.07874l-14.204712 0z" fill-rule="evenodd"/>
        <path d="m466.2126 124.57743l14.204742 0l0 70.07874l-14.204742 0z" fill-rule="evenodd" class="color-a-fill"/>
        <path class="dark-stroke" stroke-width="1.0" stroke-linejoin="round" stroke-linecap="butt" d="m466.2126 124.57743l14.204742 0l0 70.07874l-14.204742 0z" fill-rule="evenodd"/>
        <path d="m480.41733 124.57743l14.204712 0l0 70.07874l-14.204712 0z" fill-rule="evenodd" class="color-a-fill"/>
        <path class="dark-stroke" stroke-width="1.0" stroke-linejoin="round" stroke-linecap="butt" d="m480.41733 124.57743l14.204712 0l0 70.07874l-14.204712 0z" fill-rule="evenodd"/>
        <path d="m494.62204 124.57743l14.204742 0l0 70.07874l-14.204742 0z" fill-rule="evenodd" class="color-a-fill"/>
        <path class="dark-stroke" stroke-width="1.0" stroke-linejoin="round" stroke-linecap="butt" d="m494.62204 124.57743l14.204742 0l0 70.07874l-14.204742 0z" fill-rule="evenodd"/>
        <path d="m508.82678 124.57743l14.204712 0l0 70.07874l-14.204712 0z" fill-rule="evenodd" class="color-a-fill"/>
        <path class="dark-stroke" stroke-width="1.0" stroke-linejoin="round" stroke-linecap="butt" d="m508.82678 124.57743l14.204712 0l0 70.07874l-14.204712 0z" fill-rule="evenodd"/>
        <path d="m523.0315 124.57743l14.204712 0l0 70.07874l-14.204712 0z" fill-rule="evenodd" class="color-a-fill"/>
        <path class="dark-stroke" stroke-width="1.0" stroke-linejoin="round" stroke-linecap="butt" d="m523.0315 124.57743l14.204712 0l0 70.07874l-14.204712 0z" fill-rule="evenodd"/>
        <path d="m537.2362 124.57743l14.204712 0l0 70.07874l-14.204712 0z" fill-rule="evenodd" class="color-a-fill"/>
        <path class="dark-stroke" stroke-width="1.0" stroke-linejoin="round" stroke-linecap="butt" d="m537.2362 124.57743l14.204712 0l0 70.07874l-14.204712 0z" fill-rule="evenodd"/>
        <path d="m551.4409 124.57743l14.204773 0l0 70.07874l-14.204773 0z" fill-rule="evenodd" class="color-a-fill"/>
        <path class="dark-stroke" stroke-width="1.0" stroke-linejoin="round" stroke-linecap="butt" d="m551.4409 124.57743l14.204773 0l0 70.07874l-14.204773 0z" fill-rule="evenodd"/>
        <path d="m565.6457 124.57743l14.204712 0l0 70.07874l-14.204712 0z" fill-rule="evenodd" class="color-a-fill"/>
        <path class="dark-stroke" stroke-width="1.0" stroke-linejoin="round" stroke-linecap="butt" d="m565.6457 124.57743l14.204712 0l0 70.07874l-14.204712 0z" fill-rule="evenodd"/>
        <path d="m579.8504 124.57743l14.204712 0l0 70.07874l-14.204712 0z" fill-rule="evenodd" class="color-a-fill"/>
        <path class="dark-stroke" stroke-width="1.0" stroke-linejoin="round" stroke-linecap="butt" d="m579.8504 124.57743l14.204712 0l0 70.07874l-14.204712 0z" fill-rule="evenodd"/>
        <path d="m594.0551 124.57743l14.204712 0l0 70.07874l-14.204712 0z" fill-rule="evenodd" class="color-a-fill"/>
        <path class="dark-stroke" stroke-width="1.0" stroke-linejoin="round" stroke-linecap="butt" d="m594.0551 124.57743l14.204712 0l0 70.07874l-14.204712 0z" fill-rule="evenodd"/>
        <path d="m608.2598 124.57743l14.204712 0l0 70.07874l-14.204712 0z" fill-rule="evenodd" class="color-a-fill"/>
        <path class="dark-stroke" stroke-width="1.0" stroke-linejoin="round" stroke-linecap="butt" d="m608.2598 124.57743l14.204712 0l0 70.07874l-14.204712 0z" fill-rule="evenodd"/>
        <path d="m622.46454 124.57743l14.204773 0l0 70.07874l-14.204773 0z" fill-rule="evenodd" class="color-a-fill"/>
        <path class="dark-stroke" stroke-width="1.0" stroke-linejoin="round" stroke-linecap="butt" d="m622.46454 124.57743l14.204773 0l0 70.07874l-14.204773 0z" fill-rule="evenodd"/>
        <path d="m636.6693 124.57743l14.204712 0l0 70.07874l-14.204712 0z" fill-rule="evenodd" class="color-a-fill"/>
        <path class="dark-stroke" stroke-width="1.0" stroke-linejoin="round" stroke-linecap="butt" d="m636.6693 124.57743l14.204712 0l0 70.07874l-14.204712 0z" fill-rule="evenodd"/>
        <path d="m650.874 124.57743l14.204712 0l0 70.07874l-14.204712 0z" fill-rule="evenodd" class="color-a-fill"/>
        <path class="dark-stroke" stroke-width="1.0" stroke-linejoin="round" stroke-linecap="butt" d="m650.874 124.57743l14.204712 0l0 70.07874l-14.204712 0z" fill-rule="evenodd"/>
        <path d="m665.07874 124.57743l14.204712 0l0 70.07874l-14.204712 0z" fill-rule="evenodd" class="color-a-fill"/>
        <path class="dark-stroke" stroke-width="1.0" stroke-linejoin="round" stroke-linecap="butt" d="m665.07874 124.57743l14.204712 0l0 70.07874l-14.204712 0z" fill-rule="evenodd"/>
        <path d="m679.28345 124.57743l14.204712 0l0 70.07874l-14.204712 0z" fill-rule="evenodd" class="color-a-fill"/>
        <path class="dark-stroke" stroke-width="1.0" stroke-linejoin="round" stroke-linecap="butt" d="m679.28345 124.57743l14.204712 0l0 70.07874l-14.204712 0z" fill-rule="evenodd"/>
        <path d="m693.48816 124.57743l14.204773 0l0 70.07874l-14.204773 0z" fill-rule="evenodd" class="color-a-fill"/>
        <path class="dark-stroke" stroke-width="1.0" stroke-linejoin="round" stroke-linecap="butt" d="m693.48816 124.57743l14.204773 0l0 70.07874l-14.204773 0z" fill-rule="evenodd"/>
        <path d="m707.69293 124.57743l14.204712 0l0 70.07874l-14.204712 0z" fill-rule="evenodd" class="color-a-fill"/>
        <path class="dark-stroke" stroke-width="1.0" stroke-linejoin="round" stroke-linecap="butt" d="m707.69293 124.57743l14.204712 0l0 70.07874l-14.204712 0z" fill-rule="evenodd"/>
        <path d="m721.89764 124.57743l14.204712 0l0 70.07874l-14.204712 0z" fill-rule="evenodd" class="color-a-fill"/>
        <path class="dark-stroke" stroke-width="1.0" stroke-linejoin="round" stroke-linecap="butt" d="m721.89764 124.57743l14.204712 0l0 70.07874l-14.204712 0z" fill-rule="evenodd"/>
        <path d="m736.10236 124.57743l14.204712 0l0 70.07874l-14.204712 0z" fill-rule="evenodd" class="color-a-fill"/>
        <path class="dark-stroke" stroke-width="1.0" stroke-linejoin="round" stroke-linecap="butt" d="m736.10236 124.57743l14.204712 0l0 70.07874l-14.204712 0z" fill-rule="evenodd"/>
        <path d="m750.30707 124.57743l14.204773 0l0 70.07874l-14.204773 0z" fill-rule="evenodd" class="color-a-fill"/>
        <path class="dark-stroke" stroke-width="1.0" stroke-linejoin="round" stroke-linecap="butt" d="m750.30707 124.57743l14.204773 0l0 70.07874l-14.204773 0z" fill-rule="evenodd"/>
        <path d="m764.51184 124.57743l14.204712 0l0 70.07874l-14.204712 0z" fill-rule="evenodd" class="color-a-fill"/>
        <path class="dark-stroke" stroke-width="1.0" stroke-linejoin="round" stroke-linecap="butt" d="m764.51184 124.57743l14.204712 0l0 70.07874l-14.204712 0z" fill-rule="evenodd"/>
        <path d="m778.71655 124.57743l14.204712 0l0 70.07874l-14.204712 0z" fill-rule="evenodd" class="color-a-fill"/>
        <path class="dark-stroke" stroke-width="1.0" stroke-linejoin="round" stroke-linecap="butt" d="m778.71655 124.57743l14.204712 0l0 70.07874l-14.204712 0z" fill-rule="evenodd"/>
        <path d="m792.92126 124.57743l14.204712 0l0 70.07874l-14.204712 0z" fill-rule="evenodd" class="color-a-fill"/>
        <path class="dark-stroke" stroke-width="1.0" stroke-linejoin="round" stroke-linecap="butt" d="m792.92126 124.57743l14.204712 0l0 70.07874l-14.204712 0z" fill-rule="evenodd"/>
        <path d="m807.126 124.57743l14.204712 0l0 70.07874l-14.204712 0z" fill-rule="evenodd" class="color-a-fill"/>
        <path class="dark-stroke" stroke-width="1.0" stroke-linejoin="round" stroke-linecap="butt" d="m807.126 124.57743l14.204712 0l0 70.07874l-14.204712 0z" fill-rule="evenodd"/>
        <path d="m821.3307 124.57743l14.204773 0l0 70.07874l-14.204773 0z" fill-rule="evenodd" class="color-a-fill"/>
        <path class="dark-stroke" stroke-width="1.0" stroke-linejoin="round" stroke-linecap="butt" d="m821.3307 124.57743l14.204773 0l0 70.07874l-14.204773 0z" fill-rule="evenodd"/>
        <path d="m835.53546 124.57743l14.204712 0l0 70.07874l-14.204712 0z" fill-rule="evenodd" class="color-a-fill"/>
        <path class="dark-stroke" stroke-width="1.0" stroke-linejoin="round" stroke-linecap="butt" d="m835.53546 124.57743l14.204712 0l0 70.07874l-14.204712 0z" fill-rule="evenodd"/>
        <path d="m849.7402 124.57743l14.204712 0l0 70.07874l-14.204712 0z" fill-rule="evenodd" class="color-a-fill"/>
        <path class="dark-stroke" stroke-width="1.0" stroke-linejoin="round" stroke-linecap="butt" d="m849.7402 124.57743l14.204712 0l0 70.07874l-14.204712 0z" fill-rule="evenodd"/>
        <path d="m863.9449 124.57743l14.204712 0l0 70.07874l-14.204712 0z" fill-rule="evenodd" class="color-a-fill"/>
        <path class="dark-stroke" stroke-width="1.0" stroke-linejoin="round" stroke-linecap="butt" d="m863.9449 124.57743l14.204712 0l0 70.07874l-14.204712 0z" fill-rule="evenodd"/>
        <path d="m878.1496 124.57743l14.204712 0l0 70.07874l-14.204712 0z" fill-rule="evenodd" class="color-a-fill"/>
        <path class="dark-stroke" stroke-width="1.0" stroke-linejoin="round" stroke-linecap="butt" d="m878.1496 124.57743l14.204712 0l0 70.07874l-14.204712 0z" fill-rule="evenodd"/>
        <path d="m892.3543 124.57743l14.204773 0l0 70.07874l-14.204773 0z" fill-rule="evenodd" class="color-a-fill"/>
        <path class="dark-stroke" stroke-width="1.0" stroke-linejoin="round" stroke-linecap="butt" d="m892.3543 124.57743l14.204773 0l0 70.07874l-14.204773 0z" fill-rule="evenodd"/>
        <path d="m906.5591 124.57743l14.204712 0l0 70.07874l-14.204712 0z" fill-rule="evenodd" class="color-a-fill"/>
        <path class="dark-stroke" stroke-width="1.0" stroke-linejoin="round" stroke-linecap="butt" d="m906.5591 124.57743l14.204712 0l0 70.07874l-14.204712 0z" fill-rule="evenodd"/>
        <path d="m920.7638 124.57743l14.204712 0l0 70.07874l-14.204712 0z" fill-rule="evenodd" class="color-a-fill"/>
        <path class="dark-stroke" stroke-width="1.0" stroke-linejoin="round" stroke-linecap="butt" d="m920.7638 124.57743l14.204712 0l0 70.07874l-14.204712 0z" fill-rule="evenodd"/>
    </g>
    <g>
        <text x="-60" y="40" transform="rotate(-90)" class="dark-fill">sign</text>
        <text x="-60" y="130" transform="rotate(-90)" class="dark-fill">exponent</text>
        <text x="-60" y="550" transform="rotate(-90)" class="dark-fill">fraction</text>
    </g>
</svg>