<svg xmlns:xlink="http://www.w3.org/1999/xlink" xmlns="http://www.w3.org/2000/svg" version="1.1" viewBox="0.0 0.0 960 222" fill="none" stroke="none" stroke-linecap="square" stroke-miterlimit="10">
    <g>
        <path class="dark-fill" fill-opacity="0.0" d="m0 0l960 0l0 222-960 0z" fill-rule="evenodd"/>
        <path d="m20.030184 182.55643l0 0c0 -13.150467 10.660559 -23.81102 23.811022 -23.81102l0 0c6.3150787 0 12.371506 2.5086517 16.836937 6.9740906c4.465435 4.4654236 6.9740868 10.521851 6.9740868 16.83693l0 0c0 13.150467 -10.660557 23.81102 -23.811024 23.81102l0 0c-13.150463 0 -23.811022 -10.660553 -23.811022 -23.81102z" fill-rule="evenodd" class="color-a-fill"/>
        <path class="dark-stroke" stroke-width="1.0" stroke-linejoin="round" stroke-linecap="butt" d="m20.030184 182.55643l0 0c0 -13.150467 10.660559 -23.81102 23.811022 -23.81102l0 0c6.3150787 0 12.371506 2.5086517 16.836937 6.9740906c4.465435 4.4654236 6.9740868 10.521851 6.9740868 16.83693l0 0c0 13.150467 -10.660557 23.81102 -23.811024 23.81102l0 0c-13.150463 0 -23.811022 -10.660553 -23.811022 -23.81102z" fill-rule="evenodd"/>
        <path d="m144.64699 182.55643l0 0c0 -13.150467 10.660553 -23.81102 23.81102 -23.81102l0 0c6.3150787 0 12.371506 2.5086517 16.83693 6.9740906c4.465439 4.4654236 6.9740906 10.521851 6.9740906 16.83693l0 0c0 13.150467 -10.660553 23.81102 -23.81102 23.81102l0 0c-13.150467 0 -23.81102 -10.660553 -23.81102 -23.81102z" fill-rule="evenodd" class="color-a-fill"/>
        <path class="dark-stroke" stroke-width="1.0" stroke-linejoin="round" stroke-linecap="butt" d="m144.64699 182.55643l0 0c0 -13.150467 10.660553 -23.81102 23.81102 -23.81102l0 0c6.3150787 0 12.371506 2.5086517 16.83693 6.9740906c4.465439 4.4654236 6.9740906 10.521851 6.9740906 16.83693l0 0c0 13.150467 -10.660553 23.81102 -23.81102 23.81102l0 0c-13.150467 0 -23.81102 -10.660553 -23.81102 -23.81102z" fill-rule="evenodd"/>
        <path d="m269.2638 182.55643l0 0c0 -13.150467 10.660553 -23.81102 23.811005 -23.81102l0 0c6.315094 0 12.371521 2.5086517 16.836945 6.9740906c4.4654236 4.4654236 6.9740906 10.521851 6.9740906 16.83693l0 0c0 13.150467 -10.660553 23.81102 -23.811035 23.81102l0 0c-13.150452 0 -23.811005 -10.660553 -23.811005 -23.81102z" fill-rule="evenodd" class="color-a-fill"/>
        <path class="dark-stroke" stroke-width="1.0" stroke-linejoin="round" stroke-linecap="butt" d="m269.2638 182.55643l0 0c0 -13.150467 10.660553 -23.81102 23.811005 -23.81102l0 0c6.315094 0 12.371521 2.5086517 16.836945 6.9740906c4.4654236 4.4654236 6.9740906 10.521851 6.9740906 16.83693l0 0c0 13.150467 -10.660553 23.81102 -23.811035 23.81102l0 0c-13.150452 0 -23.811005 -10.660553 -23.811005 -23.81102z" fill-rule="evenodd"/>
        <path d="m393.88058 182.55643l0 0c0 -13.150467 10.660553 -23.81102 23.811005 -23.81102l0 0c6.315094 0 12.371521 2.5086517 16.836945 6.9740906c4.4654236 4.4654236 6.9740906 10.521851 6.9740906 16.83693l0 0c0 13.150467 -10.660553 23.81102 -23.811035 23.81102l0 0c-13.150452 0 -23.811005 -10.660553 -23.811005 -23.81102z" fill-rule="evenodd" class="color-a-fill"/>
        <path class="dark-stroke" stroke-width="1.0" stroke-linejoin="round" stroke-linecap="butt" d="m393.88058 182.55643l0 0c0 -13.150467 10.660553 -23.81102 23.811005 -23.81102l0 0c6.315094 0 12.371521 2.5086517 16.836945 6.9740906c4.4654236 4.4654236 6.9740906 10.521851 6.9740906 16.83693l0 0c0 13.150467 -10.660553 23.81102 -23.811035 23.81102l0 0c-13.150452 0 -23.811005 -10.660553 -23.811005 -23.81102z" fill-rule="evenodd"/>
        <path d="m518.4974 182.55643l0 0c0 -13.150467 10.6605835 -23.81102 23.811035 -23.81102l0 0c6.3150635 0 12.371521 2.5086517 16.836914 6.9740906c4.465454 4.4654236 6.974121 10.521851 6.974121 16.83693l0 0c0 13.150467 -10.6605835 23.81102 -23.811035 23.81102l0 0c-13.150452 0 -23.811035 -10.660553 -23.811035 -23.81102z" fill-rule="evenodd" class="color-a-fill"/>
        <path class="dark-stroke" stroke-width="1.0" stroke-linejoin="round" stroke-linecap="butt" d="m518.4974 182.55643l0 0c0 -13.150467 10.6605835 -23.81102 23.811035 -23.81102l0 0c6.3150635 0 12.371521 2.5086517 16.836914 6.9740906c4.465454 4.4654236 6.974121 10.521851 6.974121 16.83693l0 0c0 13.150467 -10.6605835 23.81102 -23.811035 23.81102l0 0c-13.150452 0 -23.811035 -10.660553 -23.811035 -23.81102z" fill-rule="evenodd"/>
        <path d="m643.1142 182.55643l0 0c0 -13.150467 10.660522 -23.81102 23.810974 -23.81102l0 0c6.3151245 0 12.371521 2.5086517 16.836975 6.9740906c4.465393 4.4654236 6.97406 10.521851 6.97406 16.83693l0 0c0 13.150467 -10.660522 23.81102 -23.811035 23.81102l0 0c-13.150452 0 -23.810974 -10.660553 -23.810974 -23.81102z" fill-rule="evenodd" class="color-a-fill"/>
        <path class="dark-stroke" stroke-width="1.0" stroke-linejoin="round" stroke-linecap="butt" d="m643.1142 182.55643l0 0c0 -13.150467 10.660522 -23.81102 23.810974 -23.81102l0 0c6.3151245 0 12.371521 2.5086517 16.836975 6.9740906c4.465393 4.4654236 6.97406 10.521851 6.97406 16.83693l0 0c0 13.150467 -10.660522 23.81102 -23.811035 23.81102l0 0c-13.150452 0 -23.810974 -10.660553 -23.810974 -23.81102z" fill-rule="evenodd"/>
        <path d="m767.73096 182.55643l0 0c0 -13.150467 10.6605835 -23.81102 23.811035 -23.81102l0 0c6.3150635 0 12.371521 2.5086517 16.836914 6.9740906c4.465454 4.4654236 6.974121 10.521851 6.974121 16.83693l0 0c0 13.150467 -10.6605835 23.81102 -23.811035 23.81102l0 0c-13.150452 0 -23.811035 -10.660553 -23.811035 -23.81102z" fill-rule="evenodd" class="color-a-fill"/>
        <path class="dark-stroke" stroke-width="1.0" stroke-linejoin="round" stroke-linecap="butt" d="m767.73096 182.55643l0 0c0 -13.150467 10.6605835 -23.81102 23.811035 -23.81102l0 0c6.3150635 0 12.371521 2.5086517 16.836914 6.9740906c4.465454 4.4654236 6.974121 10.521851 6.974121 16.83693l0 0c0 13.150467 -10.6605835 23.81102 -23.811035 23.81102l0 0c-13.150452 0 -23.811035 -10.660553 -23.811035 -23.81102z" fill-rule="evenodd"/>
        <path d="m892.3478 182.55643l0 0c0 -13.150467 10.660522 -23.81102 23.811035 -23.81102l0 0c6.3150635 0 12.37146 2.5086517 16.836914 6.9740906c4.465454 4.4654236 6.97406 10.521851 6.97406 16.83693l0 0c0 13.150467 -10.660522 23.81102 -23.810974 23.81102l0 0c-13.150513 0 -23.811035 -10.660553 -23.811035 -23.81102z" fill-rule="evenodd" class="color-a-fill"/>
        <path class="dark-stroke" stroke-width="1.0" stroke-linejoin="round" stroke-linecap="butt" d="m892.3478 182.55643l0 0c0 -13.150467 10.660522 -23.81102 23.811035 -23.81102l0 0c6.3150635 0 12.37146 2.5086517 16.836914 6.9740906c4.465454 4.4654236 6.97406 10.521851 6.97406 16.83693l0 0c0 13.150467 -10.660522 23.81102 -23.810974 23.81102l0 0c-13.150513 0 -23.811035 -10.660553 -23.811035 -23.81102z" fill-rule="evenodd"/>
        <path d="m82.338585 134.93439l0 0c0 -13.150467 10.660553 -23.811028 23.81102 -23.811028l0 0c6.3150787 0 12.371506 2.5086517 16.836937 6.9740906c4.465431 4.465431 6.9740906 10.521858 6.9740906 16.836937l0 0c0 13.150467 -10.660561 23.81102 -23.811028 23.81102l0 0c-13.150467 0 -23.81102 -10.660553 -23.81102 -23.81102z" fill-rule="evenodd" class="color-b-fill"/>
        <path class="dark-stroke" stroke-width="1.0" stroke-linejoin="round" stroke-linecap="butt" d="m82.338585 134.93439l0 0c0 -13.150467 10.660553 -23.811028 23.81102 -23.811028l0 0c6.3150787 0 12.371506 2.5086517 16.836937 6.9740906c4.465431 4.465431 6.9740906 10.521858 6.9740906 16.836937l0 0c0 13.150467 -10.660561 23.81102 -23.811028 23.81102l0 0c-13.150467 0 -23.81102 -10.660553 -23.81102 -23.81102z" fill-rule="evenodd"/>
        <path d="m206.9567 87.31233l0 0c0 -13.150459 10.660553 -23.81102 23.81102 -23.81102l0 0c6.3150787 0 12.371506 2.5086517 16.836945 6.9740906c4.4654236 4.465431 6.9740753 10.521858 6.9740753 16.83693l0 0c0 13.150467 -10.660553 23.811028 -23.81102 23.811028l0 0c-13.150467 0 -23.81102 -10.660561 -23.81102 -23.811028z" fill-rule="evenodd" class="color-b-fill"/>
        <path class="dark-stroke" stroke-width="1.0" stroke-linejoin="round" stroke-linecap="butt" d="m206.9567 87.31233l0 0c0 -13.150459 10.660553 -23.81102 23.81102 -23.81102l0 0c6.3150787 0 12.371506 2.5086517 16.836945 6.9740906c4.4654236 4.465431 6.9740753 10.521858 6.9740753 16.83693l0 0c0 13.150467 -10.660553 23.811028 -23.81102 23.811028l0 0c-13.150467 0 -23.81102 -10.660561 -23.81102 -23.811028z" fill-rule="evenodd"/>
        <path d="m331.5735 134.93439l0 0c0 -13.150467 10.660553 -23.811028 23.811035 -23.811028l0 0c6.3150635 0 12.3714905 2.5086517 16.836914 6.9740906c4.465454 4.465431 6.9740906 10.521858 6.9740906 16.836937l0 0c0 13.150467 -10.660553 23.81102 -23.811005 23.81102l0 0c-13.150482 0 -23.811035 -10.660553 -23.811035 -23.81102z" fill-rule="evenodd" class="color-b-fill"/>
        <path class="dark-stroke" stroke-width="1.0" stroke-linejoin="round" stroke-linecap="butt" d="m331.5735 134.93439l0 0c0 -13.150467 10.660553 -23.811028 23.811035 -23.811028l0 0c6.3150635 0 12.3714905 2.5086517 16.836914 6.9740906c4.465454 4.465431 6.9740906 10.521858 6.9740906 16.836937l0 0c0 13.150467 -10.660553 23.81102 -23.811005 23.81102l0 0c-13.150482 0 -23.811035 -10.660553 -23.811035 -23.81102z" fill-rule="evenodd"/>
        <path d="m456.19028 39.69029l0 0c0 -13.150465 10.6605835 -23.811024 23.811035 -23.811024l0 0c6.3150635 0 12.3714905 2.5086536 16.836945 6.9740868c4.4654236 4.465433 6.9740906 10.521862 6.9740906 16.836937l0 0c0 13.150467 -10.6605835 23.811024 -23.811035 23.811024l0 0c-13.150452 0 -23.811035 -10.660557 -23.811035 -23.811024z" fill-rule="evenodd" class="color-b-fill"/>
        <path class="dark-stroke" stroke-width="1.0" stroke-linejoin="round" stroke-linecap="butt" d="m456.19028 39.69029l0 0c0 -13.150465 10.6605835 -23.811024 23.811035 -23.811024l0 0c6.3150635 0 12.3714905 2.5086536 16.836945 6.9740868c4.4654236 4.465433 6.9740906 10.521862 6.9740906 16.836937l0 0c0 13.150467 -10.6605835 23.811024 -23.811035 23.811024l0 0c-13.150452 0 -23.811035 -10.660557 -23.811035 -23.811024z" fill-rule="evenodd"/>
        <path d="m580.80707 134.93439l0 0c0 -13.150467 10.6605835 -23.811028 23.811035 -23.811028l0 0c6.3150635 0 12.371521 2.5086517 16.836914 6.9740906c4.465454 4.465431 6.974121 10.521858 6.974121 16.836937l0 0c0 13.150467 -10.6605835 23.81102 -23.811035 23.81102l0 0c-13.150452 0 -23.811035 -10.660553 -23.811035 -23.81102z" fill-rule="evenodd" class="color-b-fill"/>
        <path class="dark-stroke" stroke-width="1.0" stroke-linejoin="round" stroke-linecap="butt" d="m580.80707 134.93439l0 0c0 -13.150467 10.6605835 -23.811028 23.811035 -23.811028l0 0c6.3150635 0 12.371521 2.5086517 16.836914 6.9740906c4.465454 4.465431 6.974121 10.521858 6.974121 16.836937l0 0c0 13.150467 -10.6605835 23.81102 -23.811035 23.81102l0 0c-13.150452 0 -23.811035 -10.660553 -23.811035 -23.81102z" fill-rule="evenodd"/>
        <path d="m705.4239 87.31233l0 0c0 -13.150459 10.6605835 -23.81102 23.811035 -23.81102l0 0c6.3150635 0 12.37146 2.5086517 16.836914 6.9740906c4.465454 4.465431 6.974121 10.521858 6.974121 16.83693l0 0c0 13.150467 -10.6605835 23.811028 -23.811035 23.811028l0 0c-13.150452 0 -23.811035 -10.660561 -23.811035 -23.811028z" fill-rule="evenodd" class="color-b-fill"/>
        <path class="dark-stroke" stroke-width="1.0" stroke-linejoin="round" stroke-linecap="butt" d="m705.4239 87.31233l0 0c0 -13.150459 10.6605835 -23.81102 23.811035 -23.81102l0 0c6.3150635 0 12.37146 2.5086517 16.836914 6.9740906c4.465454 4.465431 6.974121 10.521858 6.974121 16.83693l0 0c0 13.150467 -10.6605835 23.811028 -23.811035 23.811028l0 0c-13.150452 0 -23.811035 -10.660561 -23.811035 -23.811028z" fill-rule="evenodd"/>
        <path d="m830.0407 134.93439l0 0c0 -13.150467 10.660522 -23.811028 23.810974 -23.811028l0 0c6.3151245 0 12.371521 2.5086517 16.836975 6.9740906c4.465393 4.465431 6.97406 10.521858 6.97406 16.836937l0 0c0 13.150467 -10.660522 23.81102 -23.811035 23.81102l0 0c-13.150452 0 -23.810974 -10.660553 -23.810974 -23.81102z" fill-rule="evenodd" class="color-b-fill"/>
        <path class="dark-stroke" stroke-width="1.0" stroke-linejoin="round" stroke-linecap="butt" d="m830.0407 134.93439l0 0c0 -13.150467 10.660522 -23.811028 23.810974 -23.811028l0 0c6.3151245 0 12.371521 2.5086517 16.836975 6.9740906c4.465393 4.465431 6.97406 10.521858 6.97406 16.836937l0 0c0 13.150467 -10.660522 23.81102 -23.811035 23.81102l0 0c-13.150452 0 -23.810974 -10.660553 -23.810974 -23.81102z" fill-rule="evenodd"/>
        <path class="dark-fill" fill-opacity="0.0" d="m60.678143 165.7195l28.629925 -13.952759" fill-rule="evenodd"/>
        <path class="dark-stroke" stroke-width="1.0" stroke-linejoin="round" stroke-linecap="butt" d="m60.678146 165.7195l23.236336 -11.3242035" fill-rule="evenodd"/>
        <path class="dark-stroke dark-fill" stroke-width="1.0" stroke-linecap="butt" d="m84.63809 155.88008l3.3558197 -3.4728851l-4.8030396 0.50331116z" fill-rule="evenodd"/>
        <path class="dark-fill" fill-opacity="0.0" d="m151.62106 165.7195l-28.629913 -13.952759" fill-rule="evenodd"/>
        <path class="dark-stroke" stroke-width="1.0" stroke-linejoin="round" stroke-linecap="butt" d="m151.62108 165.7195l-23.236343 -11.3242035" fill-rule="evenodd"/>
        <path class="dark-stroke dark-fill" stroke-width="1.0" stroke-linecap="butt" d="m129.10834 152.9105l-4.8030396 -0.50331116l3.3558197 3.4728851z" fill-rule="evenodd"/>
        <path class="dark-fill" fill-opacity="0.0" d="m309.91174 165.7195l28.629913 -13.952759" fill-rule="evenodd"/>
        <path class="dark-stroke" stroke-width="1.0" stroke-linejoin="round" stroke-linecap="butt" d="m309.91174 165.7195l23.236359 -11.3242035" fill-rule="evenodd"/>
        <path class="dark-stroke dark-fill" stroke-width="1.0" stroke-linecap="butt" d="m333.8717 155.88008l3.3558044 -3.4728851l-4.8030396 0.50331116z" fill-rule="evenodd"/>
        <path class="dark-fill" fill-opacity="0.0" d="m400.85468 165.7195l-28.629944 -13.952759" fill-rule="evenodd"/>
        <path class="dark-stroke" stroke-width="1.0" stroke-linejoin="round" stroke-linecap="butt" d="m400.85464 165.7195l-23.236328 -11.3242035" fill-rule="evenodd"/>
        <path class="dark-stroke dark-fill" stroke-width="1.0" stroke-linecap="butt" d="m378.34192 152.9105l-4.8030396 -0.50331116l3.355835 3.4728851z" fill-rule="evenodd"/>
        <path class="dark-fill" fill-opacity="0.0" d="m559.1453 165.7195l28.629944 -13.952759" fill-rule="evenodd"/>
        <path class="dark-stroke" stroke-width="1.0" stroke-linejoin="round" stroke-linecap="butt" d="m559.1453 165.7195l23.23639 -11.3242035" fill-rule="evenodd"/>
        <path class="dark-stroke dark-fill" stroke-width="1.0" stroke-linecap="butt" d="m583.1053 155.88008l3.355835 -3.4728851l-4.8030396 0.50331116z" fill-rule="evenodd"/>
        <path class="dark-fill" fill-opacity="0.0" d="m650.08826 165.7195l-28.629944 -13.952759" fill-rule="evenodd"/>
        <path class="dark-stroke" stroke-width="1.0" stroke-linejoin="round" stroke-linecap="butt" d="m650.08826 165.7195l-23.236328 -11.3242035" fill-rule="evenodd"/>
        <path class="dark-stroke dark-fill" stroke-width="1.0" stroke-linecap="butt" d="m627.5755 152.9105l-4.8030396 -0.50331116l3.355835 3.4728851z" fill-rule="evenodd"/>
        <path class="dark-fill" fill-opacity="0.0" d="m808.3789 165.7195l28.629944 -13.952759" fill-rule="evenodd"/>
        <path class="dark-stroke" stroke-width="1.0" stroke-linejoin="round" stroke-linecap="butt" d="m808.37897 165.7195l23.236267 -11.3242035" fill-rule="evenodd"/>
        <path class="dark-stroke dark-fill" stroke-width="1.0" stroke-linecap="butt" d="m832.33887 155.88008l3.355835 -3.4728851l-4.8030396 0.50331116z" fill-rule="evenodd"/>
        <path class="dark-fill" fill-opacity="0.0" d="m899.32184 165.7195l-28.629883 -13.952759" fill-rule="evenodd"/>
        <path class="dark-stroke" stroke-width="1.0" stroke-linejoin="round" stroke-linecap="butt" d="m899.32184 165.7195l-23.236267 -11.3242035" fill-rule="evenodd"/>
        <path class="dark-stroke dark-fill" stroke-width="1.0" stroke-linecap="butt" d="m876.80914 152.9105l-4.8030396 -0.50331116l3.355774 3.4728851z" fill-rule="evenodd"/>
        <path class="dark-fill" fill-opacity="0.0" d="m122.98654 118.09745l83.968506 -30.77166" fill-rule="evenodd"/>
        <path class="dark-stroke" stroke-width="1.0" stroke-linejoin="round" stroke-linecap="butt" d="m122.98654 118.09745l78.3349 -28.707123" fill-rule="evenodd"/>
        <path class="dark-stroke dark-fill" stroke-width="1.0" stroke-linecap="butt" d="m201.88977 90.94121l3.6926422 -3.1123886l-4.8293304 0.010643005z" fill-rule="evenodd"/>
        <path class="dark-fill" fill-opacity="0.0" d="m338.54758 118.09745l-83.968506 -30.77166" fill-rule="evenodd"/>
        <path class="dark-stroke" stroke-width="1.0" stroke-linejoin="round" stroke-linecap="butt" d="m338.54758 118.09745l-78.3349 -28.707123" fill-rule="evenodd"/>
        <path class="dark-stroke dark-fill" stroke-width="1.0" stroke-linecap="butt" d="m260.78104 87.83946l-4.8293304 -0.010643005l3.6926422 3.1123886z" fill-rule="evenodd"/>
        <path class="dark-fill" fill-opacity="0.0" d="m621.455 118.09745l83.968506 -30.77166" fill-rule="evenodd"/>
        <path class="dark-stroke" stroke-width="1.0" stroke-linejoin="round" stroke-linecap="butt" d="m621.4551 118.09745l78.33484 -28.707123" fill-rule="evenodd"/>
        <path class="dark-stroke dark-fill" stroke-width="1.0" stroke-linecap="butt" d="m700.3583 90.94121l3.692627 -3.1123886l-4.8292847 0.010643005z" fill-rule="evenodd"/>
        <path class="dark-fill" fill-opacity="0.0" d="m837.0148 118.09745l-83.968506 -30.77166" fill-rule="evenodd"/>
        <path class="dark-stroke" stroke-width="1.0" stroke-linejoin="round" stroke-linecap="butt" d="m837.0148 118.09745l-78.3349 -28.707123" fill-rule="evenodd"/>
        <path class="dark-stroke dark-fill" stroke-width="1.0" stroke-linecap="butt" d="m759.2482 87.83946l-4.8293457 -0.010643005l3.692627 3.1123886z" fill-rule="evenodd"/>
        <path class="dark-fill" fill-opacity="0.0" d="m712.39795 70.4754l-208.59839 -30.771656" fill-rule="evenodd"/>
        <path class="dark-stroke" stroke-width="1.0" stroke-linejoin="round" stroke-linecap="butt" d="m712.39795 70.475395l-202.66263 -29.89603" fill-rule="evenodd"/>
        <path class="dark-stroke dark-fill" stroke-width="1.0" stroke-linecap="butt" d="m509.97635 38.945316l-4.7305603 0.97177505l4.248474 2.2963257z" fill-rule="evenodd"/>
        <path class="dark-fill" fill-opacity="0.0" d="m247.60466 70.4754l208.5984 -30.771656" fill-rule="evenodd"/>
        <path class="dark-stroke" stroke-width="1.0" stroke-linejoin="round" stroke-linecap="butt" d="m247.60466 70.475395l202.66264 -29.89603" fill-rule="evenodd"/>
        <path class="dark-stroke dark-fill" stroke-width="1.0" stroke-linecap="butt" d="m450.50836 42.213417l4.248474 -2.2963257l-4.7305603 -0.97177505z" fill-rule="evenodd"/>
    </g>
</svg>