<svg height="360pt" version="1.1" viewBox="0 0 720 360" width="720pt" xmlns="http://www.w3.org/2000/svg" xmlns:xlink="http://www.w3.org/1999/xlink">
       <g id="figure_1" style="fill:none;">
              <g id="patch_1">
                     <path d="M 0 360 
L 720 360 
L 720 0 
L 0 0 
z
" />
              </g>
              <g id="axes_1">
                     <g id="patch_2">
                            <path d="M 44.66 290.320464 
L 524.65 290.320464 
L 524.65 10.8 
L 44.66 10.8 
z
" />
                     </g>
                     <g id="matplotlib.axis_1">
                            <g id="xtick_1">
                                   <g id="line2d_1">
                                          <defs>
                                                 <path d="M 0 0 
L 0 3.5 
" id="mcf46c02c98" style="stroke-width:0.8;" class="dark-fill" />
                                          </defs>
                                          <g>
                                                 <use style="stroke-width:0.8;" class="dark-stroke" x="80.113807" xlink:href="#mcf46c02c98" y="290.320464" />
                                          </g>
                                   </g>
                                   <g id="text_1">
                                          <!-- 2020-09-01 -->
                                          <g transform="translate(28.744355 332.958716)rotate(-30)scale(0.1 -0.1)">
                                                 <defs>
                                                        <path d="M 19.1875 8.296875 
L 53.609375 8.296875 
L 53.609375 0 
L 7.328125 0 
L 7.328125 8.296875 
Q 12.9375 14.109375 22.625 23.890625 
Q 32.328125 33.6875 34.8125 36.53125 
Q 39.546875 41.84375 41.421875 45.53125 
Q 43.3125 49.21875 43.3125 52.78125 
Q 43.3125 58.59375 39.234375 62.25 
Q 35.15625 65.921875 28.609375 65.921875 
Q 23.96875 65.921875 18.8125 64.3125 
Q 13.671875 62.703125 7.8125 59.421875 
L 7.8125 69.390625 
Q 13.765625 71.78125 18.9375 73 
Q 24.125 74.21875 28.421875 74.21875 
Q 39.75 74.21875 46.484375 68.546875 
Q 53.21875 62.890625 53.21875 53.421875 
Q 53.21875 48.921875 51.53125 44.890625 
Q 49.859375 40.875 45.40625 35.40625 
Q 44.1875 33.984375 37.640625 27.21875 
Q 31.109375 20.453125 19.1875 8.296875 
z
" id="DejaVuSans-50" class="dark-fill" />
                                                        <path d="M 31.78125 66.40625 
Q 24.171875 66.40625 20.328125 58.90625 
Q 16.5 51.421875 16.5 36.375 
Q 16.5 21.390625 20.328125 13.890625 
Q 24.171875 6.390625 31.78125 6.390625 
Q 39.453125 6.390625 43.28125 13.890625 
Q 47.125 21.390625 47.125 36.375 
Q 47.125 51.421875 43.28125 58.90625 
Q 39.453125 66.40625 31.78125 66.40625 
z
M 31.78125 74.21875 
Q 44.046875 74.21875 50.515625 64.515625 
Q 56.984375 54.828125 56.984375 36.375 
Q 56.984375 17.96875 50.515625 8.265625 
Q 44.046875 -1.421875 31.78125 -1.421875 
Q 19.53125 -1.421875 13.0625 8.265625 
Q 6.59375 17.96875 6.59375 36.375 
Q 6.59375 54.828125 13.0625 64.515625 
Q 19.53125 74.21875 31.78125 74.21875 
z
" id="DejaVuSans-48" class="dark-fill" />
                                                        <path d="M 4.890625 31.390625 
L 31.203125 31.390625 
L 31.203125 23.390625 
L 4.890625 23.390625 
z
" id="DejaVuSans-45" class="dark-fill" />
                                                        <path d="M 10.984375 1.515625 
L 10.984375 10.5 
Q 14.703125 8.734375 18.5 7.8125 
Q 22.3125 6.890625 25.984375 6.890625 
Q 35.75 6.890625 40.890625 13.453125 
Q 46.046875 20.015625 46.78125 33.40625 
Q 43.953125 29.203125 39.59375 26.953125 
Q 35.25 24.703125 29.984375 24.703125 
Q 19.046875 24.703125 12.671875 31.3125 
Q 6.296875 37.9375 6.296875 49.421875 
Q 6.296875 60.640625 12.9375 67.421875 
Q 19.578125 74.21875 30.609375 74.21875 
Q 43.265625 74.21875 49.921875 64.515625 
Q 56.59375 54.828125 56.59375 36.375 
Q 56.59375 19.140625 48.40625 8.859375 
Q 40.234375 -1.421875 26.421875 -1.421875 
Q 22.703125 -1.421875 18.890625 -0.6875 
Q 15.09375 0.046875 10.984375 1.515625 
z
M 30.609375 32.421875 
Q 37.25 32.421875 41.125 36.953125 
Q 45.015625 41.5 45.015625 49.421875 
Q 45.015625 57.28125 41.125 61.84375 
Q 37.25 66.40625 30.609375 66.40625 
Q 23.96875 66.40625 20.09375 61.84375 
Q 16.21875 57.28125 16.21875 49.421875 
Q 16.21875 41.5 20.09375 36.953125 
Q 23.96875 32.421875 30.609375 32.421875 
z
" id="DejaVuSans-57" class="dark-fill" />
                                                        <path d="M 12.40625 8.296875 
L 28.515625 8.296875 
L 28.515625 63.921875 
L 10.984375 60.40625 
L 10.984375 69.390625 
L 28.421875 72.90625 
L 38.28125 72.90625 
L 38.28125 8.296875 
L 54.390625 8.296875 
L 54.390625 0 
L 12.40625 0 
z
" id="DejaVuSans-49" class="dark-fill" />
                                                 </defs>
                                                 <use xlink:href="#DejaVuSans-50" />
                                                 <use x="63.623047" xlink:href="#DejaVuSans-48" />
                                                 <use x="127.246094" xlink:href="#DejaVuSans-50" />
                                                 <use x="190.869141" xlink:href="#DejaVuSans-48" />
                                                 <use x="254.492188" xlink:href="#DejaVuSans-45" />
                                                 <use x="290.576172" xlink:href="#DejaVuSans-48" />
                                                 <use x="354.199219" xlink:href="#DejaVuSans-57" />
                                                 <use x="417.822266" xlink:href="#DejaVuSans-45" />
                                                 <use x="453.90625" xlink:href="#DejaVuSans-48" />
                                                 <use x="517.529297" xlink:href="#DejaVuSans-49" />
                                          </g>
                                   </g>
                            </g>
                            <g id="xtick_2">
                                   <g id="line2d_2">
                                          <g>
                                                 <use style="stroke-width:0.8;" class="dark-stroke" x="143.748845" xlink:href="#mcf46c02c98" y="290.320464" />
                                          </g>
                                   </g>
                                   <g id="text_2">
                                          <!-- 2020-09-15 -->
                                          <g transform="translate(92.379393 332.958716)rotate(-30)scale(0.1 -0.1)">
                                                 <defs>
                                                        <path d="M 10.796875 72.90625 
L 49.515625 72.90625 
L 49.515625 64.59375 
L 19.828125 64.59375 
L 19.828125 46.734375 
Q 21.96875 47.46875 24.109375 47.828125 
Q 26.265625 48.1875 28.421875 48.1875 
Q 40.625 48.1875 47.75 41.5 
Q 54.890625 34.8125 54.890625 23.390625 
Q 54.890625 11.625 47.5625 5.09375 
Q 40.234375 -1.421875 26.90625 -1.421875 
Q 22.3125 -1.421875 17.546875 -0.640625 
Q 12.796875 0.140625 7.71875 1.703125 
L 7.71875 11.625 
Q 12.109375 9.234375 16.796875 8.0625 
Q 21.484375 6.890625 26.703125 6.890625 
Q 35.15625 6.890625 40.078125 11.328125 
Q 45.015625 15.765625 45.015625 23.390625 
Q 45.015625 31 40.078125 35.4375 
Q 35.15625 39.890625 26.703125 39.890625 
Q 22.75 39.890625 18.8125 39.015625 
Q 14.890625 38.140625 10.796875 36.28125 
z
" id="DejaVuSans-53" class="dark-fill" />
                                                 </defs>
                                                 <use xlink:href="#DejaVuSans-50" />
                                                 <use x="63.623047" xlink:href="#DejaVuSans-48" />
                                                 <use x="127.246094" xlink:href="#DejaVuSans-50" />
                                                 <use x="190.869141" xlink:href="#DejaVuSans-48" />
                                                 <use x="254.492188" xlink:href="#DejaVuSans-45" />
                                                 <use x="290.576172" xlink:href="#DejaVuSans-48" />
                                                 <use x="354.199219" xlink:href="#DejaVuSans-57" />
                                                 <use x="417.822266" xlink:href="#DejaVuSans-45" />
                                                 <use x="453.90625" xlink:href="#DejaVuSans-49" />
                                                 <use x="517.529297" xlink:href="#DejaVuSans-53" />
                                          </g>
                                   </g>
                            </g>
                            <g id="xtick_3">
                                   <g id="line2d_3">
                                          <g>
                                                 <use style="stroke-width:0.8;" class="dark-stroke" x="216.474602" xlink:href="#mcf46c02c98" y="290.320464" />
                                          </g>
                                   </g>
                                   <g id="text_3">
                                          <!-- 2020-10-01 -->
                                          <g transform="translate(165.105151 332.958716)rotate(-30)scale(0.1 -0.1)">
                                                 <use xlink:href="#DejaVuSans-50" />
                                                 <use x="63.623047" xlink:href="#DejaVuSans-48" />
                                                 <use x="127.246094" xlink:href="#DejaVuSans-50" />
                                                 <use x="190.869141" xlink:href="#DejaVuSans-48" />
                                                 <use x="254.492188" xlink:href="#DejaVuSans-45" />
                                                 <use x="290.576172" xlink:href="#DejaVuSans-49" />
                                                 <use x="354.199219" xlink:href="#DejaVuSans-48" />
                                                 <use x="417.822266" xlink:href="#DejaVuSans-45" />
                                                 <use x="453.90625" xlink:href="#DejaVuSans-48" />
                                                 <use x="517.529297" xlink:href="#DejaVuSans-49" />
                                          </g>
                                   </g>
                            </g>
                            <g id="xtick_4">
                                   <g id="line2d_4">
                                          <g>
                                                 <use style="stroke-width:0.8;" class="dark-stroke" x="280.10964" xlink:href="#mcf46c02c98" y="290.320464" />
                                          </g>
                                   </g>
                                   <g id="text_4">
                                          <!-- 2020-10-15 -->
                                          <g transform="translate(228.740189 332.958716)rotate(-30)scale(0.1 -0.1)">
                                                 <use xlink:href="#DejaVuSans-50" />
                                                 <use x="63.623047" xlink:href="#DejaVuSans-48" />
                                                 <use x="127.246094" xlink:href="#DejaVuSans-50" />
                                                 <use x="190.869141" xlink:href="#DejaVuSans-48" />
                                                 <use x="254.492188" xlink:href="#DejaVuSans-45" />
                                                 <use x="290.576172" xlink:href="#DejaVuSans-49" />
                                                 <use x="354.199219" xlink:href="#DejaVuSans-48" />
                                                 <use x="417.822266" xlink:href="#DejaVuSans-45" />
                                                 <use x="453.90625" xlink:href="#DejaVuSans-49" />
                                                 <use x="517.529297" xlink:href="#DejaVuSans-53" />
                                          </g>
                                   </g>
                            </g>
                            <g id="xtick_5">
                                   <g id="line2d_5">
                                          <g>
                                                 <use style="stroke-width:0.8;" class="dark-stroke" x="357.380758" xlink:href="#mcf46c02c98" y="290.320464" />
                                          </g>
                                   </g>
                                   <g id="text_5">
                                          <!-- 2020-11-01 -->
                                          <g transform="translate(306.011306 332.958716)rotate(-30)scale(0.1 -0.1)">
                                                 <use xlink:href="#DejaVuSans-50" />
                                                 <use x="63.623047" xlink:href="#DejaVuSans-48" />
                                                 <use x="127.246094" xlink:href="#DejaVuSans-50" />
                                                 <use x="190.869141" xlink:href="#DejaVuSans-48" />
                                                 <use x="254.492188" xlink:href="#DejaVuSans-45" />
                                                 <use x="290.576172" xlink:href="#DejaVuSans-49" />
                                                 <use x="354.199219" xlink:href="#DejaVuSans-49" />
                                                 <use x="417.822266" xlink:href="#DejaVuSans-45" />
                                                 <use x="453.90625" xlink:href="#DejaVuSans-48" />
                                                 <use x="517.529297" xlink:href="#DejaVuSans-49" />
                                          </g>
                                   </g>
                            </g>
                            <g id="xtick_6">
                                   <g id="line2d_6">
                                          <g>
                                                 <use style="stroke-width:0.8;" class="dark-stroke" x="421.015795" xlink:href="#mcf46c02c98" y="290.320464" />
                                          </g>
                                   </g>
                                   <g id="text_6">
                                          <!-- 2020-11-15 -->
                                          <g transform="translate(369.646344 332.958716)rotate(-30)scale(0.1 -0.1)">
                                                 <use xlink:href="#DejaVuSans-50" />
                                                 <use x="63.623047" xlink:href="#DejaVuSans-48" />
                                                 <use x="127.246094" xlink:href="#DejaVuSans-50" />
                                                 <use x="190.869141" xlink:href="#DejaVuSans-48" />
                                                 <use x="254.492188" xlink:href="#DejaVuSans-45" />
                                                 <use x="290.576172" xlink:href="#DejaVuSans-49" />
                                                 <use x="354.199219" xlink:href="#DejaVuSans-49" />
                                                 <use x="417.822266" xlink:href="#DejaVuSans-45" />
                                                 <use x="453.90625" xlink:href="#DejaVuSans-49" />
                                                 <use x="517.529297" xlink:href="#DejaVuSans-53" />
                                          </g>
                                   </g>
                            </g>
                            <g id="xtick_7">
                                   <g id="line2d_7">
                                          <g>
                                                 <use style="stroke-width:0.8;" class="dark-stroke" x="493.741553" xlink:href="#mcf46c02c98" y="290.320464" />
                                          </g>
                                   </g>
                                   <g id="text_7">
                                          <!-- 2020-12-01 -->
                                          <g transform="translate(442.372102 332.958716)rotate(-30)scale(0.1 -0.1)">
                                                 <use xlink:href="#DejaVuSans-50" />
                                                 <use x="63.623047" xlink:href="#DejaVuSans-48" />
                                                 <use x="127.246094" xlink:href="#DejaVuSans-50" />
                                                 <use x="190.869141" xlink:href="#DejaVuSans-48" />
                                                 <use x="254.492188" xlink:href="#DejaVuSans-45" />
                                                 <use x="290.576172" xlink:href="#DejaVuSans-49" />
                                                 <use x="354.199219" xlink:href="#DejaVuSans-50" />
                                                 <use x="417.822266" xlink:href="#DejaVuSans-45" />
                                                 <use x="453.90625" xlink:href="#DejaVuSans-48" />
                                                 <use x="517.529297" xlink:href="#DejaVuSans-49" />
                                          </g>
                                   </g>
                            </g>
                            <g id="text_8">
                                   <!-- Date -->
                                   <g transform="translate(272.704219 346.358216)scale(0.1 -0.1)">
                                          <defs>
                                                 <path d="M 19.671875 64.796875 
L 19.671875 8.109375 
L 31.59375 8.109375 
Q 46.6875 8.109375 53.6875 14.9375 
Q 60.6875 21.78125 60.6875 36.53125 
Q 60.6875 51.171875 53.6875 57.984375 
Q 46.6875 64.796875 31.59375 64.796875 
z
M 9.8125 72.90625 
L 30.078125 72.90625 
Q 51.265625 72.90625 61.171875 64.09375 
Q 71.09375 55.28125 71.09375 36.53125 
Q 71.09375 17.671875 61.125 8.828125 
Q 51.171875 0 30.078125 0 
L 9.8125 0 
z
" id="DejaVuSans-68" class="dark-fill" />
                                                 <path d="M 34.28125 27.484375 
Q 23.390625 27.484375 19.1875 25 
Q 14.984375 22.515625 14.984375 16.5 
Q 14.984375 11.71875 18.140625 8.90625 
Q 21.296875 6.109375 26.703125 6.109375 
Q 34.1875 6.109375 38.703125 11.40625 
Q 43.21875 16.703125 43.21875 25.484375 
L 43.21875 27.484375 
z
M 52.203125 31.203125 
L 52.203125 0 
L 43.21875 0 
L 43.21875 8.296875 
Q 40.140625 3.328125 35.546875 0.953125 
Q 30.953125 -1.421875 24.3125 -1.421875 
Q 15.921875 -1.421875 10.953125 3.296875 
Q 6 8.015625 6 15.921875 
Q 6 25.140625 12.171875 29.828125 
Q 18.359375 34.515625 30.609375 34.515625 
L 43.21875 34.515625 
L 43.21875 35.40625 
Q 43.21875 41.609375 39.140625 45 
Q 35.0625 48.390625 27.6875 48.390625 
Q 23 48.390625 18.546875 47.265625 
Q 14.109375 46.140625 10.015625 43.890625 
L 10.015625 52.203125 
Q 14.9375 54.109375 19.578125 55.046875 
Q 24.21875 56 28.609375 56 
Q 40.484375 56 46.34375 49.84375 
Q 52.203125 43.703125 52.203125 31.203125 
z
" id="DejaVuSans-97" class="dark-fill" />
                                                 <path d="M 18.3125 70.21875 
L 18.3125 54.6875 
L 36.8125 54.6875 
L 36.8125 47.703125 
L 18.3125 47.703125 
L 18.3125 18.015625 
Q 18.3125 11.328125 20.140625 9.421875 
Q 21.96875 7.515625 27.59375 7.515625 
L 36.8125 7.515625 
L 36.8125 0 
L 27.59375 0 
Q 17.1875 0 13.234375 3.875 
Q 9.28125 7.765625 9.28125 18.015625 
L 9.28125 47.703125 
L 2.6875 47.703125 
L 2.6875 54.6875 
L 9.28125 54.6875 
L 9.28125 70.21875 
z
" id="DejaVuSans-116" class="dark-fill" />
                                                 <path d="M 56.203125 29.59375 
L 56.203125 25.203125 
L 14.890625 25.203125 
Q 15.484375 15.921875 20.484375 11.0625 
Q 25.484375 6.203125 34.421875 6.203125 
Q 39.59375 6.203125 44.453125 7.46875 
Q 49.3125 8.734375 54.109375 11.28125 
L 54.109375 2.78125 
Q 49.265625 0.734375 44.1875 -0.34375 
Q 39.109375 -1.421875 33.890625 -1.421875 
Q 20.796875 -1.421875 13.15625 6.1875 
Q 5.515625 13.8125 5.515625 26.8125 
Q 5.515625 40.234375 12.765625 48.109375 
Q 20.015625 56 32.328125 56 
Q 43.359375 56 49.78125 48.890625 
Q 56.203125 41.796875 56.203125 29.59375 
z
M 47.21875 32.234375 
Q 47.125 39.59375 43.09375 43.984375 
Q 39.0625 48.390625 32.421875 48.390625 
Q 24.90625 48.390625 20.390625 44.140625 
Q 15.875 39.890625 15.1875 32.171875 
z
" id="DejaVuSans-101" class="dark-fill" />
                                          </defs>
                                          <use xlink:href="#DejaVuSans-68" />
                                          <use x="77.001953" xlink:href="#DejaVuSans-97" />
                                          <use x="138.28125" xlink:href="#DejaVuSans-116" />
                                          <use x="177.490234" xlink:href="#DejaVuSans-101" />
                                   </g>
                            </g>
                     </g>
                     <g id="matplotlib.axis_2">
                            <g id="ytick_1">
                                   <g id="line2d_8">
                                          <defs>
                                                 <path d="M 0 0 
L -3.5 0 
" id="meda81dcd98" style="stroke-width:0.8;" class="dark-stroke" />
                                          </defs>
                                          <g>
                                                 <use style="stroke-width:0.8;" class="dark-stroke" x="44.66" xlink:href="#meda81dcd98" y="279.357462" />
                                          </g>
                                   </g>
                                   <g id="text_9">
                                          <!-- 0 -->
                                          <g transform="translate(31.2975 283.156681)scale(0.1 -0.1)">
                                                 <use xlink:href="#DejaVuSans-48" />
                                          </g>
                                   </g>
                            </g>
                            <g id="ytick_2">
                                   <g id="line2d_9">
                                          <g>
                                                 <use style="stroke-width:0.8;" class="dark-stroke" x="44.66" xlink:href="#meda81dcd98" y="238.19965" />
                                          </g>
                                   </g>
                                   <g id="text_10">
                                          <!-- 10 -->
                                          <g transform="translate(24.935 241.998869)scale(0.1 -0.1)">
                                                 <use xlink:href="#DejaVuSans-49" />
                                                 <use x="63.623047" xlink:href="#DejaVuSans-48" />
                                          </g>
                                   </g>
                            </g>
                            <g id="ytick_3">
                                   <g id="line2d_10">
                                          <g>
                                                 <use style="stroke-width:0.8;" class="dark-stroke" x="44.66" xlink:href="#meda81dcd98" y="197.041839" />
                                          </g>
                                   </g>
                                   <g id="text_11">
                                          <!-- 20 -->
                                          <g transform="translate(24.935 200.841057)scale(0.1 -0.1)">
                                                 <use xlink:href="#DejaVuSans-50" />
                                                 <use x="63.623047" xlink:href="#DejaVuSans-48" />
                                          </g>
                                   </g>
                            </g>
                            <g id="ytick_4">
                                   <g id="line2d_11">
                                          <g>
                                                 <use style="stroke-width:0.8;" class="dark-stroke" x="44.66" xlink:href="#meda81dcd98" y="155.884027" />
                                          </g>
                                   </g>
                                   <g id="text_12">
                                          <!-- 30 -->
                                          <g transform="translate(24.935 159.683246)scale(0.1 -0.1)">
                                                 <defs>
                                                        <path d="M 40.578125 39.3125 
Q 47.65625 37.796875 51.625 33 
Q 55.609375 28.21875 55.609375 21.1875 
Q 55.609375 10.40625 48.1875 4.484375 
Q 40.765625 -1.421875 27.09375 -1.421875 
Q 22.515625 -1.421875 17.65625 -0.515625 
Q 12.796875 0.390625 7.625 2.203125 
L 7.625 11.71875 
Q 11.71875 9.328125 16.59375 8.109375 
Q 21.484375 6.890625 26.8125 6.890625 
Q 36.078125 6.890625 40.9375 10.546875 
Q 45.796875 14.203125 45.796875 21.1875 
Q 45.796875 27.640625 41.28125 31.265625 
Q 36.765625 34.90625 28.71875 34.90625 
L 20.21875 34.90625 
L 20.21875 43.015625 
L 29.109375 43.015625 
Q 36.375 43.015625 40.234375 45.921875 
Q 44.09375 48.828125 44.09375 54.296875 
Q 44.09375 59.90625 40.109375 62.90625 
Q 36.140625 65.921875 28.71875 65.921875 
Q 24.65625 65.921875 20.015625 65.03125 
Q 15.375 64.15625 9.8125 62.3125 
L 9.8125 71.09375 
Q 15.4375 72.65625 20.34375 73.4375 
Q 25.25 74.21875 29.59375 74.21875 
Q 40.828125 74.21875 47.359375 69.109375 
Q 53.90625 64.015625 53.90625 55.328125 
Q 53.90625 49.265625 50.4375 45.09375 
Q 46.96875 40.921875 40.578125 39.3125 
z
" id="DejaVuSans-51" class="dark-fill" />
                                                 </defs>
                                                 <use xlink:href="#DejaVuSans-51" />
                                                 <use x="63.623047" xlink:href="#DejaVuSans-48" />
                                          </g>
                                   </g>
                            </g>
                            <g id="ytick_5">
                                   <g id="line2d_12">
                                          <g>
                                                 <use style="stroke-width:0.8;" class="dark-stroke" x="44.66" xlink:href="#meda81dcd98" y="114.726215" />
                                          </g>
                                   </g>
                                   <g id="text_13">
                                          <!-- 40 -->
                                          <g transform="translate(24.935 118.525434)scale(0.1 -0.1)">
                                                 <defs>
                                                        <path d="M 37.796875 64.3125 
L 12.890625 25.390625 
L 37.796875 25.390625 
z
M 35.203125 72.90625 
L 47.609375 72.90625 
L 47.609375 25.390625 
L 58.015625 25.390625 
L 58.015625 17.1875 
L 47.609375 17.1875 
L 47.609375 0 
L 37.796875 0 
L 37.796875 17.1875 
L 4.890625 17.1875 
L 4.890625 26.703125 
z
" id="DejaVuSans-52" class="dark-fill" />
                                                 </defs>
                                                 <use xlink:href="#DejaVuSans-52" />
                                                 <use x="63.623047" xlink:href="#DejaVuSans-48" />
                                          </g>
                                   </g>
                            </g>
                            <g id="ytick_6">
                                   <g id="line2d_13">
                                          <g>
                                                 <use style="stroke-width:0.8;" class="dark-stroke" x="44.66" xlink:href="#meda81dcd98" y="73.568403" />
                                          </g>
                                   </g>
                                   <g id="text_14">
                                          <!-- 50 -->
                                          <g transform="translate(24.935 77.367622)scale(0.1 -0.1)">
                                                 <use xlink:href="#DejaVuSans-53" />
                                                 <use x="63.623047" xlink:href="#DejaVuSans-48" />
                                          </g>
                                   </g>
                            </g>
                            <g id="ytick_7">
                                   <g id="line2d_14">
                                          <g>
                                                 <use style="stroke-width:0.8;" class="dark-stroke" x="44.66" xlink:href="#meda81dcd98" y="32.410592" />
                                          </g>
                                   </g>
                                   <g id="text_15">
                                          <!-- 60 -->
                                          <g transform="translate(24.935 36.209811)scale(0.1 -0.1)">
                                                 <defs>
                                                        <path d="M 33.015625 40.375 
Q 26.375 40.375 22.484375 35.828125 
Q 18.609375 31.296875 18.609375 23.390625 
Q 18.609375 15.53125 22.484375 10.953125 
Q 26.375 6.390625 33.015625 6.390625 
Q 39.65625 6.390625 43.53125 10.953125 
Q 47.40625 15.53125 47.40625 23.390625 
Q 47.40625 31.296875 43.53125 35.828125 
Q 39.65625 40.375 33.015625 40.375 
z
M 52.59375 71.296875 
L 52.59375 62.3125 
Q 48.875 64.0625 45.09375 64.984375 
Q 41.3125 65.921875 37.59375 65.921875 
Q 27.828125 65.921875 22.671875 59.328125 
Q 17.53125 52.734375 16.796875 39.40625 
Q 19.671875 43.65625 24.015625 45.921875 
Q 28.375 48.1875 33.59375 48.1875 
Q 44.578125 48.1875 50.953125 41.515625 
Q 57.328125 34.859375 57.328125 23.390625 
Q 57.328125 12.15625 50.6875 5.359375 
Q 44.046875 -1.421875 33.015625 -1.421875 
Q 20.359375 -1.421875 13.671875 8.265625 
Q 6.984375 17.96875 6.984375 36.375 
Q 6.984375 53.65625 15.1875 63.9375 
Q 23.390625 74.21875 37.203125 74.21875 
Q 40.921875 74.21875 44.703125 73.484375 
Q 48.484375 72.75 52.59375 71.296875 
z
" id="DejaVuSans-54" class="dark-fill" />
                                                 </defs>
                                                 <use xlink:href="#DejaVuSans-54" />
                                                 <use x="63.623047" xlink:href="#DejaVuSans-48" />
                                          </g>
                                   </g>
                            </g>
                            <g id="text_16">
                                   <!-- Minutes -->
                                   <g transform="translate(18.855313 170.242263)rotate(-90)scale(0.1 -0.1)">
                                          <defs>
                                                 <path d="M 9.8125 72.90625 
L 24.515625 72.90625 
L 43.109375 23.296875 
L 61.8125 72.90625 
L 76.515625 72.90625 
L 76.515625 0 
L 66.890625 0 
L 66.890625 64.015625 
L 48.09375 14.015625 
L 38.1875 14.015625 
L 19.390625 64.015625 
L 19.390625 0 
L 9.8125 0 
z
" id="DejaVuSans-77" class="dark-fill" />
                                                 <path d="M 9.421875 54.6875 
L 18.40625 54.6875 
L 18.40625 0 
L 9.421875 0 
z
M 9.421875 75.984375 
L 18.40625 75.984375 
L 18.40625 64.59375 
L 9.421875 64.59375 
z
" id="DejaVuSans-105" class="dark-fill" />
                                                 <path d="M 54.890625 33.015625 
L 54.890625 0 
L 45.90625 0 
L 45.90625 32.71875 
Q 45.90625 40.484375 42.875 44.328125 
Q 39.84375 48.1875 33.796875 48.1875 
Q 26.515625 48.1875 22.3125 43.546875 
Q 18.109375 38.921875 18.109375 30.90625 
L 18.109375 0 
L 9.078125 0 
L 9.078125 54.6875 
L 18.109375 54.6875 
L 18.109375 46.1875 
Q 21.34375 51.125 25.703125 53.5625 
Q 30.078125 56 35.796875 56 
Q 45.21875 56 50.046875 50.171875 
Q 54.890625 44.34375 54.890625 33.015625 
z
" id="DejaVuSans-110" class="dark-fill" />
                                                 <path d="M 8.5 21.578125 
L 8.5 54.6875 
L 17.484375 54.6875 
L 17.484375 21.921875 
Q 17.484375 14.15625 20.5 10.265625 
Q 23.53125 6.390625 29.59375 6.390625 
Q 36.859375 6.390625 41.078125 11.03125 
Q 45.3125 15.671875 45.3125 23.6875 
L 45.3125 54.6875 
L 54.296875 54.6875 
L 54.296875 0 
L 45.3125 0 
L 45.3125 8.40625 
Q 42.046875 3.421875 37.71875 1 
Q 33.40625 -1.421875 27.6875 -1.421875 
Q 18.265625 -1.421875 13.375 4.4375 
Q 8.5 10.296875 8.5 21.578125 
z
M 31.109375 56 
z
" id="DejaVuSans-117" class="dark-fill" />
                                                 <path d="M 44.28125 53.078125 
L 44.28125 44.578125 
Q 40.484375 46.53125 36.375 47.5 
Q 32.28125 48.484375 27.875 48.484375 
Q 21.1875 48.484375 17.84375 46.4375 
Q 14.5 44.390625 14.5 40.28125 
Q 14.5 37.15625 16.890625 35.375 
Q 19.28125 33.59375 26.515625 31.984375 
L 29.59375 31.296875 
Q 39.15625 29.25 43.1875 25.515625 
Q 47.21875 21.78125 47.21875 15.09375 
Q 47.21875 7.46875 41.1875 3.015625 
Q 35.15625 -1.421875 24.609375 -1.421875 
Q 20.21875 -1.421875 15.453125 -0.5625 
Q 10.6875 0.296875 5.421875 2 
L 5.421875 11.28125 
Q 10.40625 8.6875 15.234375 7.390625 
Q 20.0625 6.109375 24.8125 6.109375 
Q 31.15625 6.109375 34.5625 8.28125 
Q 37.984375 10.453125 37.984375 14.40625 
Q 37.984375 18.0625 35.515625 20.015625 
Q 33.0625 21.96875 24.703125 23.78125 
L 21.578125 24.515625 
Q 13.234375 26.265625 9.515625 29.90625 
Q 5.8125 33.546875 5.8125 39.890625 
Q 5.8125 47.609375 11.28125 51.796875 
Q 16.75 56 26.8125 56 
Q 31.78125 56 36.171875 55.265625 
Q 40.578125 54.546875 44.28125 53.078125 
z
" id="DejaVuSans-115" class="dark-fill" />
                                          </defs>
                                          <use xlink:href="#DejaVuSans-77" />
                                          <use x="86.279297" xlink:href="#DejaVuSans-105" />
                                          <use x="114.0625" xlink:href="#DejaVuSans-110" />
                                          <use x="177.441406" xlink:href="#DejaVuSans-117" />
                                          <use x="240.820312" xlink:href="#DejaVuSans-116" />
                                          <use x="280.029297" xlink:href="#DejaVuSans-101" />
                                          <use x="341.552734" xlink:href="#DejaVuSans-115" />
                                   </g>
                            </g>
                     </g>
                     <g id="line2d_15">
                            <path clip-path="url(#pe4fc344853)" d="M 66.477727 200.590524 
L 71.023087 186.887131 
L 75.568447 174.659744 
L 80.113807 165.057335 
L 84.659167 158.768361 
L 89.204527 155.9579 
L 93.749886 155.827222 
L 98.295246 156.970304 
L 102.840606 157.796141 
L 107.385966 156.877214 
L 111.931326 153.432823 
L 116.476686 147.589742 
L 121.022045 140.884915 
L 125.567405 135.112988 
L 130.112765 132.026196 
L 134.658125 132.28768 
L 139.203485 135.540466 
L 143.748845 141.373379 
L 148.294205 148.931328 
L 152.839564 158.568999 
L 157.384924 170.274863 
L 161.930284 182.064446 
L 166.475644 192.108523 
L 171.021004 198.860915 
L 175.566364 200.862199 
L 180.111723 197.789869 
L 184.657083 190.73977 
L 189.202443 181.379645 
L 193.747803 170.864653 
L 198.293163 160.322519 
L 202.838523 150.613958 
L 207.383883 141.805129 
L 211.929242 133.82948 
L 216.474602 126.788386 
L 221.019962 121.19838 
L 225.565322 117.571331 
L 230.110682 116.323759 
L 234.656042 117.743439 
L 239.201402 121.582632 
L 243.746761 127.237507 
L 248.292121 134.611703 
L 252.837481 143.316908 
L 257.382841 152.351092 
L 261.928201 160.993479 
L 266.473561 168.753539 
L 271.01892 174.849035 
L 275.56428 178.678111 
L 280.10964 180.447891 
L 284.655 180.565185 
L 289.20036 179.89756 
L 293.74572 179.53849 
L 298.29108 180.348481 
L 302.836439 182.967457 
L 307.381799 187.956679 
L 311.927159 195.444502 
L 316.472519 204.525607 
L 321.017879 213.816854 
L 325.563239 221.689329 
L 330.108598 226.257064 
L 334.653958 225.405358 
L 339.199318 217.512894 
L 343.744678 203.129779 
L 348.290038 183.896807 
L 352.835398 161.346525 
L 357.380758 137.535284 
L 361.926117 114.879082 
L 366.471477 95.46922 
L 371.016837 80.833942 
L 375.562197 72.019302 
L 380.107557 69.100223 
L 384.652917 71.770967 
L 389.198277 78.838363 
L 393.743636 88.257208 
L 398.288996 98.560815 
L 402.834356 108.526996 
L 407.379716 116.899703 
L 411.925076 123.22937 
L 416.470436 128.320687 
L 421.015795 133.628971 
L 425.561155 140.503866 
L 430.106515 148.834172 
L 434.651875 157.975389 
L 439.197235 168.040207 
L 443.742595 178.724331 
L 448.287955 188.95213 
L 452.833314 197.685686 
L 457.378674 204.10769 
L 461.924034 207.827383 
L 466.469394 209.439329 
L 471.014754 209.590444 
L 475.560114 209.285477 
L 480.105473 209.872028 
L 484.650833 211.896864 
L 489.196193 215.645256 
L 493.741553 221.415232 
L 498.286913 229.062746 
L 502.832273 237.935126 
" style="fill:none;stroke:#1f77b4;stroke-linecap:square;stroke-width:1.5;" />
                     </g>
                     <g id="line2d_16">
                            <path clip-path="url(#pe4fc344853)" d="M 66.477727 239.688075 
L 71.023087 234.125762 
L 75.568447 228.887546 
L 80.113807 223.508209 
L 84.659167 217.10355 
L 89.204527 209.182169 
L 93.749886 198.008579 
L 98.295246 182.340561 
L 102.840606 162.373645 
L 107.385966 138.147146 
L 111.931326 110.666663 
L 116.476686 82.475863 
L 121.022045 57.146087 
L 125.567405 37.973852 
L 130.112765 26.672918 
L 134.658125 23.505476 
L 139.203485 27.570638 
L 143.748845 36.538212 
L 148.294205 48.297927 
L 152.839564 62.326607 
L 157.384924 77.960833 
L 161.930284 93.7294 
L 166.475644 108.956399 
L 171.021004 123.024613 
L 175.566364 134.808592 
L 180.111723 145.07361 
L 184.657083 154.960811 
L 189.202443 164.455099 
L 193.747803 173.666118 
L 198.293163 181.008857 
L 202.838523 184.408275 
L 207.383883 183.249514 
L 211.929242 177.587721 
L 216.474602 168.564608 
L 221.019962 157.991302 
L 225.565322 148.210764 
L 230.110682 142.207749 
L 234.656042 141.759535 
L 239.201402 147.079012 
L 243.746761 157.63668 
L 248.292121 172.30019 
L 252.837481 189.081462 
L 257.382841 206.173721 
L 261.928201 222.382033 
L 266.473561 236.337299 
L 271.01892 246.574198 
L 275.56428 252.323777 
L 280.10964 253.937157 
L 284.655 253.446075 
L 289.20036 252.746465 
L 293.74572 251.890668 
L 298.29108 250.372832 
L 302.836439 247.54758 
L 307.381799 243.310274 
L 311.927159 238.002722 
L 316.472519 232.059234 
L 321.017879 225.748293 
L 325.563239 219.166933 
L 330.108598 212.641025 
L 334.653958 206.290897 
L 339.199318 200.58168 
L 343.744678 196.366798 
L 348.290038 194.185159 
L 352.835398 194.273176 
L 357.380758 196.30441 
L 361.926117 199.800532 
L 366.471477 204.335732 
L 371.016837 209.371603 
L 375.562197 214.679332 
L 380.107557 220.235387 
L 384.652917 226.083221 
L 389.198277 232.410726 
L 393.743636 239.201231 
L 398.288996 246.106205 
L 402.834356 252.576915 
L 407.379716 258.334694 
L 411.925076 263.365926 
L 416.470436 267.536196 
L 421.015795 270.980445 
L 425.561155 273.771442 
L 430.106515 275.606741 
L 434.651875 276.322669 
L 439.197235 276.005964 
L 443.742595 275.160428 
L 448.287955 274.241537 
L 452.833314 273.407554 
L 457.378674 272.467163 
L 461.924034 270.911942 
L 466.469394 268.628734 
L 471.014754 265.888434 
L 475.560114 263.011471 
L 480.105473 260.309607 
L 484.650833 258.075633 
L 489.196193 256.551633 
L 493.741553 255.902756 
L 498.286913 256.199319 
L 502.832273 257.409184 
" style="fill:none;stroke:#ff7f0e;stroke-linecap:square;stroke-width:1.5;" />
                     </g>
                     <g id="line2d_17">
                            <path clip-path="url(#pe4fc344853)" d="M 66.477727 273.940111 
L 71.023087 272.785219 
L 75.568447 271.497463 
L 80.113807 269.934701 
L 84.659167 267.949382 
L 89.204527 265.392795 
L 93.749886 261.943398 
L 98.295246 257.658083 
L 102.840606 252.707805 
L 107.385966 247.253417 
L 111.931326 241.709931 
L 116.476686 236.279008 
L 121.022045 231.267484 
L 125.567405 227.300594 
L 130.112765 224.808213 
L 134.658125 223.943059 
L 139.203485 224.646301 
L 143.748845 226.560043 
L 148.294205 229.253898 
L 152.839564 232.482892 
L 157.384924 236.108381 
L 161.930284 239.796172 
L 166.475644 243.310956 
L 171.021004 246.412695 
L 175.566364 248.953061 
L 180.111723 251.032353 
L 184.657083 252.519143 
L 189.202443 253.522268 
L 193.747803 254.285135 
L 198.293163 254.877658 
L 202.838523 255.564266 
L 207.383883 256.423135 
L 211.929242 257.220351 
L 216.474602 257.799098 
L 221.019962 258.14361 
L 225.565322 258.275239 
L 230.110682 258.167983 
L 234.656042 257.89215 
L 239.201402 257.360261 
L 243.746761 256.48911 
L 248.292121 255.490469 
L 252.837481 254.566454 
L 257.382841 253.570717 
L 261.928201 252.141679 
L 266.473561 250.093823 
L 271.01892 247.179584 
L 275.56428 243.303967 
L 280.10964 238.851744 
L 284.655 234.328856 
L 289.20036 230.143269 
L 293.74572 226.654661 
L 298.29108 223.595535 
L 302.836439 220.698807 
L 307.381799 218.184484 
L 311.927159 216.172451 
L 316.472519 215.056798 
L 321.017879 214.73542 
L 325.563239 214.562393 
L 330.108598 214.192617 
L 334.653958 213.314051 
L 339.199318 211.411575 
L 343.744678 208.750035 
L 348.290038 206.028649 
L 352.835398 203.765326 
L 357.380758 202.193594 
L 361.926117 201.22556 
L 366.471477 200.919176 
L 371.016837 201.260697 
L 375.562197 202.330483 
L 380.107557 204.000869 
L 384.652917 206.360797 
L 389.198277 209.694436 
L 393.743636 213.828328 
L 398.288996 218.384925 
L 402.834356 222.729602 
L 407.379716 226.567605 
L 411.925076 230.210722 
L 416.470436 233.745388 
L 421.015795 237.117202 
L 425.561155 240.289416 
L 430.106515 242.683529 
L 434.651875 243.288929 
L 439.197235 241.687899 
L 443.742595 238.664264 
L 448.287955 234.580893 
L 452.833314 228.859157 
L 457.378674 221.426607 
L 461.924034 212.947831 
L 466.469394 204.623326 
L 471.014754 197.871612 
L 475.560114 193.67082 
L 480.105473 192.558331 
L 484.650833 194.854231 
L 489.196193 200.567939 
L 493.741553 209.30329 
L 498.286913 220.20757 
L 502.832273 232.122605 
" style="fill:none;stroke:#2ca02c;stroke-linecap:square;stroke-width:1.5;" />
                     </g>
                     <g id="line2d_18">
                            <path clip-path="url(#pe4fc344853)" d="M 66.477727 272.313552 
L 71.023087 271.254631 
L 75.568447 270.275656 
L 80.113807 269.459241 
L 84.659167 268.799961 
L 89.204527 267.981934 
L 93.749886 266.612587 
L 98.295246 264.558621 
L 102.840606 261.807872 
L 107.385966 258.494108 
L 111.931326 254.776898 
L 116.476686 250.918212 
L 121.022045 247.371411 
L 125.567405 244.556058 
L 130.112765 242.835924 
L 134.658125 242.397413 
L 139.203485 243.123725 
L 143.748845 244.701412 
L 148.294205 246.877347 
L 152.839564 249.497893 
L 157.384924 252.396445 
L 161.930284 255.106318 
L 166.475644 257.134323 
L 171.021004 258.155063 
L 175.566364 257.600177 
L 180.111723 255.095526 
L 184.657083 250.924263 
L 189.202443 245.773151 
L 193.747803 240.306027 
L 198.293163 234.880597 
L 202.838523 229.333618 
L 207.383883 223.409385 
L 211.929242 217.092605 
L 216.474602 210.527892 
L 221.019962 203.898468 
L 225.565322 197.699729 
L 230.110682 192.720776 
L 234.656042 189.430732 
L 239.201402 188.092228 
L 243.746761 188.850313 
L 248.292121 191.84584 
L 252.837481 196.906779 
L 257.382841 203.40254 
L 261.928201 211.157374 
L 266.473561 219.800408 
L 271.01892 228.254189 
L 275.56428 235.520461 
L 280.10964 240.858758 
L 284.655 243.995756 
L 289.20036 245.342686 
L 293.74572 245.563446 
L 298.29108 245.174017 
L 302.836439 244.580449 
L 307.381799 244.340022 
L 311.927159 244.830903 
L 316.472519 246.046844 
L 321.017879 247.973451 
L 325.563239 250.108518 
L 330.108598 251.504718 
L 334.653958 250.88399 
L 339.199318 247.280738 
L 343.744678 240.979797 
L 348.290038 232.922187 
L 352.835398 224.391873 
L 357.380758 216.477565 
L 361.926117 209.837371 
L 366.471477 205.143912 
L 371.016837 203.011429 
L 375.562197 203.882278 
L 380.107557 207.368662 
L 384.652917 212.705454 
L 389.198277 219.326067 
L 393.743636 226.442631 
L 398.288996 233.119639 
L 402.834356 238.574846 
L 407.379716 242.240572 
L 411.925076 244.059952 
L 416.470436 244.55179 
L 421.015795 244.625228 
L 425.561155 245.035218 
L 430.106515 245.502588 
L 434.651875 245.30768 
L 439.197235 244.213399 
L 443.742595 242.479171 
L 448.287955 240.093398 
L 452.833314 236.704287 
L 457.378674 232.315252 
L 461.924034 227.261068 
L 466.469394 222.453283 
L 471.014754 218.917589 
L 475.560114 217.224928 
L 480.105473 217.73478 
L 484.650833 220.614901 
L 489.196193 225.705766 
L 493.741553 232.526124 
L 498.286913 240.407305 
L 502.832273 248.495261 
" style="fill:none;stroke:#d62728;stroke-linecap:square;stroke-width:1.5;" />
                     </g>
                     <g id="line2d_19">
                            <path clip-path="url(#pe4fc344853)" d="M 66.477727 274.282095 
L 71.023087 273.401882 
L 75.568447 272.650617 
L 80.113807 272.109711 
L 84.659167 271.83778 
L 89.204527 271.770396 
L 93.749886 271.809227 
L 98.295246 271.926591 
L 102.840606 272.051083 
L 107.385966 271.922736 
L 111.931326 271.355927 
L 116.476686 270.435553 
L 121.022045 269.296562 
L 125.567405 268.132804 
L 130.112765 267.152549 
L 134.658125 266.426812 
L 139.203485 265.98729 
L 143.748845 265.740767 
L 148.294205 265.573112 
L 152.839564 265.537705 
L 157.384924 265.462327 
L 161.930284 264.991296 
L 166.475644 264.011338 
L 171.021004 262.605171 
L 175.566364 260.983862 
L 180.111723 259.417 
L 184.657083 258.097854 
L 189.202443 257.228059 
L 193.747803 257.089664 
L 198.293163 257.83851 
L 202.838523 259.311291 
L 207.383883 261.242772 
L 211.929242 263.400174 
L 216.474602 265.54971 
L 221.019962 267.517128 
L 225.565322 269.12444 
L 230.110682 270.279628 
L 234.656042 271.010092 
L 239.201402 271.260148 
L 243.746761 271.190492 
L 248.292121 271.184259 
L 252.837481 271.394707 
L 257.382841 271.71687 
L 261.928201 272.010203 
L 266.473561 272.172497 
L 271.01892 272.12748 
L 275.56428 271.786132 
L 280.10964 271.173708 
L 284.655 270.391784 
L 289.20036 269.407723 
L 293.74572 268.175582 
L 298.29108 266.605877 
L 302.836439 264.55181 
L 307.381799 262.083388 
L 311.927159 259.280311 
L 316.472519 256.30549 
L 321.017879 253.528242 
L 325.563239 251.132154 
L 330.108598 248.696128 
L 334.653958 245.779922 
L 339.199318 242.359178 
L 343.744678 238.698951 
L 348.290038 235.090251 
L 352.835398 231.489864 
L 357.380758 228.076682 
L 361.926117 225.302734 
L 366.471477 223.351251 
L 371.016837 222.281124 
L 375.562197 222.407848 
L 380.107557 223.647268 
L 384.652917 225.712492 
L 389.198277 228.520565 
L 393.743636 231.755453 
L 398.288996 235.054867 
L 402.834356 237.861736 
L 407.379716 239.038558 
L 411.925076 237.96485 
L 416.470436 235.390768 
L 421.015795 232.276002 
L 425.561155 229.075456 
L 430.106515 226.089012 
L 434.651875 223.640297 
L 439.197235 222.288094 
L 443.742595 222.378465 
L 448.287955 223.52603 
L 452.833314 225.054792 
L 457.378674 226.552606 
L 461.924034 227.728054 
L 466.469394 228.653286 
L 471.014754 229.627102 
L 475.560114 230.731765 
L 480.105473 232.035361 
L 484.650833 233.631368 
L 489.196193 235.75763 
L 493.741553 239.017066 
L 498.286913 243.690268 
L 502.832273 249.341244 
" style="fill:none;stroke:#9467bd;stroke-linecap:square;stroke-width:1.5;" />
                     </g>
                     <g id="line2d_20">
                            <path clip-path="url(#pe4fc344853)" d="M 66.477727 275.393538 
L 71.023087 275.28861 
L 75.568447 275.366391 
L 80.113807 275.61845 
L 84.659167 275.806206 
L 89.204527 275.686309 
L 93.749886 275.166117 
L 98.295246 274.078997 
L 102.840606 272.378436 
L 107.385966 270.154821 
L 111.931326 267.578691 
L 116.476686 265.023106 
L 121.022045 262.870639 
L 125.567405 261.354542 
L 130.112765 260.639107 
L 134.658125 260.778389 
L 139.203485 261.733821 
L 143.748845 263.202336 
L 148.294205 264.848742 
L 152.839564 266.518099 
L 157.384924 268.029507 
L 161.930284 269.219181 
L 166.475644 269.958202 
L 171.021004 270.307329 
L 175.566364 270.381312 
L 180.111723 270.277768 
L 184.657083 270.23092 
L 189.202443 270.410165 
L 193.747803 270.889975 
L 198.293163 271.465774 
L 202.838523 271.711315 
L 207.383883 271.048348 
L 211.929242 269.149656 
L 216.474602 266.220991 
L 221.019962 262.556244 
L 225.565322 258.505601 
L 230.110682 254.625382 
L 234.656042 251.476913 
L 239.201402 249.40138 
L 243.746761 248.576751 
L 248.292121 248.998491 
L 252.837481 250.433105 
L 257.382841 252.607758 
L 261.928201 255.134213 
L 266.473561 257.550894 
L 271.01892 259.584181 
L 275.56428 260.978523 
L 280.10964 261.371555 
L 284.655 260.755896 
L 289.20036 259.444743 
L 293.74572 257.990975 
L 298.29108 256.857295 
L 302.836439 256.037448 
L 307.381799 255.526379 
L 311.927159 255.203415 
L 316.472519 255.021394 
L 321.017879 254.953094 
L 325.563239 254.712488 
L 330.108598 254.184805 
L 334.653958 253.49765 
L 339.199318 252.889807 
L 343.744678 252.614937 
L 348.290038 252.914094 
L 352.835398 253.790071 
L 357.380758 254.87799 
L 361.926117 255.883902 
L 366.471477 256.628378 
L 371.016837 256.983794 
L 375.562197 256.747317 
L 380.107557 255.451615 
L 384.652917 252.955408 
L 389.198277 249.623096 
L 393.743636 245.827523 
L 398.288996 242.120843 
L 402.834356 238.91647 
L 407.379716 236.18606 
L 411.925076 233.521273 
L 416.470436 230.447969 
L 421.015795 227.005761 
L 425.561155 223.462032 
L 430.106515 220.106905 
L 434.651875 216.787527 
L 439.197235 213.452808 
L 443.742595 210.522801 
L 448.287955 208.303281 
L 452.833314 207.281246 
L 457.378674 207.743505 
L 461.924034 209.769073 
L 466.469394 213.666618 
L 471.014754 219.389364 
L 475.560114 226.352376 
L 480.105473 233.930211 
L 484.650833 241.407327 
L 489.196193 248.126043 
L 493.741553 253.839503 
L 498.286913 258.926216 
L 502.832273 263.785661 
" style="fill:none;stroke:#8c564b;stroke-linecap:square;stroke-width:1.5;" />
                     </g>
                     <g id="line2d_21">
                            <path clip-path="url(#pe4fc344853)" d="M 66.477727 264.468018 
L 71.023087 262.231691 
L 75.568447 260.278439 
L 80.113807 258.796453 
L 84.659167 257.875908 
L 89.204527 257.546135 
L 93.749886 257.737238 
L 98.295246 258.264188 
L 102.840606 258.811666 
L 107.385966 259.097342 
L 111.931326 258.949411 
L 116.476686 258.266534 
L 121.022045 257.122712 
L 125.567405 255.724054 
L 130.112765 254.398184 
L 134.658125 253.335727 
L 139.203485 252.546185 
L 143.748845 251.915585 
L 148.294205 251.371419 
L 152.839564 251.1135 
L 157.384924 251.369308 
L 161.930284 252.052436 
L 166.475644 252.95975 
L 171.021004 253.899031 
L 175.566364 254.651123 
L 180.111723 255.157999 
L 184.657083 255.458628 
L 189.202443 255.743436 
L 193.747803 256.110668 
L 198.293163 256.6379 
L 202.838523 257.432316 
L 207.383883 258.313932 
L 211.929242 258.975946 
L 216.474602 259.323142 
L 221.019962 259.388319 
L 225.565322 259.082256 
L 230.110682 258.461592 
L 234.656042 257.675745 
L 239.201402 256.715979 
L 243.746761 255.592402 
L 248.292121 254.555878 
L 252.837481 253.800891 
L 257.382841 253.397518 
L 261.928201 253.424682 
L 266.473561 253.855965 
L 271.01892 254.574209 
L 275.56428 255.419421 
L 280.10964 256.346958 
L 284.655 257.291518 
L 289.20036 258.068583 
L 293.74572 258.605684 
L 298.29108 258.821143 
L 302.836439 258.585979 
L 307.381799 257.972623 
L 311.927159 257.117964 
L 316.472519 256.126355 
L 321.017879 255.081778 
L 325.563239 254.073955 
L 330.108598 252.942147 
L 334.653958 251.386468 
L 339.199318 249.329021 
L 343.744678 246.981026 
L 348.290038 244.690821 
L 352.835398 242.68311 
L 357.380758 241.116776 
L 361.926117 240.149818 
L 366.471477 239.898758 
L 371.016837 240.379064 
L 375.562197 241.667797 
L 380.107557 243.683987 
L 384.652917 246.256097 
L 389.198277 249.140611 
L 393.743636 251.884101 
L 398.288996 254.212742 
L 402.834356 255.979823 
L 407.379716 257.05254 
L 411.925076 257.420279 
L 416.470436 257.418778 
L 421.015795 257.48247 
L 425.561155 257.674877 
L 430.106515 257.904724 
L 434.651875 257.994524 
L 439.197235 257.723276 
L 443.742595 257.085165 
L 448.287955 256.008494 
L 452.833314 254.351722 
L 457.378674 252.130067 
L 461.924034 249.396485 
L 466.469394 246.470679 
L 471.014754 243.869234 
L 475.560114 242.073587 
L 480.105473 241.489592 
L 484.650833 242.309642 
L 489.196193 244.52703 
L 493.741553 247.983629 
L 498.286913 252.363547 
L 502.832273 257.215627 
" style="fill:none;stroke:#e377c2;stroke-linecap:square;stroke-width:1.5;" />
                     </g>
                     <g id="line2d_22">
                            <path clip-path="url(#pe4fc344853)" d="M 66.477727 271.366445 
L 71.023087 270.524163 
L 75.568447 269.981831 
L 80.113807 269.739532 
L 84.659167 269.706153 
L 89.204527 269.779678 
L 93.749886 269.811293 
L 98.295246 269.60978 
L 102.840606 269.079605 
L 107.385966 268.184324 
L 111.931326 266.891847 
L 116.476686 265.271812 
L 121.022045 263.558459 
L 125.567405 262.054828 
L 130.112765 260.818227 
L 134.658125 259.736183 
L 139.203485 258.80858 
L 143.748845 257.995094 
L 148.294205 257.196087 
L 152.839564 256.369034 
L 157.384924 255.591823 
L 161.930284 254.948676 
L 166.475644 254.497553 
L 171.021004 254.310812 
L 175.566364 254.385216 
L 180.111723 254.747914 
L 184.657083 255.500446 
L 189.202443 256.631686 
L 193.747803 257.936887 
L 198.293163 259.262874 
L 202.838523 260.454219 
L 207.383883 261.205763 
L 211.929242 261.330433 
L 216.474602 261.014248 
L 221.019962 260.573162 
L 225.565322 260.160607 
L 230.110682 259.926924 
L 234.656042 260.073491 
L 239.201402 260.701796 
L 243.746761 261.732017 
L 248.292121 263.064249 
L 252.837481 264.589336 
L 257.382841 266.153747 
L 261.928201 267.599693 
L 266.473561 268.793956 
L 271.01892 269.607119 
L 275.56428 269.951064 
L 280.10964 269.929363 
L 284.655 269.638266 
L 289.20036 269.144527 
L 293.74572 268.607285 
L 298.29108 268.014336 
L 302.836439 267.28909 
L 307.381799 266.474929 
L 311.927159 265.601392 
L 316.472519 264.481453 
L 321.017879 262.907835 
L 325.563239 260.957168 
L 330.108598 258.62957 
L 334.653958 255.94253 
L 339.199318 253.140284 
L 343.744678 250.491286 
L 348.290038 248.294333 
L 352.835398 246.775763 
L 357.380758 246.076662 
L 361.926117 246.249314 
L 366.471477 247.228061 
L 371.016837 248.918579 
L 375.562197 251.231569 
L 380.107557 254.033754 
L 384.652917 257.103634 
L 389.198277 259.967694 
L 393.743636 262.15125 
L 398.288996 263.441155 
L 402.834356 263.850208 
L 407.379716 263.557086 
L 411.925076 262.663978 
L 416.470436 261.291138 
L 421.015795 259.657758 
L 425.561155 257.74131 
L 430.106515 255.54994 
L 434.651875 253.227221 
L 439.197235 250.790114 
L 443.742595 248.397083 
L 448.287955 246.213554 
L 452.833314 244.335302 
L 457.378674 242.895441 
L 461.924034 241.862211 
L 466.469394 241.183257 
L 471.014754 241.026053 
L 475.560114 241.70106 
L 480.105473 243.358136 
L 484.650833 245.899869 
L 489.196193 249.22688 
L 493.741553 253.107744 
L 498.286913 257.180593 
L 502.832273 261.262288 
" style="fill:none;stroke:#7f7f7f;stroke-linecap:square;stroke-width:1.5;" />
                     </g>
                     <g id="line2d_23">
                            <path clip-path="url(#pe4fc344853)" d="M 66.477727 272.734515 
L 71.023087 270.078798 
L 75.568447 266.867537 
L 80.113807 263.401775 
L 84.659167 259.998395 
L 89.204527 256.932309 
L 93.749886 254.465353 
L 98.295246 252.606645 
L 102.840606 251.228965 
L 107.385966 250.340763 
L 111.931326 249.991341 
L 116.476686 250.265511 
L 121.022045 251.168776 
L 125.567405 252.614988 
L 130.112765 254.400481 
L 134.658125 256.273082 
L 139.203485 257.947708 
L 143.748845 259.148989 
L 148.294205 260.227969 
L 152.839564 261.572417 
L 157.384924 263.154012 
L 161.930284 264.848313 
L 166.475644 266.436503 
L 171.021004 267.629108 
L 175.566364 268.144307 
L 180.111723 267.820639 
L 184.657083 266.751862 
L 189.202443 265.206377 
L 193.747803 263.246027 
L 198.293163 260.942403 
L 202.838523 258.33387 
L 207.383883 255.421413 
L 211.929242 251.628625 
L 216.474602 246.638815 
L 221.019962 241.01618 
L 225.565322 235.25265 
L 230.110682 229.632417 
L 234.656042 224.48283 
L 239.201402 220.185872 
L 243.746761 217.06634 
L 248.292121 215.532705 
L 252.837481 215.751161 
L 257.382841 217.75672 
L 261.928201 221.496369 
L 266.473561 226.588331 
L 271.01892 232.386917 
L 275.56428 238.017282 
L 280.10964 242.834078 
L 284.655 246.503122 
L 289.20036 248.873296 
L 293.74572 249.957707 
L 298.29108 250.495649 
L 302.836439 251.226947 
L 307.381799 252.154515 
L 311.927159 253.412578 
L 316.472519 255.310812 
L 321.017879 257.94868 
L 325.563239 261.216383 
L 330.108598 264.90066 
L 334.653958 268.543577 
L 339.199318 271.762104 
L 343.744678 274.324835 
L 348.290038 276.036217 
L 352.835398 276.781219 
L 357.380758 276.690375 
L 361.926117 276.196064 
L 366.471477 275.633542 
L 371.016837 275.098978 
L 375.562197 274.6503 
L 380.107557 274.371342 
L 384.652917 274.327543 
L 389.198277 274.476702 
L 393.743636 274.755706 
L 398.288996 275.134322 
L 402.834356 275.57152 
L 407.379716 276.019923 
L 411.925076 276.430939 
L 416.470436 276.748293 
L 421.015795 276.996278 
L 425.561155 277.218444 
L 430.106515 277.390717 
L 434.651875 277.470953 
L 439.197235 277.509143 
L 443.742595 277.583308 
L 448.287955 277.614988 
L 452.833314 277.459907 
L 457.378674 276.771019 
L 461.924034 275.306076 
L 466.469394 273.200353 
L 471.014754 270.682038 
L 475.560114 268.070977 
L 480.105473 265.697068 
L 484.650833 263.81756 
L 489.196193 262.636128 
L 493.741553 262.280797 
L 498.286913 262.790075 
L 502.832273 264.120508 
" style="fill:none;stroke:#bcbd22;stroke-linecap:square;stroke-width:1.5;" />
                     </g>
                     <g id="line2d_24">
                            <path clip-path="url(#pe4fc344853)" d="M 66.477727 267.805619 
L 71.023087 266.273175 
L 75.568447 265.078806 
L 80.113807 264.258044 
L 84.659167 263.747249 
L 89.204527 263.437454 
L 93.749886 263.080542 
L 98.295246 262.456973 
L 102.840606 261.35263 
L 107.385966 259.628972 
L 111.931326 257.425835 
L 116.476686 255.017174 
L 121.022045 252.781375 
L 125.567405 251.078094 
L 130.112765 250.150591 
L 134.658125 250.181537 
L 139.203485 251.214526 
L 143.748845 253.102405 
L 148.294205 255.66407 
L 152.839564 258.66887 
L 157.384924 261.861614 
L 161.930284 264.849367 
L 166.475644 267.273151 
L 171.021004 269.011155 
L 175.566364 269.957199 
L 180.111723 270.173084 
L 184.657083 269.811471 
L 189.202443 269.146288 
L 193.747803 268.366988 
L 198.293163 267.499336 
L 202.838523 266.613881 
L 207.383883 265.560097 
L 211.929242 264.170488 
L 216.474602 262.443059 
L 221.019962 260.341998 
L 225.565322 258.012828 
L 230.110682 255.7549 
L 234.656042 253.78942 
L 239.201402 252.294169 
L 243.746761 251.360756 
L 248.292121 251.195966 
L 252.837481 251.817657 
L 257.382841 252.994138 
L 261.928201 254.539235 
L 266.473561 256.273776 
L 271.01892 258.056744 
L 275.56428 259.601031 
L 280.10964 260.715815 
L 284.655 261.421136 
L 289.20036 261.664037 
L 293.74572 261.55904 
L 298.29108 261.281842 
L 302.836439 260.745112 
L 307.381799 260.030486 
L 311.927159 259.356249 
L 316.472519 258.830679 
L 321.017879 258.475516 
L 325.563239 258.270562 
L 330.108598 258.202818 
L 334.653958 258.197463 
L 339.199318 257.961653 
L 343.744678 257.297935 
L 348.290038 256.336919 
L 352.835398 255.077114 
L 357.380758 253.514193 
L 361.926117 251.923156 
L 366.471477 250.605526 
L 371.016837 249.633665 
L 375.562197 249.124626 
L 380.107557 249.180521 
L 384.652917 249.818766 
L 389.198277 251.204939 
L 393.743636 253.317934 
L 398.288996 255.917039 
L 402.834356 258.744074 
L 407.379716 261.551371 
L 411.925076 264.116877 
L 416.470436 266.244737 
L 421.015795 267.798262 
L 425.561155 269.019902 
L 430.106515 270.164594 
L 434.651875 271.190455 
L 439.197235 272.221057 
L 443.742595 273.285564 
L 448.287955 274.221672 
L 452.833314 274.904464 
L 457.378674 275.318634 
L 461.924034 275.46625 
L 466.469394 275.401738 
L 471.014754 275.225984 
L 475.560114 275.004983 
L 480.105473 274.844843 
L 484.650833 274.821603 
L 489.196193 274.949518 
L 493.741553 275.238202 
L 498.286913 275.679845 
L 502.832273 276.250062 
" style="fill:none;stroke:#17becf;stroke-linecap:square;stroke-width:1.5;" />
                     </g>
                     <g id="patch_3">
                            <path d="M 44.66 290.320464 
L 44.66 10.8 
" style="fill:none;stroke-linecap:square;stroke-linejoin:miter;stroke-width:0.8;" class="dark-fill" />
                     </g>
                     <g id="patch_4">
                            <path d="M 524.65 290.320464 
L 524.65 10.8 
" style="fill:none;stroke-linecap:square;stroke-linejoin:miter;stroke-width:0.8;" class="dark-fill" />
                     </g>
                     <g id="patch_5">
                            <path d="M 44.66 290.320464 
L 524.65 290.320464 
" style="fill:none;stroke-linecap:square;stroke-linejoin:miter;stroke-width:0.8;" class="dark-fill" />
                     </g>
                     <g id="patch_6">
                            <path d="M 44.66 10.8 
L 524.65 10.8 
" style="fill:none;stroke-linecap:square;stroke-linejoin:miter;stroke-width:0.8;" class="dark-fill" />
                     </g>
                     <g id="legend_1">
                            <g id="patch_7">
                                   <path d="M 555.6495 180.259375 
L 703.347937 180.259375 
Q 705.347937 180.259375 705.347937 178.259375 
L 705.347937 17.8 
Q 705.347937 15.8 703.347937 15.8 
L 555.6495 15.8 
Q 553.6495 15.8 553.6495 17.8 
L 553.6495 178.259375 
Q 553.6495 180.259375 555.6495 180.259375 
z
" style="opacity:0.8;stroke:#cccccc;stroke-linejoin:miter;" />
                            </g>
                            <g id="text_17">
                                   <!-- Sites -->
                                   <g transform="translate(617.294031 27.398438)scale(0.1 -0.1)">
                                          <defs>
                                                 <path d="M 53.515625 70.515625 
L 53.515625 60.890625 
Q 47.90625 63.578125 42.921875 64.890625 
Q 37.9375 66.21875 33.296875 66.21875 
Q 25.25 66.21875 20.875 63.09375 
Q 16.5 59.96875 16.5 54.203125 
Q 16.5 49.359375 19.40625 46.890625 
Q 22.3125 44.4375 30.421875 42.921875 
L 36.375 41.703125 
Q 47.40625 39.59375 52.65625 34.296875 
Q 57.90625 29 57.90625 20.125 
Q 57.90625 9.515625 50.796875 4.046875 
Q 43.703125 -1.421875 29.984375 -1.421875 
Q 24.8125 -1.421875 18.96875 -0.25 
Q 13.140625 0.921875 6.890625 3.21875 
L 6.890625 13.375 
Q 12.890625 10.015625 18.65625 8.296875 
Q 24.421875 6.59375 29.984375 6.59375 
Q 38.421875 6.59375 43.015625 9.90625 
Q 47.609375 13.234375 47.609375 19.390625 
Q 47.609375 24.75 44.3125 27.78125 
Q 41.015625 30.8125 33.5 32.328125 
L 27.484375 33.5 
Q 16.453125 35.6875 11.515625 40.375 
Q 6.59375 45.0625 6.59375 53.421875 
Q 6.59375 63.09375 13.40625 68.65625 
Q 20.21875 74.21875 32.171875 74.21875 
Q 37.3125 74.21875 42.625 73.28125 
Q 47.953125 72.359375 53.515625 70.515625 
z
" id="DejaVuSans-83" class="dark-fill" />
                                          </defs>
                                          <use xlink:href="#DejaVuSans-83" />
                                          <use x="63.476562" xlink:href="#DejaVuSans-105" />
                                          <use x="91.259766" xlink:href="#DejaVuSans-116" />
                                          <use x="130.46875" xlink:href="#DejaVuSans-101" />
                                          <use x="191.992188" xlink:href="#DejaVuSans-115" />
                                   </g>
                            </g>
                            <g id="line2d_25">
                                   <path d="M 557.6495 38.576563 
L 577.6495 38.576563 
" style="fill:none;stroke:#1f77b4;stroke-linecap:square;stroke-width:1.5;" />
                            </g>
                            <g id="line2d_26" />
                            <g id="text_18">
                                   <!-- www.reddit.com -->
                                   <g transform="translate(585.6495 42.076563)scale(0.1 -0.1)">
                                          <defs>
                                                 <path d="M 4.203125 54.6875 
L 13.1875 54.6875 
L 24.421875 12.015625 
L 35.59375 54.6875 
L 46.1875 54.6875 
L 57.421875 12.015625 
L 68.609375 54.6875 
L 77.59375 54.6875 
L 63.28125 0 
L 52.6875 0 
L 40.921875 44.828125 
L 29.109375 0 
L 18.5 0 
z
" id="DejaVuSans-119" class="dark-fill" />
                                                 <path d="M 10.6875 12.40625 
L 21 12.40625 
L 21 0 
L 10.6875 0 
z
" id="DejaVuSans-46" class="dark-fill" />
                                                 <path d="M 41.109375 46.296875 
Q 39.59375 47.171875 37.8125 47.578125 
Q 36.03125 48 33.890625 48 
Q 26.265625 48 22.1875 43.046875 
Q 18.109375 38.09375 18.109375 28.8125 
L 18.109375 0 
L 9.078125 0 
L 9.078125 54.6875 
L 18.109375 54.6875 
L 18.109375 46.1875 
Q 20.953125 51.171875 25.484375 53.578125 
Q 30.03125 56 36.53125 56 
Q 37.453125 56 38.578125 55.875 
Q 39.703125 55.765625 41.0625 55.515625 
z
" id="DejaVuSans-114" class="dark-fill" />
                                                 <path d="M 45.40625 46.390625 
L 45.40625 75.984375 
L 54.390625 75.984375 
L 54.390625 0 
L 45.40625 0 
L 45.40625 8.203125 
Q 42.578125 3.328125 38.25 0.953125 
Q 33.9375 -1.421875 27.875 -1.421875 
Q 17.96875 -1.421875 11.734375 6.484375 
Q 5.515625 14.40625 5.515625 27.296875 
Q 5.515625 40.1875 11.734375 48.09375 
Q 17.96875 56 27.875 56 
Q 33.9375 56 38.25 53.625 
Q 42.578125 51.265625 45.40625 46.390625 
z
M 14.796875 27.296875 
Q 14.796875 17.390625 18.875 11.75 
Q 22.953125 6.109375 30.078125 6.109375 
Q 37.203125 6.109375 41.296875 11.75 
Q 45.40625 17.390625 45.40625 27.296875 
Q 45.40625 37.203125 41.296875 42.84375 
Q 37.203125 48.484375 30.078125 48.484375 
Q 22.953125 48.484375 18.875 42.84375 
Q 14.796875 37.203125 14.796875 27.296875 
z
" id="DejaVuSans-100" class="dark-fill" />
                                                 <path d="M 48.78125 52.59375 
L 48.78125 44.1875 
Q 44.96875 46.296875 41.140625 47.34375 
Q 37.3125 48.390625 33.40625 48.390625 
Q 24.65625 48.390625 19.8125 42.84375 
Q 14.984375 37.3125 14.984375 27.296875 
Q 14.984375 17.28125 19.8125 11.734375 
Q 24.65625 6.203125 33.40625 6.203125 
Q 37.3125 6.203125 41.140625 7.25 
Q 44.96875 8.296875 48.78125 10.40625 
L 48.78125 2.09375 
Q 45.015625 0.34375 40.984375 -0.53125 
Q 36.96875 -1.421875 32.421875 -1.421875 
Q 20.0625 -1.421875 12.78125 6.34375 
Q 5.515625 14.109375 5.515625 27.296875 
Q 5.515625 40.671875 12.859375 48.328125 
Q 20.21875 56 33.015625 56 
Q 37.15625 56 41.109375 55.140625 
Q 45.0625 54.296875 48.78125 52.59375 
z
" id="DejaVuSans-99" class="dark-fill" />
                                                 <path d="M 30.609375 48.390625 
Q 23.390625 48.390625 19.1875 42.75 
Q 14.984375 37.109375 14.984375 27.296875 
Q 14.984375 17.484375 19.15625 11.84375 
Q 23.34375 6.203125 30.609375 6.203125 
Q 37.796875 6.203125 41.984375 11.859375 
Q 46.1875 17.53125 46.1875 27.296875 
Q 46.1875 37.015625 41.984375 42.703125 
Q 37.796875 48.390625 30.609375 48.390625 
z
M 30.609375 56 
Q 42.328125 56 49.015625 48.375 
Q 55.71875 40.765625 55.71875 27.296875 
Q 55.71875 13.875 49.015625 6.21875 
Q 42.328125 -1.421875 30.609375 -1.421875 
Q 18.84375 -1.421875 12.171875 6.21875 
Q 5.515625 13.875 5.515625 27.296875 
Q 5.515625 40.765625 12.171875 48.375 
Q 18.84375 56 30.609375 56 
z
" id="DejaVuSans-111" class="dark-fill" />
                                                 <path d="M 52 44.1875 
Q 55.375 50.25 60.0625 53.125 
Q 64.75 56 71.09375 56 
Q 79.640625 56 84.28125 50.015625 
Q 88.921875 44.046875 88.921875 33.015625 
L 88.921875 0 
L 79.890625 0 
L 79.890625 32.71875 
Q 79.890625 40.578125 77.09375 44.375 
Q 74.3125 48.1875 68.609375 48.1875 
Q 61.625 48.1875 57.5625 43.546875 
Q 53.515625 38.921875 53.515625 30.90625 
L 53.515625 0 
L 44.484375 0 
L 44.484375 32.71875 
Q 44.484375 40.625 41.703125 44.40625 
Q 38.921875 48.1875 33.109375 48.1875 
Q 26.21875 48.1875 22.15625 43.53125 
Q 18.109375 38.875 18.109375 30.90625 
L 18.109375 0 
L 9.078125 0 
L 9.078125 54.6875 
L 18.109375 54.6875 
L 18.109375 46.1875 
Q 21.1875 51.21875 25.484375 53.609375 
Q 29.78125 56 35.6875 56 
Q 41.65625 56 45.828125 52.96875 
Q 50 49.953125 52 44.1875 
z
" id="DejaVuSans-109" class="dark-fill" />
                                          </defs>
                                          <use xlink:href="#DejaVuSans-119" />
                                          <use x="81.787109" xlink:href="#DejaVuSans-119" />
                                          <use x="163.574219" xlink:href="#DejaVuSans-119" />
                                          <use x="236.236328" xlink:href="#DejaVuSans-46" />
                                          <use x="268.023438" xlink:href="#DejaVuSans-114" />
                                          <use x="306.886719" xlink:href="#DejaVuSans-101" />
                                          <use x="368.410156" xlink:href="#DejaVuSans-100" />
                                          <use x="431.886719" xlink:href="#DejaVuSans-100" />
                                          <use x="495.363281" xlink:href="#DejaVuSans-105" />
                                          <use x="523.146484" xlink:href="#DejaVuSans-116" />
                                          <use x="562.355469" xlink:href="#DejaVuSans-46" />
                                          <use x="594.142578" xlink:href="#DejaVuSans-99" />
                                          <use x="649.123047" xlink:href="#DejaVuSans-111" />
                                          <use x="710.304688" xlink:href="#DejaVuSans-109" />
                                   </g>
                            </g>
                            <g id="line2d_27">
                                   <path d="M 557.6495 53.254688 
L 577.6495 53.254688 
" style="fill:none;stroke:#ff7f0e;stroke-linecap:square;stroke-width:1.5;" />
                            </g>
                            <g id="line2d_28" />
                            <g id="text_19">
                                   <!-- www.chess.com -->
                                   <g transform="translate(585.6495 56.754688)scale(0.1 -0.1)">
                                          <defs>
                                                 <path d="M 54.890625 33.015625 
L 54.890625 0 
L 45.90625 0 
L 45.90625 32.71875 
Q 45.90625 40.484375 42.875 44.328125 
Q 39.84375 48.1875 33.796875 48.1875 
Q 26.515625 48.1875 22.3125 43.546875 
Q 18.109375 38.921875 18.109375 30.90625 
L 18.109375 0 
L 9.078125 0 
L 9.078125 75.984375 
L 18.109375 75.984375 
L 18.109375 46.1875 
Q 21.34375 51.125 25.703125 53.5625 
Q 30.078125 56 35.796875 56 
Q 45.21875 56 50.046875 50.171875 
Q 54.890625 44.34375 54.890625 33.015625 
z
" id="DejaVuSans-104" class="dark-fill" />
                                          </defs>
                                          <use xlink:href="#DejaVuSans-119" />
                                          <use x="81.787109" xlink:href="#DejaVuSans-119" />
                                          <use x="163.574219" xlink:href="#DejaVuSans-119" />
                                          <use x="236.236328" xlink:href="#DejaVuSans-46" />
                                          <use x="268.023438" xlink:href="#DejaVuSans-99" />
                                          <use x="323.003906" xlink:href="#DejaVuSans-104" />
                                          <use x="386.382812" xlink:href="#DejaVuSans-101" />
                                          <use x="447.90625" xlink:href="#DejaVuSans-115" />
                                          <use x="500.005859" xlink:href="#DejaVuSans-115" />
                                          <use x="552.105469" xlink:href="#DejaVuSans-46" />
                                          <use x="583.892578" xlink:href="#DejaVuSans-99" />
                                          <use x="638.873047" xlink:href="#DejaVuSans-111" />
                                          <use x="700.054688" xlink:href="#DejaVuSans-109" />
                                   </g>
                            </g>
                            <g id="line2d_29">
                                   <path d="M 557.6495 67.932813 
L 577.6495 67.932813 
" style="fill:none;stroke:#2ca02c;stroke-linecap:square;stroke-width:1.5;" />
                            </g>
                            <g id="line2d_30" />
                            <g id="text_20">
                                   <!-- www.youtube.com -->
                                   <g transform="translate(585.6495 71.432813)scale(0.1 -0.1)">
                                          <defs>
                                                 <path d="M 32.171875 -5.078125 
Q 28.375 -14.84375 24.75 -17.8125 
Q 21.140625 -20.796875 15.09375 -20.796875 
L 7.90625 -20.796875 
L 7.90625 -13.28125 
L 13.1875 -13.28125 
Q 16.890625 -13.28125 18.9375 -11.515625 
Q 21 -9.765625 23.484375 -3.21875 
L 25.09375 0.875 
L 2.984375 54.6875 
L 12.5 54.6875 
L 29.59375 11.921875 
L 46.6875 54.6875 
L 56.203125 54.6875 
z
" id="DejaVuSans-121" class="dark-fill" />
                                                 <path d="M 48.6875 27.296875 
Q 48.6875 37.203125 44.609375 42.84375 
Q 40.53125 48.484375 33.40625 48.484375 
Q 26.265625 48.484375 22.1875 42.84375 
Q 18.109375 37.203125 18.109375 27.296875 
Q 18.109375 17.390625 22.1875 11.75 
Q 26.265625 6.109375 33.40625 6.109375 
Q 40.53125 6.109375 44.609375 11.75 
Q 48.6875 17.390625 48.6875 27.296875 
z
M 18.109375 46.390625 
Q 20.953125 51.265625 25.265625 53.625 
Q 29.59375 56 35.59375 56 
Q 45.5625 56 51.78125 48.09375 
Q 58.015625 40.1875 58.015625 27.296875 
Q 58.015625 14.40625 51.78125 6.484375 
Q 45.5625 -1.421875 35.59375 -1.421875 
Q 29.59375 -1.421875 25.265625 0.953125 
Q 20.953125 3.328125 18.109375 8.203125 
L 18.109375 0 
L 9.078125 0 
L 9.078125 75.984375 
L 18.109375 75.984375 
z
" id="DejaVuSans-98" class="dark-fill" />
                                          </defs>
                                          <use xlink:href="#DejaVuSans-119" />
                                          <use x="81.787109" xlink:href="#DejaVuSans-119" />
                                          <use x="163.574219" xlink:href="#DejaVuSans-119" />
                                          <use x="236.236328" xlink:href="#DejaVuSans-46" />
                                          <use x="268.023438" xlink:href="#DejaVuSans-121" />
                                          <use x="327.203125" xlink:href="#DejaVuSans-111" />
                                          <use x="388.384766" xlink:href="#DejaVuSans-117" />
                                          <use x="451.763672" xlink:href="#DejaVuSans-116" />
                                          <use x="490.972656" xlink:href="#DejaVuSans-117" />
                                          <use x="554.351562" xlink:href="#DejaVuSans-98" />
                                          <use x="617.828125" xlink:href="#DejaVuSans-101" />
                                          <use x="679.351562" xlink:href="#DejaVuSans-46" />
                                          <use x="711.138672" xlink:href="#DejaVuSans-99" />
                                          <use x="766.119141" xlink:href="#DejaVuSans-111" />
                                          <use x="827.300781" xlink:href="#DejaVuSans-109" />
                                   </g>
                            </g>
                            <g id="line2d_31">
                                   <path d="M 557.6495 82.610938 
L 577.6495 82.610938 
" style="fill:none;stroke:#d62728;stroke-linecap:square;stroke-width:1.5;" />
                            </g>
                            <g id="line2d_32" />
                            <g id="text_21">
                                   <!-- en.wikipedia.org -->
                                   <g transform="translate(585.6495 86.110938)scale(0.1 -0.1)">
                                          <defs>
                                                 <path d="M 9.078125 75.984375 
L 18.109375 75.984375 
L 18.109375 31.109375 
L 44.921875 54.6875 
L 56.390625 54.6875 
L 27.390625 29.109375 
L 57.625 0 
L 45.90625 0 
L 18.109375 26.703125 
L 18.109375 0 
L 9.078125 0 
z
" id="DejaVuSans-107" class="dark-fill" />
                                                 <path d="M 18.109375 8.203125 
L 18.109375 -20.796875 
L 9.078125 -20.796875 
L 9.078125 54.6875 
L 18.109375 54.6875 
L 18.109375 46.390625 
Q 20.953125 51.265625 25.265625 53.625 
Q 29.59375 56 35.59375 56 
Q 45.5625 56 51.78125 48.09375 
Q 58.015625 40.1875 58.015625 27.296875 
Q 58.015625 14.40625 51.78125 6.484375 
Q 45.5625 -1.421875 35.59375 -1.421875 
Q 29.59375 -1.421875 25.265625 0.953125 
Q 20.953125 3.328125 18.109375 8.203125 
z
M 48.6875 27.296875 
Q 48.6875 37.203125 44.609375 42.84375 
Q 40.53125 48.484375 33.40625 48.484375 
Q 26.265625 48.484375 22.1875 42.84375 
Q 18.109375 37.203125 18.109375 27.296875 
Q 18.109375 17.390625 22.1875 11.75 
Q 26.265625 6.109375 33.40625 6.109375 
Q 40.53125 6.109375 44.609375 11.75 
Q 48.6875 17.390625 48.6875 27.296875 
z
" id="DejaVuSans-112" class="dark-fill" />
                                                 <path d="M 45.40625 27.984375 
Q 45.40625 37.75 41.375 43.109375 
Q 37.359375 48.484375 30.078125 48.484375 
Q 22.859375 48.484375 18.828125 43.109375 
Q 14.796875 37.75 14.796875 27.984375 
Q 14.796875 18.265625 18.828125 12.890625 
Q 22.859375 7.515625 30.078125 7.515625 
Q 37.359375 7.515625 41.375 12.890625 
Q 45.40625 18.265625 45.40625 27.984375 
z
M 54.390625 6.78125 
Q 54.390625 -7.171875 48.1875 -13.984375 
Q 42 -20.796875 29.203125 -20.796875 
Q 24.46875 -20.796875 20.265625 -20.09375 
Q 16.0625 -19.390625 12.109375 -17.921875 
L 12.109375 -9.1875 
Q 16.0625 -11.328125 19.921875 -12.34375 
Q 23.78125 -13.375 27.78125 -13.375 
Q 36.625 -13.375 41.015625 -8.765625 
Q 45.40625 -4.15625 45.40625 5.171875 
L 45.40625 9.625 
Q 42.625 4.78125 38.28125 2.390625 
Q 33.9375 0 27.875 0 
Q 17.828125 0 11.671875 7.65625 
Q 5.515625 15.328125 5.515625 27.984375 
Q 5.515625 40.671875 11.671875 48.328125 
Q 17.828125 56 27.875 56 
Q 33.9375 56 38.28125 53.609375 
Q 42.625 51.21875 45.40625 46.390625 
L 45.40625 54.6875 
L 54.390625 54.6875 
z
" id="DejaVuSans-103" class="dark-fill" />
                                          </defs>
                                          <use xlink:href="#DejaVuSans-101" />
                                          <use x="61.523438" xlink:href="#DejaVuSans-110" />
                                          <use x="124.902344" xlink:href="#DejaVuSans-46" />
                                          <use x="156.689453" xlink:href="#DejaVuSans-119" />
                                          <use x="238.476562" xlink:href="#DejaVuSans-105" />
                                          <use x="266.259766" xlink:href="#DejaVuSans-107" />
                                          <use x="324.169922" xlink:href="#DejaVuSans-105" />
                                          <use x="351.953125" xlink:href="#DejaVuSans-112" />
                                          <use x="415.429688" xlink:href="#DejaVuSans-101" />
                                          <use x="476.953125" xlink:href="#DejaVuSans-100" />
                                          <use x="540.429688" xlink:href="#DejaVuSans-105" />
                                          <use x="568.212891" xlink:href="#DejaVuSans-97" />
                                          <use x="629.492188" xlink:href="#DejaVuSans-46" />
                                          <use x="661.279297" xlink:href="#DejaVuSans-111" />
                                          <use x="722.460938" xlink:href="#DejaVuSans-114" />
                                          <use x="761.824219" xlink:href="#DejaVuSans-103" />
                                   </g>
                            </g>
                            <g id="line2d_33">
                                   <path d="M 557.6495 97.289063 
L 577.6495 97.289063 
" style="fill:none;stroke:#9467bd;stroke-linecap:square;stroke-width:1.5;" />
                            </g>
                            <g id="line2d_34" />
                            <g id="text_22">
                                   <!-- www.facebook.com -->
                                   <g transform="translate(585.6495 100.789063)scale(0.1 -0.1)">
                                          <defs>
                                                 <path d="M 37.109375 75.984375 
L 37.109375 68.5 
L 28.515625 68.5 
Q 23.6875 68.5 21.796875 66.546875 
Q 19.921875 64.59375 19.921875 59.515625 
L 19.921875 54.6875 
L 34.71875 54.6875 
L 34.71875 47.703125 
L 19.921875 47.703125 
L 19.921875 0 
L 10.890625 0 
L 10.890625 47.703125 
L 2.296875 47.703125 
L 2.296875 54.6875 
L 10.890625 54.6875 
L 10.890625 58.5 
Q 10.890625 67.625 15.140625 71.796875 
Q 19.390625 75.984375 28.609375 75.984375 
z
" id="DejaVuSans-102" class="dark-fill" />
                                          </defs>
                                          <use xlink:href="#DejaVuSans-119" />
                                          <use x="81.787109" xlink:href="#DejaVuSans-119" />
                                          <use x="163.574219" xlink:href="#DejaVuSans-119" />
                                          <use x="236.236328" xlink:href="#DejaVuSans-46" />
                                          <use x="268.023438" xlink:href="#DejaVuSans-102" />
                                          <use x="303.228516" xlink:href="#DejaVuSans-97" />
                                          <use x="364.507812" xlink:href="#DejaVuSans-99" />
                                          <use x="419.488281" xlink:href="#DejaVuSans-101" />
                                          <use x="481.011719" xlink:href="#DejaVuSans-98" />
                                          <use x="544.488281" xlink:href="#DejaVuSans-111" />
                                          <use x="605.669922" xlink:href="#DejaVuSans-111" />
                                          <use x="666.851562" xlink:href="#DejaVuSans-107" />
                                          <use x="724.761719" xlink:href="#DejaVuSans-46" />
                                          <use x="756.548828" xlink:href="#DejaVuSans-99" />
                                          <use x="811.529297" xlink:href="#DejaVuSans-111" />
                                          <use x="872.710938" xlink:href="#DejaVuSans-109" />
                                   </g>
                            </g>
                            <g id="line2d_35">
                                   <path d="M 557.6495 111.967188 
L 577.6495 111.967188 
" style="fill:none;stroke:#8c564b;stroke-linecap:square;stroke-width:1.5;" />
                            </g>
                            <g id="line2d_36" />
                            <g id="text_23">
                                   <!-- www.netflix.com -->
                                   <g transform="translate(585.6495 115.467188)scale(0.1 -0.1)">
                                          <defs>
                                                 <path d="M 9.421875 75.984375 
L 18.40625 75.984375 
L 18.40625 0 
L 9.421875 0 
z
" id="DejaVuSans-108" class="dark-fill" />
                                                 <path d="M 54.890625 54.6875 
L 35.109375 28.078125 
L 55.90625 0 
L 45.3125 0 
L 29.390625 21.484375 
L 13.484375 0 
L 2.875 0 
L 24.125 28.609375 
L 4.6875 54.6875 
L 15.28125 54.6875 
L 29.78125 35.203125 
L 44.28125 54.6875 
z
" id="DejaVuSans-120" class="dark-fill" />
                                          </defs>
                                          <use xlink:href="#DejaVuSans-119" />
                                          <use x="81.787109" xlink:href="#DejaVuSans-119" />
                                          <use x="163.574219" xlink:href="#DejaVuSans-119" />
                                          <use x="236.236328" xlink:href="#DejaVuSans-46" />
                                          <use x="268.023438" xlink:href="#DejaVuSans-110" />
                                          <use x="331.402344" xlink:href="#DejaVuSans-101" />
                                          <use x="392.925781" xlink:href="#DejaVuSans-116" />
                                          <use x="432.134766" xlink:href="#DejaVuSans-102" />
                                          <use x="467.339844" xlink:href="#DejaVuSans-108" />
                                          <use x="495.123047" xlink:href="#DejaVuSans-105" />
                                          <use x="522.90625" xlink:href="#DejaVuSans-120" />
                                          <use x="582.085938" xlink:href="#DejaVuSans-46" />
                                          <use x="613.873047" xlink:href="#DejaVuSans-99" />
                                          <use x="668.853516" xlink:href="#DejaVuSans-111" />
                                          <use x="730.035156" xlink:href="#DejaVuSans-109" />
                                   </g>
                            </g>
                            <g id="line2d_37">
                                   <path d="M 557.6495 126.645313 
L 577.6495 126.645313 
" style="fill:none;stroke:#e377c2;stroke-linecap:square;stroke-width:1.5;" />
                            </g>
                            <g id="line2d_38" />
                            <g id="text_24">
                                   <!-- www.google.com -->
                                   <g transform="translate(585.6495 130.145313)scale(0.1 -0.1)">
                                          <use xlink:href="#DejaVuSans-119" />
                                          <use x="81.787109" xlink:href="#DejaVuSans-119" />
                                          <use x="163.574219" xlink:href="#DejaVuSans-119" />
                                          <use x="236.236328" xlink:href="#DejaVuSans-46" />
                                          <use x="268.023438" xlink:href="#DejaVuSans-103" />
                                          <use x="331.5" xlink:href="#DejaVuSans-111" />
                                          <use x="392.681641" xlink:href="#DejaVuSans-111" />
                                          <use x="453.863281" xlink:href="#DejaVuSans-103" />
                                          <use x="517.339844" xlink:href="#DejaVuSans-108" />
                                          <use x="545.123047" xlink:href="#DejaVuSans-101" />
                                          <use x="606.646484" xlink:href="#DejaVuSans-46" />
                                          <use x="638.433594" xlink:href="#DejaVuSans-99" />
                                          <use x="693.414062" xlink:href="#DejaVuSans-111" />
                                          <use x="754.595703" xlink:href="#DejaVuSans-109" />
                                   </g>
                            </g>
                            <g id="line2d_39">
                                   <path d="M 557.6495 141.323438 
L 577.6495 141.323438 
" style="fill:none;stroke:#7f7f7f;stroke-linecap:square;stroke-width:1.5;" />
                            </g>
                            <g id="line2d_40" />
                            <g id="text_25">
                                   <!-- www.fastmail.com -->
                                   <g transform="translate(585.6495 144.823438)scale(0.1 -0.1)">
                                          <use xlink:href="#DejaVuSans-119" />
                                          <use x="81.787109" xlink:href="#DejaVuSans-119" />
                                          <use x="163.574219" xlink:href="#DejaVuSans-119" />
                                          <use x="236.236328" xlink:href="#DejaVuSans-46" />
                                          <use x="268.023438" xlink:href="#DejaVuSans-102" />
                                          <use x="303.228516" xlink:href="#DejaVuSans-97" />
                                          <use x="364.507812" xlink:href="#DejaVuSans-115" />
                                          <use x="416.607422" xlink:href="#DejaVuSans-116" />
                                          <use x="455.816406" xlink:href="#DejaVuSans-109" />
                                          <use x="553.228516" xlink:href="#DejaVuSans-97" />
                                          <use x="614.507812" xlink:href="#DejaVuSans-105" />
                                          <use x="642.291016" xlink:href="#DejaVuSans-108" />
                                          <use x="670.074219" xlink:href="#DejaVuSans-46" />
                                          <use x="701.861328" xlink:href="#DejaVuSans-99" />
                                          <use x="756.841797" xlink:href="#DejaVuSans-111" />
                                          <use x="818.023438" xlink:href="#DejaVuSans-109" />
                                   </g>
                            </g>
                            <g id="line2d_41">
                                   <path d="M 557.6495 156.001563 
L 577.6495 156.001563 
" style="fill:none;stroke:#bcbd22;stroke-linecap:square;stroke-width:1.5;" />
                            </g>
                            <g id="line2d_42" />
                            <g id="text_26">
                                   <!-- news.ycombinator.com -->
                                   <g transform="translate(585.6495 159.501563)scale(0.1 -0.1)">
                                          <use xlink:href="#DejaVuSans-110" />
                                          <use x="63.378906" xlink:href="#DejaVuSans-101" />
                                          <use x="124.902344" xlink:href="#DejaVuSans-119" />
                                          <use x="206.689453" xlink:href="#DejaVuSans-115" />
                                          <use x="258.789062" xlink:href="#DejaVuSans-46" />
                                          <use x="290.576172" xlink:href="#DejaVuSans-121" />
                                          <use x="349.755859" xlink:href="#DejaVuSans-99" />
                                          <use x="404.736328" xlink:href="#DejaVuSans-111" />
                                          <use x="465.917969" xlink:href="#DejaVuSans-109" />
                                          <use x="563.330078" xlink:href="#DejaVuSans-98" />
                                          <use x="626.806641" xlink:href="#DejaVuSans-105" />
                                          <use x="654.589844" xlink:href="#DejaVuSans-110" />
                                          <use x="717.96875" xlink:href="#DejaVuSans-97" />
                                          <use x="779.248047" xlink:href="#DejaVuSans-116" />
                                          <use x="818.457031" xlink:href="#DejaVuSans-111" />
                                          <use x="879.638672" xlink:href="#DejaVuSans-114" />
                                          <use x="911.626953" xlink:href="#DejaVuSans-46" />
                                          <use x="943.414062" xlink:href="#DejaVuSans-99" />
                                          <use x="998.394531" xlink:href="#DejaVuSans-111" />
                                          <use x="1059.576172" xlink:href="#DejaVuSans-109" />
                                   </g>
                            </g>
                            <g id="line2d_43">
                                   <path d="M 557.6495 170.679688 
L 577.6495 170.679688 
" style="fill:none;stroke:#17becf;stroke-linecap:square;stroke-width:1.5;" />
                            </g>
                            <g id="line2d_44" />
                            <g id="text_27">
                                   <!-- www.redfin.com -->
                                   <g transform="translate(585.6495 174.179688)scale(0.1 -0.1)">
                                          <use xlink:href="#DejaVuSans-119" />
                                          <use x="81.787109" xlink:href="#DejaVuSans-119" />
                                          <use x="163.574219" xlink:href="#DejaVuSans-119" />
                                          <use x="236.236328" xlink:href="#DejaVuSans-46" />
                                          <use x="268.023438" xlink:href="#DejaVuSans-114" />
                                          <use x="306.886719" xlink:href="#DejaVuSans-101" />
                                          <use x="368.410156" xlink:href="#DejaVuSans-100" />
                                          <use x="431.886719" xlink:href="#DejaVuSans-102" />
                                          <use x="467.091797" xlink:href="#DejaVuSans-105" />
                                          <use x="494.875" xlink:href="#DejaVuSans-110" />
                                          <use x="558.253906" xlink:href="#DejaVuSans-46" />
                                          <use x="590.041016" xlink:href="#DejaVuSans-99" />
                                          <use x="645.021484" xlink:href="#DejaVuSans-111" />
                                          <use x="706.203125" xlink:href="#DejaVuSans-109" />
                                   </g>
                            </g>
                     </g>
              </g>
       </g>
       <defs>
              <clipPath id="pe4fc344853">
                     <rect height="279.520464" width="479.99" x="44.66" y="10.8" />
              </clipPath>
       </defs>
</svg>
