<svg version="1.1" viewBox="0.0 0.0 877.7191601049868 354.43044619422574" fill="none" stroke="none" stroke-linecap="square" stroke-miterlimit="10" 
    xmlns:xlink="http://www.w3.org/1999/xlink" 
    xmlns="http://www.w3.org/2000/svg">
    <clipPath id="p.0">
        <path d="m0 0l877.7192 0l0 354.43045l-877.7192 0l0 -354.43045z" clip-rule="nonzero"/>
    </clipPath>
    <g clip-path="url(#p.0)">
        <path fill="#000000" fill-opacity="0.0" d="m0 0l877.7192 0l0 354.43045l-877.7192 0z" fill-rule="evenodd"/>
        <path fill="#cfe2f3" d="m43.09186 41.24672l189.95276 0l0 66.83465l-189.95276 0z" fill-rule="evenodd"/>
        <path class="dark-stroke" stroke-width="2.0" stroke-linejoin="round" stroke-linecap="butt" d="m43.09186 41.24672l189.95276 0l0 66.83465l-189.95276 0z" fill-rule="evenodd"/>
        <path fill="#d9ead3" d="m43.09186 246.33333l189.95276 0l0 66.83464l-189.95276 0z" fill-rule="evenodd"/>
        <path class="dark-stroke" stroke-width="2.0" stroke-linejoin="round" stroke-linecap="butt" d="m43.09186 246.33333l189.95276 0l0 66.83464l-189.95276 0z" fill-rule="evenodd"/>
        <path fill="#fce5cd" d="m310.79004 41.24672l68.25195 0l0 271.937l-68.25195 0z" fill-rule="evenodd"/>
        <path class="dark-stroke" stroke-width="2.0" stroke-linejoin="round" stroke-linecap="butt" d="m310.79004 41.24672l68.25195 0l0 271.937l-68.25195 0z" fill-rule="evenodd"/>
        <path fill="#f4cccc" d="m438.6614 41.24672l68.25198 0l0 271.937l-68.25198 0z" fill-rule="evenodd"/>
        <path class="dark-stroke" stroke-width="2.0" stroke-linejoin="round" stroke-linecap="butt" d="m438.6614 41.24672l68.25198 0l0 271.937l-68.25198 0z" fill-rule="evenodd"/>
        <path fill="#cfe2f3" d="m566.53284 41.24672l115.93695 0l0 66.83465l-115.93695 0z" fill-rule="evenodd"/>
        <path class="dark-stroke" stroke-width="2.0" stroke-linejoin="round" stroke-linecap="butt" d="m566.53284 41.24672l115.93695 0l0 66.83465l-115.93695 0z" fill-rule="evenodd"/>
        <path fill="#d9ead3" d="m566.53284 246.33333l115.93695 0l0 66.83464l-115.93695 0z" fill-rule="evenodd"/>
        <path class="dark-stroke" stroke-width="2.0" stroke-linejoin="round" stroke-linecap="butt" d="m566.53284 246.33333l115.93695 0l0 66.83464l-115.93695 0z" fill-rule="evenodd"/>
        <path fill="#d9d2e9" d="m702.3123 143.7979l132.315 0l0 66.834656l-132.315 0z" fill-rule="evenodd"/>
        <path class="dark-stroke" stroke-width="2.0" stroke-linejoin="round" stroke-linecap="butt" d="m702.3123 143.7979l132.315 0l0 66.834656l-132.315 0z" fill-rule="evenodd"/>
        <path fill="#000000" fill-opacity="0.0" d="m233.04462 74.66404l77.41733 0" fill-rule="evenodd"/>
        <path stroke="#3d85c6" stroke-width="2.0" stroke-linejoin="round" stroke-linecap="butt" d="m233.04462 74.66404l65.41733 0" fill-rule="evenodd"/>
        <path fill="#3d85c6" stroke="#3d85c6" stroke-width="2.0" stroke-linecap="butt" d="m298.46194 77.96751l9.076202 -3.3034668l-9.076202 -3.3034592z" fill-rule="evenodd"/>
        <path fill="#000000" fill-opacity="0.0" d="m233.04462 279.75067l78.299225 0" fill-rule="evenodd"/>
        <path stroke="#6aa84f" stroke-width="2.0" stroke-linejoin="round" stroke-linecap="butt" d="m233.04462 279.75067l66.299225 0" fill-rule="evenodd"/>
        <path fill="#6aa84f" stroke="#6aa84f" stroke-width="2.0" stroke-linecap="butt" d="m299.34384 283.0541l9.076172 -3.3034363l-9.076172 -3.3034668z" fill-rule="evenodd"/>
        <path fill="#000000" fill-opacity="0.0" d="m379.042 74.66404l58.92914 0" fill-rule="evenodd"/>
        <path stroke="#3d85c6" stroke-width="2.0" stroke-linejoin="round" stroke-linecap="butt" d="m379.042 74.66404l46.92914 0" fill-rule="evenodd"/>
        <path fill="#3d85c6" stroke="#3d85c6" stroke-width="2.0" stroke-linecap="butt" d="m425.97113 77.96751l9.076202 -3.3034668l-9.076202 -3.3034592z" fill-rule="evenodd"/>
        <path fill="#000000" fill-opacity="0.0" d="m379.38715 279.75067l58.92914 0" fill-rule="evenodd"/>
        <path stroke="#6aa84f" stroke-width="2.0" stroke-linejoin="round" stroke-linecap="butt" d="m379.38715 279.75067l46.92914 0" fill-rule="evenodd"/>
        <path fill="#6aa84f" stroke="#6aa84f" stroke-width="2.0" stroke-linecap="butt" d="m426.31628 283.0541l9.076172 -3.3034363l-9.076172 -3.3034668z" fill-rule="evenodd"/>
        <path fill="#000000" fill-opacity="0.0" d="m506.9134 74.66404l58.92914 0" fill-rule="evenodd"/>
        <path stroke="#3d85c6" stroke-width="2.0" stroke-linejoin="round" stroke-linecap="butt" d="m506.9134 74.66404l46.92914 0" fill-rule="evenodd"/>
        <path fill="#3d85c6" stroke="#3d85c6" stroke-width="2.0" stroke-linecap="butt" d="m553.8425 77.96751l9.076172 -3.3034668l-9.076172 -3.3034592z" fill-rule="evenodd"/>
        <path fill="#000000" fill-opacity="0.0" d="m506.9134 279.75067l58.92914 0" fill-rule="evenodd"/>
        <path stroke="#6aa84f" stroke-width="2.0" stroke-linejoin="round" stroke-linecap="butt" d="m506.9134 279.75067l46.92914 0" fill-rule="evenodd"/>
        <path fill="#6aa84f" stroke="#6aa84f" stroke-width="2.0" stroke-linecap="butt" d="m553.8425 283.0541l9.076172 -3.3034363l-9.076172 -3.3034668z" fill-rule="evenodd"/>
        <path fill="#000000" fill-opacity="0.0" d="m682.4698 279.75067l86.01575 -69.10237" fill-rule="evenodd"/>
        <path stroke="#6aa84f" stroke-width="2.0" stroke-linejoin="round" stroke-linecap="butt" d="m682.4698 279.75067l76.660706 -61.586838" fill-rule="evenodd"/>
        <path fill="#6aa84f" stroke="#6aa84f" stroke-width="2.0" stroke-linecap="butt" d="m761.19946 220.73917l5.006714 -8.259705l-9.144592 3.1090393z" fill-rule="evenodd"/>
        <path fill="#000000" fill-opacity="0.0" d="m682.4698 74.66404l86.01575 69.13386" fill-rule="evenodd"/>
        <path stroke="#3d85c6" stroke-width="2.0" stroke-linejoin="round" stroke-linecap="butt" d="m682.4698 74.66404l76.662415 61.616234" fill-rule="evenodd"/>
        <path fill="#3d85c6" stroke="#3d85c6" stroke-width="2.0" stroke-linecap="butt" d="m757.0627 138.85515l9.143921 3.111084l-5.004883 -8.260834z" fill-rule="evenodd"/>
    </g>
    <g>
        <text x="138" y="82" fill="black">Question</text>
        <text x="138" y="288" fill="black">Answer</text>
        <text x="180" y="-338" fill="black" transform="rotate(90)">Embedding</text>
        <text x="180" y="-466" fill="black" transform="rotate(90)">Max-1 Pooling</text>
        <text x="625" y="288" fill="black">tanh</text>
        <text x="625" y="82" fill="black">tanh</text>
        <text x="769" y="187" fill="black">cosine</text>
    </g>
</svg>