<svg xmlns:xlink="http://www.w3.org/1999/xlink" xmlns="http://www.w3.org/2000/svg" version="1.1" viewBox="0.0 0.0 960.0 540.0" fill="none" stroke="none" stroke-linecap="square" stroke-miterlimit="10">
    <clipPath id="p.0">
        <path d="m0 0l960.0 0l0 540.0l-960.0 0l0 -540.0z" clip-rule="nonzero"/>
    </clipPath>
    <g clip-path="url(#p.0)">
        <path class="dark-fill" fill-opacity="0.0" d="m0 0l960.0 0l0 540.0l-960.0 0z" fill-rule="evenodd"/>
        <path d="m127.028725 64.85681l0 0c0 -12.506859 10.138817 -22.645672 22.645668 -22.645672l0 0c6.006012 0 11.766022 2.3858795 16.012909 6.632763c4.246887 4.246887 6.6327667 10.006905 6.6327667 16.012909l0 0c0 12.506859 -10.138809 22.645668 -22.645676 22.645668l0 0c-12.506851 0 -22.645668 -10.138809 -22.645668 -22.645668z" fill-rule="evenodd" class="color-b-fill"/>
        <path class="dark-stroke" stroke-width="2.0" stroke-linejoin="round" stroke-linecap="butt" d="m127.028725 64.85681l0 0c0 -12.506859 10.138817 -22.645672 22.645668 -22.645672l0 0c6.006012 0 11.766022 2.3858795 16.012909 6.632763c4.246887 4.246887 6.6327667 10.006905 6.6327667 16.012909l0 0c0 12.506859 -10.138809 22.645668 -22.645676 22.645668l0 0c-12.506851 0 -22.645668 -10.138809 -22.645668 -22.645668z" fill-rule="evenodd"/>
        <path d="m127.028725 134.1888l0 0c0 -12.506866 10.138817 -22.645676 22.645668 -22.645676l0 0c6.006012 0 11.766022 2.3858795 16.012909 6.6327667c4.246887 4.2468796 6.6327667 10.006897 6.6327667 16.012909l0 0c0 12.506851 -10.138809 22.64566 -22.645676 22.64566l0 0c-12.506851 0 -22.645668 -10.138809 -22.645668 -22.64566z" fill-rule="evenodd" class="color-b-fill"/>
        <path class="dark-stroke" stroke-width="2.0" stroke-linejoin="round" stroke-linecap="butt" d="m127.028725 134.1888l0 0c0 -12.506866 10.138817 -22.645676 22.645668 -22.645676l0 0c6.006012 0 11.766022 2.3858795 16.012909 6.6327667c4.246887 4.2468796 6.6327667 10.006897 6.6327667 16.012909l0 0c0 12.506851 -10.138809 22.64566 -22.645676 22.64566l0 0c-12.506851 0 -22.645668 -10.138809 -22.645668 -22.64566z" fill-rule="evenodd"/>
        <path d="m127.028725 203.52077l0 0c0 -12.506851 10.138817 -22.64566 22.645668 -22.64566l0 0c6.006012 0 11.766022 2.3858643 16.012909 6.6327515c4.246887 4.246887 6.6327667 10.006912 6.6327667 16.012909l0 0c0 12.506866 -10.138809 22.645676 -22.645676 22.645676l0 0c-12.506851 0 -22.645668 -10.138809 -22.645668 -22.645676z" fill-rule="evenodd" class="color-b-fill"/>
        <path class="dark-stroke" stroke-width="2.0" stroke-linejoin="round" stroke-linecap="butt" d="m127.028725 203.52077l0 0c0 -12.506851 10.138817 -22.64566 22.645668 -22.64566l0 0c6.006012 0 11.766022 2.3858643 16.012909 6.6327515c4.246887 4.246887 6.6327667 10.006912 6.6327667 16.012909l0 0c0 12.506866 -10.138809 22.645676 -22.645676 22.645676l0 0c-12.506851 0 -22.645668 -10.138809 -22.645668 -22.645676z" fill-rule="evenodd"/>
        <path d="m353.29382 64.869934l0 0c0 -12.506859 10.138794 -22.645668 22.64566 -22.645668l0 0c6.006012 0 11.766022 2.3858757 16.012909 6.632763c4.246887 4.246887 6.6327515 10.006901 6.6327515 16.012905l0 0c0 12.506859 -10.138794 22.645668 -22.64566 22.645668l0 0c-12.506866 0 -22.64566 -10.138809 -22.64566 -22.645668z" fill-rule="evenodd" class="color-b-fill"/>
        <path class="dark-stroke" stroke-width="2.0" stroke-linejoin="round" stroke-linecap="butt" d="m353.29382 64.869934l0 0c0 -12.506859 10.138794 -22.645668 22.64566 -22.645668l0 0c6.006012 0 11.766022 2.3858757 16.012909 6.632763c4.246887 4.246887 6.6327515 10.006901 6.6327515 16.012905l0 0c0 12.506859 -10.138794 22.645668 -22.64566 22.645668l0 0c-12.506866 0 -22.64566 -10.138809 -22.64566 -22.645668z" fill-rule="evenodd"/>
        <path d="m353.29382 134.20192l0 0c0 -12.506866 10.138794 -22.645676 22.64566 -22.645676l0 0c6.006012 0 11.766022 2.3858795 16.012909 6.6327667c4.246887 4.246887 6.6327515 10.006897 6.6327515 16.012909l0 0c0 12.506851 -10.138794 22.64566 -22.64566 22.64566l0 0c-12.506866 0 -22.64566 -10.138809 -22.64566 -22.64566z" fill-rule="evenodd" class="color-b-fill"/>
        <path class="dark-stroke" stroke-width="2.0" stroke-linejoin="round" stroke-linecap="butt" d="m353.29382 134.20192l0 0c0 -12.506866 10.138794 -22.645676 22.64566 -22.645676l0 0c6.006012 0 11.766022 2.3858795 16.012909 6.6327667c4.246887 4.246887 6.6327515 10.006897 6.6327515 16.012909l0 0c0 12.506851 -10.138794 22.64566 -22.64566 22.64566l0 0c-12.506866 0 -22.64566 -10.138809 -22.64566 -22.64566z" fill-rule="evenodd"/>
        <path d="m353.29382 203.53389l0 0c0 -12.506851 10.138794 -22.64566 22.64566 -22.64566l0 0c6.006012 0 11.766022 2.3858795 16.012909 6.6327515c4.246887 4.246887 6.6327515 10.006912 6.6327515 16.012909l0 0c0 12.506866 -10.138794 22.645676 -22.64566 22.645676l0 0c-12.506866 0 -22.64566 -10.138809 -22.64566 -22.645676z" fill-rule="evenodd" class="color-b-fill"/>
        <path class="dark-stroke" stroke-width="2.0" stroke-linejoin="round" stroke-linecap="butt" d="m353.29382 203.53389l0 0c0 -12.506851 10.138794 -22.64566 22.64566 -22.64566l0 0c6.006012 0 11.766022 2.3858795 16.012909 6.6327515c4.246887 4.246887 6.6327515 10.006912 6.6327515 16.012909l0 0c0 12.506866 -10.138794 22.645676 -22.64566 22.645676l0 0c-12.506866 0 -22.64566 -10.138809 -22.64566 -22.645676z" fill-rule="evenodd"/>
        <path class="dark-fill" fill-opacity="0.0" d="m172.32007 64.85681c45.24318 0 67.864334 0.01574707 90.48639 0.03149414c22.62204 0.01574707 45.244995 0.03149414 90.48999 0.03149414" fill-rule="evenodd"/>
        <path class="dark-stroke" stroke-width="1.0" stroke-linejoin="round" stroke-linecap="butt" d="m175.74715 64.85712l26.617172 0.0024032593c8.836502 0.0017242432 16.612656 0.004180908 23.681854 0.007133484c14.138458 0.0059051514 25.44925 0.0137786865 36.760284 0.021652222c11.311005 0.007873535 22.622253 0.01574707 36.761383 0.021652222c7.06958 0.0029525757 14.846069 0.00541687 23.683014 0.0071411133l26.6185 0.0023956299" fill-rule="evenodd"/>
        <path class="dark-stroke dark-fill" stroke-width="1.0" stroke-linecap="butt" d="m175.74715 64.857124l1.1246948 -1.124485l-3.0898743 1.1243019l3.0896606 1.1248627z" fill-rule="evenodd"/>
        <path class="dark-stroke dark-fill" stroke-width="1.0" stroke-linecap="butt" d="m349.86932 64.919495l-1.1246643 1.1244812l3.0898743 -1.1243057l-3.0896912 -1.1248589z" fill-rule="evenodd"/>
        <path class="dark-fill" fill-opacity="0.0" d="m172.32007 64.85681c45.24318 0 67.864334 17.338585 90.48639 34.677162c22.62204 17.338585 45.244995 34.677162 90.48999 34.677162" fill-rule="evenodd"/>
        <path class="dark-stroke" stroke-width="1.0" stroke-linejoin="round" stroke-linecap="butt" d="m175.74698 64.89117l0.7490387 0.015914917c1.3703766 0.033332825 2.7193298 0.08306885 4.047577 0.14868164c2.656479 0.13122559 5.230133 0.32595062 7.7264404 0.57993317c4.9926605 0.5079651 9.67601 1.2529831 14.094284 2.2011871c8.836502 1.8964081 16.612656 4.6055603 23.681854 7.8565445c14.138458 6.5019684 25.44925 15.171257 36.760284 23.840546c11.311005 8.669296 22.622253 17.338585 36.761383 23.840553c7.06958 3.2509842 14.846069 5.960144 23.683014 7.856552c4.4184875 0.9481964 9.102051 1.693222 14.09494 2.2011871c2.4964294 0.25398254 5.07016 0.44869995 7.7268066 0.57992554c1.3282776 0.065597534 2.6772766 0.115356445 4.0476685 0.14868164l0.74923706 0.015914917" fill-rule="evenodd"/>
        <path class="dark-stroke dark-fill" stroke-width="1.0" stroke-linecap="butt" d="m175.74698 64.89117l1.1358032 -1.1132507l-3.100891 1.0935516l3.0783386 1.1555023z" fill-rule="evenodd"/>
        <path class="dark-stroke dark-fill" stroke-width="1.0" stroke-linecap="butt" d="m349.8695 134.17679l-1.1358032 1.1132507l3.100891 -1.0935516l-3.0783386 -1.1555023z" fill-rule="evenodd"/>
        <path class="dark-fill" fill-opacity="0.0" d="m172.32007 64.85681c45.24318 0 67.864334 34.66929 90.48639 69.33858c22.62204 34.669296 45.244995 69.33859 90.48999 69.33859" fill-rule="evenodd"/>
        <path class="dark-stroke" stroke-width="1.0" stroke-linejoin="round" stroke-linecap="butt" d="m175.74648 64.92548l0.74954224 0.031837463c1.3703766 0.06665802 2.7193298 0.16610718 4.047577 0.29730988c2.656479 0.26239014 5.230133 0.651741 7.7264404 1.1595917c4.9926605 1.0157013 9.67601 2.505394 14.094284 4.401375c8.836502 3.791954 16.612656 9.20903 23.681854 15.709518c14.138458 13.000984 25.44925 30.335632 36.760284 47.670273c11.311005 17.334656 22.622253 34.669296 36.761383 47.670288c7.06958 6.5004883 14.846069 11.917557 23.683014 15.709518c4.4184875 1.8959808 9.102051 3.3856812 14.09494 4.401367c2.4964294 0.5078583 5.07016 0.89720154 7.7268066 1.1595917c1.3282776 0.13119507 2.6772766 0.23066711 4.0476685 0.29730225l0.74975586 0.031845093" fill-rule="evenodd"/>
        <path class="dark-stroke dark-fill" stroke-width="1.0" stroke-linecap="butt" d="m175.74646 64.92548l1.1468964 -1.1018219l-3.111679 1.0624466l3.0666046 1.1862717z" fill-rule="evenodd"/>
        <path class="dark-stroke dark-fill" stroke-width="1.0" stroke-linecap="butt" d="m349.87003 203.4653l-1.1468811 1.1018372l3.1116638 -1.0624542l-3.0666199 -1.186264z" fill-rule="evenodd"/>
        <path class="dark-fill" fill-opacity="0.0" d="m172.32007 134.1888c45.24318 0 67.864334 -17.330711 90.48639 -34.661423c22.62204 -17.330711 45.244995 -34.661415 90.48999 -34.661415" fill-rule="evenodd"/>
        <path class="dark-stroke" stroke-width="1.0" stroke-linejoin="round" stroke-linecap="butt" d="m175.74698 134.15445l0.7490387 -0.015899658c1.3703766 -0.033325195 2.7193298 -0.08303833 4.047577 -0.1486206c2.656479 -0.13116455 5.230133 -0.3257904 7.7264404 -0.57966614c4.9926605 -0.5077362 9.67601 -1.2524109 14.094284 -2.20018c8.836502 -1.8955536 16.612656 -4.6034775 23.681854 -7.8529816c14.138458 -6.499016 25.44925 -15.164375 36.760284 -23.829727c11.311005 -8.665352 22.622253 -17.330711 36.761383 -23.829727c7.06958 -3.249504 14.846069 -5.957428 23.683014 -7.852974c4.4184875 -0.9477768 9.102051 -1.6924515 14.09494 -2.2001877c2.4964294 -0.2538681 5.07016 -0.4485016 7.7268066 -0.57966614c1.3282776 -0.065582275 2.6772766 -0.11529541 4.0476685 -0.1486206l0.74923706 -0.015907288" fill-rule="evenodd"/>
        <path class="dark-stroke dark-fill" stroke-width="1.0" stroke-linecap="butt" d="m175.74698 134.15445l1.113266 -1.135788l-3.078354 1.1554871l3.100891 1.0935669z" fill-rule="evenodd"/>
        <path class="dark-stroke dark-fill" stroke-width="1.0" stroke-linecap="butt" d="m349.8695 64.90029l-1.1132507 1.1357956l3.0783386 -1.1554794l-3.100891 -1.0935707z" fill-rule="evenodd"/>
        <path class="dark-fill" fill-opacity="0.0" d="m172.32007 134.1888c45.24318 0 67.864334 0.01574707 90.48639 0.03149414c22.62204 0.01574707 45.244995 0.03149414 90.48999 0.03149414" fill-rule="evenodd"/>
        <path class="dark-stroke" stroke-width="1.0" stroke-linejoin="round" stroke-linecap="butt" d="m175.74715 134.1891l26.617172 0.0023956299c8.836502 0.0017242432 16.612656 0.004180908 23.681854 0.0071411133c14.138458 0.0059051514 25.44925 0.0137786865 36.760284 0.021652222c11.311005 0.007873535 22.622253 0.01574707 36.761383 0.021652222c7.06958 0.0029449463 14.846069 0.00541687 23.683014 0.0071411133l26.6185 0.0023956299" fill-rule="evenodd"/>
        <path class="dark-stroke dark-fill" stroke-width="1.0" stroke-linecap="butt" d="m175.74715 134.1891l1.1246948 -1.1244812l-3.0898743 1.1242981l3.0896606 1.1248627z" fill-rule="evenodd"/>
        <path class="dark-stroke dark-fill" stroke-width="1.0" stroke-linecap="butt" d="m349.86932 134.25148l-1.1246643 1.1244812l3.0898743 -1.1243134l-3.0896912 -1.1248627z" fill-rule="evenodd"/>
        <path class="dark-fill" fill-opacity="0.0" d="m172.32007 134.1888c45.24318 0 67.864334 17.338577 90.48639 34.677155c22.62204 17.338593 45.244995 34.67717 90.48999 34.67717" fill-rule="evenodd"/>
        <path class="dark-stroke" stroke-width="1.0" stroke-linejoin="round" stroke-linecap="butt" d="m175.74698 134.22314l0.7490387 0.015914917c1.3703766 0.033325195 2.7193298 0.08308411 4.047577 0.14868164c2.656479 0.13122559 5.230133 0.325943 7.7264404 0.57992554c4.9926605 0.50798035 9.67601 1.2529907 14.094284 2.2011871c8.836502 1.8964081 16.612656 4.6055756 23.681854 7.856552c14.138458 6.5019684 25.44925 15.171265 36.760284 23.840546c11.311005 8.669296 22.622253 17.338593 36.761383 23.84056c7.06958 3.2509766 14.846069 5.960129 23.683014 7.856537c4.4184875 0.94821167 9.102051 1.693222 14.09494 2.2011871c2.4964294 0.2539978 5.07016 0.4487152 7.7268066 0.57992554c1.3282776 0.06561279 2.6772766 0.115356445 4.0476685 0.1486969l0.74923706 0.015914917" fill-rule="evenodd"/>
        <path class="dark-stroke dark-fill" stroke-width="1.0" stroke-linecap="butt" d="m175.74698 134.22314l1.1358032 -1.1132507l-3.100891 1.0935516l3.0783386 1.1555023z" fill-rule="evenodd"/>
        <path class="dark-stroke dark-fill" stroke-width="1.0" stroke-linecap="butt" d="m349.8695 203.50877l-1.1358032 1.1132507l3.100891 -1.0935516l-3.0783386 -1.1555023z" fill-rule="evenodd"/>
        <path class="dark-fill" fill-opacity="0.0" d="m172.32007 203.52077c45.24318 0 67.864334 -34.661407 90.48639 -69.32283c22.62204 -34.661415 45.244995 -69.32284 90.48999 -69.32284" fill-rule="evenodd"/>
        <path class="dark-stroke" stroke-width="1.0" stroke-linejoin="round" stroke-linecap="butt" d="m175.74648 203.45212l0.74954224 -0.031845093c1.3703766 -0.06663513 2.7193298 -0.16607666 4.047577 -0.29722595c2.656479 -0.26234436 5.230133 -0.65159607 7.7264404 -1.1593475c4.9926605 -1.0154572 9.67601 -2.5048065 14.094284 -4.40036c8.836502 -3.791092 16.612656 -9.20694 23.681854 -15.705948c14.138458 -12.998032 25.44925 -30.32875 36.760284 -47.659454c11.311005 -17.330711 22.622253 -34.661415 36.761383 -47.659447c7.06958 -6.499016 14.846069 -11.914864 23.683014 -15.7059555c4.4184875 -1.895546 9.102051 -3.384903 14.09494 -4.4003754c2.4964294 -0.5077362 5.07016 -0.8970032 7.7268066 -1.1593323c1.3282776 -0.13116455 2.6772766 -0.23059845 4.0476685 -0.29723358l0.74975586 -0.031837463" fill-rule="evenodd"/>
        <path class="dark-stroke dark-fill" stroke-width="1.0" stroke-linecap="butt" d="m175.74646 203.45212l1.1018372 -1.1468964l-3.0666199 1.186264l3.111679 1.0624542z" fill-rule="evenodd"/>
        <path class="dark-stroke dark-fill" stroke-width="1.0" stroke-linecap="butt" d="m349.87003 64.943756l-1.1018372 1.1468887l3.0666199 -1.1862564l-3.1116638 -1.0624619z" fill-rule="evenodd"/>
        <path class="dark-fill" fill-opacity="0.0" d="m172.32007 203.52077c45.24318 0 67.864334 -17.330704 90.48639 -34.661407c22.62204 -17.330719 45.244995 -34.661423 90.48999 -34.661423" fill-rule="evenodd"/>
        <path class="dark-stroke" stroke-width="1.0" stroke-linejoin="round" stroke-linecap="butt" d="m175.74698 203.48642l0.7490387 -0.0158844c1.3703766 -0.033325195 2.7193298 -0.08305359 4.047577 -0.1486206c2.656479 -0.13117981 5.230133 -0.32580566 7.7264404 -0.57966614c4.9926605 -0.50775146 9.67601 -1.2524261 14.094284 -2.2001953c8.836502 -1.8955383 16.612656 -4.60347 23.681854 -7.8529816c14.138458 -6.499008 25.44925 -15.164368 36.760284 -23.829712c11.311005 -8.6653595 22.622253 -17.330719 36.761383 -23.829727c7.06958 -3.2495117 14.846069 -5.957428 23.683014 -7.8529816c4.4184875 -0.94776917 9.102051 -1.6924438 14.09494 -2.2001953c2.4964294 -0.25386047 5.07016 -0.44848633 7.7268066 -0.57966614c1.3282776 -0.06556702 2.6772766 -0.11528015 4.0476685 -0.14860535l0.74923706 -0.015914917" fill-rule="evenodd"/>
        <path class="dark-stroke dark-fill" stroke-width="1.0" stroke-linecap="butt" d="m175.74698 203.48643l1.113266 -1.1358032l-3.078354 1.1554871l3.100891 1.0935669z" fill-rule="evenodd"/>
        <path class="dark-stroke dark-fill" stroke-width="1.0" stroke-linecap="butt" d="m349.8695 134.23227l-1.1132507 1.1358032l3.0783386 -1.1554871l-3.100891 -1.0935669z" fill-rule="evenodd"/>
        <path class="dark-fill" fill-opacity="0.0" d="m172.32007 203.52077c45.24318 0 67.864334 0.01574707 90.48639 0.03149414c22.62204 0.01574707 45.244995 0.0315094 90.48999 0.0315094" fill-rule="evenodd"/>
        <path class="dark-stroke" stroke-width="1.0" stroke-linejoin="round" stroke-linecap="butt" d="m175.74715 203.52107l26.617172 0.0024108887c8.836502 0.0017242432 16.612656 0.004180908 23.681854 0.0071258545c14.138458 0.0059051514 25.44925 0.0137786865 36.760284 0.021652222c11.311005 0.007873535 22.622253 0.01574707 36.761383 0.02166748c7.06958 0.0029449463 14.846069 0.0054016113 23.683014 0.0071258545l26.6185 0.0023956299" fill-rule="evenodd"/>
        <path class="dark-stroke dark-fill" stroke-width="1.0" stroke-linecap="butt" d="m175.74715 203.52109l1.1246948 -1.1244965l-3.0898743 1.1243134l3.0896606 1.1248627z" fill-rule="evenodd"/>
        <path class="dark-stroke dark-fill" stroke-width="1.0" stroke-linecap="butt" d="m349.86932 203.58345l-1.1246643 1.1244812l3.0898743 -1.1242981l-3.0896912 -1.1248627z" fill-rule="evenodd"/>
        <path d="m579.50116 64.88306l0 0c0 -12.506859 10.138794 -22.645668 22.64569 -22.645668l0 0c6.0059814 0 11.765991 2.3858757 16.012878 6.632763c4.246887 4.246887 6.6327515 10.006901 6.6327515 16.012905l0 0c0 12.506859 -10.138794 22.645668 -22.64563 22.645668l0 0c-12.506897 0 -22.64569 -10.138809 -22.64569 -22.645668z" fill-rule="evenodd" class="color-b-fill"/>
        <path class="dark-stroke" stroke-width="2.0" stroke-linejoin="round" stroke-linecap="butt" d="m579.50116 64.88306l0 0c0 -12.506859 10.138794 -22.645668 22.64569 -22.645668l0 0c6.0059814 0 11.765991 2.3858757 16.012878 6.632763c4.246887 4.246887 6.6327515 10.006901 6.6327515 16.012905l0 0c0 12.506859 -10.138794 22.645668 -22.64563 22.645668l0 0c-12.506897 0 -22.64569 -10.138809 -22.64569 -22.645668z" fill-rule="evenodd"/>
        <path d="m579.50116 134.21504l0 0c0 -12.506859 10.138794 -22.645676 22.64569 -22.645676l0 0c6.0059814 0 11.765991 2.3858795 16.012878 6.6327667c4.246887 4.246887 6.6327515 10.006897 6.6327515 16.012909l0 0c0 12.506851 -10.138794 22.64566 -22.64563 22.64566l0 0c-12.506897 0 -22.64569 -10.138809 -22.64569 -22.64566z" fill-rule="evenodd" class="color-b-fill"/>
        <path class="dark-stroke" stroke-width="2.0" stroke-linejoin="round" stroke-linecap="butt" d="m579.50116 134.21504l0 0c0 -12.506859 10.138794 -22.645676 22.64569 -22.645676l0 0c6.0059814 0 11.765991 2.3858795 16.012878 6.6327667c4.246887 4.246887 6.6327515 10.006897 6.6327515 16.012909l0 0c0 12.506851 -10.138794 22.64566 -22.64563 22.64566l0 0c-12.506897 0 -22.64569 -10.138809 -22.64569 -22.64566z" fill-rule="evenodd"/>
        <path d="m579.50116 203.54701l0 0c0 -12.506851 10.138794 -22.64566 22.64569 -22.64566l0 0c6.0059814 0 11.765991 2.3858795 16.012878 6.6327667c4.246887 4.246887 6.6327515 10.006897 6.6327515 16.012894l0 0c0 12.506866 -10.138794 22.645676 -22.64563 22.645676l0 0c-12.506897 0 -22.64569 -10.138809 -22.64569 -22.645676z" fill-rule="evenodd" class="color-b-fill"/>
        <path class="dark-stroke" stroke-width="2.0" stroke-linejoin="round" stroke-linecap="butt" d="m579.50116 203.54701l0 0c0 -12.506851 10.138794 -22.64566 22.64569 -22.64566l0 0c6.0059814 0 11.765991 2.3858795 16.012878 6.6327667c4.246887 4.246887 6.6327515 10.006897 6.6327515 16.012894l0 0c0 12.506866 -10.138794 22.645676 -22.64563 22.645676l0 0c-12.506897 0 -22.64569 -10.138809 -22.64569 -22.645676z" fill-rule="evenodd"/>
        <path class="dark-fill" fill-opacity="0.0" d="m398.52478 64.82007c45.24411 0 67.86615 0.01574707 90.48819 0.03149414c22.62207 0.01574707 45.24411 0.03149414 90.48819 0.03149414" fill-rule="evenodd"/>
        <path class="dark-stroke" stroke-width="1.0" stroke-linejoin="round" stroke-linecap="butt" d="m401.95184 64.82037l26.617828 0.0024032593c8.836731 0.0017166138 16.613068 0.004180908 23.682465 0.007133484c14.138763 0.0059051514 25.449799 0.0137786865 36.760834 0.021652222c11.311005 0.007873535 22.62204 0.01574707 36.760834 0.021652222c7.069397 0.0029525757 14.845703 0.00541687 23.682434 0.007133484l26.617798 0.0024032593" fill-rule="evenodd"/>
        <path class="dark-stroke dark-fill" stroke-width="1.0" stroke-linecap="butt" d="m401.95184 64.82037l1.1246948 -1.1244812l-3.0898743 1.1243057l3.0896606 1.1248627z" fill-rule="evenodd"/>
        <path class="dark-stroke dark-fill" stroke-width="1.0" stroke-linecap="butt" d="m576.07404 64.88275l-1.1246338 1.1244812l3.0898438 -1.1243057l-3.0896606 -1.1248627z" fill-rule="evenodd"/>
        <path class="dark-fill" fill-opacity="0.0" d="m398.52478 64.86071c45.24411 0 67.86615 17.338577 90.48819 34.677162c22.62207 17.338585 45.24411 34.67717 90.48819 34.67717" fill-rule="evenodd"/>
        <path class="dark-stroke" stroke-width="1.0" stroke-linejoin="round" stroke-linecap="butt" d="m401.9517 64.895065l0.7491455 0.015914917c1.3703613 0.033332825 2.7193604 0.08306885 4.0476074 0.14868164c2.6565857 0.13121796 5.2302856 0.325943 7.7266235 0.57992554c4.9927673 0.5079651 9.67627 1.2529831 14.0946045 2.2011871c8.836731 1.8964081 16.613068 4.6055603 23.682465 7.8565445c14.138763 6.5019684 25.449799 15.171265 36.760834 23.840553c11.311005 8.669289 22.62204 17.338585 36.760834 23.840553c7.069397 3.2509842 14.845703 5.9601364 23.682434 7.8565445c4.418335 0.9481964 9.101807 1.693222 14.0946045 2.2011871c2.496338 0.25398254 5.0700684 0.44869995 7.7266235 0.57992554c1.3282471 0.06561279 2.677246 0.115356445 4.0476074 0.14868164l0.7491455 0.015914917" fill-rule="evenodd"/>
        <path class="dark-stroke dark-fill" stroke-width="1.0" stroke-linecap="butt" d="m401.9517 64.895065l1.1358032 -1.1132584l-3.100891 1.0935593l3.0783386 1.1554947z" fill-rule="evenodd"/>
        <path class="dark-stroke dark-fill" stroke-width="1.0" stroke-linecap="butt" d="m576.0742 134.18068l-1.1358032 1.113266l3.100891 -1.0935669l-3.078308 -1.1554871z" fill-rule="evenodd"/>
        <path class="dark-fill" fill-opacity="0.0" d="m398.52478 64.86985c45.24411 0 67.86615 34.669296 90.48819 69.338585c22.62207 34.669296 45.24411 69.33858 90.48819 69.33858" fill-rule="evenodd"/>
        <path class="dark-stroke" stroke-width="1.0" stroke-linejoin="round" stroke-linecap="butt" d="m401.95114 64.93852l0.7496948 0.031845093c1.3703613 0.06665802 2.7193604 0.16610718 4.0476074 0.29730225c2.6565857 0.26239014 5.2302856 0.651741 7.7266235 1.1595917c4.9927673 1.0157013 9.67627 2.5054016 14.0946045 4.401375c8.836731 3.791954 16.613068 9.20903 23.682465 15.709526c14.138763 13.000984 25.449799 30.335625 36.760834 47.670273c11.311005 17.33464 22.62204 34.669296 36.760834 47.670273c7.069397 6.5004883 14.845703 11.917572 23.682434 15.709534c4.418335 1.8959656 9.101807 3.3856812 14.0946045 4.401367c2.496338 0.507843 5.0700684 0.89720154 7.7266235 1.1595917c1.3282471 0.13119507 2.677246 0.23065186 4.0476074 0.29730225l0.7496948 0.031845093" fill-rule="evenodd"/>
        <path class="dark-stroke dark-fill" stroke-width="1.0" stroke-linecap="butt" d="m401.95117 64.93852l1.1468811 -1.1018219l-3.1116638 1.0624466l3.0665894 1.1862717z" fill-rule="evenodd"/>
        <path class="dark-stroke dark-fill" stroke-width="1.0" stroke-linecap="butt" d="m576.07477 203.47835l-1.1469116 1.1018219l3.1116943 -1.062439l-3.0666504 -1.1862793z" fill-rule="evenodd"/>
        <path class="dark-fill" fill-opacity="0.0" d="m398.52478 134.20589c45.24411 0 67.86615 -17.330704 90.48819 -34.661415c22.62207 -17.330704 45.24411 -34.661415 90.48819 -34.661415" fill-rule="evenodd"/>
        <path class="dark-stroke" stroke-width="1.0" stroke-linejoin="round" stroke-linecap="butt" d="m401.9517 134.17155l0.7491455 -0.015914917c1.3703613 -0.033309937 2.7193604 -0.08302307 4.0476074 -0.14860535c2.6565857 -0.13117981 5.2302856 -0.32580566 7.7266235 -0.57966614c4.9927673 -0.5077362 9.67627 -1.2524109 14.0946045 -2.2001953c8.836731 -1.8955383 16.613068 -4.603462 23.682465 -7.852974c14.138763 -6.499016 25.449799 -15.164368 36.760834 -23.82972c11.311005 -8.6653595 22.62204 -17.330711 36.760834 -23.829727c7.069397 -3.2495117 14.845703 -5.9574356 23.682434 -7.8529816c4.418335 -0.94776917 9.101807 -1.6924515 14.0946045 -2.2001877c2.496338 -0.2538681 5.0700684 -0.44849396 7.7266235 -0.5796585c1.3282471 -0.065589905 2.677246 -0.11530304 4.0476074 -0.1486206l0.7491455 -0.015907288" fill-rule="evenodd"/>
        <path class="dark-stroke dark-fill" stroke-width="1.0" stroke-linecap="butt" d="m401.9517 134.17155l1.1132507 -1.135788l-3.0783386 1.1554718l3.100891 1.0935822z" fill-rule="evenodd"/>
        <path class="dark-stroke dark-fill" stroke-width="1.0" stroke-linecap="butt" d="m576.0742 64.9174l-1.1132202 1.1357956l3.078308 -1.1554871l-3.100891 -1.0935669z" fill-rule="evenodd"/>
        <path class="dark-fill" fill-opacity="0.0" d="m398.52478 134.15204c45.24411 0 67.86615 0.01576233 90.48819 0.0315094c22.62207 0.01574707 45.24411 0.03149414 90.48819 0.03149414" fill-rule="evenodd"/>
        <path class="dark-stroke" stroke-width="1.0" stroke-linejoin="round" stroke-linecap="butt" d="m401.95184 134.15236l26.617828 0.0023956299c8.836731 0.0017242432 16.613068 0.004180908 23.682465 0.0071411133c14.138763 0.0059051514 25.449799 0.0137786865 36.760834 0.021652222c11.311005 0.007873535 22.62204 0.01574707 36.760834 0.021652222c7.069397 0.0029449463 14.845703 0.0054016113 23.682434 0.0071258545l26.617798 0.0024108887" fill-rule="evenodd"/>
        <path class="dark-stroke dark-fill" stroke-width="1.0" stroke-linecap="butt" d="m401.95184 134.15236l1.1246948 -1.1244812l-3.0898743 1.1242981l3.0896606 1.1248627z" fill-rule="evenodd"/>
        <path class="dark-stroke dark-fill" stroke-width="1.0" stroke-linecap="butt" d="m576.07404 134.21474l-1.1246338 1.1244812l3.0898438 -1.1243134l-3.0896606 -1.1248627z" fill-rule="evenodd"/>
        <path class="dark-fill" fill-opacity="0.0" d="m398.52478 134.19269c45.24411 0 67.86615 17.338577 90.48819 34.67717c22.62207 17.338577 45.24411 34.677155 90.48819 34.677155" fill-rule="evenodd"/>
        <path class="dark-stroke" stroke-width="1.0" stroke-linejoin="round" stroke-linecap="butt" d="m401.9517 134.22705l0.7491455 0.015899658c1.3703613 0.033340454 2.7193604 0.08308411 4.0476074 0.1486969c2.6565857 0.13121033 5.2302856 0.32592773 7.7266235 0.57992554c4.9927673 0.5079651 9.67627 1.2529755 14.0946045 2.2011871c8.836731 1.8964081 16.613068 4.6055603 23.682465 7.856537c14.138763 6.5019684 25.449799 15.171265 36.760834 23.84056c11.311005 8.669281 22.62204 17.338577 36.760834 23.840546c7.069397 3.2509918 14.845703 5.960144 23.682434 7.856552c4.418335 0.9481964 9.101807 1.693222 14.0946045 2.2011719c2.496338 0.2539978 5.0700684 0.4487152 7.7266235 0.57992554c1.3282471 0.06561279 2.677246 0.115371704 4.0476074 0.14871216l0.7491455 0.015899658" fill-rule="evenodd"/>
        <path class="dark-stroke dark-fill" stroke-width="1.0" stroke-linecap="butt" d="m401.9517 134.22704l1.1358032 -1.1132507l-3.100891 1.0935516l3.0783386 1.1555023z" fill-rule="evenodd"/>
        <path class="dark-stroke dark-fill" stroke-width="1.0" stroke-linecap="butt" d="m576.0742 203.51266l-1.1358032 1.1132507l3.100891 -1.0935516l-3.078308 -1.1555023z" fill-rule="evenodd"/>
        <path class="dark-fill" fill-opacity="0.0" d="m398.52478 203.52873c45.24411 0 67.86615 -34.661423 90.48819 -69.322845c22.62207 -34.661415 45.24411 -69.32283 90.48819 -69.32283" fill-rule="evenodd"/>
        <path class="dark-stroke" stroke-width="1.0" stroke-linejoin="round" stroke-linecap="butt" d="m401.95114 203.46008l0.7496948 -0.031845093c1.3703613 -0.06665039 2.7193604 -0.16607666 4.0476074 -0.29722595c2.6565857 -0.26234436 5.2302856 -0.65159607 7.7266235 -1.1593475c4.9927673 -1.0154572 9.67627 -2.5048218 14.0946045 -4.40036c8.836731 -3.7911072 16.613068 -9.20694 23.682465 -15.705963c14.138763 -12.998032 25.449799 -30.328735 36.760834 -47.659454c11.311005 -17.330704 22.62204 -34.661407 36.760834 -47.65944c7.069397 -6.499016 14.845703 -11.914864 23.682434 -15.7059555c4.418335 -1.895546 9.101807 -3.384903 14.0946045 -4.4003754c2.496338 -0.5077362 5.0700684 -0.8970032 7.7266235 -1.1593323c1.3282471 -0.13116455 2.677246 -0.23059845 4.0476074 -0.29723358l0.7496948 -0.031837463" fill-rule="evenodd"/>
        <path class="dark-stroke dark-fill" stroke-width="1.0" stroke-linecap="butt" d="m401.95117 203.46007l1.1018372 -1.1468811l-3.0666199 1.1862488l3.1116638 1.0624695z" fill-rule="evenodd"/>
        <path class="dark-stroke dark-fill" stroke-width="1.0" stroke-linecap="butt" d="m576.07477 64.95171l-1.1018677 1.1468887l3.0666504 -1.1862564l-3.1116943 -1.0624619z" fill-rule="evenodd"/>
        <path class="dark-fill" fill-opacity="0.0" d="m398.52478 203.53787c45.24411 0 67.86615 -17.330704 90.48819 -34.661423c22.62207 -17.330704 45.24411 -34.661407 90.48819 -34.661407" fill-rule="evenodd"/>
        <path class="dark-stroke" stroke-width="1.0" stroke-linejoin="round" stroke-linecap="butt" d="m401.9517 203.50352l0.7491455 -0.0158844c1.3703613 -0.033325195 2.7193604 -0.08305359 4.0476074 -0.1486206c2.6565857 -0.13117981 5.2302856 -0.32582092 7.7266235 -0.57966614c4.9927673 -0.50775146 9.67627 -1.2524261 14.0946045 -2.2001953c8.836731 -1.8955536 16.613068 -4.60347 23.682465 -7.8529816c14.138763 -6.499008 25.449799 -15.164368 36.760834 -23.829727c11.311005 -8.665344 22.62204 -17.330704 36.760834 -23.829712c7.069397 -3.2495117 14.845703 -5.957443 23.682434 -7.8529816c4.418335 -0.94776917 9.101807 -1.6924591 14.0946045 -2.2001953c2.496338 -0.25386047 5.0700684 -0.44848633 7.7266235 -0.57966614c1.3282471 -0.06556702 2.677246 -0.11528015 4.0476074 -0.14860535l0.7491455 -0.015914917" fill-rule="evenodd"/>
        <path class="dark-stroke dark-fill" stroke-width="1.0" stroke-linecap="butt" d="m401.9517 203.50354l1.1132507 -1.1358032l-3.0783386 1.1554871l3.100891 1.0935669z" fill-rule="evenodd"/>
        <path class="dark-stroke dark-fill" stroke-width="1.0" stroke-linecap="butt" d="m576.0742 134.24937l-1.1132202 1.1358032l3.078308 -1.1554871l-3.100891 -1.0935669z" fill-rule="evenodd"/>
        <path class="dark-fill" fill-opacity="0.0" d="m398.52478 203.48402c45.24411 0 67.86615 0.01574707 90.48819 0.03149414c22.62207 0.01574707 45.24411 0.03149414 90.48819 0.03149414" fill-rule="evenodd"/>
        <path class="dark-stroke" stroke-width="1.0" stroke-linejoin="round" stroke-linecap="butt" d="m401.95184 203.48433l26.617828 0.0024108887c8.836731 0.0017089844 16.613068 0.004180908 23.682465 0.0071258545c14.138763 0.0059051514 25.449799 0.0137786865 36.760834 0.021652222c11.311005 0.007873535 22.62204 0.01574707 36.760834 0.021652222c7.069397 0.002960205 14.845703 0.00541687 23.682434 0.0071411133l26.617798 0.0023956299" fill-rule="evenodd"/>
        <path class="dark-stroke dark-fill" stroke-width="1.0" stroke-linecap="butt" d="m401.95184 203.48433l1.1246948 -1.1244812l-3.0898743 1.1243134l3.0896606 1.1248627z" fill-rule="evenodd"/>
        <path class="dark-stroke dark-fill" stroke-width="1.0" stroke-linecap="butt" d="m576.07404 203.5467l-1.1246338 1.1244812l3.0898438 -1.1242981l-3.0896606 -1.1248627z" fill-rule="evenodd"/>
        <path d="m805.6455 64.89618l0 0c0 -12.506855 10.138855 -22.645668 22.64569 -22.645668l0 0c6.0059814 0 11.765991 2.3858757 16.012878 6.632763c4.246887 4.246887 6.6328125 10.006901 6.6328125 16.012905l0 0c0 12.506859 -10.138855 22.645668 -22.64569 22.645668l0 0c-12.506836 0 -22.64569 -10.138809 -22.64569 -22.645668z" fill-rule="evenodd" class="color-b-fill"/>
        <path class="dark-stroke" stroke-width="2.0" stroke-linejoin="round" stroke-linecap="butt" d="m805.6455 64.89618l0 0c0 -12.506855 10.138855 -22.645668 22.64569 -22.645668l0 0c6.0059814 0 11.765991 2.3858757 16.012878 6.632763c4.246887 4.246887 6.6328125 10.006901 6.6328125 16.012905l0 0c0 12.506859 -10.138855 22.645668 -22.64569 22.645668l0 0c-12.506836 0 -22.64569 -10.138809 -22.64569 -22.645668z" fill-rule="evenodd"/>
        <path d="m805.6455 134.22816l0 0c0 -12.506859 10.138855 -22.645676 22.64569 -22.645676l0 0c6.0059814 0 11.765991 2.3858795 16.012878 6.6327667c4.246887 4.246887 6.6328125 10.006897 6.6328125 16.012909l0 0c0 12.506851 -10.138855 22.64566 -22.64569 22.64566l0 0c-12.506836 0 -22.64569 -10.138809 -22.64569 -22.64566z" fill-rule="evenodd" class="color-b-fill"/>
        <path class="dark-stroke" stroke-width="2.0" stroke-linejoin="round" stroke-linecap="butt" d="m805.6455 134.22816l0 0c0 -12.506859 10.138855 -22.645676 22.64569 -22.645676l0 0c6.0059814 0 11.765991 2.3858795 16.012878 6.6327667c4.246887 4.246887 6.6328125 10.006897 6.6328125 16.012909l0 0c0 12.506851 -10.138855 22.64566 -22.64569 22.64566l0 0c-12.506836 0 -22.64569 -10.138809 -22.64569 -22.64566z" fill-rule="evenodd"/>
        <path d="m805.6455 203.56013l0 0c0 -12.506851 10.138855 -22.64566 22.64569 -22.64566l0 0c6.0059814 0 11.765991 2.3858795 16.012878 6.6327667c4.246887 4.246887 6.6328125 10.006897 6.6328125 16.012894l0 0c0 12.506866 -10.138855 22.645676 -22.64569 22.645676l0 0c-12.506836 0 -22.64569 -10.138809 -22.64569 -22.645676z" fill-rule="evenodd" class="color-b-fill"/>
        <path class="dark-stroke" stroke-width="2.0" stroke-linejoin="round" stroke-linecap="butt" d="m805.6455 203.56013l0 0c0 -12.506851 10.138855 -22.64566 22.64569 -22.64566l0 0c6.0059814 0 11.765991 2.3858795 16.012878 6.6327667c4.246887 4.246887 6.6328125 10.006897 6.6328125 16.012894l0 0c0 12.506866 -10.138855 22.645676 -22.64569 22.645676l0 0c-12.506836 0 -22.64569 -10.138809 -22.64569 -22.645676z" fill-rule="evenodd"/>
        <path class="dark-fill" fill-opacity="0.0" d="m624.6691 64.83319c45.24414 0 67.86615 0.01574707 90.48822 0.03149414c22.62201 0.01574707 45.24408 0.03149414 90.48816 0.03149414" fill-rule="evenodd"/>
        <path class="dark-stroke" stroke-width="1.0" stroke-linejoin="round" stroke-linecap="butt" d="m628.0962 64.833496l26.617859 0.0024032593c8.836731 0.0017166138 16.613037 0.004180908 23.682434 0.007133484c14.138794 0.0059051514 25.44983 0.0137786865 36.760803 0.021652222c11.311035 0.007873535 22.62207 0.01574707 36.760864 0.021652222c7.069397 0.0029525757 14.845703 0.00541687 23.682434 0.0071411133l26.617859 0.0023956299" fill-rule="evenodd"/>
        <path class="dark-stroke dark-fill" stroke-width="1.0" stroke-linecap="butt" d="m628.0962 64.833496l1.1246948 -1.1244812l-3.0898438 1.1243057l3.0896606 1.1248627z" fill-rule="evenodd"/>
        <path class="dark-stroke dark-fill" stroke-width="1.0" stroke-linecap="butt" d="m802.21844 64.895874l-1.1246948 1.1244812l3.0898438 -1.1243057l-3.0896606 -1.1248627z" fill-rule="evenodd"/>
        <path class="dark-fill" fill-opacity="0.0" d="m624.6691 64.87383c45.24414 0 67.86615 17.338577 90.48822 34.677162c22.62201 17.338585 45.24408 34.67717 90.48816 34.67717" fill-rule="evenodd"/>
        <path class="dark-stroke" stroke-width="1.0" stroke-linejoin="round" stroke-linecap="butt" d="m628.09607 64.90819l0.7491455 0.015914917c1.3703613 0.033332825 2.7193604 0.08306885 4.0476074 0.14868164c2.6565552 0.13122559 5.2302246 0.325943 7.7266235 0.57992554c4.992737 0.5079727 9.67627 1.2529831 14.0946045 2.2011871c8.836731 1.8964081 16.613037 4.6055603 23.682434 7.8565445c14.138794 6.501976 25.44983 15.171265 36.760803 23.840553c11.311035 8.669296 22.62207 17.338585 36.760864 23.840553c7.069397 3.2509842 14.845703 5.9601364 23.682434 7.8565445c4.418335 0.94821167 9.101868 1.693222 14.0946045 2.2011871c2.496399 0.25398254 5.0700684 0.44869995 7.7266235 0.57992554c1.3282471 0.06561279 2.677246 0.115356445 4.0476685 0.14868164l0.7490845 0.015914917" fill-rule="evenodd"/>
        <path class="dark-stroke dark-fill" stroke-width="1.0" stroke-linecap="butt" d="m628.09607 64.90819l1.1357422 -1.1132545l-3.10083 1.0935555l3.078308 1.1554947z" fill-rule="evenodd"/>
        <path class="dark-stroke dark-fill" stroke-width="1.0" stroke-linecap="butt" d="m802.21857 134.1938l-1.1358032 1.113266l3.100891 -1.0935669l-3.078308 -1.1554871z" fill-rule="evenodd"/>
        <path class="dark-fill" fill-opacity="0.0" d="m624.6691 64.88297c45.24414 0 67.86615 34.669296 90.48822 69.338585c22.62201 34.669296 45.24408 69.33858 90.48816 69.33858" fill-rule="evenodd"/>
        <path class="dark-stroke" stroke-width="1.0" stroke-linejoin="round" stroke-linecap="butt" d="m628.0955 64.951645l0.7496948 0.031845093c1.3703613 0.06665802 2.7193604 0.16610718 4.0476074 0.29730225c2.6565552 0.26239014 5.2302246 0.65174866 7.7266235 1.1595917c4.992737 1.0157013 9.67627 2.5054016 14.0946045 4.401375c8.836731 3.791954 16.613037 9.20903 23.682434 15.709526c14.138794 13.000984 25.44983 30.335632 36.760803 47.670273c11.311035 17.33464 22.62207 34.669296 36.760864 47.670273c7.069397 6.5005035 14.845703 11.917572 23.682434 15.709534c4.418335 1.8959656 9.101868 3.3856812 14.0946045 4.401367c2.496399 0.507843 5.0700684 0.89720154 7.7266235 1.1595917c1.3282471 0.13119507 2.677246 0.23066711 4.0476685 0.29730225l0.74957275 0.031845093" fill-rule="evenodd"/>
        <path class="dark-stroke dark-fill" stroke-width="1.0" stroke-linecap="butt" d="m628.0955 64.951645l1.1469116 -1.1018219l-3.1116943 1.0624466l3.0665894 1.1862717z" fill-rule="evenodd"/>
        <path class="dark-stroke dark-fill" stroke-width="1.0" stroke-linecap="butt" d="m802.2191 203.49147l-1.1469116 1.1018219l3.1116943 -1.062439l-3.0665894 -1.1862793z" fill-rule="evenodd"/>
        <path class="dark-fill" fill-opacity="0.0" d="m624.6691 134.21901c45.24414 0 67.86615 -17.330704 90.48822 -34.661415c22.62201 -17.330704 45.24408 -34.661415 90.48816 -34.661415" fill-rule="evenodd"/>
        <path class="dark-stroke" stroke-width="1.0" stroke-linejoin="round" stroke-linecap="butt" d="m628.09607 134.18468l0.7491455 -0.015914917c1.3703613 -0.033309937 2.7193604 -0.08302307 4.0476074 -0.14860535c2.6565552 -0.13117981 5.2302246 -0.3257904 7.7266235 -0.57966614c4.992737 -0.5077362 9.67627 -1.2524109 14.0946045 -2.2001953c8.836731 -1.8955383 16.613037 -4.603462 23.682434 -7.852974c14.138794 -6.499016 25.44983 -15.164368 36.760803 -23.82972c11.311035 -8.6653595 22.62207 -17.330711 36.760864 -23.829727c7.069397 -3.249504 14.845703 -5.957428 23.682434 -7.852974c4.418335 -0.9477768 9.101868 -1.6924591 14.0946045 -2.2001877c2.496399 -0.25387573 5.0700684 -0.4485016 7.7266235 -0.57966614c1.3282471 -0.065582275 2.677246 -0.11530304 4.0476685 -0.1486206l0.7490845 -0.015899658" fill-rule="evenodd"/>
        <path class="dark-stroke dark-fill" stroke-width="1.0" stroke-linecap="butt" d="m628.09607 134.18468l1.1132202 -1.135788l-3.078308 1.1554718l3.10083 1.0935822z" fill-rule="evenodd"/>
        <path class="dark-stroke dark-fill" stroke-width="1.0" stroke-linecap="butt" d="m802.21857 64.93052l-1.1132202 1.1357956l3.078308 -1.1554871l-3.10083 -1.0935669z" fill-rule="evenodd"/>
        <path class="dark-fill" fill-opacity="0.0" d="m624.6691 134.16518c45.24414 0 67.86615 0.01574707 90.48822 0.03149414c22.62201 0.01574707 45.24408 0.03149414 90.48816 0.03149414" fill-rule="evenodd"/>
        <path class="dark-stroke" stroke-width="1.0" stroke-linejoin="round" stroke-linecap="butt" d="m628.0962 134.16548l26.617859 0.0023956299c8.836731 0.0017242432 16.613037 0.004180908 23.682434 0.0071411133c14.138794 0.0059051514 25.44983 0.0137786865 36.760803 0.021652222c11.311035 0.007873535 22.62207 0.01574707 36.760864 0.021652222c7.069397 0.0029449463 14.845703 0.00541687 23.682434 0.0071258545l26.617859 0.0024108887" fill-rule="evenodd"/>
        <path class="dark-stroke dark-fill" stroke-width="1.0" stroke-linecap="butt" d="m628.0962 134.16548l1.1246948 -1.1244812l-3.0898438 1.1242981l3.0896606 1.1248627z" fill-rule="evenodd"/>
        <path class="dark-stroke dark-fill" stroke-width="1.0" stroke-linecap="butt" d="m802.21844 134.22786l-1.1246948 1.1244812l3.0898438 -1.1243134l-3.0896606 -1.1248627z" fill-rule="evenodd"/>
        <path class="dark-fill" fill-opacity="0.0" d="m624.6691 134.20581c45.24414 0 67.86615 17.338577 90.48822 34.67717c22.62201 17.338577 45.24408 34.677155 90.48816 34.677155" fill-rule="evenodd"/>
        <path class="dark-stroke" stroke-width="1.0" stroke-linejoin="round" stroke-linecap="butt" d="m628.09607 134.24017l0.7491455 0.015899658c1.3703613 0.033340454 2.7193604 0.08308411 4.0476074 0.1486969c2.6565552 0.13121033 5.2302246 0.32592773 7.7266235 0.57992554c4.992737 0.5079651 9.67627 1.2529755 14.0946045 2.2011871c8.836731 1.8964081 16.613037 4.6055603 23.682434 7.856537c14.138794 6.5019684 25.44983 15.171265 36.760803 23.84056c11.311035 8.669281 22.62207 17.338577 36.760864 23.840546c7.069397 3.2509918 14.845703 5.960144 23.682434 7.856552c4.418335 0.9481964 9.101868 1.693222 14.0946045 2.2011719c2.496399 0.2539978 5.0700684 0.4487152 7.7266235 0.57992554c1.3282471 0.06562805 2.677246 0.115371704 4.0476685 0.14871216l0.7490845 0.015914917" fill-rule="evenodd"/>
        <path class="dark-stroke dark-fill" stroke-width="1.0" stroke-linecap="butt" d="m628.09607 134.24016l1.1357422 -1.1132507l-3.10083 1.0935516l3.078308 1.1555023z" fill-rule="evenodd"/>
        <path class="dark-stroke dark-fill" stroke-width="1.0" stroke-linecap="butt" d="m802.21857 203.52579l-1.1358032 1.1132507l3.100891 -1.0935516l-3.078308 -1.1555023z" fill-rule="evenodd"/>
        <path class="dark-fill" fill-opacity="0.0" d="m624.6691 203.54185c45.24414 0 67.86615 -34.661423 90.48822 -69.322845c22.62201 -34.661415 45.24408 -69.32283 90.48816 -69.32283" fill-rule="evenodd"/>
        <path class="dark-stroke" stroke-width="1.0" stroke-linejoin="round" stroke-linecap="butt" d="m628.0955 203.4732l0.7496948 -0.031845093c1.3703613 -0.06665039 2.7193604 -0.16607666 4.0476074 -0.29722595c2.6565552 -0.26234436 5.2302246 -0.65159607 7.7266235 -1.1593475c4.992737 -1.0154572 9.67627 -2.5048218 14.0946045 -4.40036c8.836731 -3.791092 16.613037 -9.20694 23.682434 -15.705963c14.138794 -12.998032 25.44983 -30.328735 36.760803 -47.659454c11.311035 -17.330704 22.62207 -34.661407 36.760864 -47.65944c7.069397 -6.499016 14.845703 -11.914864 23.682434 -15.7059555c4.418335 -1.895546 9.101868 -3.384903 14.0946045 -4.4003754c2.496399 -0.5077362 5.0700684 -0.8970032 7.7266235 -1.1593323c1.3282471 -0.13116455 2.677246 -0.23059845 4.0476685 -0.29723358l0.74957275 -0.031837463" fill-rule="evenodd"/>
        <path class="dark-stroke dark-fill" stroke-width="1.0" stroke-linecap="butt" d="m628.0955 203.47319l1.1018066 -1.1468811l-3.0665894 1.1862488l3.1116943 1.0624695z" fill-rule="evenodd"/>
        <path class="dark-stroke dark-fill" stroke-width="1.0" stroke-linecap="butt" d="m802.2191 64.964836l-1.1018677 1.1468887l3.0666504 -1.1862564l-3.1116943 -1.062458z" fill-rule="evenodd"/>
        <path class="dark-fill" fill-opacity="0.0" d="m624.6691 203.551c45.24414 0 67.86615 -17.330704 90.48822 -34.661423c22.62201 -17.330704 45.24408 -34.661407 90.48816 -34.661407" fill-rule="evenodd"/>
        <path class="dark-stroke" stroke-width="1.0" stroke-linejoin="round" stroke-linecap="butt" d="m628.09607 203.51665l0.7491455 -0.0158844c1.3703613 -0.033325195 2.7193604 -0.08305359 4.0476074 -0.1486206c2.6565552 -0.13117981 5.2302246 -0.32582092 7.7266235 -0.57966614c4.992737 -0.50775146 9.67627 -1.2524261 14.0946045 -2.2001953c8.836731 -1.8955536 16.613037 -4.60347 23.682434 -7.8529816c14.138794 -6.499008 25.44983 -15.164368 36.760803 -23.829727c11.311035 -8.665344 22.62207 -17.330704 36.760864 -23.829712c7.069397 -3.2495117 14.845703 -5.957443 23.682434 -7.8529816c4.418335 -0.94776917 9.101868 -1.6924591 14.0946045 -2.2001953c2.496399 -0.25386047 5.0700684 -0.44848633 7.7266235 -0.57966614c1.3282471 -0.06556702 2.677246 -0.11528015 4.0476685 -0.14860535l0.7490845 -0.015914917" fill-rule="evenodd"/>
        <path class="dark-stroke dark-fill" stroke-width="1.0" stroke-linecap="butt" d="m628.09607 203.51666l1.1132202 -1.1358032l-3.078308 1.1554871l3.10083 1.0935669z" fill-rule="evenodd"/>
        <path class="dark-stroke dark-fill" stroke-width="1.0" stroke-linecap="butt" d="m802.21857 134.2625l-1.1132202 1.1358032l3.078308 -1.1554871l-3.10083 -1.0935669z" fill-rule="evenodd"/>
        <path class="dark-fill" fill-opacity="0.0" d="m624.6691 203.49715c45.24414 0 67.86615 0.01574707 90.48822 0.03149414c22.62201 0.01574707 45.24408 0.03149414 90.48816 0.03149414" fill-rule="evenodd"/>
        <path class="dark-stroke" stroke-width="1.0" stroke-linejoin="round" stroke-linecap="butt" d="m628.0962 203.49745l26.617859 0.0024108887c8.836731 0.0017089844 16.613037 0.004180908 23.682434 0.0071258545c14.138794 0.0059051514 25.44983 0.0137786865 36.760803 0.021652222c11.311035 0.007873535 22.62207 0.01574707 36.760864 0.021652222c7.069397 0.002960205 14.845703 0.00541687 23.682434 0.0071411133l26.617859 0.0023956299" fill-rule="evenodd"/>
        <path class="dark-stroke dark-fill" stroke-width="1.0" stroke-linecap="butt" d="m628.0962 203.49745l1.1246948 -1.1244812l-3.0898438 1.1243134l3.0896606 1.1248627z" fill-rule="evenodd"/>
        <path class="dark-stroke dark-fill" stroke-width="1.0" stroke-linecap="butt" d="m802.21844 203.55983l-1.1246948 1.1244812l3.0898438 -1.1242981l-3.0896606 -1.1248627z" fill-rule="evenodd"/>
        <path class="dark-fill" fill-opacity="0.0" d="m353.29382 203.51158c-12.5 0 -25.007874 33.23622 -25.0 66.47246c0.007873535 33.236206 12.531494 66.47244 25.062988 66.47244" fill-rule="evenodd"/>
        <path stroke-width="1.0" stroke-linejoin="round" stroke-linecap="butt" d="m349.9549 204.28392l-0.16659546 0.07662964c-0.38726807 0.18560791 -0.77334595 0.40065002 -1.157898 0.6440582c-1.5382996 0.9737396 -3.052246 2.4018402 -4.5173645 4.219452c-2.9303284 3.6352081 -5.665436 8.828369 -8.009674 15.060165c-4.6884766 12.463577 -7.8134766 29.081696 -7.80954 45.699814c0.007873535 33.236206 12.531494 66.47244 25.062958 66.47244" fill-rule="evenodd" class="dark-stroke"/>
        <path stroke-width="1.0" stroke-linecap="butt" d="m349.95486 204.28392l-0.8421936 1.3490906l2.756836 -1.7919617l-3.263733 -0.39933777z" fill-rule="evenodd" class="color-a-fill dark-stroke"/>
        <path class="dark-fill" fill-opacity="0.0" d="m353.29382 134.17961c-18.22171 0 -36.451294 50.566925 -36.44342 101.13385c0.007873535 50.56694 18.253204 101.133865 36.50641 101.133865" fill-rule="evenodd"/>
        <path stroke-width="1.0" stroke-linejoin="round" stroke-linecap="butt" d="m349.91437 134.74911l-0.03277588 0.010726929c-1.1344604 0.3827057 -2.2644958 0.9506073 -3.3856506 1.69133c-2.24234 1.4814453 -4.4491577 3.654251 -6.5848083 6.419632c-4.271332 5.5307465 -8.258057 13.431839 -11.67511 22.913132c-6.834137 18.9626 -11.389557 44.246063 -11.38562 69.529526c0.007873535 50.56694 18.253204 101.133865 36.50638 101.133865" fill-rule="evenodd" class="dark-stroke"/>
        <path stroke-width="1.0" stroke-linecap="butt" d="m349.91437 134.74911l-0.9220581 1.2958374l2.8599243 -1.622406l-3.2337036 -0.5954895z" fill-rule="evenodd" class="color-a-fill dark-stroke"/>
        <path class="dark-fill" fill-opacity="0.0" d="m353.29382 64.847626c-27.015686 0 -54.039215 67.89763 -54.03134 135.79527c0.007873535 67.89763 27.04715 135.79527 54.09433 135.79527" fill-rule="evenodd"/>
        <path stroke-width="1.0" stroke-linejoin="round" stroke-linecap="butt" d="m349.88525 65.20379l-0.07183838 0.014533997c-0.10531616 0.02230072 -0.21063232 0.04559326 -0.3159485 0.069877625c-0.42123413 0.09712982 -0.84213257 0.21006012 -1.2626038 0.33852386c-1.6819153 0.51387787 -3.3573303 1.2763977 -5.0195007 2.2709885c-3.3244019 1.9891891 -6.5961 4.9066696 -9.762299 8.61982c-6.3323975 7.4263 -12.242828 18.035309 -17.308746 30.766113c-10.131866 25.461624 -16.885773 59.41043 -16.881836 93.35925c0.007873535 67.89763 27.04715 135.79527 54.0943 135.79527" fill-rule="evenodd" class="dark-stroke"/>
        <path stroke-width="1.0" stroke-linecap="butt" d="m349.88528 65.20379l-1.001648 1.2353592l2.9561768 -1.4395981l-3.189911 -0.79738617z" fill-rule="evenodd" class="color-a-fill dark-stroke"/>
        <path class="dark-fill" fill-opacity="0.0" d="m579.4382 203.51158c-12.5 0 -25.007874 33.23622 -25.0 66.47246c0.007873535 33.236206 12.531494 66.47244 25.062988 66.47244" fill-rule="evenodd"/>
        <path stroke-width="1.0" stroke-linejoin="round" stroke-linecap="butt" d="m576.09924 204.28392l-0.16656494 0.07662964c-0.38726807 0.18560791 -0.77337646 0.40065002 -1.157959 0.6440582c-1.538269 0.9737396 -3.052185 2.4018402 -4.517334 4.219452c-2.9302979 3.6352081 -5.6654663 8.828369 -8.009705 15.060165c-4.6884766 12.463577 -7.8134766 29.081696 -7.8095093 45.699814c0.007873535 33.236206 12.531494 66.47244 25.062988 66.47244" fill-rule="evenodd" class="dark-stroke"/>
        <path stroke-width="1.0" stroke-linecap="butt" d="m576.09924 204.28392l-0.8422241 1.3490906l2.756836 -1.7919617l-3.263733 -0.39933777z" fill-rule="evenodd" class="color-a-fill dark-stroke"/>
        <path class="dark-fill" fill-opacity="0.0" d="m579.4382 134.17961c-18.22168 0 -36.451294 50.566925 -36.44342 101.13385c0.007873535 50.56694 18.253235 101.133865 36.50641 101.133865" fill-rule="evenodd"/>
        <path stroke-width="1.0" stroke-linejoin="round" stroke-linecap="butt" d="m576.0587 134.74911l-0.03277588 0.010726929c-1.1344604 0.3827057 -2.2645264 0.9506073 -3.38562 1.69133c-2.2423706 1.4814453 -4.4491577 3.654251 -6.584839 6.419632c-4.2713013 5.5307465 -8.258057 13.431839 -11.67511 22.913132c-6.8341064 18.9626 -11.389587 44.246063 -11.38562 69.529526c0.007873535 50.56694 18.253174 101.133865 36.50641 101.133865" fill-rule="evenodd" class="dark-stroke"/>
        <path stroke-width="1.0" stroke-linecap="butt" d="m576.0587 134.74911l-0.9220581 1.2958374l2.8599243 -1.622406l-3.2337036 -0.5954895z" fill-rule="evenodd" class="color-a-fill dark-stroke"/>
        <path class="dark-fill" fill-opacity="0.0" d="m579.4382 64.847626c-27.015686 0 -54.039246 67.89763 -54.031372 135.79527c0.007873535 67.89763 27.04718 135.79527 54.09436 135.79527" fill-rule="evenodd"/>
        <path stroke-width="1.0" stroke-linejoin="round" stroke-linecap="butt" d="m576.0296 65.20379l-0.07183838 0.014533997c-0.10534668 0.02230072 -0.21063232 0.04559326 -0.315979 0.069877625c-0.4212036 0.09712982 -0.84210205 0.21006012 -1.2625732 0.33852386c-1.6818848 0.51387787 -3.3572998 1.2763977 -5.0195312 2.2709885c-3.3243408 1.9891891 -6.5960693 4.9066696 -9.762268 8.61982c-6.3323975 7.4263 -12.242859 18.035309 -17.308716 30.766113c-10.131897 25.461624 -16.885803 59.41043 -16.881897 93.35925c0.007873535 67.89763 27.04718 135.79527 54.09436 135.79527" fill-rule="evenodd" class="dark-stroke"/>
        <path stroke-width="1.0" stroke-linecap="butt" d="m576.0296 65.20379l-1.0015869 1.2353592l2.9561768 -1.4395981l-3.1899414 -0.79738617z" fill-rule="evenodd" class="color-a-fill dark-stroke"/>
        <path class="dark-fill" fill-opacity="0.0" d="m805.5825 203.50371c-12.5 0 -25.007874 33.23622 -25.0 66.47246c0.007873535 33.236206 12.531494 66.47241 25.062988 66.47241" fill-rule="evenodd"/>
        <path stroke-width="1.0" stroke-linejoin="round" stroke-linecap="butt" d="m802.2436 204.27605l-0.16656494 0.07662964c-0.38720703 0.18560791 -0.77337646 0.40065002 -1.157898 0.6440582c-1.5383301 0.9737396 -3.052246 2.4018402 -4.517395 4.219452c-2.9302979 3.6352081 -5.6654053 8.828369 -8.009644 15.060165c-4.6885376 12.463577 -7.8135376 29.081696 -7.8095703 45.699814c0.007873535 33.236206 12.531494 66.47244 25.062988 66.47244" fill-rule="evenodd" class="dark-stroke"/>
        <path stroke-width="1.0" stroke-linecap="butt" d="m802.2436 204.27605l-0.8422241 1.3490906l2.756836 -1.7919617l-3.263733 -0.39933777z" fill-rule="evenodd" class="color-a-fill dark-stroke"/>
        <path class="dark-fill" fill-opacity="0.0" d="m805.5825 134.17174c-18.22168 0 -36.451294 50.566925 -36.44342 101.13385c0.007873535 50.56694 18.253235 101.133865 36.50641 101.133865" fill-rule="evenodd"/>
        <path stroke-width="1.0" stroke-linejoin="round" stroke-linecap="butt" d="m802.20306 134.74124l-0.03277588 0.010726929c-1.1344604 0.3827057 -2.2644653 0.9506073 -3.3856812 1.69133c-2.2423096 1.4814453 -4.4491577 3.654251 -6.584778 6.4196167c-4.2713623 5.5307617 -8.258057 13.431854 -11.675171 22.913147c-6.8340454 18.9626 -11.389465 44.246063 -11.385559 69.529526c0.007873535 50.56694 18.253235 101.133865 36.50641 101.133865" fill-rule="evenodd" class="dark-stroke"/>
        <path stroke-width="1.0" stroke-linecap="butt" d="m802.20306 134.74124l-0.9220581 1.2958374l2.8599243 -1.622406l-3.2337036 -0.5954895z" fill-rule="evenodd" class="color-a-fill dark-stroke"/>
        <path class="dark-fill" fill-opacity="0.0" d="m805.5825 64.83975c-27.015686 0 -54.039185 67.89763 -54.03131 135.79527c0.007873535 67.89763 27.04712 135.79527 54.0943 135.79527" fill-rule="evenodd"/>
        <path stroke-width="1.0" stroke-linejoin="round" stroke-linecap="butt" d="m802.17395 65.195915l-0.07183838 0.014526367c-0.105285645 0.02230835 -0.21063232 0.04560089 -0.31591797 0.069885254c-0.4212036 0.09712982 -0.84210205 0.21005249 -1.2625732 0.33852386c-1.6820068 0.51387787 -3.3573608 1.2763977 -5.0195312 2.2709885c-3.3244019 1.9891891 -6.5961304 4.9066696 -9.762268 8.61982c-6.3324585 7.4263 -12.242859 18.035309 -17.308838 30.766113c-10.131775 25.461624 -16.885742 59.41043 -16.881775 93.35925c0.007873535 67.89763 27.04712 135.79527 54.0943 135.79527" fill-rule="evenodd" class="dark-stroke"/>
        <path stroke-width="1.0" stroke-linecap="butt" d="m802.174 65.19591l-1.001648 1.2353668l2.9561768 -1.4395981l-3.1899414 -0.79738617z" fill-rule="evenodd" class="color-a-fill dark-stroke"/>
        <path d="m92.808395 443.50156l0 0c0 -6.384033 5.17527 -11.559296 11.559288 -11.559296l769.2909 0c3.0657349 0 6.0058594 1.2178345 8.173645 3.38562c2.1677856 2.1677856 3.38562 5.1079407 3.38562 8.173676l0 46.23575c0 6.3840027 -5.175232 11.559296 -11.559265 11.559296l-769.2909 0c-6.384018 0 -11.559288 -5.175293 -11.559288 -11.559296z" fill-rule="evenodd" class="color-d-fill"/>
        <path class="dark-stroke" stroke-width="2.0" stroke-linejoin="round" stroke-linecap="butt" d="m92.808395 443.50156l0 0c0 -6.384033 5.17527 -11.559296 11.559288 -11.559296l769.2909 0c3.0657349 0 6.0058594 1.2178345 8.173645 3.38562c2.1677856 2.1677856 3.38562 5.1079407 3.38562 8.173676l0 46.23575c0 6.3840027 -5.175232 11.559296 -11.559265 11.559296l-769.2909 0c-6.384018 0 -11.559288 -5.175293 -11.559288 -11.559296z" fill-rule="evenodd"/>
        <path class="dark-fill" fill-opacity="0.0" d="m149.73228 394.53674l-0.06298828 38.173218" fill-rule="evenodd"/>
        <path stroke-width="1.0" stroke-linejoin="round" stroke-linecap="butt" d="m149.73228 394.53674l-0.05732727 34.746155" fill-rule="evenodd" class="color-e-stroke"/>
        <path stroke-width="1.0" stroke-linecap="butt" d="m149.67494 429.2829l-1.1227264 -1.1264343l1.1194916 3.0916138l1.1296844 -3.0879211z" fill-rule="evenodd" class="color-e-stroke color-e-fill"/>
        <path d="m127.08662 285.99097l0 0c0 -4.169037 3.3796616 -7.548706 7.5486984 -7.548706l30.193924 0l0 0c2.0020447 0 3.9220886 0.7953186 5.3377533 2.210968c1.4156494 1.4156494 2.210968 3.3356934 2.210968 5.337738l0 100.99707c0 4.169037 -3.3796844 7.548706 -7.5487213 7.548706l-30.193924 0c-4.169037 0 -7.5486984 -3.3796692 -7.5486984 -7.548706z" fill-rule="evenodd" class="color-c-fill"/>
        <path class="dark-stroke" stroke-width="2.0" stroke-linejoin="round" stroke-linecap="butt" d="m127.08662 285.99097l0 0c0 -4.169037 3.3796616 -7.548706 7.5486984 -7.548706l30.193924 0l0 0c2.0020447 0 3.9220886 0.7953186 5.3377533 2.210968c1.4156494 1.4156494 2.210968 3.3356934 2.210968 5.337738l0 100.99707c0 4.169037 -3.3796844 7.548706 -7.5487213 7.548706l-30.193924 0c-4.169037 0 -7.5486984 -3.3796692 -7.5486984 -7.548706z" fill-rule="evenodd"/>
        <path class="dark-fill" fill-opacity="0.0" d="m375.93964 394.53674l-0.06298828 38.173218" fill-rule="evenodd"/>
        <path stroke-width="1.0" stroke-linejoin="round" stroke-linecap="butt" d="m375.93964 394.53674l-0.05734253 34.746155" fill-rule="evenodd" class="color-e-stroke"/>
        <path stroke-width="1.0" stroke-linecap="butt" d="m375.8823 429.2829l-1.1227112 -1.1264343l1.1194763 3.0916138l1.1296692 -3.0879211z" fill-rule="evenodd" class="color-e-stroke color-e-fill"/>
        <path d="m353.29398 285.99097l0 0c0 -4.169037 3.3796692 -7.548706 7.548706 -7.548706l30.193909 0l0 0c2.0020447 0 3.9220886 0.7953186 5.337738 2.210968c1.4156799 1.4156494 2.210968 3.3356934 2.210968 5.337738l0 100.99707c0 4.169037 -3.3796692 7.548706 -7.548706 7.548706l-30.193909 0c-4.169037 0 -7.548706 -3.3796692 -7.548706 -7.548706z" fill-rule="evenodd" class="color-c-fill"/>
        <path class="dark-stroke" stroke-width="2.0" stroke-linejoin="round" stroke-linecap="butt" d="m353.29398 285.99097l0 0c0 -4.169037 3.3796692 -7.548706 7.548706 -7.548706l30.193909 0l0 0c2.0020447 0 3.9220886 0.7953186 5.337738 2.210968c1.4156799 1.4156494 2.210968 3.3356934 2.210968 5.337738l0 100.99707c0 4.169037 -3.3796692 7.548706 -7.548706 7.548706l-30.193909 0c-4.169037 0 -7.548706 -3.3796692 -7.548706 -7.548706z" fill-rule="evenodd"/>
        <path class="dark-fill" fill-opacity="0.0" d="m602.147 394.53674l-0.06298828 38.173218" fill-rule="evenodd"/>
        <path stroke-width="1.0" stroke-linejoin="round" stroke-linecap="butt" d="m602.147 394.53674l-0.05731201 34.746155" fill-rule="evenodd" class="color-e-stroke"/>
        <path stroke-width="1.0" stroke-linecap="butt" d="m602.08966 429.2829l-1.1227417 -1.1264343l1.1195068 3.0916138l1.1296387 -3.0879211z" fill-rule="evenodd" class="color-e-stroke color-e-fill"/>
        <path d="m579.50134 285.99097l0 0c0 -4.169037 3.3796387 -7.548706 7.548706 -7.548706l30.193909 0l0 0c2.0020142 0 3.922058 0.7953186 5.3377075 2.210968c1.4156494 1.4156494 2.2109985 3.3356934 2.2109985 5.337738l0 100.99707c0 4.169037 -3.3796997 7.548706 -7.548706 7.548706l-30.193909 0c-4.1690674 0 -7.548706 -3.3796692 -7.548706 -7.548706z" fill-rule="evenodd" class="color-c-fill"/>
        <path class="dark-stroke" stroke-width="2.0" stroke-linejoin="round" stroke-linecap="butt" d="m579.50134 285.99097l0 0c0 -4.169037 3.3796387 -7.548706 7.548706 -7.548706l30.193909 0l0 0c2.0020142 0 3.922058 0.7953186 5.3377075 2.210968c1.4156494 1.4156494 2.2109985 3.3356934 2.2109985 5.337738l0 100.99707c0 4.169037 -3.3796997 7.548706 -7.548706 7.548706l-30.193909 0c-4.1690674 0 -7.548706 -3.3796692 -7.548706 -7.548706z" fill-rule="evenodd"/>
        <path class="dark-fill" fill-opacity="0.0" d="m828.3543 394.53674l-0.06298828 38.173218" fill-rule="evenodd"/>
        <path stroke-width="1.0" stroke-linejoin="round" stroke-linecap="butt" d="m828.3543 394.53674l-0.05731201 34.746155" fill-rule="evenodd" class="color-e-stroke"/>
        <path stroke-width="1.0" stroke-linecap="butt" d="m828.297 429.2829l-1.1227417 -1.1264343l1.1195068 3.0916138l1.1296997 -3.0879211z" fill-rule="evenodd" class="color-e-stroke color-e-fill"/>
        <path d="m805.7087 285.99097l0 0c0 -4.169037 3.3796387 -7.548706 7.548706 -7.548706l30.193909 0l0 0c2.0020142 0 3.922058 0.7953186 5.3377686 2.210968c1.4156494 1.4156494 2.2109375 3.3356934 2.2109375 5.337738l0 100.99707c0 4.169037 -3.3796997 7.548706 -7.548706 7.548706l-30.193909 0c-4.1690674 0 -7.548706 -3.3796692 -7.548706 -7.548706z" fill-rule="evenodd" class="color-c-fill"/>
        <path class="dark-stroke" stroke-width="2.0" stroke-linejoin="round" stroke-linecap="butt" d="m805.7087 285.99097l0 0c0 -4.169037 3.3796387 -7.548706 7.548706 -7.548706l30.193909 0l0 0c2.0020142 0 3.922058 0.7953186 5.3377686 2.210968c1.4156494 1.4156494 2.2109375 3.3356934 2.2109375 5.337738l0 100.99707c0 4.169037 -3.3796997 7.548706 -7.548706 7.548706l-30.193909 0c-4.1690674 0 -7.548706 -3.3796692 -7.548706 -7.548706z" fill-rule="evenodd"/>
        <path class="dark-fill" fill-opacity="0.0" d="m127.028725 203.52077c-12.5 0 -25.007874 33.23622 -25.0 66.47246c0.007873535 33.236206 12.531494 66.47244 25.062996 66.47244" fill-rule="evenodd"/>
        <path stroke-width="1.0" stroke-linejoin="round" stroke-linecap="butt" d="m123.689804 204.2931l-0.16659546 0.07662964c-0.38722992 0.18560791 -0.77332306 0.40065002 -1.1578903 0.6440582c-1.5382767 0.9737396 -3.0522308 2.4018402 -4.5173874 4.219452c-2.9302979 3.6352081 -5.665413 8.828369 -8.009659 15.060165c-4.688484 12.463577 -7.813484 29.081696 -7.8095474 45.699814c0.007873535 33.236206 12.531502 66.47244 25.062996 66.47244" fill-rule="evenodd" class="dark-stroke"/>
        <path stroke-width="1.0" stroke-linecap="butt" d="m123.689804 204.2931l-0.8422165 1.3490906l2.7568436 -1.7919617l-3.2637177 -0.39933777z" fill-rule="evenodd" class="color-a-fill dark-stroke"/>
        <path class="dark-fill" fill-opacity="0.0" d="m127.028725 134.1888c-18.22171 0 -36.451294 50.566925 -36.44342 101.13385c0.007873535 50.56694 18.253204 101.133865 36.506416 101.133865" fill-rule="evenodd"/>
        <path stroke-width="1.0" stroke-linejoin="round" stroke-linecap="butt" d="m123.6493 134.7583l-0.03277588 0.010726929c-1.1344681 0.3827057 -2.264511 0.9506073 -3.3856735 1.69133c-2.2423248 1.4814453 -4.4491425 3.654251 -6.5848007 6.419632c-4.271324 5.5307465 -8.258072 13.431839 -11.675125 22.913132c-6.834137 18.9626 -11.389557 44.246063 -11.38562 69.529526c0.007873535 50.56694 18.253204 101.133865 36.506416 101.133865" fill-rule="evenodd" class="dark-stroke"/>
        <path stroke-width="1.0" stroke-linecap="butt" d="m123.64929 134.7583l-0.9220581 1.2958374l2.8599167 -1.622406l-3.2336884 -0.5954895z" fill-rule="evenodd" class="color-a-fill dark-stroke"/>
        <path class="dark-fill" fill-opacity="0.0" d="m127.028725 64.85681c-27.01567 0 -54.039223 67.897644 -54.03135 135.79527c0.007873535 67.89763 27.047173 135.79527 54.094345 135.79527" fill-rule="evenodd"/>
        <path stroke-width="1.0" stroke-linejoin="round" stroke-linecap="butt" d="m123.6202 65.212975l-0.07186127 0.014533997c-0.10533142 0.02230072 -0.21066284 0.04559326 -0.31595612 0.069877625c-0.4212036 0.09712982 -0.8420944 0.21006012 -1.2625885 0.33852386c-1.6819458 0.51387787 -3.3572998 1.2763977 -5.0195007 2.2709885c-3.3244019 1.9891891 -6.5961075 4.9066696 -9.762314 8.61982c-6.3324127 7.4263077 -12.242836 18.035309 -17.308754 30.76612c-10.131874 25.461617 -16.885788 59.410423 -16.881851 93.359245c0.007873535 67.89763 27.047173 135.79527 54.094345 135.79527" fill-rule="evenodd" class="dark-stroke"/>
        <path stroke-width="1.0" stroke-linecap="butt" d="m123.6202 65.212975l-1.0016251 1.2353668l2.9561691 -1.4395981l-3.189911 -0.7973938z" fill-rule="evenodd" class="color-a-fill dark-stroke"/>
    </g>
    <g>
        <text x="480" y="415" class="dark-fill">Embeddings</text>
        <text x="265" y="390" class="color-e-fill">
            Backprop
            <tspan x="265" dy="25">Gradient</tspan>
        </text>
        <text x="480" y="50" class="dark-fill">
            Marginals
        </text>
        <text x="265" y="25" class="color-e-fill">
            Backprop
            <tspan x="265" dy="25">Gradient</tspan>
        </text>
        <text x="480" y="477" class="dark-fill">Neural Network</text>
    </g>
</svg>