<svg xmlns:xlink="http://www.w3.org/1999/xlink" xmlns="http://www.w3.org/2000/svg" version="1.1" viewBox="0.0 0.0 960.0 540.0" fill="none" stroke="none" stroke-linecap="square" stroke-miterlimit="10">
    <clipPath id="p.0">
        <path d="m0 0l960.0 0l0 540.0l-960.0 0l0 -540.0z" clip-rule="nonzero"/>
    </clipPath>
    <g clip-path="url(#p.0)">
        <path class="dark-fill" fill-opacity="0.0" d="m0 0l960.0 0l0 540.0l-960.0 0z" fill-rule="evenodd"/>
        <path d="m240.90158 86.89895l0 0c0 -33.032715 26.77829 -59.81102 59.811005 -59.81102l0 0c15.8628845 0 31.07605 6.3015003 42.292786 17.518244c11.216736 11.216743 17.51825 26.429909 17.51825 42.292778l0 0c0 33.032715 -26.77832 59.811028 -59.811035 59.811028l0 0c-33.032715 0 -59.811005 -26.778313 -59.811005 -59.811028z" fill-rule="evenodd" class="color-b-fill"/>
        <path class="dark-stroke" stroke-width="4.0" stroke-linejoin="round" stroke-linecap="butt" d="m240.90158 86.89895l0 0c0 -33.032715 26.77829 -59.81102 59.811005 -59.81102l0 0c15.8628845 0 31.07605 6.3015003 42.292786 17.518244c11.216736 11.216743 17.51825 26.429909 17.51825 42.292778l0 0c0 33.032715 -26.77832 59.811028 -59.811035 59.811028l0 0c-33.032715 0 -59.811005 -26.778313 -59.811005 -59.811028z" fill-rule="evenodd"/>
        <path d="m240.90158 270.0l0 0c0 -33.032715 26.77829 -59.81102 59.811005 -59.81102l0 0c15.8628845 0 31.07605 6.3014984 42.292786 17.518234c11.216736 11.216751 17.51825 26.429916 17.51825 42.292786l0 0c0 33.032715 -26.77832 59.811035 -59.811035 59.811035l0 0c-33.032715 0 -59.811005 -26.77832 -59.811005 -59.811035z" fill-rule="evenodd" class="color-b-fill"/>
        <path class="dark-stroke" stroke-width="4.0" stroke-linejoin="round" stroke-linecap="butt" d="m240.90158 270.0l0 0c0 -33.032715 26.77829 -59.81102 59.811005 -59.81102l0 0c15.8628845 0 31.07605 6.3014984 42.292786 17.518234c11.216736 11.216751 17.51825 26.429916 17.51825 42.292786l0 0c0 33.032715 -26.77832 59.811035 -59.811035 59.811035l0 0c-33.032715 0 -59.811005 -26.77832 -59.811005 -59.811035z" fill-rule="evenodd"/>
        <path d="m240.90158 453.10104l0 0c0 -33.032715 26.77829 -59.811005 59.811005 -59.811005l0 0c15.8628845 0 31.07605 6.301483 42.292786 17.518219c11.216736 11.216766 17.51825 26.429932 17.51825 42.292786l0 0c0 33.032715 -26.77832 59.811005 -59.811035 59.811005l0 0c-33.032715 0 -59.811005 -26.77829 -59.811005 -59.811005z" fill-rule="evenodd" class="color-b-fill"/>
        <path class="dark-stroke" stroke-width="4.0" stroke-linejoin="round" stroke-linecap="butt" d="m240.90158 453.10104l0 0c0 -33.032715 26.77829 -59.811005 59.811005 -59.811005l0 0c15.8628845 0 31.07605 6.301483 42.292786 17.518219c11.216736 11.216766 17.51825 26.429932 17.51825 42.292786l0 0c0 33.032715 -26.77832 59.811005 -59.811035 59.811005l0 0c-33.032715 0 -59.811005 -26.77829 -59.811005 -59.811005z" fill-rule="evenodd"/>
        <path d="m493.99606 86.89895l0 0c0 -33.032715 26.77829 -59.81102 59.811005 -59.81102l0 0c15.862915 0 31.07605 6.3015003 42.292786 17.518244c11.216736 11.216743 17.51825 26.429909 17.51825 42.292778l0 0c0 33.032715 -26.77832 59.811028 -59.811035 59.811028l0 0c-33.032715 0 -59.811005 -26.778313 -59.811005 -59.811028z" fill-rule="evenodd" class="color-a-fill"/>
        <path class="dark-stroke" stroke-width="4.0" stroke-linejoin="round" stroke-linecap="butt" d="m493.99606 86.89895l0 0c0 -33.032715 26.77829 -59.81102 59.811005 -59.81102l0 0c15.862915 0 31.07605 6.3015003 42.292786 17.518244c11.216736 11.216743 17.51825 26.429909 17.51825 42.292778l0 0c0 33.032715 -26.77832 59.811028 -59.811035 59.811028l0 0c-33.032715 0 -59.811005 -26.778313 -59.811005 -59.811028z" fill-rule="evenodd"/>
        <path d="m493.99606 270.0l0 0c0 -33.032715 26.77829 -59.81102 59.811005 -59.81102l0 0c15.862915 0 31.07605 6.3014984 42.292786 17.518234c11.216736 11.216751 17.51825 26.429916 17.51825 42.292786l0 0c0 33.032715 -26.77832 59.811035 -59.811035 59.811035l0 0c-33.032715 0 -59.811005 -26.77832 -59.811005 -59.811035z" fill-rule="evenodd" class="color-a-fill"/>
        <path class="dark-stroke" stroke-width="4.0" stroke-linejoin="round" stroke-linecap="butt" d="m493.99606 270.0l0 0c0 -33.032715 26.77829 -59.81102 59.811005 -59.81102l0 0c15.862915 0 31.07605 6.3014984 42.292786 17.518234c11.216736 11.216751 17.51825 26.429916 17.51825 42.292786l0 0c0 33.032715 -26.77832 59.811035 -59.811035 59.811035l0 0c-33.032715 0 -59.811005 -26.77832 -59.811005 -59.811035z" fill-rule="evenodd"/>
        <path d="m493.99606 453.10104l0 0c0 -33.032715 26.77829 -59.811005 59.811005 -59.811005l0 0c15.862915 0 31.07605 6.301483 42.292786 17.518219c11.216736 11.216766 17.51825 26.429932 17.51825 42.292786l0 0c0 33.032715 -26.77832 59.811005 -59.811035 59.811005l0 0c-33.032715 0 -59.811005 -26.77829 -59.811005 -59.811005z" fill-rule="evenodd" class="color-a-fill"/>
        <path class="dark-stroke" stroke-width="4.0" stroke-linejoin="round" stroke-linecap="butt" d="m493.99606 453.10104l0 0c0 -33.032715 26.77829 -59.811005 59.811005 -59.811005l0 0c15.862915 0 31.07605 6.301483 42.292786 17.518219c11.216736 11.216766 17.51825 26.429932 17.51825 42.292786l0 0c0 33.032715 -26.77832 59.811005 -59.811035 59.811005l0 0c-33.032715 0 -59.811005 -26.77829 -59.811005 -59.811005z" fill-rule="evenodd"/>
        <path class="dark-fill" fill-opacity="0.0" d="m360.52362 86.89895l133.48032 0" fill-rule="evenodd"/>
        <path stroke-width="2.0" stroke-linejoin="round" stroke-linecap="butt" d="m367.37778 86.89895l126.62616 0" fill-rule="evenodd" class="dark-stroke"/>
        <path stroke-width="2.0" stroke-linecap="butt" d="m367.3778 86.89895l2.2491455 -2.2491684l-6.179535 2.2491684l6.179535 2.2491684z" fill-rule="evenodd" class="color-a-fill dark-stroke"/>
        <path class="dark-fill" fill-opacity="0.0" d="m356.99463 109.061554l154.51968 118.64566" fill-rule="evenodd"/>
        <path stroke-width="2.0" stroke-linejoin="round" stroke-linecap="butt" d="m362.43106 113.23584l149.08325 114.47139" fill-rule="evenodd" class="dark-stroke"/>
        <path stroke-width="2.0" stroke-linecap="butt" d="m362.43106 113.23584l3.1537476 -0.4141693l-6.2711487 -1.9794846l3.5315857 5.5473785z" fill-rule="evenodd" class="color-a-fill dark-stroke"/>
        <path class="dark-fill" fill-opacity="0.0" d="m343.00537 227.70721l153.82678 -118.64566" fill-rule="evenodd"/>
        <path stroke-width="2.0" stroke-linejoin="round" stroke-linecap="butt" d="m348.43274 223.52113l148.39941 -114.45959" fill-rule="evenodd" class="dark-stroke"/>
        <path stroke-width="2.0" stroke-linecap="butt" d="m348.43274 223.52113l0.40731812 -3.1546173l-3.5195312 5.5550385l6.266815 -1.993103z" fill-rule="evenodd" class="color-a-fill dark-stroke"/>
        <path class="dark-fill" fill-opacity="0.0" d="m360.52362 270.0l133.48032 0" fill-rule="evenodd"/>
        <path stroke-width="2.0" stroke-linejoin="round" stroke-linecap="butt" d="m367.37778 270.0l126.62616 0" fill-rule="evenodd" class="dark-stroke"/>
        <path stroke-width="2.0" stroke-linecap="butt" d="m367.3778 270.0l2.2491455 -2.249176l-6.179535 2.249176l6.179535 2.249176z" fill-rule="evenodd" class="color-a-fill dark-stroke"/>
        <path class="dark-fill" fill-opacity="0.0" d="m343.01038 312.28857l152.94489 113.38583" fill-rule="evenodd"/>
        <path stroke-width="2.0" stroke-linejoin="round" stroke-linecap="butt" d="m348.51648 316.37054l147.43878 109.30386" fill-rule="evenodd" class="dark-stroke"/>
        <path stroke-width="2.0" stroke-linecap="butt" d="m348.51648 316.37054l3.1463013 -0.46731567l-6.30365 -1.8733826l3.6246948 5.4869995z" fill-rule="evenodd" class="color-a-fill dark-stroke"/>
        <path class="dark-fill" fill-opacity="0.0" d="m360.52362 453.10104l133.48032 0" fill-rule="evenodd"/>
        <path stroke-width="2.0" stroke-linejoin="round" stroke-linecap="butt" d="m367.37778 453.10104l126.62616 0" fill-rule="evenodd" class="dark-stroke"/>
        <path stroke-width="2.0" stroke-linecap="butt" d="m367.3778 453.10104l2.2491455 -2.249176l-6.179535 2.249176l6.179535 2.249176z" fill-rule="evenodd" class="color-a-fill dark-stroke"/>
        <path class="dark-fill" fill-opacity="0.0" d="m343.00537 129.19173l168.50394 281.60632" fill-rule="evenodd"/>
        <path stroke-width="2.0" stroke-linejoin="round" stroke-linecap="butt" d="m346.52478 135.07336l164.98453 275.72467" fill-rule="evenodd" class="dark-stroke"/>
        <path stroke-width="2.0" stroke-linecap="butt" d="m346.52475 135.07338l3.0849 0.77516174l-5.102997 -4.1478577l1.2429199 6.457596z" fill-rule="evenodd" class="color-a-fill dark-stroke"/>
        <path class="dark-fill" fill-opacity="0.0" d="m343.00537 410.80826l168.50394 -281.6063" fill-rule="evenodd"/>
        <path stroke-width="2.0" stroke-linejoin="round" stroke-linecap="butt" d="m346.52478 404.92664l164.98453 -275.72467" fill-rule="evenodd" class="dark-stroke"/>
        <path stroke-width="2.0" stroke-linecap="butt" d="m346.52475 404.92664l-0.775177 -3.0849l-1.2429199 6.4575806l5.102997 -4.1478577z" fill-rule="evenodd" class="color-a-fill dark-stroke"/>
        <path class="dark-fill" fill-opacity="0.0" d="m355.23083 430.05655l156.28348 -117.76376" fill-rule="evenodd"/>
        <path stroke-width="2.0" stroke-linejoin="round" stroke-linecap="butt" d="m360.7049 425.93173l150.80942 -113.63895" fill-rule="evenodd" class="dark-stroke"/>
        <path stroke-width="2.0" stroke-linecap="butt" d="m360.7049 425.9317l0.44274902 -3.1498413l-3.581726 5.5151367l6.2888184 -1.9225464z" fill-rule="evenodd" class="color-a-fill dark-stroke"/>
        <path class="dark-fill" fill-opacity="0.0" d="m261.63586 316.7708c-5.053955 7.1824036 -30.698105 28.289581 -30.323853 43.094482c0.37423706 14.804901 27.141113 38.112427 32.569336 45.734894" fill-rule="evenodd"/>
        <path class="dark-stroke" stroke-width="2.0" stroke-linejoin="round" stroke-linecap="butt" d="m257.1287 321.9346l-0.20007324 0.21160889c-0.6960144 0.73080444 -1.438385 1.5011902 -2.2156372 2.306244c-3.1089935 3.2201538 -6.7766266 6.9945374 -10.274628 11.007141c-6.996002 8.0252075 -13.313477 17.003235 -13.126343 24.4057c0.18713379 7.4024353 6.972397 16.930542 14.389435 25.560852c3.708496 4.315155 7.574951 8.405823 10.853516 11.8941345c0.81967163 0.87210083 1.6025696 1.706543 2.3370667 2.4974365l0.5315552 0.57592773" fill-rule="evenodd"/>
        <path class="dark-stroke dark-fill" stroke-width="2.0" stroke-linecap="butt" d="m257.1287 321.9346l0.21548462 3.173523l2.369049 -6.1345825l-5.758026 3.1765442z" fill-rule="evenodd"/>
        <path class="dark-stroke dark-fill" stroke-width="2.0" stroke-linecap="butt" d="m259.42358 400.39365l-3.1712952 -0.24569702l5.727478 3.2312622l-2.3104858 -6.1568604z" fill-rule="evenodd"/>
        <path class="dark-fill" fill-opacity="0.0" d="m241.75183 104.66511c-8.76445 29.78434 -53.19101 125.207695 -52.58673 178.70602c0.6042938 53.49832 46.84372 118.569885 56.212463 142.28387" fill-rule="evenodd"/>
        <path class="dark-stroke" stroke-width="2.0" stroke-linejoin="round" stroke-linecap="butt" d="m239.64278 111.186745l-0.55963135 1.6096573c-0.21632385 0.61538696 -0.43978882 1.2447281 -0.67015076 1.8876343c-0.46066284 1.28582 -0.9487915 2.6259003 -1.4618988 4.016945c-2.0523987 5.564171 -4.50441 11.943871 -7.1984253 18.929008c-5.3880463 13.970276 -11.744156 30.362305 -17.80748 47.495377c-12.126663 34.266174 -23.08223 71.49661 -22.780075 98.24576c0.30213928 26.749146 12.013077 56.391632 24.81955 82.3111c6.4032288 12.959686 13.080383 24.988617 18.742249 35.259796c2.8309326 5.1355896 5.4080505 9.831696 7.5702057 13.984985c0.5405426 1.0383301 1.0551453 2.0427246 1.5413055 3.0115967c0.24305725 0.48443604 0.47901917 0.9599304 0.70755005 1.4263916l0.019195557 0.03942871" fill-rule="evenodd"/>
        <path class="dark-stroke dark-fill" stroke-width="2.0" stroke-linecap="butt" d="m239.64279 111.18674l1.4479675 2.8321152l-0.23858643 -6.5717926l-4.041504 5.187645z" fill-rule="evenodd"/>
        <path class="dark-stroke dark-fill" stroke-width="2.0" stroke-linecap="butt" d="m242.56516 419.40442l-2.9739838 -1.1282349l4.5867004 4.712494l-0.4844818 -6.558258z" fill-rule="evenodd"/>
        <path class="dark-fill" fill-opacity="0.0" d="m261.63586 132.63496c-5.053955 7.1824036 -30.698105 28.289581 -30.323853 43.094482c0.37423706 14.804901 27.141113 38.112427 32.569336 45.73491" fill-rule="evenodd"/>
        <path class="dark-stroke" stroke-width="2.0" stroke-linejoin="round" stroke-linecap="butt" d="m257.1287 137.79878l-0.20007324 0.21157837c-0.6960144 0.73080444 -1.438385 1.5012207 -2.2156372 2.306244c-3.1089935 3.2201538 -6.7766266 6.994568 -10.274628 11.007156c-6.996002 8.025223 -13.313477 17.003235 -13.126343 24.405685c0.18713379 7.4024506 6.972397 16.930557 14.389435 25.560867c3.708496 4.31514 7.574951 8.405838 10.853516 11.894165c0.81967163 0.8720703 1.6025696 1.7065125 2.3370667 2.4973755l0.5315552 0.57595825" fill-rule="evenodd"/>
        <path class="dark-stroke dark-fill" stroke-width="2.0" stroke-linecap="butt" d="m257.1287 137.79878l0.21548462 3.1734924l2.369049 -6.1345673l-5.758026 3.1765442z" fill-rule="evenodd"/>
        <path class="dark-stroke dark-fill" stroke-width="2.0" stroke-linecap="butt" d="m259.42358 216.25781l-3.1712952 -0.24571228l5.727478 3.2312927l-2.3104858 -6.1568756z" fill-rule="evenodd"/>
    </g>
    <g>
        <text x="427" y="25" class="dark-fill">
            Unary
            <tspan x="427" dy="25">Potentials</tspan>
        </text>
        <text x="100" y="275" class="dark-fill">
            Binary
            <tspan x="100" dy="25">Potentials</tspan>
        </text>
    </g>
</svg>