<svg xmlns:xlink="http://www.w3.org/1999/xlink" xmlns="http://www.w3.org/2000/svg" version="1.1" viewBox="0.0 0.0 960.0 540.0" fill="none" stroke="none" stroke-linecap="square" stroke-miterlimit="10">
    <clipPath id="p.0">
        <path d="m0 0l960.0 0l0 540.0l-960.0 0l0 -540.0z" clip-rule="nonzero"/>
    </clipPath>
    <g clip-path="url(#p.0)">
        <path class="dark-fill" fill-opacity="0.0" d="m0 0l960.0 0l0 540.0l-960.0 0z" fill-rule="evenodd"/>
        <path d="m127.028725 64.85681l0 0c0 -12.506859 10.138817 -22.645672 22.645668 -22.645672l0 0c6.006012 0 11.766022 2.3858795 16.012909 6.632763c4.246887 4.246887 6.6327667 10.006905 6.6327667 16.012909l0 0c0 12.506859 -10.138809 22.645668 -22.645676 22.645668l0 0c-12.506851 0 -22.645668 -10.138809 -22.645668 -22.645668z" fill-rule="evenodd" class="color-b-fill"/>
        <path class="dark-stroke" stroke-width="3.0" stroke-linejoin="round" stroke-linecap="butt" d="m127.028725 64.85681l0 0c0 -12.506859 10.138817 -22.645672 22.645668 -22.645672l0 0c6.006012 0 11.766022 2.3858795 16.012909 6.632763c4.246887 4.246887 6.6327667 10.006905 6.6327667 16.012909l0 0c0 12.506859 -10.138809 22.645668 -22.645676 22.645668l0 0c-12.506851 0 -22.645668 -10.138809 -22.645668 -22.645668z" fill-rule="evenodd"/>
        <path d="m127.028725 134.1888l0 0c0 -12.506866 10.138817 -22.645676 22.645668 -22.645676l0 0c6.006012 0 11.766022 2.3858795 16.012909 6.6327667c4.246887 4.2468796 6.6327667 10.006897 6.6327667 16.012909l0 0c0 12.506851 -10.138809 22.64566 -22.645676 22.64566l0 0c-12.506851 0 -22.645668 -10.138809 -22.645668 -22.64566z" fill-rule="evenodd" class="color-b-fill"/>
        <path class="dark-stroke" stroke-width="3.0" stroke-linejoin="round" stroke-linecap="butt" d="m127.028725 134.1888l0 0c0 -12.506866 10.138817 -22.645676 22.645668 -22.645676l0 0c6.006012 0 11.766022 2.3858795 16.012909 6.6327667c4.246887 4.2468796 6.6327667 10.006897 6.6327667 16.012909l0 0c0 12.506851 -10.138809 22.64566 -22.645676 22.64566l0 0c-12.506851 0 -22.645668 -10.138809 -22.645668 -22.64566z" fill-rule="evenodd"/>
        <path d="m127.028725 203.52077l0 0c0 -12.506851 10.138817 -22.64566 22.645668 -22.64566l0 0c6.006012 0 11.766022 2.3858643 16.012909 6.6327515c4.246887 4.246887 6.6327667 10.006912 6.6327667 16.012909l0 0c0 12.506866 -10.138809 22.645676 -22.645676 22.645676l0 0c-12.506851 0 -22.645668 -10.138809 -22.645668 -22.645676z" fill-rule="evenodd" class="color-b-fill"/>
        <path class="dark-stroke" stroke-width="3.0" stroke-linejoin="round" stroke-linecap="butt" d="m127.028725 203.52077l0 0c0 -12.506851 10.138817 -22.64566 22.645668 -22.64566l0 0c6.006012 0 11.766022 2.3858643 16.012909 6.6327515c4.246887 4.246887 6.6327667 10.006912 6.6327667 16.012909l0 0c0 12.506866 -10.138809 22.645676 -22.645676 22.645676l0 0c-12.506851 0 -22.645668 -10.138809 -22.645668 -22.645676z" fill-rule="evenodd"/>
        <path d="m127.02874 336.45038l0 0c0 -12.506866 10.138817 -22.64566 22.645668 -22.64566l0 0c6.006012 0 11.766022 2.3858643 16.012909 6.6327515c4.246887 4.246887 6.6327667 10.006897 6.6327667 16.012909l0 0c0 12.506866 -10.138824 22.64566 -22.645676 22.64566l0 0c-12.506851 0 -22.645668 -10.138794 -22.645668 -22.64566z" fill-rule="evenodd" class="color-a-fill"/>
        <path class="dark-stroke" stroke-width="3.0" stroke-linejoin="round" stroke-linecap="butt" d="m127.02874 336.45038l0 0c0 -12.506866 10.138817 -22.64566 22.645668 -22.64566l0 0c6.006012 0 11.766022 2.3858643 16.012909 6.6327515c4.246887 4.246887 6.6327667 10.006897 6.6327667 16.012909l0 0c0 12.506866 -10.138824 22.64566 -22.645676 22.64566l0 0c-12.506851 0 -22.645668 -10.138794 -22.645668 -22.64566z" fill-rule="evenodd"/>
        <path d="m127.02874 405.77652l0 0c0 -12.506836 10.138817 -22.64566 22.645668 -22.64566l0 0c6.006012 0 11.766022 2.3858643 16.012909 6.6327515c4.246887 4.246887 6.6327667 10.0069275 6.6327667 16.012909l0 0c0 12.506866 -10.138824 22.64569 -22.645676 22.64569l0 0c-12.506851 0 -22.645668 -10.138824 -22.645668 -22.64569z" fill-rule="evenodd" class="color-a-fill"/>
        <path class="dark-stroke" stroke-width="3.0" stroke-linejoin="round" stroke-linecap="butt" d="m127.02874 405.77652l0 0c0 -12.506836 10.138817 -22.64566 22.645668 -22.64566l0 0c6.006012 0 11.766022 2.3858643 16.012909 6.6327515c4.246887 4.246887 6.6327667 10.0069275 6.6327667 16.012909l0 0c0 12.506866 -10.138824 22.64569 -22.645676 22.64569l0 0c-12.506851 0 -22.645668 -10.138824 -22.645668 -22.64569z" fill-rule="evenodd"/>
        <path d="m127.02874 475.1027l0 0c0 -12.506866 10.138817 -22.64566 22.645668 -22.64566l0 0c6.006012 0 11.766022 2.3858643 16.012909 6.6327515c4.246887 4.246887 6.6327667 10.006897 6.6327667 16.012909l0 0c0 12.506866 -10.138824 22.64566 -22.645676 22.64566l0 0c-12.506851 0 -22.645668 -10.138794 -22.645668 -22.64566z" fill-rule="evenodd" class="color-a-fill"/>
        <path class="dark-stroke" stroke-width="3.0" stroke-linejoin="round" stroke-linecap="butt" d="m127.02874 475.1027l0 0c0 -12.506866 10.138817 -22.64566 22.645668 -22.64566l0 0c6.006012 0 11.766022 2.3858643 16.012909 6.6327515c4.246887 4.246887 6.6327667 10.006897 6.6327667 16.012909l0 0c0 12.506866 -10.138824 22.64566 -22.645676 22.64566l0 0c-12.506851 0 -22.645668 -10.138794 -22.645668 -22.64566z" fill-rule="evenodd"/>
        <path d="m353.29382 64.869934l0 0c0 -12.506859 10.138794 -22.645668 22.64566 -22.645668l0 0c6.006012 0 11.766022 2.3858757 16.012909 6.632763c4.246887 4.246887 6.6327515 10.006901 6.6327515 16.012905l0 0c0 12.506859 -10.138794 22.645668 -22.64566 22.645668l0 0c-12.506866 0 -22.64566 -10.138809 -22.64566 -22.645668z" fill-rule="evenodd" class="color-b-fill"/>
        <path class="dark-stroke" stroke-width="3.0" stroke-linejoin="round" stroke-linecap="butt" d="m353.29382 64.869934l0 0c0 -12.506859 10.138794 -22.645668 22.64566 -22.645668l0 0c6.006012 0 11.766022 2.3858757 16.012909 6.632763c4.246887 4.246887 6.6327515 10.006901 6.6327515 16.012905l0 0c0 12.506859 -10.138794 22.645668 -22.64566 22.645668l0 0c-12.506866 0 -22.64566 -10.138809 -22.64566 -22.645668z" fill-rule="evenodd"/>
        <path d="m353.29382 134.20192l0 0c0 -12.506866 10.138794 -22.645676 22.64566 -22.645676l0 0c6.006012 0 11.766022 2.3858795 16.012909 6.6327667c4.246887 4.246887 6.6327515 10.006897 6.6327515 16.012909l0 0c0 12.506851 -10.138794 22.64566 -22.64566 22.64566l0 0c-12.506866 0 -22.64566 -10.138809 -22.64566 -22.64566z" fill-rule="evenodd" class="color-b-fill"/>
        <path class="dark-stroke" stroke-width="3.0" stroke-linejoin="round" stroke-linecap="butt" d="m353.29382 134.20192l0 0c0 -12.506866 10.138794 -22.645676 22.64566 -22.645676l0 0c6.006012 0 11.766022 2.3858795 16.012909 6.6327667c4.246887 4.246887 6.6327515 10.006897 6.6327515 16.012909l0 0c0 12.506851 -10.138794 22.64566 -22.64566 22.64566l0 0c-12.506866 0 -22.64566 -10.138809 -22.64566 -22.64566z" fill-rule="evenodd"/>
        <path d="m353.29382 203.53389l0 0c0 -12.506851 10.138794 -22.64566 22.64566 -22.64566l0 0c6.006012 0 11.766022 2.3858795 16.012909 6.6327515c4.246887 4.246887 6.6327515 10.006912 6.6327515 16.012909l0 0c0 12.506866 -10.138794 22.645676 -22.64566 22.645676l0 0c-12.506866 0 -22.64566 -10.138809 -22.64566 -22.645676z" fill-rule="evenodd" class="color-b-fill"/>
        <path class="dark-stroke" stroke-width="3.0" stroke-linejoin="round" stroke-linecap="butt" d="m353.29382 203.53389l0 0c0 -12.506851 10.138794 -22.64566 22.64566 -22.64566l0 0c6.006012 0 11.766022 2.3858795 16.012909 6.6327515c4.246887 4.246887 6.6327515 10.006912 6.6327515 16.012909l0 0c0 12.506866 -10.138794 22.645676 -22.64566 22.645676l0 0c-12.506866 0 -22.64566 -10.138809 -22.64566 -22.645676z" fill-rule="evenodd"/>
        <path d="m353.29382 336.4635l0 0c0 -12.506866 10.138824 -22.64566 22.64569 -22.64566l0 0c6.0059814 0 11.765991 2.3858643 16.012878 6.6327515c4.246887 4.246887 6.632782 10.006897 6.632782 16.012909l0 0c0 12.506866 -10.138824 22.64566 -22.64566 22.64566l0 0c-12.506866 0 -22.64569 -10.138794 -22.64569 -22.64566z" fill-rule="evenodd" class="color-a-fill"/>
        <path class="dark-stroke" stroke-width="3.0" stroke-linejoin="round" stroke-linecap="butt" d="m353.29382 336.4635l0 0c0 -12.506866 10.138824 -22.64566 22.64569 -22.64566l0 0c6.0059814 0 11.765991 2.3858643 16.012878 6.6327515c4.246887 4.246887 6.632782 10.006897 6.632782 16.012909l0 0c0 12.506866 -10.138824 22.64566 -22.64566 22.64566l0 0c-12.506866 0 -22.64569 -10.138794 -22.64569 -22.64566z" fill-rule="evenodd"/>
        <path d="m353.29382 405.78964l0 0c0 -12.506836 10.138824 -22.64566 22.64569 -22.64566l0 0c6.0059814 0 11.765991 2.3858948 16.012878 6.6327515c4.246887 4.246887 6.632782 10.0069275 6.632782 16.012909l0 0c0 12.506866 -10.138824 22.64569 -22.64566 22.64569l0 0c-12.506866 0 -22.64569 -10.138824 -22.64569 -22.64569z" fill-rule="evenodd" class="color-a-fill"/>
        <path class="dark-stroke" stroke-width="3.0" stroke-linejoin="round" stroke-linecap="butt" d="m353.29382 405.78964l0 0c0 -12.506836 10.138824 -22.64566 22.64569 -22.64566l0 0c6.0059814 0 11.765991 2.3858948 16.012878 6.6327515c4.246887 4.246887 6.632782 10.0069275 6.632782 16.012909l0 0c0 12.506866 -10.138824 22.64569 -22.64566 22.64569l0 0c-12.506866 0 -22.64569 -10.138824 -22.64569 -22.64569z" fill-rule="evenodd"/>
        <path d="m353.29382 475.1158l0 0c0 -12.506866 10.138824 -22.64566 22.64569 -22.64566l0 0c6.0059814 0 11.765991 2.3858643 16.012878 6.6327515c4.246887 4.246887 6.632782 10.006897 6.632782 16.012909l0 0c0 12.506866 -10.138824 22.64566 -22.64566 22.64566l0 0c-12.506866 0 -22.64569 -10.138794 -22.64569 -22.64566z" fill-rule="evenodd" class="color-a-fill"/>
        <path class="dark-stroke" stroke-width="3.0" stroke-linejoin="round" stroke-linecap="butt" d="m353.29382 475.1158l0 0c0 -12.506866 10.138824 -22.64566 22.64569 -22.64566l0 0c6.0059814 0 11.765991 2.3858643 16.012878 6.6327515c4.246887 4.246887 6.632782 10.006897 6.632782 16.012909l0 0c0 12.506866 -10.138824 22.64566 -22.64566 22.64566l0 0c-12.506866 0 -22.64569 -10.138794 -22.64569 -22.64566z" fill-rule="evenodd"/>
        <path class="dark-fill" fill-opacity="0.0" d="m353.29382 64.869934c-12.5 0 -25.007874 102.55905 -25.0 205.1181c0.007873535 102.55905 12.531494 205.1181 25.062988 205.1181" fill-rule="evenodd"/>
        <path stroke-width="2.0" stroke-linejoin="round" stroke-linecap="butt" d="m348.4902 69.75921l-0.1479187 0.2976303c-0.09597778 0.19869232 -0.19180298 0.4028244 -0.28753662 0.6123276c-0.19146729 0.41900635 -0.38253784 0.8595276 -0.5731201 1.3211823c-0.38116455 0.9233093 -0.760376 1.9311295 -1.1373596 3.020317c-0.75393677 2.1783752 -1.4986877 4.6822586 -2.2312317 7.4866104c-2.9303284 11.217392 -5.665436 27.242249 -8.009674 46.47207c-4.6884766 38.45964 -7.8134766 89.73917 -7.80954 141.01869c0.007873535 102.55905 12.531494 205.1181 25.062958 205.1181" fill-rule="evenodd" class="dark-stroke"/>
        <path stroke-width="2.0" stroke-linecap="butt" d="m348.49017 69.7592l0.02810669 3.1806793l2.7264404 -5.984314l-5.935211 2.8317413z" fill-rule="evenodd" class="dark-stroke color-a-fill"/>
        <path class="dark-fill" fill-opacity="0.0" d="m353.29382 134.20192c-12.5 0 -25.007874 67.89763 -25.0 135.79527c0.007873535 67.897644 12.531494 135.79529 25.062988 135.79529" fill-rule="evenodd"/>
        <path stroke-width="2.0" stroke-linejoin="round" stroke-linecap="butt" d="m347.84253 138.35684l-0.07467651 0.1111145c-0.09552002 0.14578247 -0.19091797 0.29510498 -0.28622437 0.44792175c-0.38116455 0.6112671 -0.760376 1.2784729 -1.1373596 1.9995422c-0.75393677 1.4421692 -1.4986877 3.099823 -2.2312317 4.9564056c-2.9303284 7.4263 -5.665436 18.035309 -8.009674 30.766113c-4.6884766 25.461609 -7.8134766 59.41043 -7.80954 93.35925c0.007873535 67.897644 12.531494 135.79526 25.062958 135.79526" fill-rule="evenodd" class="dark-stroke"/>
        <path stroke-width="2.0" stroke-linecap="butt" d="m347.84253 138.35684l-0.42538452 3.152237l3.5513 -5.53479l-6.278137 1.9571686z" fill-rule="evenodd" class="dark-stroke color-a-fill"/>
        <path class="dark-fill" fill-opacity="0.0" d="m353.29382 203.53389c-12.5 0 -25.007874 33.23622 -25.0 66.47246c0.007873535 33.236206 12.531494 66.47244 25.062988 66.47244" fill-rule="evenodd"/>
        <path stroke-width="2.0" stroke-linejoin="round" stroke-linecap="butt" d="m346.99615 206.2393l-0.08477783 0.07133484c-0.18954468 0.16317749 -0.37860107 0.33306885 -0.56710815 0.509552c-0.75393677 0.7059479 -1.4986877 1.5173645 -2.2312317 2.426178c-2.9303284 3.6352081 -5.665436 8.828369 -8.009674 15.060165c-4.6884766 12.463577 -7.8134766 29.081696 -7.80954 45.699814c0.007873535 33.236206 12.531494 66.47244 25.062958 66.47244" fill-rule="evenodd" class="dark-stroke"/>
        <path stroke-width="2.0" stroke-linecap="butt" d="m346.99612 206.23929l-1.178772 2.9543152l4.790039 -4.505661l-6.5655518 0.3725586z" fill-rule="evenodd" class="dark-stroke color-a-fill"/>
        <path class="dark-fill" fill-opacity="0.0" d="m353.29382 64.869934c-12.5 0 -25.007874 85.22835 -25.0 170.4567c0.007873535 85.22833 12.531494 170.4567 25.062988 170.4567" fill-rule="evenodd"/>
        <path stroke-width="2.0" stroke-linejoin="round" stroke-linecap="butt" d="m348.19168 69.44684l-0.13693237 0.24235535c-0.19146729 0.34820557 -0.38253784 0.7142868 -0.5731201 1.0979309c-0.38116455 0.7672882 -0.760376 1.6047897 -1.1373596 2.5099335c-0.75393677 1.8102646 -1.4986877 3.891037 -2.2312317 6.2214966c-2.9303284 9.321854 -5.665436 22.638779 -8.009674 38.619095c-4.6884766 31.960632 -7.8134766 74.5748 -7.80954 117.18898c0.007873535 85.22833 12.531494 170.45667 25.062958 170.45667" fill-rule="evenodd" class="dark-stroke"/>
        <path stroke-width="2.0" stroke-linecap="butt" d="m348.19168 69.44684l-0.17236328 3.1761246l3.098053 -5.800644l-6.101837 2.4521637z" fill-rule="evenodd" class="dark-stroke color-a-fill"/>
        <path class="dark-fill" fill-opacity="0.0" d="m353.29382 134.20192c-12.5 0 -25.007874 50.566925 -25.0 101.13385c0.007873535 50.56694 12.531494 101.133865 25.062988 101.133865" fill-rule="evenodd"/>
        <path stroke-width="2.0" stroke-linejoin="round" stroke-linecap="butt" d="m347.43866 137.7652l-0.24255371 0.29666138c-0.09500122 0.119003296 -0.1899414 0.24057007 -0.284729 0.36470032c-0.18954468 0.24827576 -0.37860107 0.5067444 -0.56710815 0.77526855c-0.75393677 1.0740509 -1.4986877 2.3085938 -2.2312317 3.6912842c-2.9303284 5.5307465 -5.665436 13.431839 -8.009674 22.913132c-4.6884766 18.9626 -7.8134766 44.246063 -7.80954 69.529526c0.007873535 50.56694 12.531494 101.133865 25.062958 101.133865" fill-rule="evenodd" class="dark-stroke"/>
        <path stroke-width="2.0" stroke-linecap="butt" d="m347.43866 137.76521l-0.7520447 3.0906067l4.1095276 -5.133896l-6.4480896 1.2912292z" fill-rule="evenodd" class="dark-stroke color-a-fill"/>
        <path class="dark-fill" fill-opacity="0.0" d="m353.29382 64.869934c-12.5 0 -25.007874 67.897644 -25.0 135.79527c0.007873535 67.89763 12.531494 135.79527 25.062988 135.79527" fill-rule="evenodd"/>
        <path stroke-width="2.0" stroke-linejoin="round" stroke-linecap="butt" d="m347.84253 69.024864l-0.07467651 0.1111145c-0.09552002 0.14578247 -0.19091797 0.29510498 -0.28622437 0.44792175c-0.38116455 0.61125946 -0.760376 1.2784653 -1.1373596 1.9995422c-0.75393677 1.4421692 -1.4986877 3.099823 -2.2312317 4.956398c-2.9303284 7.4263077 -5.665436 18.035309 -8.009674 30.76612c-4.6884766 25.461617 -7.8134766 59.410423 -7.80954 93.359245c0.007873535 67.89763 12.531494 135.79527 25.062958 135.79527" fill-rule="evenodd" class="dark-stroke"/>
        <path stroke-width="2.0" stroke-linecap="butt" d="m347.84253 69.024864l-0.42538452 3.1522293l3.5513 -5.5347824l-6.278137 1.9571686z" fill-rule="evenodd" class="dark-stroke color-a-fill"/>
        <path class="dark-fill" fill-opacity="0.0" d="m353.29382 134.20192c-12.5 0 -25.007874 85.22835 -25.0 170.45668c0.007873535 85.22836 12.531494 170.4567 25.062988 170.4567" fill-rule="evenodd"/>
        <path stroke-width="2.0" stroke-linejoin="round" stroke-linecap="butt" d="m348.19168 138.77882l-0.13693237 0.24235535c-0.19146729 0.34820557 -0.38253784 0.7142792 -0.5731201 1.0979309c-0.38116455 0.76727295 -0.760376 1.6047821 -1.1373596 2.5099335c-0.75393677 1.810257 -1.4986877 3.891037 -2.2312317 6.2214966c-2.9303284 9.321854 -5.665436 22.638779 -8.009674 38.619095c-4.6884766 31.960632 -7.8134766 74.5748 -7.80954 117.188965c0.007873535 85.22833 12.531494 170.4567 25.062958 170.4567" fill-rule="evenodd" class="dark-stroke"/>
        <path stroke-width="2.0" stroke-linecap="butt" d="m348.19168 138.77881l-0.17236328 3.1761322l3.098053 -5.800644l-6.101837 2.4521637z" fill-rule="evenodd" class="dark-stroke color-a-fill"/>
        <path class="dark-fill" fill-opacity="0.0" d="m353.29382 203.53389c-12.5 0 -25.007874 50.56694 -25.0 101.133865c0.007873535 50.566925 12.531494 101.13385 25.062988 101.13385" fill-rule="evenodd"/>
        <path stroke-width="2.0" stroke-linejoin="round" stroke-linecap="butt" d="m347.43866 207.0972l-0.24255371 0.29664612c-0.09500122 0.11898804 -0.1899414 0.24057007 -0.284729 0.36470032c-0.18954468 0.2482605 -0.37860107 0.5067291 -0.56710815 0.7752533c-0.75393677 1.0740662 -1.4986877 2.3085938 -2.2312317 3.6912842c-2.9303284 5.5307617 -5.665436 13.431839 -8.009674 22.913147c-4.6884766 18.9626 -7.8134766 44.246048 -7.80954 69.529526c0.007873535 50.566895 12.531494 101.13385 25.062958 101.13385" fill-rule="evenodd" class="dark-stroke"/>
        <path stroke-width="2.0" stroke-linecap="butt" d="m347.43866 207.09718l-0.7520447 3.090622l4.1095276 -5.133911l-6.4480896 1.2912292z" fill-rule="evenodd" class="dark-stroke color-a-fill"/>
        <path class="dark-fill" fill-opacity="0.0" d="m353.29382 203.53389c-12.5 0 -25.007874 67.89763 -25.0 135.79527c0.007873535 67.897644 12.531494 135.79529 25.062988 135.79529" fill-rule="evenodd"/>
        <path stroke-width="2.0" stroke-linejoin="round" stroke-linecap="butt" d="m347.84253 207.68883l-0.07467651 0.11109924c-0.09552002 0.14579773 -0.19091797 0.29512024 -0.28622437 0.447937c-0.38116455 0.6112671 -0.760376 1.2784576 -1.1373596 1.9995575c-0.75393677 1.4421539 -1.4986877 3.0998077 -2.2312317 4.956375c-2.9303284 7.4263153 -5.665436 18.035309 -8.009674 30.766129c-4.6884766 25.461594 -7.8134766 59.410416 -7.80954 93.35924c0.007873535 67.89761 12.531494 135.79526 25.062958 135.79526" fill-rule="evenodd" class="dark-stroke"/>
        <path stroke-width="2.0" stroke-linecap="butt" d="m347.84253 207.68883l-0.42538452 3.1522217l3.5513 -5.534775l-6.278137 1.9571686z" fill-rule="evenodd" class="dark-stroke color-a-fill"/>
        <path class="dark-fill" fill-opacity="0.0" d="m172.32007 64.85681c45.24318 0 67.864334 0.01574707 90.48639 0.03149414c22.62204 0.01574707 45.244995 0.03149414 90.48999 0.03149414" fill-rule="evenodd"/>
        <path class="dark-stroke" stroke-width="2.0" stroke-linejoin="round" stroke-linecap="butt" d="m179.17424 64.85743l23.190079 0.002090454c8.836502 0.0017242432 16.612656 0.004180908 23.681854 0.007133484c14.138458 0.0059051514 25.44925 0.0137786865 36.760284 0.021652222c11.311005 0.007873535 22.622253 0.01574707 36.761383 0.021652222c7.06958 0.0029525757 14.846069 0.00541687 23.683014 0.0071411133l23.191406 0.002090454" fill-rule="evenodd"/>
        <path class="dark-fill dark-stroke" stroke-width="2.0" stroke-linecap="butt" d="m179.17424 64.85743l2.2493744 -2.2489662l-6.1797485 2.2486153l6.1793365 2.2497177z" fill-rule="evenodd"/>
        <path class="dark-fill dark-stroke" stroke-width="2.0" stroke-linecap="butt" d="m346.44226 64.91919l-2.2493896 2.2489624l6.1797485 -2.2486115l-6.1793213 -2.2497253z" fill-rule="evenodd"/>
        <path class="dark-fill" fill-opacity="0.0" d="m172.32007 64.85681c45.24318 0 67.864334 17.338585 90.48639 34.677162c22.62204 17.338585 45.244995 34.677162 90.48999 34.677162" fill-rule="evenodd"/>
        <path class="dark-stroke" stroke-width="2.0" stroke-linejoin="round" stroke-linecap="butt" d="m179.17287 64.99475l0.37065125 0.014785767c0.33465576 0.014411926 0.6680145 0.029823303 1.0000763 0.0462265c2.656479 0.13122559 5.230133 0.32595062 7.7264404 0.57993317c4.9926605 0.5079651 9.67601 1.2529831 14.094284 2.2011871c8.836502 1.8964081 16.612656 4.6055603 23.681854 7.8565445c14.138458 6.5019684 25.44925 15.171257 36.760284 23.840546c11.311005 8.669296 22.622253 17.338585 36.761383 23.840553c7.06958 3.2509842 14.846069 5.960144 23.683014 7.856552c4.4184875 0.9481964 9.102051 1.693222 14.09494 2.2011871c2.4964294 0.25398254 5.07016 0.44869995 7.7268066 0.57992554c0.33206177 0.016403198 0.6654358 0.031814575 1.000061 0.046218872l0.3710022 0.014801025" fill-rule="evenodd"/>
        <path class="dark-fill dark-stroke" stroke-width="2.0" stroke-linecap="butt" d="m179.17285 64.99475l2.2939758 -2.2034492l-6.2235413 2.1243477l6.133011 2.3730774z" fill-rule="evenodd"/>
        <path class="dark-fill dark-stroke" stroke-width="2.0" stroke-linecap="butt" d="m346.44363 134.07321l-2.2939758 2.2034607l6.2235413 -2.1243591l-6.133026 -2.3730621z" fill-rule="evenodd"/>
        <path class="dark-fill" fill-opacity="0.0" d="m172.32007 64.85681c45.24318 0 67.864334 34.66929 90.48639 69.33858c22.62204 34.669296 45.244995 69.33859 90.48999 69.33859" fill-rule="evenodd"/>
        <path class="dark-stroke" stroke-width="2.0" stroke-linejoin="round" stroke-linecap="butt" d="m179.1687 65.13229l0.3748169 0.029907227c0.33465576 0.028816223 0.6680145 0.059631348 1.0000763 0.092430115c2.656479 0.26239014 5.230133 0.651741 7.7264404 1.1595917c4.9926605 1.0157013 9.67601 2.505394 14.094284 4.401375c8.836502 3.791954 16.612656 9.20903 23.681854 15.709518c14.138458 13.000984 25.44925 30.335632 36.760284 47.670273c11.311005 17.334656 22.622253 34.669296 36.761383 47.670288c7.06958 6.5004883 14.846069 11.917557 23.683014 15.709518c4.4184875 1.8959808 9.102051 3.3856812 14.09494 4.401367c2.4964294 0.5078583 5.07016 0.89720154 7.7268066 1.1595917c0.33206177 0.032806396 0.6654358 0.06362915 1.000061 0.092437744l0.37512207 0.029922485" fill-rule="evenodd"/>
        <path class="dark-fill dark-stroke" stroke-width="2.0" stroke-linecap="butt" d="m179.1687 65.13229l2.3377533 -2.156952l-6.2649536 1.9989853l6.084152 2.4957123z" fill-rule="evenodd"/>
        <path class="dark-fill dark-stroke" stroke-width="2.0" stroke-linecap="butt" d="m346.44778 203.25851l-2.337738 2.1569672l6.264923 -1.9990082l-6.084137 -2.495697z" fill-rule="evenodd"/>
        <path class="dark-fill" fill-opacity="0.0" d="m172.32007 134.1888c45.24318 0 67.864334 -17.330711 90.48639 -34.661423c22.62204 -17.330711 45.244995 -34.661415 90.48999 -34.661415" fill-rule="evenodd"/>
        <path class="dark-stroke" stroke-width="2.0" stroke-linejoin="round" stroke-linecap="butt" d="m179.17287 134.05092l0.37065125 -0.014785767c0.33465576 -0.014404297 0.6680145 -0.029800415 1.0000763 -0.046203613c2.656479 -0.13116455 5.230133 -0.3257904 7.7264404 -0.57966614c4.9926605 -0.5077362 9.67601 -1.2524109 14.094284 -2.20018c8.836502 -1.8955536 16.612656 -4.6034775 23.681854 -7.8529816c14.138458 -6.499016 25.44925 -15.164375 36.760284 -23.829727c11.311005 -8.665352 22.622253 -17.330711 36.761383 -23.829727c7.06958 -3.249504 14.846069 -5.957428 23.683014 -7.852974c4.4184875 -0.9477768 9.102051 -1.6924515 14.09494 -2.2001877c2.4964294 -0.2538681 5.07016 -0.4485016 7.7268066 -0.57966614c0.33206177 -0.016395569 0.6654358 -0.031799316 1.000061 -0.046203613l0.3710022 -0.014793396" fill-rule="evenodd"/>
        <path class="dark-fill dark-stroke" stroke-width="2.0" stroke-linecap="butt" d="m179.17285 134.05092l2.203476 -2.2939606l-6.1330414 2.3730164l6.223526 2.124405z" fill-rule="evenodd"/>
        <path class="dark-fill dark-stroke" stroke-width="2.0" stroke-linecap="butt" d="m346.44363 65.00382l-2.2034607 2.293953l6.133026 -2.3730087l-6.2235107 -2.1244202z" fill-rule="evenodd"/>
        <path class="dark-fill" fill-opacity="0.0" d="m172.32007 134.1888c45.24318 0 67.864334 0.01574707 90.48639 0.03149414c22.62204 0.01574707 45.244995 0.03149414 90.48999 0.03149414" fill-rule="evenodd"/>
        <path class="dark-stroke" stroke-width="2.0" stroke-linejoin="round" stroke-linecap="butt" d="m179.17424 134.1894l23.190079 0.002090454c8.836502 0.0017242432 16.612656 0.004180908 23.681854 0.0071411133c14.138458 0.0059051514 25.44925 0.0137786865 36.760284 0.021652222c11.311005 0.007873535 22.622253 0.01574707 36.761383 0.021652222c7.06958 0.0029449463 14.846069 0.00541687 23.683014 0.0071411133l23.191406 0.002090454" fill-rule="evenodd"/>
        <path class="dark-fill dark-stroke" stroke-width="2.0" stroke-linecap="butt" d="m179.17424 134.1894l2.2493744 -2.2489624l-6.1797485 2.2486115l6.1793365 2.2497253z" fill-rule="evenodd"/>
        <path class="dark-fill dark-stroke" stroke-width="2.0" stroke-linecap="butt" d="m346.44226 134.25116l-2.2493896 2.2489777l6.1797485 -2.2486115l-6.1793213 -2.2497253z" fill-rule="evenodd"/>
        <path class="dark-fill" fill-opacity="0.0" d="m172.32007 134.1888c45.24318 0 67.864334 17.338577 90.48639 34.677155c22.62204 17.338593 45.244995 34.67717 90.48999 34.67717" fill-rule="evenodd"/>
        <path class="dark-stroke" stroke-width="2.0" stroke-linejoin="round" stroke-linecap="butt" d="m179.17287 134.32674l0.37065125 0.014785767c0.33465576 0.014404297 0.6680145 0.029815674 1.0000763 0.046218872c2.656479 0.13122559 5.230133 0.325943 7.7264404 0.57992554c4.9926605 0.50798035 9.67601 1.2529907 14.094284 2.2011871c8.836502 1.8964081 16.612656 4.6055756 23.681854 7.856552c14.138458 6.5019684 25.44925 15.171265 36.760284 23.840546c11.311005 8.669296 22.622253 17.338593 36.761383 23.84056c7.06958 3.2509766 14.846069 5.960129 23.683014 7.856537c4.4184875 0.94821167 9.102051 1.693222 14.09494 2.2011871c2.4964294 0.2539978 5.07016 0.4487152 7.7268066 0.57992554c0.33206177 0.016403198 0.6654358 0.031829834 1.000061 0.04623413l0.3710022 0.014801025" fill-rule="evenodd"/>
        <path class="dark-fill dark-stroke" stroke-width="2.0" stroke-linecap="butt" d="m179.17285 134.32674l2.2939758 -2.2034607l-6.2235413 2.1243591l6.133011 2.3730621z" fill-rule="evenodd"/>
        <path class="dark-fill dark-stroke" stroke-width="2.0" stroke-linecap="butt" d="m346.44363 203.4052l-2.2939758 2.2034454l6.2235413 -2.1243591l-6.133026 -2.3730621z" fill-rule="evenodd"/>
        <path class="dark-fill" fill-opacity="0.0" d="m172.32007 203.52077c45.24318 0 67.864334 -34.661407 90.48639 -69.32283c22.62204 -34.661415 45.244995 -69.32284 90.48999 -69.32284" fill-rule="evenodd"/>
        <path class="dark-stroke" stroke-width="2.0" stroke-linejoin="round" stroke-linecap="butt" d="m179.1687 203.24535l0.3748169 -0.029891968c0.33465576 -0.028808594 0.6680145 -0.05961609 1.0000763 -0.09240723c2.656479 -0.26234436 5.230133 -0.65159607 7.7264404 -1.1593475c4.9926605 -1.0154572 9.67601 -2.5048065 14.094284 -4.40036c8.836502 -3.791092 16.612656 -9.20694 23.681854 -15.705948c14.138458 -12.998032 25.44925 -30.32875 36.760284 -47.659454c11.311005 -17.330711 22.622253 -34.661415 36.761383 -47.659447c7.06958 -6.499016 14.846069 -11.914864 23.683014 -15.7059555c4.4184875 -1.895546 9.102051 -3.384903 14.09494 -4.4003754c2.4964294 -0.5077362 5.07016 -0.8970032 7.7268066 -1.1593323c0.33206177 -0.032791138 0.6654358 -0.06359863 1.000061 -0.09240723l0.37512207 -0.029922485" fill-rule="evenodd"/>
        <path class="dark-fill dark-stroke" stroke-width="2.0" stroke-linecap="butt" d="m179.1687 203.24535l2.1569824 -2.3377228l-6.0841675 2.4956665l6.264923 1.9990387z" fill-rule="evenodd"/>
        <path class="dark-fill dark-stroke" stroke-width="2.0" stroke-linecap="butt" d="m346.44778 65.1505l-2.1569824 2.3377228l6.0841675 -2.4956436l-6.2648926 -1.9990578z" fill-rule="evenodd"/>
        <path class="dark-fill" fill-opacity="0.0" d="m172.32007 203.52077c45.24318 0 67.864334 -17.330704 90.48639 -34.661407c22.62204 -17.330719 45.244995 -34.661423 90.48999 -34.661423" fill-rule="evenodd"/>
        <path class="dark-stroke" stroke-width="2.0" stroke-linejoin="round" stroke-linecap="butt" d="m179.17287 203.38289l0.37065125 -0.014785767c0.33465576 -0.014389038 0.6680145 -0.029800415 1.0000763 -0.046188354c2.656479 -0.13117981 5.230133 -0.32580566 7.7264404 -0.57966614c4.9926605 -0.50775146 9.67601 -1.2524261 14.094284 -2.2001953c8.836502 -1.8955383 16.612656 -4.60347 23.681854 -7.8529816c14.138458 -6.499008 25.44925 -15.164368 36.760284 -23.829712c11.311005 -8.6653595 22.622253 -17.330719 36.761383 -23.829727c7.06958 -3.2495117 14.846069 -5.957428 23.683014 -7.8529816c4.4184875 -0.94776917 9.102051 -1.6924438 14.09494 -2.2001953c2.4964294 -0.25386047 5.07016 -0.44848633 7.7268066 -0.57966614c0.33206177 -0.01638794 0.6654358 -0.031784058 1.000061 -0.046188354l0.3710022 -0.014801025" fill-rule="evenodd"/>
        <path class="dark-fill dark-stroke" stroke-width="2.0" stroke-linecap="butt" d="m179.17285 203.3829l2.203476 -2.2939606l-6.1330414 2.3730164l6.223526 2.124405z" fill-rule="evenodd"/>
        <path class="dark-fill dark-stroke" stroke-width="2.0" stroke-linecap="butt" d="m346.44363 134.3358l-2.2034607 2.2939453l6.133026 -2.373001l-6.2235107 -2.1244202z" fill-rule="evenodd"/>
        <path class="dark-fill" fill-opacity="0.0" d="m172.32007 203.52077c45.24318 0 67.864334 0.01574707 90.48639 0.03149414c22.62204 0.01574707 45.244995 0.0315094 90.48999 0.0315094" fill-rule="evenodd"/>
        <path class="dark-stroke" stroke-width="2.0" stroke-linejoin="round" stroke-linecap="butt" d="m179.17424 203.5214l23.190079 0.002090454c8.836502 0.0017242432 16.612656 0.004180908 23.681854 0.0071258545c14.138458 0.0059051514 25.44925 0.0137786865 36.760284 0.021652222c11.311005 0.007873535 22.622253 0.01574707 36.761383 0.02166748c7.06958 0.0029449463 14.846069 0.0054016113 23.683014 0.0071258545l23.191406 0.002090454" fill-rule="evenodd"/>
        <path class="dark-fill dark-stroke" stroke-width="2.0" stroke-linecap="butt" d="m179.17424 203.5214l2.2493744 -2.2489624l-6.1797485 2.2486115l6.1793365 2.24971z" fill-rule="evenodd"/>
        <path class="dark-fill dark-stroke" stroke-width="2.0" stroke-linecap="butt" d="m346.44226 203.58315l-2.2493896 2.2489624l6.1797485 -2.2486115l-6.1793213 -2.2497253z" fill-rule="evenodd"/>
        <path d="m579.50116 64.88306l0 0c0 -12.506859 10.138794 -22.645668 22.64569 -22.645668l0 0c6.0059814 0 11.765991 2.3858757 16.012878 6.632763c4.246887 4.246887 6.6327515 10.006901 6.6327515 16.012905l0 0c0 12.506859 -10.138794 22.645668 -22.64563 22.645668l0 0c-12.506897 0 -22.64569 -10.138809 -22.64569 -22.645668z" fill-rule="evenodd" class="color-b-fill"/>
        <path class="dark-stroke" stroke-width="3.0" stroke-linejoin="round" stroke-linecap="butt" d="m579.50116 64.88306l0 0c0 -12.506859 10.138794 -22.645668 22.64569 -22.645668l0 0c6.0059814 0 11.765991 2.3858757 16.012878 6.632763c4.246887 4.246887 6.6327515 10.006901 6.6327515 16.012905l0 0c0 12.506859 -10.138794 22.645668 -22.64563 22.645668l0 0c-12.506897 0 -22.64569 -10.138809 -22.64569 -22.645668z" fill-rule="evenodd"/>
        <path d="m579.50116 134.21504l0 0c0 -12.506859 10.138794 -22.645676 22.64569 -22.645676l0 0c6.0059814 0 11.765991 2.3858795 16.012878 6.6327667c4.246887 4.246887 6.6327515 10.006897 6.6327515 16.012909l0 0c0 12.506851 -10.138794 22.64566 -22.64563 22.64566l0 0c-12.506897 0 -22.64569 -10.138809 -22.64569 -22.64566z" fill-rule="evenodd" class="color-b-fill"/>
        <path class="dark-stroke" stroke-width="3.0" stroke-linejoin="round" stroke-linecap="butt" d="m579.50116 134.21504l0 0c0 -12.506859 10.138794 -22.645676 22.64569 -22.645676l0 0c6.0059814 0 11.765991 2.3858795 16.012878 6.6327667c4.246887 4.246887 6.6327515 10.006897 6.6327515 16.012909l0 0c0 12.506851 -10.138794 22.64566 -22.64563 22.64566l0 0c-12.506897 0 -22.64569 -10.138809 -22.64569 -22.64566z" fill-rule="evenodd"/>
        <path d="m579.50116 203.54701l0 0c0 -12.506851 10.138794 -22.64566 22.64569 -22.64566l0 0c6.0059814 0 11.765991 2.3858795 16.012878 6.6327667c4.246887 4.246887 6.6327515 10.006897 6.6327515 16.012894l0 0c0 12.506866 -10.138794 22.645676 -22.64563 22.645676l0 0c-12.506897 0 -22.64569 -10.138809 -22.64569 -22.645676z" fill-rule="evenodd" class="color-b-fill"/>
        <path class="dark-stroke" stroke-width="3.0" stroke-linejoin="round" stroke-linecap="butt" d="m579.50116 203.54701l0 0c0 -12.506851 10.138794 -22.64566 22.64569 -22.64566l0 0c6.0059814 0 11.765991 2.3858795 16.012878 6.6327667c4.246887 4.246887 6.6327515 10.006897 6.6327515 16.012894l0 0c0 12.506866 -10.138794 22.645676 -22.64563 22.645676l0 0c-12.506897 0 -22.64569 -10.138809 -22.64569 -22.645676z" fill-rule="evenodd"/>
        <path d="m579.50116 336.47662l0 0c0 -12.506866 10.138855 -22.64566 22.64569 -22.64566l0 0c6.0059814 0 11.765991 2.3858643 16.012878 6.6327515c4.246887 4.246887 6.6328125 10.006897 6.6328125 16.012909l0 0c0 12.506866 -10.138855 22.64566 -22.64569 22.64566l0 0c-12.506836 0 -22.64569 -10.138794 -22.64569 -22.64566z" fill-rule="evenodd" class="color-a-fill"/>
        <path class="dark-stroke" stroke-width="3.0" stroke-linejoin="round" stroke-linecap="butt" d="m579.50116 336.47662l0 0c0 -12.506866 10.138855 -22.64566 22.64569 -22.64566l0 0c6.0059814 0 11.765991 2.3858643 16.012878 6.6327515c4.246887 4.246887 6.6328125 10.006897 6.6328125 16.012909l0 0c0 12.506866 -10.138855 22.64566 -22.64569 22.64566l0 0c-12.506836 0 -22.64569 -10.138794 -22.64569 -22.64566z" fill-rule="evenodd"/>
        <path d="m579.50116 405.80276l0 0c0 -12.506836 10.138855 -22.64566 22.64569 -22.64566l0 0c6.0059814 0 11.765991 2.3858948 16.012878 6.632782c4.246887 4.246887 6.6328125 10.006897 6.6328125 16.012878l0 0c0 12.506866 -10.138855 22.64569 -22.64569 22.64569l0 0c-12.506836 0 -22.64569 -10.138824 -22.64569 -22.64569z" fill-rule="evenodd" class="color-a-fill"/>
        <path class="dark-stroke" stroke-width="3.0" stroke-linejoin="round" stroke-linecap="butt" d="m579.50116 405.80276l0 0c0 -12.506836 10.138855 -22.64566 22.64569 -22.64566l0 0c6.0059814 0 11.765991 2.3858948 16.012878 6.632782c4.246887 4.246887 6.6328125 10.006897 6.6328125 16.012878l0 0c0 12.506866 -10.138855 22.64569 -22.64569 22.64569l0 0c-12.506836 0 -22.64569 -10.138824 -22.64569 -22.64569z" fill-rule="evenodd"/>
        <path d="m579.50116 475.12894l0 0c0 -12.506866 10.138855 -22.64566 22.64569 -22.64566l0 0c6.0059814 0 11.765991 2.3858643 16.012878 6.6327515c4.246887 4.246887 6.6328125 10.006897 6.6328125 16.012909l0 0c0 12.506866 -10.138855 22.64566 -22.64569 22.64566l0 0c-12.506836 0 -22.64569 -10.138794 -22.64569 -22.64566z" fill-rule="evenodd" class="color-a-fill"/>
        <path class="dark-stroke" stroke-width="3.0" stroke-linejoin="round" stroke-linecap="butt" d="m579.50116 475.12894l0 0c0 -12.506866 10.138855 -22.64566 22.64569 -22.64566l0 0c6.0059814 0 11.765991 2.3858643 16.012878 6.6327515c4.246887 4.246887 6.6328125 10.006897 6.6328125 16.012909l0 0c0 12.506866 -10.138855 22.64566 -22.64569 22.64566l0 0c-12.506836 0 -22.64569 -10.138794 -22.64569 -22.64566z" fill-rule="evenodd"/>
        <path class="dark-fill" fill-opacity="0.0" d="m579.50116 64.88306c-12.5 0 -25.007874 102.55905 -25.0 205.1181c0.007873535 102.55905 12.531494 205.1181 25.062988 205.1181" fill-rule="evenodd"/>
        <path stroke-width="2.0" stroke-linejoin="round" stroke-linecap="butt" d="m574.6975 69.77232l-0.14794922 0.29763794c-0.09588623 0.19869232 -0.19177246 0.4028244 -0.2874756 0.6123276c-0.19152832 0.41900635 -0.38250732 0.8595276 -0.5731201 1.3211899c-0.38116455 0.9233017 -0.760376 1.9311218 -1.1373291 3.0203094c-0.7539673 2.1783752 -1.4987183 4.6822586 -2.2312622 7.4866104c-2.9302979 11.217392 -5.6654663 27.242249 -8.009705 46.47207c-4.6884766 38.45964 -7.8134766 89.73917 -7.8095093 141.01869c0.007873535 102.55905 12.531494 205.1181 25.062988 205.1181" fill-rule="evenodd" class="dark-stroke"/>
        <path stroke-width="2.0" stroke-linecap="butt" d="m574.6975 69.77232l0.028137207 3.1806793l2.7263794 -5.984314l-5.9351807 2.8317413z" fill-rule="evenodd" class="dark-stroke color-a-fill"/>
        <path class="dark-fill" fill-opacity="0.0" d="m579.50116 134.21504c-12.5 0 -25.007874 67.89763 -25.0 135.79527c0.007873535 67.897644 12.531494 135.79529 25.062988 135.79529" fill-rule="evenodd"/>
        <path stroke-width="2.0" stroke-linejoin="round" stroke-linecap="butt" d="m574.04987 138.36996l-0.07470703 0.1111145c-0.095458984 0.14578247 -0.19091797 0.29510498 -0.28619385 0.44792175c-0.38116455 0.6112671 -0.760376 1.2784729 -1.1373291 1.9995422c-0.7539673 1.4421692 -1.4987183 3.099823 -2.2312622 4.9564056c-2.9302979 7.4263 -5.6654663 18.035309 -8.009705 30.766113c-4.6884766 25.461609 -7.8134766 59.41043 -7.8095093 93.35925c0.007873535 67.897644 12.531494 135.79526 25.062988 135.79526" fill-rule="evenodd" class="dark-stroke"/>
        <path stroke-width="2.0" stroke-linecap="butt" d="m574.04987 138.36996l-0.425354 3.1522217l3.5512695 -5.534775l-6.278137 1.9571533z" fill-rule="evenodd" class="dark-stroke color-a-fill"/>
        <path class="dark-fill" fill-opacity="0.0" d="m579.50116 203.54701c-12.5 0 -25.007874 33.23622 -25.0 66.47246c0.007873535 33.236206 12.531494 66.47244 25.062988 66.47244" fill-rule="evenodd"/>
        <path stroke-width="2.0" stroke-linejoin="round" stroke-linecap="butt" d="m573.2035 206.2524l-0.08477783 0.07136536c-0.1895752 0.16317749 -0.37860107 0.33306885 -0.56707764 0.509552c-0.7539673 0.7059479 -1.4987183 1.5173645 -2.2312622 2.426178c-2.9302979 3.6352081 -5.6654663 8.828369 -8.009705 15.060165c-4.6884766 12.463577 -7.8134766 29.081696 -7.8095093 45.699814c0.007873535 33.236206 12.531494 66.47244 25.062988 66.47244" fill-rule="evenodd" class="dark-stroke"/>
        <path stroke-width="2.0" stroke-linecap="butt" d="m573.2035 206.25241l-1.178772 2.9543152l4.790039 -4.505661l-6.565613 0.3725586z" fill-rule="evenodd" class="dark-stroke color-a-fill"/>
        <path class="dark-fill" fill-opacity="0.0" d="m579.50116 64.88306c-12.5 0 -25.007874 85.22835 -25.0 170.4567c0.007873535 85.22833 12.531494 170.4567 25.062988 170.4567" fill-rule="evenodd"/>
        <path stroke-width="2.0" stroke-linejoin="round" stroke-linecap="butt" d="m574.39905 69.45995l-0.13696289 0.24236298c-0.19152832 0.34820557 -0.38250732 0.7142868 -0.5731201 1.0979309c-0.38116455 0.7672882 -0.760376 1.6047897 -1.1373291 2.5099335c-0.7539673 1.8102646 -1.4987183 3.891037 -2.2312622 6.2214966c-2.9302979 9.321854 -5.6654663 22.638786 -8.009705 38.619095c-4.6884766 31.960632 -7.8134766 74.5748 -7.8095093 117.18898c0.007873535 85.22833 12.531494 170.45667 25.062988 170.45667" fill-rule="evenodd" class="dark-stroke"/>
        <path stroke-width="2.0" stroke-linecap="butt" d="m574.39905 69.45995l-0.17236328 3.1761322l3.0980225 -5.800644l-6.1018066 2.452156z" fill-rule="evenodd" class="dark-stroke color-a-fill"/>
        <path class="dark-fill" fill-opacity="0.0" d="m579.50116 134.21504c-12.5 0 -25.007874 50.566925 -25.0 101.13385c0.007873535 50.56694 12.531494 101.133865 25.062988 101.133865" fill-rule="evenodd"/>
        <path stroke-width="2.0" stroke-linejoin="round" stroke-linecap="butt" d="m573.646 137.77834l-0.24255371 0.29664612c-0.09503174 0.119003296 -0.1899414 0.24057007 -0.284729 0.36470032c-0.1895752 0.24827576 -0.37860107 0.5067444 -0.56707764 0.77526855c-0.7539673 1.0740509 -1.4987183 2.3085938 -2.2312622 3.6912842c-2.9302979 5.5307465 -5.6654663 13.431839 -8.009705 22.913132c-4.6884766 18.9626 -7.8134766 44.246063 -7.8095093 69.529526c0.007873535 50.56694 12.531494 101.133865 25.062988 101.133865" fill-rule="evenodd" class="dark-stroke"/>
        <path stroke-width="2.0" stroke-linecap="butt" d="m573.646 137.77832l-0.7520752 3.090622l4.109558 -5.133896l-6.448059 1.291214z" fill-rule="evenodd" class="dark-stroke color-a-fill"/>
        <path class="dark-fill" fill-opacity="0.0" d="m579.50116 64.88306c-12.5 0 -25.007874 67.897644 -25.0 135.79527c0.007873535 67.89763 12.531494 135.79527 25.062988 135.79527" fill-rule="evenodd"/>
        <path stroke-width="2.0" stroke-linejoin="round" stroke-linecap="butt" d="m574.04987 69.03798l-0.07470703 0.11112213c-0.095458984 0.14578247 -0.19091797 0.29510498 -0.28619385 0.44792175c-0.38116455 0.61125946 -0.760376 1.2784653 -1.1373291 1.9995499c-0.7539673 1.4421616 -1.4987183 3.0998154 -2.2312622 4.9563904c-2.9302979 7.4263077 -5.6654663 18.035309 -8.009705 30.76612c-4.6884766 25.461617 -7.8134766 59.41044 -7.8095093 93.359245c0.007873535 67.89763 12.531494 135.79527 25.062988 135.79527" fill-rule="evenodd" class="dark-stroke"/>
        <path stroke-width="2.0" stroke-linecap="butt" d="m574.04987 69.03798l-0.425354 3.1522293l3.5512695 -5.534775l-6.278137 1.957161z" fill-rule="evenodd" class="dark-stroke color-a-fill"/>
        <path class="dark-fill" fill-opacity="0.0" d="m579.50116 134.21504c-12.5 0 -25.007874 85.22835 -25.0 170.45668c0.007873535 85.22836 12.531494 170.4567 25.062988 170.4567" fill-rule="evenodd"/>
        <path stroke-width="2.0" stroke-linejoin="round" stroke-linecap="butt" d="m574.39905 138.79193l-0.13696289 0.2423706c-0.19152832 0.34820557 -0.38250732 0.7142792 -0.5731201 1.0979309c-0.38116455 0.7672882 -0.760376 1.6047821 -1.1373291 2.5099335c-0.7539673 1.810257 -1.4987183 3.891037 -2.2312622 6.2214966c-2.9302979 9.321854 -5.6654663 22.638779 -8.009705 38.619095c-4.6884766 31.960632 -7.8134766 74.5748 -7.8095093 117.188965c0.007873535 85.22833 12.531494 170.4567 25.062988 170.4567" fill-rule="evenodd" class="dark-stroke"/>
        <path stroke-width="2.0" stroke-linecap="butt" d="m574.39905 138.79193l-0.17236328 3.1761322l3.0980225 -5.800644l-6.1018066 2.4521637z" fill-rule="evenodd" class="dark-stroke color-a-fill"/>
        <path class="dark-fill" fill-opacity="0.0" d="m579.50116 203.54701c-12.5 0 -25.007874 50.56694 -25.0 101.133865c0.007873535 50.566925 12.531494 101.13385 25.062988 101.13385" fill-rule="evenodd"/>
        <path stroke-width="2.0" stroke-linejoin="round" stroke-linecap="butt" d="m573.646 207.11029l-0.24255371 0.29667664c-0.09503174 0.11898804 -0.1899414 0.24057007 -0.284729 0.36470032c-0.1895752 0.2482605 -0.37860107 0.5067291 -0.56707764 0.7752533c-0.7539673 1.0740662 -1.4987183 2.3085938 -2.2312622 3.6912842c-2.9302979 5.5307617 -5.6654663 13.431839 -8.009705 22.913147c-4.6884766 18.9626 -7.8134766 44.246048 -7.8095093 69.529526c0.007873535 50.566895 12.531494 101.13385 25.062988 101.13385" fill-rule="evenodd" class="dark-stroke"/>
        <path stroke-width="2.0" stroke-linecap="butt" d="m573.646 207.1103l-0.7520752 3.090622l4.109558 -5.133911l-6.448059 1.2912292z" fill-rule="evenodd" class="dark-stroke color-a-fill"/>
        <path class="dark-fill" fill-opacity="0.0" d="m579.50116 203.54701c-12.5 0 -25.007874 67.89763 -25.0 135.79527c0.007873535 67.897644 12.531494 135.79529 25.062988 135.79529" fill-rule="evenodd"/>
        <path stroke-width="2.0" stroke-linejoin="round" stroke-linecap="butt" d="m574.04987 207.70193l-0.07470703 0.1111145c-0.095458984 0.14579773 -0.19091797 0.29512024 -0.28619385 0.447937c-0.38116455 0.6112671 -0.760376 1.2784729 -1.1373291 1.9995575c-0.7539673 1.4421539 -1.4987183 3.099823 -2.2312622 4.956375c-2.9302979 7.4263153 -5.6654663 18.035309 -8.009705 30.766129c-4.6884766 25.461594 -7.8134766 59.410416 -7.8095093 93.35924c0.007873535 67.89761 12.531494 135.79526 25.062988 135.79526" fill-rule="evenodd" class="dark-stroke"/>
        <path stroke-width="2.0" stroke-linecap="butt" d="m574.04987 207.70193l-0.425354 3.152237l3.5512695 -5.534775l-6.278137 1.9571533z" fill-rule="evenodd" class="dark-stroke color-a-fill"/>
        <path class="dark-fill" fill-opacity="0.0" d="m398.52478 64.82007c45.24411 0 67.86615 0.01574707 90.48819 0.03149414c22.62207 0.01574707 45.24411 0.03149414 90.48819 0.03149414" fill-rule="evenodd"/>
        <path class="dark-stroke" stroke-width="2.0" stroke-linejoin="round" stroke-linecap="butt" d="m405.37894 64.82068l23.190735 0.0020980835c8.836731 0.0017166138 16.613068 0.004180908 23.682465 0.007133484c14.138763 0.0059051514 25.449799 0.0137786865 36.760834 0.021652222c11.311005 0.007873535 22.62204 0.01574707 36.760834 0.021652222c7.069397 0.0029525757 14.845703 0.00541687 23.682434 0.007133484l23.190735 0.0020980835" fill-rule="evenodd"/>
        <path class="dark-fill dark-stroke" stroke-width="2.0" stroke-linecap="butt" d="m405.37894 64.82069l2.2493896 -2.2489662l-6.1797485 2.2486076l6.1793213 2.2497253z" fill-rule="evenodd"/>
        <path class="dark-fill dark-stroke" stroke-width="2.0" stroke-linecap="butt" d="m572.647 64.88244l-2.2493896 2.24897l6.1797485 -2.2486115l-6.1793213 -2.2497253z" fill-rule="evenodd"/>
        <path class="dark-fill" fill-opacity="0.0" d="m398.52478 64.86071c45.24411 0 67.86615 17.338577 90.48819 34.677162c22.62207 17.338585 45.24411 34.67717 90.48819 34.67717" fill-rule="evenodd"/>
        <path class="dark-stroke" stroke-width="2.0" stroke-linejoin="round" stroke-linecap="butt" d="m405.37753 64.99864l0.3708191 0.014793396c0.33468628 0.014411926 0.6680298 0.029823303 1.0000916 0.0462265c2.6565857 0.13121796 5.2302856 0.325943 7.7266235 0.57992554c4.9927673 0.5079651 9.67627 1.2529831 14.0946045 2.2011871c8.836731 1.8964081 16.613068 4.6055603 23.682465 7.8565445c14.138763 6.5019684 25.449799 15.171265 36.760834 23.840553c11.311005 8.669289 22.62204 17.338585 36.760834 23.840553c7.069397 3.2509842 14.845703 5.9601364 23.682434 7.8565445c4.418335 0.9481964 9.101807 1.693222 14.0946045 2.2011871c2.496338 0.25398254 5.0700684 0.44869995 7.7266235 0.57992554c0.3320923 0.016403198 0.6654053 0.031814575 1.0001221 0.046218872l0.37078857 0.014801025" fill-rule="evenodd"/>
        <path class="dark-fill dark-stroke" stroke-width="2.0" stroke-linecap="butt" d="m405.37756 64.99864l2.2939758 -2.203453l-6.223572 2.1243591l6.133026 2.3730621z" fill-rule="evenodd"/>
        <path class="dark-fill dark-stroke" stroke-width="2.0" stroke-linecap="butt" d="m572.6484 134.0771l-2.2940063 2.2034607l6.223572 -2.1243591l-6.1330566 -2.3730774z" fill-rule="evenodd"/>
        <path class="dark-fill" fill-opacity="0.0" d="m398.52478 64.86985c45.24411 0 67.86615 34.669296 90.48819 69.338585c22.62207 34.669296 45.24411 69.33858 90.48819 69.33858" fill-rule="evenodd"/>
        <path class="dark-stroke" stroke-width="2.0" stroke-linejoin="round" stroke-linecap="butt" d="m405.3734 65.14532l0.37493896 0.029922485c0.33468628 0.028816223 0.6680298 0.059631348 1.0000916 0.092430115c2.6565857 0.26239014 5.2302856 0.651741 7.7266235 1.1595917c4.9927673 1.0157013 9.67627 2.5054016 14.0946045 4.401375c8.836731 3.791954 16.613068 9.20903 23.682465 15.709526c14.138763 13.000984 25.449799 30.335625 36.760834 47.670273c11.311005 17.33464 22.62204 34.669296 36.760834 47.670273c7.069397 6.5004883 14.845703 11.917572 23.682434 15.709534c4.418335 1.8959656 9.101807 3.3856812 14.0946045 4.401367c2.496338 0.507843 5.0700684 0.89720154 7.7266235 1.1595917c0.3320923 0.032806396 0.6654053 0.06362915 1.0001221 0.092437744l0.37493896 0.029907227" fill-rule="evenodd"/>
        <path class="dark-fill dark-stroke" stroke-width="2.0" stroke-linecap="butt" d="m405.3734 65.145325l2.337738 -2.1569595l-6.2649536 1.9989929l6.0841675 2.4957123z" fill-rule="evenodd"/>
        <path class="dark-fill dark-stroke" stroke-width="2.0" stroke-linecap="butt" d="m572.6525 203.27155l-2.3377686 2.1569672l6.2649536 -1.9990082l-6.0841675 -2.495697z" fill-rule="evenodd"/>
        <path class="dark-fill" fill-opacity="0.0" d="m398.52478 134.20589c45.24411 0 67.86615 -17.330704 90.48819 -34.661415c22.62207 -17.330704 45.24411 -34.661415 90.48819 -34.661415" fill-rule="evenodd"/>
        <path class="dark-stroke" stroke-width="2.0" stroke-linejoin="round" stroke-linecap="butt" d="m405.37753 134.06802l0.3708191 -0.014785767c0.33468628 -0.014404297 0.6680298 -0.029815674 1.0000916 -0.046203613c2.6565857 -0.13117981 5.2302856 -0.32580566 7.7266235 -0.57966614c4.9927673 -0.5077362 9.67627 -1.2524109 14.0946045 -2.2001953c8.836731 -1.8955383 16.613068 -4.603462 23.682465 -7.852974c14.138763 -6.499016 25.449799 -15.164368 36.760834 -23.82972c11.311005 -8.6653595 22.62204 -17.330711 36.760834 -23.829727c7.069397 -3.2495117 14.845703 -5.9574356 23.682434 -7.8529816c4.418335 -0.94776917 9.101807 -1.6924515 14.0946045 -2.2001877c2.496338 -0.2538681 5.0700684 -0.44849396 7.7266235 -0.5796585c0.3320923 -0.016403198 0.6654053 -0.031806946 1.0001221 -0.046203613l0.37078857 -0.014793396" fill-rule="evenodd"/>
        <path class="dark-fill dark-stroke" stroke-width="2.0" stroke-linecap="butt" d="m405.37756 134.06802l2.2034607 -2.2939453l-6.133026 2.373001l6.2235107 2.1244202z" fill-rule="evenodd"/>
        <path class="dark-fill dark-stroke" stroke-width="2.0" stroke-linecap="butt" d="m572.6484 65.02093l-2.2034912 2.293953l6.1330566 -2.3730087l-6.2235107 -2.1244164z" fill-rule="evenodd"/>
        <path class="dark-fill" fill-opacity="0.0" d="m398.52478 134.15204c45.24411 0 67.86615 0.01576233 90.48819 0.0315094c22.62207 0.01574707 45.24411 0.03149414 90.48819 0.03149414" fill-rule="evenodd"/>
        <path class="dark-stroke" stroke-width="2.0" stroke-linejoin="round" stroke-linecap="butt" d="m405.37894 134.15266l23.190735 0.002090454c8.836731 0.0017242432 16.613068 0.004180908 23.682465 0.0071411133c14.138763 0.0059051514 25.449799 0.0137786865 36.760834 0.021652222c11.311005 0.007873535 22.62204 0.01574707 36.760834 0.021652222c7.069397 0.0029449463 14.845703 0.0054016113 23.682434 0.0071258545l23.190735 0.002090454" fill-rule="evenodd"/>
        <path class="dark-fill dark-stroke" stroke-width="2.0" stroke-linecap="butt" d="m405.37894 134.15266l2.2493896 -2.2489624l-6.1797485 2.2486115l6.1793213 2.2497253z" fill-rule="evenodd"/>
        <path class="dark-fill dark-stroke" stroke-width="2.0" stroke-linecap="butt" d="m572.647 134.21442l-2.2493896 2.2489624l6.1797485 -2.2485962l-6.1793213 -2.2497253z" fill-rule="evenodd"/>
        <path class="dark-fill" fill-opacity="0.0" d="m398.52478 134.19269c45.24411 0 67.86615 17.338577 90.48819 34.67717c22.62207 17.338577 45.24411 34.677155 90.48819 34.677155" fill-rule="evenodd"/>
        <path class="dark-stroke" stroke-width="2.0" stroke-linejoin="round" stroke-linecap="butt" d="m405.37753 134.33061l0.3708191 0.014816284c0.33468628 0.014404297 0.6680298 0.029800415 1.0000916 0.046218872c2.6565857 0.13121033 5.2302856 0.32592773 7.7266235 0.57992554c4.9927673 0.5079651 9.67627 1.2529755 14.0946045 2.2011871c8.836731 1.8964081 16.613068 4.6055603 23.682465 7.856537c14.138763 6.5019684 25.449799 15.171265 36.760834 23.84056c11.311005 8.669281 22.62204 17.338577 36.760834 23.840546c7.069397 3.2509918 14.845703 5.960144 23.682434 7.856552c4.418335 0.9481964 9.101807 1.693222 14.0946045 2.2011719c2.496338 0.2539978 5.0700684 0.4487152 7.7266235 0.57992554c0.3320923 0.016403198 0.6654053 0.031829834 1.0001221 0.04624939l0.37078857 0.014770508" fill-rule="evenodd"/>
        <path class="dark-fill dark-stroke" stroke-width="2.0" stroke-linecap="butt" d="m405.37756 134.33061l2.2939758 -2.2034454l-6.223572 2.1243591l6.133026 2.3730621z" fill-rule="evenodd"/>
        <path class="dark-fill dark-stroke" stroke-width="2.0" stroke-linecap="butt" d="m572.6484 203.40909l-2.2940063 2.2034454l6.223572 -2.1243591l-6.1330566 -2.3730621z" fill-rule="evenodd"/>
        <path class="dark-fill" fill-opacity="0.0" d="m398.52478 203.52873c45.24411 0 67.86615 -34.661423 90.48819 -69.322845c22.62207 -34.661415 45.24411 -69.32283 90.48819 -69.32283" fill-rule="evenodd"/>
        <path class="dark-stroke" stroke-width="2.0" stroke-linejoin="round" stroke-linecap="butt" d="m405.3734 203.25333l0.37493896 -0.029922485c0.33468628 -0.028808594 0.6680298 -0.05960083 1.0000916 -0.09239197c2.6565857 -0.26234436 5.2302856 -0.65159607 7.7266235 -1.1593475c4.9927673 -1.0154572 9.67627 -2.5048218 14.0946045 -4.40036c8.836731 -3.7911072 16.613068 -9.20694 23.682465 -15.705963c14.138763 -12.998032 25.449799 -30.328735 36.760834 -47.659454c11.311005 -17.330704 22.62204 -34.661407 36.760834 -47.65944c7.069397 -6.499016 14.845703 -11.914864 23.682434 -15.7059555c4.418335 -1.895546 9.101807 -3.384903 14.0946045 -4.4003754c2.496338 -0.5077362 5.0700684 -0.8970032 7.7266235 -1.1593323c0.3320923 -0.032791138 0.6654053 -0.06359863 1.0001221 -0.09240723l0.37493896 -0.029914856" fill-rule="evenodd"/>
        <path class="dark-fill dark-stroke" stroke-width="2.0" stroke-linecap="butt" d="m405.3734 203.25333l2.1569824 -2.3377228l-6.0841675 2.495636l6.2648926 1.999054z" fill-rule="evenodd"/>
        <path class="dark-fill dark-stroke" stroke-width="2.0" stroke-linecap="butt" d="m572.6525 65.15846l-2.1569824 2.3377304l6.0841675 -2.4956512l-6.2649536 -1.999054z" fill-rule="evenodd"/>
        <path class="dark-fill" fill-opacity="0.0" d="m398.52478 203.53787c45.24411 0 67.86615 -17.330704 90.48819 -34.661423c22.62207 -17.330704 45.24411 -34.661407 90.48819 -34.661407" fill-rule="evenodd"/>
        <path class="dark-stroke" stroke-width="2.0" stroke-linejoin="round" stroke-linecap="butt" d="m405.37753 203.4l0.3708191 -0.014785767c0.33468628 -0.014389038 0.6680298 -0.029815674 1.0000916 -0.046188354c2.6565857 -0.13117981 5.2302856 -0.32582092 7.7266235 -0.57966614c4.9927673 -0.50775146 9.67627 -1.2524261 14.0946045 -2.2001953c8.836731 -1.8955536 16.613068 -4.60347 23.682465 -7.8529816c14.138763 -6.499008 25.449799 -15.164368 36.760834 -23.829727c11.311005 -8.665344 22.62204 -17.330704 36.760834 -23.829712c7.069397 -3.2495117 14.845703 -5.957443 23.682434 -7.8529816c4.418335 -0.94776917 9.101807 -1.6924591 14.0946045 -2.2001953c2.496338 -0.25386047 5.0700684 -0.44848633 7.7266235 -0.57966614c0.3320923 -0.01638794 0.6654053 -0.031784058 1.0001221 -0.046188354l0.37078857 -0.014801025" fill-rule="evenodd"/>
        <path class="dark-fill dark-stroke" stroke-width="2.0" stroke-linecap="butt" d="m405.37756 203.40001l2.2034607 -2.2939606l-6.133026 2.3730164l6.2235107 2.124405z" fill-rule="evenodd"/>
        <path class="dark-fill dark-stroke" stroke-width="2.0" stroke-linecap="butt" d="m572.6484 134.3529l-2.2034912 2.2939606l6.1330566 -2.3730164l-6.2235107 -2.1244202z" fill-rule="evenodd"/>
        <path class="dark-fill" fill-opacity="0.0" d="m398.52478 203.48402c45.24411 0 67.86615 0.01574707 90.48819 0.03149414c22.62207 0.01574707 45.24411 0.03149414 90.48819 0.03149414" fill-rule="evenodd"/>
        <path class="dark-stroke" stroke-width="2.0" stroke-linejoin="round" stroke-linecap="butt" d="m405.37894 203.48463l23.190735 0.002105713c8.836731 0.0017089844 16.613068 0.004180908 23.682465 0.0071258545c14.138763 0.0059051514 25.449799 0.0137786865 36.760834 0.021652222c11.311005 0.007873535 22.62204 0.01574707 36.760834 0.021652222c7.069397 0.002960205 14.845703 0.00541687 23.682434 0.0071411133l23.190735 0.002090454" fill-rule="evenodd"/>
        <path class="dark-fill dark-stroke" stroke-width="2.0" stroke-linecap="butt" d="m405.37894 203.48465l2.2493896 -2.2489777l-6.1797485 2.2486115l6.1793213 2.2497253z" fill-rule="evenodd"/>
        <path class="dark-fill dark-stroke" stroke-width="2.0" stroke-linecap="butt" d="m572.647 203.5464l-2.2493896 2.2489624l6.1797485 -2.2486115l-6.1793213 -2.2497253z" fill-rule="evenodd"/>
        <path d="m805.6455 64.89618l0 0c0 -12.506855 10.138855 -22.645668 22.64569 -22.645668l0 0c6.0059814 0 11.765991 2.3858757 16.012878 6.632763c4.246887 4.246887 6.6328125 10.006901 6.6328125 16.012905l0 0c0 12.506859 -10.138855 22.645668 -22.64569 22.645668l0 0c-12.506836 0 -22.64569 -10.138809 -22.64569 -22.645668z" fill-rule="evenodd" class="color-b-fill"/>
        <path class="dark-stroke" stroke-width="3.0" stroke-linejoin="round" stroke-linecap="butt" d="m805.6455 64.89618l0 0c0 -12.506855 10.138855 -22.645668 22.64569 -22.645668l0 0c6.0059814 0 11.765991 2.3858757 16.012878 6.632763c4.246887 4.246887 6.6328125 10.006901 6.6328125 16.012905l0 0c0 12.506859 -10.138855 22.645668 -22.64569 22.645668l0 0c-12.506836 0 -22.64569 -10.138809 -22.64569 -22.645668z" fill-rule="evenodd"/>
        <path d="m805.6455 134.22816l0 0c0 -12.506859 10.138855 -22.645676 22.64569 -22.645676l0 0c6.0059814 0 11.765991 2.3858795 16.012878 6.6327667c4.246887 4.246887 6.6328125 10.006897 6.6328125 16.012909l0 0c0 12.506851 -10.138855 22.64566 -22.64569 22.64566l0 0c-12.506836 0 -22.64569 -10.138809 -22.64569 -22.64566z" fill-rule="evenodd" class="color-b-fill"/>
        <path class="dark-stroke" stroke-width="3.0" stroke-linejoin="round" stroke-linecap="butt" d="m805.6455 134.22816l0 0c0 -12.506859 10.138855 -22.645676 22.64569 -22.645676l0 0c6.0059814 0 11.765991 2.3858795 16.012878 6.6327667c4.246887 4.246887 6.6328125 10.006897 6.6328125 16.012909l0 0c0 12.506851 -10.138855 22.64566 -22.64569 22.64566l0 0c-12.506836 0 -22.64569 -10.138809 -22.64569 -22.64566z" fill-rule="evenodd"/>
        <path d="m805.6455 203.56013l0 0c0 -12.506851 10.138855 -22.64566 22.64569 -22.64566l0 0c6.0059814 0 11.765991 2.3858795 16.012878 6.6327667c4.246887 4.246887 6.6328125 10.006897 6.6328125 16.012894l0 0c0 12.506866 -10.138855 22.645676 -22.64569 22.645676l0 0c-12.506836 0 -22.64569 -10.138809 -22.64569 -22.645676z" fill-rule="evenodd" class="color-b-fill"/>
        <path class="dark-stroke" stroke-width="3.0" stroke-linejoin="round" stroke-linecap="butt" d="m805.6455 203.56013l0 0c0 -12.506851 10.138855 -22.64566 22.64569 -22.64566l0 0c6.0059814 0 11.765991 2.3858795 16.012878 6.6327667c4.246887 4.246887 6.6328125 10.006897 6.6328125 16.012894l0 0c0 12.506866 -10.138855 22.645676 -22.64569 22.645676l0 0c-12.506836 0 -22.64569 -10.138809 -22.64569 -22.645676z" fill-rule="evenodd"/>
        <path d="m805.6455 336.48975l0 0c0 -12.506866 10.138855 -22.64566 22.64569 -22.64566l0 0c6.0059814 0 11.766052 2.3858643 16.01294 6.6327515c4.246887 4.246887 6.6327515 10.006897 6.6327515 16.012909l0 0c0 12.506866 -10.138855 22.64566 -22.64569 22.64566l0 0c-12.506836 0 -22.64569 -10.138794 -22.64569 -22.64566z" fill-rule="evenodd" class="color-a-fill"/>
        <path class="dark-stroke" stroke-width="3.0" stroke-linejoin="round" stroke-linecap="butt" d="m805.6455 336.48975l0 0c0 -12.506866 10.138855 -22.64566 22.64569 -22.64566l0 0c6.0059814 0 11.766052 2.3858643 16.01294 6.6327515c4.246887 4.246887 6.6327515 10.006897 6.6327515 16.012909l0 0c0 12.506866 -10.138855 22.64566 -22.64569 22.64566l0 0c-12.506836 0 -22.64569 -10.138794 -22.64569 -22.64566z" fill-rule="evenodd"/>
        <path d="m805.6455 405.8159l0 0c0 -12.506836 10.138855 -22.64566 22.64569 -22.64566l0 0c6.0059814 0 11.766052 2.3858948 16.01294 6.632782c4.246887 4.246887 6.6327515 10.006897 6.6327515 16.012878l0 0c0 12.506866 -10.138855 22.64569 -22.64569 22.64569l0 0c-12.506836 0 -22.64569 -10.138824 -22.64569 -22.64569z" fill-rule="evenodd" class="color-a-fill"/>
        <path class="dark-stroke" stroke-width="3.0" stroke-linejoin="round" stroke-linecap="butt" d="m805.6455 405.8159l0 0c0 -12.506836 10.138855 -22.64566 22.64569 -22.64566l0 0c6.0059814 0 11.766052 2.3858948 16.01294 6.632782c4.246887 4.246887 6.6327515 10.006897 6.6327515 16.012878l0 0c0 12.506866 -10.138855 22.64569 -22.64569 22.64569l0 0c-12.506836 0 -22.64569 -10.138824 -22.64569 -22.64569z" fill-rule="evenodd"/>
        <path d="m805.6455 475.14206l0 0c0 -12.506866 10.138855 -22.64566 22.64569 -22.64566l0 0c6.0059814 0 11.766052 2.3858643 16.01294 6.6327515c4.246887 4.246887 6.6327515 10.006897 6.6327515 16.012909l0 0c0 12.506866 -10.138855 22.64566 -22.64569 22.64566l0 0c-12.506836 0 -22.64569 -10.138794 -22.64569 -22.64566z" fill-rule="evenodd" class="color-a-fill"/>
        <path class="dark-stroke" stroke-width="3.0" stroke-linejoin="round" stroke-linecap="butt" d="m805.6455 475.14206l0 0c0 -12.506866 10.138855 -22.64566 22.64569 -22.64566l0 0c6.0059814 0 11.766052 2.3858643 16.01294 6.6327515c4.246887 4.246887 6.6327515 10.006897 6.6327515 16.012909l0 0c0 12.506866 -10.138855 22.64566 -22.64569 22.64566l0 0c-12.506836 0 -22.64569 -10.138794 -22.64569 -22.64566z" fill-rule="evenodd"/>
        <path class="dark-fill" fill-opacity="0.0" d="m805.6455 64.89618c-12.5 0 -25.007874 102.55905 -25.0 205.1181c0.007873535 102.55905 12.531494 205.11813 25.062988 205.11813" fill-rule="evenodd"/>
        <path stroke-width="2.0" stroke-linejoin="round" stroke-linecap="butt" d="m800.84186 69.785446l-0.14788818 0.29763794c-0.095947266 0.19869232 -0.1918335 0.4028244 -0.28753662 0.6123276c-0.19146729 0.41900635 -0.38256836 0.8595352 -0.5731201 1.3211899c-0.38110352 0.9233017 -0.760376 1.9311218 -1.1373901 3.0203094c-0.7538452 2.1783752 -1.4986572 4.6822586 -2.2312012 7.4866104c-2.9302979 11.217392 -5.6654053 27.242249 -8.009644 46.47207c-4.6885376 38.45964 -7.8135376 89.73918 -7.8095703 141.01869c0.007873535 102.55905 12.531494 205.1181 25.062988 205.1181" fill-rule="evenodd" class="dark-stroke"/>
        <path stroke-width="2.0" stroke-linecap="butt" d="m800.84186 69.785446l0.028137207 3.1806793l2.7264404 -5.984314l-5.9352417 2.8317413z" fill-rule="evenodd" class="dark-stroke color-a-fill"/>
        <path class="dark-fill" fill-opacity="0.0" d="m805.6455 134.22816c-12.5 0 -25.007874 67.89763 -25.0 135.79527c0.007873535 67.897644 12.531494 135.79529 25.062988 135.79529" fill-rule="evenodd"/>
        <path stroke-width="2.0" stroke-linejoin="round" stroke-linecap="butt" d="m800.1942 138.38309l-0.07470703 0.1111145c-0.095458984 0.14578247 -0.19085693 0.29510498 -0.28619385 0.44792175c-0.38110352 0.6112671 -0.760376 1.2784729 -1.1373901 1.9995422c-0.7538452 1.4421692 -1.4986572 3.099823 -2.2312012 4.9564056c-2.9302979 7.4263 -5.6654053 18.035309 -8.009644 30.766113c-4.6885376 25.461609 -7.8135376 59.41043 -7.8095703 93.35925c0.007873535 67.897644 12.531494 135.79526 25.062988 135.79526" fill-rule="evenodd" class="dark-stroke"/>
        <path stroke-width="2.0" stroke-linecap="butt" d="m800.1942 138.38309l-0.425354 3.1522217l3.5512695 -5.534775l-6.278137 1.9571533z" fill-rule="evenodd" class="dark-stroke color-a-fill"/>
        <path class="dark-fill" fill-opacity="0.0" d="m805.6455 203.56013c-12.5 0 -25.007874 33.23622 -25.0 66.47246c0.007873535 33.236206 12.531494 66.47244 25.062988 66.47244" fill-rule="evenodd"/>
        <path stroke-width="2.0" stroke-linejoin="round" stroke-linecap="butt" d="m799.34784 206.26552l-0.08477783 0.07136536c-0.1895752 0.16317749 -0.37860107 0.33306885 -0.5671387 0.509552c-0.7538452 0.7059479 -1.4986572 1.5173645 -2.2312012 2.426178c-2.9302979 3.6352081 -5.6654053 8.828369 -8.009644 15.060165c-4.6885376 12.463577 -7.8135376 29.081696 -7.8095703 45.699814c0.007873535 33.236206 12.531494 66.47244 25.062988 66.47244" fill-rule="evenodd" class="dark-stroke"/>
        <path stroke-width="2.0" stroke-linecap="butt" d="m799.34784 206.26553l-1.178772 2.9543152l4.790039 -4.505661l-6.5655518 0.3725586z" fill-rule="evenodd" class="dark-stroke color-a-fill"/>
        <path class="dark-fill" fill-opacity="0.0" d="m805.6455 64.89618c-12.5 0 -25.007874 85.22835 -25.0 170.4567c0.007873535 85.22833 12.531494 170.4567 25.062988 170.4567" fill-rule="evenodd"/>
        <path stroke-width="2.0" stroke-linejoin="round" stroke-linecap="butt" d="m800.5434 69.473076l-0.13696289 0.24236298c-0.19146729 0.34820557 -0.38256836 0.7142868 -0.5731201 1.0979309c-0.38110352 0.7672882 -0.760376 1.6047974 -1.1373901 2.5099335c-0.7538452 1.8102646 -1.4986572 3.891037 -2.2312012 6.221504c-2.9302979 9.321846 -5.6654053 22.638779 -8.009644 38.619087c-4.6885376 31.960632 -7.8135376 74.574814 -7.8095703 117.18898c0.007873535 85.22833 12.531494 170.45667 25.062988 170.45667" fill-rule="evenodd" class="dark-stroke"/>
        <path stroke-width="2.0" stroke-linecap="butt" d="m800.5434 69.473076l-0.17236328 3.1761322l3.0980225 -5.800644l-6.1018066 2.4521637z" fill-rule="evenodd" class="dark-stroke color-a-fill"/>
        <path class="dark-fill" fill-opacity="0.0" d="m805.6455 134.22816c-12.5 0 -25.007874 50.566925 -25.0 101.13385c0.007873535 50.56694 12.531494 101.133865 25.062988 101.133865" fill-rule="evenodd"/>
        <path stroke-width="2.0" stroke-linejoin="round" stroke-linecap="butt" d="m799.79034 137.79146l-0.24255371 0.29664612c-0.09503174 0.119003296 -0.1899414 0.24057007 -0.284729 0.36470032c-0.1895752 0.24827576 -0.37860107 0.5067444 -0.5671387 0.77526855c-0.7538452 1.0740509 -1.4986572 2.3085938 -2.2312012 3.6912842c-2.9302979 5.5307465 -5.6654053 13.431839 -8.009644 22.913132c-4.6885376 18.9626 -7.8135376 44.246063 -7.8095703 69.529526c0.007873535 50.56694 12.531494 101.133865 25.062988 101.133865" fill-rule="evenodd" class="dark-stroke"/>
        <path stroke-width="2.0" stroke-linecap="butt" d="m799.79034 137.79144l-0.75201416 3.090622l4.109558 -5.133896l-6.44812 1.291214z" fill-rule="evenodd" class="dark-stroke color-a-fill"/>
        <path class="dark-fill" fill-opacity="0.0" d="m805.6455 64.89618c-12.5 0 -25.007874 67.897644 -25.0 135.79527c0.007873535 67.89763 12.531494 135.79527 25.062988 135.79527" fill-rule="evenodd"/>
        <path stroke-width="2.0" stroke-linejoin="round" stroke-linecap="butt" d="m800.1942 69.0511l-0.07470703 0.11112213c-0.095458984 0.14578247 -0.19085693 0.29510498 -0.28619385 0.44792175c-0.38110352 0.61125946 -0.760376 1.2784653 -1.1373901 1.9995499c-0.7538452 1.4421616 -1.4986572 3.0998154 -2.2312012 4.9563904c-2.9302979 7.4263077 -5.6654053 18.035309 -8.009644 30.76612c-4.6885376 25.461617 -7.8135376 59.41044 -7.8095703 93.359245c0.007873535 67.89763 12.531494 135.79527 25.062988 135.79527" fill-rule="evenodd" class="dark-stroke"/>
        <path stroke-width="2.0" stroke-linecap="butt" d="m800.1942 69.0511l-0.425354 3.1522293l3.5512695 -5.534775l-6.278137 1.957161z" fill-rule="evenodd" class="dark-stroke color-a-fill"/>
        <path class="dark-fill" fill-opacity="0.0" d="m805.6455 134.22816c-12.5 0 -25.007874 85.22835 -25.0 170.45668c0.007873535 85.22836 12.531494 170.4567 25.062988 170.4567" fill-rule="evenodd"/>
        <path stroke-width="2.0" stroke-linejoin="round" stroke-linecap="butt" d="m800.5434 138.80505l-0.13696289 0.2423706c-0.19146729 0.34820557 -0.38256836 0.7142792 -0.5731201 1.0979309c-0.38110352 0.7672882 -0.760376 1.6047821 -1.1373901 2.5099335c-0.7538452 1.810257 -1.4986572 3.891037 -2.2312012 6.2214966c-2.9302979 9.321854 -5.6654053 22.638779 -8.009644 38.619095c-4.6885376 31.960632 -7.8135376 74.5748 -7.8095703 117.188965c0.007873535 85.22833 12.531494 170.4567 25.062988 170.4567" fill-rule="evenodd" class="dark-stroke"/>
        <path stroke-width="2.0" stroke-linecap="butt" d="m800.5434 138.80505l-0.17236328 3.1761322l3.0980225 -5.800644l-6.1018066 2.4521637z" fill-rule="evenodd" class="dark-stroke color-a-fill"/>
        <path class="dark-fill" fill-opacity="0.0" d="m805.6455 203.56013c-12.5 0 -25.007874 50.56694 -25.0 101.133865c0.007873535 50.566925 12.531494 101.13385 25.062988 101.13385" fill-rule="evenodd"/>
        <path stroke-width="2.0" stroke-linejoin="round" stroke-linecap="butt" d="m799.79034 207.12343l-0.24255371 0.29666138c-0.09503174 0.11898804 -0.1899414 0.24057007 -0.284729 0.36470032c-0.1895752 0.2482605 -0.37860107 0.5067291 -0.5671387 0.7752533c-0.7538452 1.0740662 -1.4986572 2.3085938 -2.2312012 3.6912842c-2.9302979 5.5307617 -5.6654053 13.431839 -8.009644 22.913147c-4.6885376 18.9626 -7.8135376 44.246048 -7.8095703 69.529526c0.007873535 50.566895 12.531494 101.13385 25.062988 101.13385" fill-rule="evenodd" class="dark-stroke"/>
        <path stroke-width="2.0" stroke-linecap="butt" d="m799.79034 207.12343l-0.75201416 3.090622l4.109558 -5.133911l-6.44812 1.2912292z" fill-rule="evenodd" class="dark-stroke color-a-fill"/>
        <path class="dark-fill" fill-opacity="0.0" d="m805.6455 203.56013c-12.5 0 -25.007874 67.89766 -25.0 135.79527c0.007873535 67.897644 12.531494 135.79529 25.062988 135.79529" fill-rule="evenodd"/>
        <path stroke-width="2.0" stroke-linejoin="round" stroke-linecap="butt" d="m800.1942 207.71506l-0.07470703 0.1111145c-0.095458984 0.14579773 -0.19085693 0.29512024 -0.28619385 0.447937c-0.38110352 0.6112671 -0.760376 1.2784729 -1.1373901 1.9995575c-0.7538452 1.4421539 -1.4986572 3.099823 -2.2312012 4.956375c-2.9302979 7.4263153 -5.6654053 18.035324 -8.009644 30.766129c-4.6885376 25.461624 -7.8135376 59.410416 -7.8095703 93.35924c0.007873535 67.89761 12.531494 135.79526 25.062988 135.79526" fill-rule="evenodd" class="dark-stroke"/>
        <path stroke-width="2.0" stroke-linecap="butt" d="m800.1942 207.71506l-0.425354 3.152237l3.5512695 -5.534775l-6.278137 1.9571533z" fill-rule="evenodd" class="dark-stroke color-a-fill"/>
        <path class="dark-fill" fill-opacity="0.0" d="m624.6691 64.83319c45.24414 0 67.86615 0.01574707 90.48822 0.03149414c22.62201 0.01574707 45.24408 0.03149414 90.48816 0.03149414" fill-rule="evenodd"/>
        <path class="dark-stroke" stroke-width="2.0" stroke-linejoin="round" stroke-linecap="butt" d="m631.5233 64.8338l23.190735 0.0020980835c8.836731 0.0017166138 16.613037 0.004180908 23.682434 0.007133484c14.138794 0.0059051514 25.44983 0.0137786865 36.760803 0.021652222c11.311035 0.007873535 22.62207 0.01574707 36.760864 0.021652222c7.069397 0.0029525757 14.845703 0.00541687 23.682434 0.0071411133l23.190735 0.002090454" fill-rule="evenodd"/>
        <path class="dark-fill dark-stroke" stroke-width="2.0" stroke-linecap="butt" d="m631.5233 64.83381l2.2493286 -2.2489662l-6.1796875 2.2486076l6.1793213 2.2497253z" fill-rule="evenodd"/>
        <path class="dark-fill dark-stroke" stroke-width="2.0" stroke-linecap="butt" d="m798.7913 64.89556l-2.2493286 2.24897l6.1796875 -2.2486115l-6.1793213 -2.2497253z" fill-rule="evenodd"/>
        <path class="dark-fill" fill-opacity="0.0" d="m624.6691 64.87383c45.24414 0 67.86615 17.338577 90.48822 34.677162c22.62201 17.338585 45.24408 34.67717 90.48816 34.67717" fill-rule="evenodd"/>
        <path class="dark-stroke" stroke-width="2.0" stroke-linejoin="round" stroke-linecap="butt" d="m631.5219 65.011765l0.37078857 0.014793396c0.3347168 0.014411926 0.6680298 0.029823303 1.0001221 0.0462265c2.6565552 0.13122559 5.2302246 0.325943 7.7266235 0.57992554c4.992737 0.5079727 9.67627 1.2529831 14.0946045 2.2011871c8.836731 1.8964081 16.613037 4.6055603 23.682434 7.8565445c14.138794 6.501976 25.44983 15.171265 36.760803 23.840553c11.311035 8.669296 22.62207 17.338585 36.760864 23.840553c7.069397 3.2509842 14.845703 5.9601364 23.682434 7.8565445c4.418335 0.94821167 9.101868 1.693222 14.0946045 2.2011871c2.496399 0.25398254 5.0700684 0.44869995 7.7266235 0.57992554c0.33203125 0.016403198 0.6654663 0.031814575 1.0001221 0.046218872l0.37078857 0.014816284" fill-rule="evenodd"/>
        <path class="dark-fill dark-stroke" stroke-width="2.0" stroke-linecap="butt" d="m631.5219 65.011765l2.2939453 -2.203453l-6.2235107 2.1243591l6.1329956 2.3730621z" fill-rule="evenodd"/>
        <path class="dark-fill dark-stroke" stroke-width="2.0" stroke-linecap="butt" d="m798.7927 134.09023l-2.2940063 2.2034607l6.223572 -2.1243591l-6.1329956 -2.3730621z" fill-rule="evenodd"/>
        <path class="dark-fill" fill-opacity="0.0" d="m624.6691 64.88297c45.24414 0 67.86615 34.669296 90.48822 69.338585c22.62201 34.669296 45.24408 69.33858 90.48816 69.33858" fill-rule="evenodd"/>
        <path class="dark-stroke" stroke-width="2.0" stroke-linejoin="round" stroke-linecap="butt" d="m631.51776 65.15845l0.37493896 0.029922485c0.3347168 0.028808594 0.6680298 0.05962372 1.0001221 0.092422485c2.6565552 0.26239014 5.2302246 0.65174866 7.7266235 1.1595917c4.992737 1.0157013 9.67627 2.5054016 14.0946045 4.401375c8.836731 3.791954 16.613037 9.20903 23.682434 15.709526c14.138794 13.000984 25.44983 30.335632 36.760803 47.670273c11.311035 17.33464 22.62207 34.669296 36.760864 47.670273c7.069397 6.5005035 14.845703 11.917572 23.682434 15.709534c4.418335 1.8959656 9.101868 3.3856812 14.0946045 4.401367c2.496399 0.507843 5.0700684 0.89720154 7.7266235 1.1595917c0.33203125 0.032806396 0.6654663 0.06362915 1.0001221 0.092437744l0.37487793 0.029907227" fill-rule="evenodd"/>
        <path class="dark-fill dark-stroke" stroke-width="2.0" stroke-linecap="butt" d="m631.51776 65.15845l2.3377686 -2.1569557l-6.2649536 1.9989891l6.0841675 2.4957123z" fill-rule="evenodd"/>
        <path class="dark-fill dark-stroke" stroke-width="2.0" stroke-linecap="butt" d="m798.7969 203.28467l-2.3377686 2.1569672l6.2649536 -1.9990082l-6.0841675 -2.495697z" fill-rule="evenodd"/>
        <path class="dark-fill" fill-opacity="0.0" d="m624.6691 134.21901c45.24414 0 67.86615 -17.330704 90.48822 -34.661415c22.62201 -17.330704 45.24408 -34.661415 90.48816 -34.661415" fill-rule="evenodd"/>
        <path class="dark-stroke" stroke-width="2.0" stroke-linejoin="round" stroke-linecap="butt" d="m631.5219 134.08115l0.37078857 -0.014785767c0.3347168 -0.014404297 0.6680298 -0.029815674 1.0001221 -0.046203613c2.6565552 -0.13117981 5.2302246 -0.3257904 7.7266235 -0.57966614c4.992737 -0.5077362 9.67627 -1.2524109 14.0946045 -2.2001953c8.836731 -1.8955383 16.613037 -4.603462 23.682434 -7.852974c14.138794 -6.499016 25.44983 -15.164368 36.760803 -23.82972c11.311035 -8.6653595 22.62207 -17.330711 36.760864 -23.829727c7.069397 -3.249504 14.845703 -5.957428 23.682434 -7.852974c4.418335 -0.9477768 9.101868 -1.6924591 14.0946045 -2.2001877c2.496399 -0.25387573 5.0700684 -0.4485016 7.7266235 -0.57966614c0.33203125 -0.016395569 0.6654663 -0.031806946 1.0001221 -0.046203613l0.37078857 -0.014793396" fill-rule="evenodd"/>
        <path class="dark-fill dark-stroke" stroke-width="2.0" stroke-linecap="butt" d="m631.5219 134.08115l2.2034912 -2.2939453l-6.1330566 2.373001l6.2235107 2.1244202z" fill-rule="evenodd"/>
        <path class="dark-fill dark-stroke" stroke-width="2.0" stroke-linecap="butt" d="m798.7927 65.03405l-2.2034912 2.293953l6.1330566 -2.3730087l-6.2235107 -2.1244125z" fill-rule="evenodd"/>
        <path class="dark-fill" fill-opacity="0.0" d="m624.6691 134.16518c45.24414 0 67.86615 0.01574707 90.48822 0.03149414c22.62201 0.01574707 45.24408 0.03149414 90.48816 0.03149414" fill-rule="evenodd"/>
        <path class="dark-stroke" stroke-width="2.0" stroke-linejoin="round" stroke-linecap="butt" d="m631.5233 134.16579l23.190735 0.002090454c8.836731 0.0017242432 16.613037 0.004180908 23.682434 0.0071411133c14.138794 0.0059051514 25.44983 0.0137786865 36.760803 0.021652222c11.311035 0.007873535 22.62207 0.01574707 36.760864 0.021652222c7.069397 0.0029449463 14.845703 0.00541687 23.682434 0.0071258545l23.190735 0.002105713" fill-rule="evenodd"/>
        <path class="dark-fill dark-stroke" stroke-width="2.0" stroke-linecap="butt" d="m631.5233 134.16579l2.2493286 -2.2489624l-6.1796875 2.2486115l6.1793213 2.2497253z" fill-rule="evenodd"/>
        <path class="dark-fill dark-stroke" stroke-width="2.0" stroke-linecap="butt" d="m798.7913 134.22754l-2.2493286 2.2489624l6.1796875 -2.2485962l-6.1793213 -2.2497253z" fill-rule="evenodd"/>
        <path class="dark-fill" fill-opacity="0.0" d="m624.6691 134.20581c45.24414 0 67.86615 17.338577 90.48822 34.67717c22.62201 17.338577 45.24408 34.677155 90.48816 34.677155" fill-rule="evenodd"/>
        <path class="dark-stroke" stroke-width="2.0" stroke-linejoin="round" stroke-linecap="butt" d="m631.5219 134.34373l0.37078857 0.014816284c0.3347168 0.014404297 0.6680298 0.029815674 1.0001221 0.046218872c2.6565552 0.13121033 5.2302246 0.32592773 7.7266235 0.57992554c4.992737 0.5079651 9.67627 1.2529755 14.0946045 2.2011871c8.836731 1.8964081 16.613037 4.6055603 23.682434 7.856537c14.138794 6.5019684 25.44983 15.171265 36.760803 23.84056c11.311035 8.669281 22.62207 17.338577 36.760864 23.840546c7.069397 3.2509918 14.845703 5.960144 23.682434 7.856552c4.418335 0.9481964 9.101868 1.693222 14.0946045 2.2011719c2.496399 0.2539978 5.0700684 0.4487152 7.7266235 0.57992554c0.33203125 0.016403198 0.6654663 0.031829834 1.0001221 0.04624939l0.37078857 0.014785767" fill-rule="evenodd"/>
        <path class="dark-fill dark-stroke" stroke-width="2.0" stroke-linecap="butt" d="m631.5219 134.34375l2.2939453 -2.2034607l-6.2235107 2.1243591l6.1329956 2.3730621z" fill-rule="evenodd"/>
        <path class="dark-fill dark-stroke" stroke-width="2.0" stroke-linecap="butt" d="m798.7927 203.42221l-2.2940063 2.2034454l6.223572 -2.1243591l-6.1329956 -2.3730621z" fill-rule="evenodd"/>
        <path class="dark-fill" fill-opacity="0.0" d="m624.6691 203.54185c45.24414 0 67.86615 -34.661423 90.48822 -69.322845c22.62201 -34.661415 45.24408 -69.32283 90.48816 -69.32283" fill-rule="evenodd"/>
        <path class="dark-stroke" stroke-width="2.0" stroke-linejoin="round" stroke-linecap="butt" d="m631.51776 203.26645l0.37493896 -0.029922485c0.3347168 -0.028808594 0.6680298 -0.05960083 1.0001221 -0.09239197c2.6565552 -0.26234436 5.2302246 -0.65159607 7.7266235 -1.1593475c4.992737 -1.0154572 9.67627 -2.5048218 14.0946045 -4.40036c8.836731 -3.791092 16.613037 -9.20694 23.682434 -15.705963c14.138794 -12.998032 25.44983 -30.328735 36.760803 -47.659454c11.311035 -17.330704 22.62207 -34.661407 36.760864 -47.65944c7.069397 -6.499016 14.845703 -11.914864 23.682434 -15.7059555c4.418335 -1.895546 9.101868 -3.384903 14.0946045 -4.4003754c2.496399 -0.5077362 5.0700684 -0.8970032 7.7266235 -1.1593323c0.33203125 -0.032791138 0.6654663 -0.06359863 1.0001221 -0.09240723l0.37487793 -0.029914856" fill-rule="evenodd"/>
        <path class="dark-fill dark-stroke" stroke-width="2.0" stroke-linecap="butt" d="m631.51776 203.26645l2.1569824 -2.3377228l-6.0841675 2.4956512l6.2648926 1.9990387z" fill-rule="evenodd"/>
        <path class="dark-fill dark-stroke" stroke-width="2.0" stroke-linecap="butt" d="m798.7969 65.17159l-2.1569824 2.3377228l6.0841675 -2.4956512l-6.2648926 -1.999054z" fill-rule="evenodd"/>
        <path class="dark-fill" fill-opacity="0.0" d="m624.6691 203.551c45.24414 0 67.86615 -17.330704 90.48822 -34.661423c22.62201 -17.330704 45.24408 -34.661407 90.48816 -34.661407" fill-rule="evenodd"/>
        <path class="dark-stroke" stroke-width="2.0" stroke-linejoin="round" stroke-linecap="butt" d="m631.5219 203.41312l0.37078857 -0.014785767c0.3347168 -0.014389038 0.6680298 -0.029815674 1.0001221 -0.046188354c2.6565552 -0.13117981 5.2302246 -0.32582092 7.7266235 -0.57966614c4.992737 -0.50775146 9.67627 -1.2524261 14.0946045 -2.2001953c8.836731 -1.8955536 16.613037 -4.60347 23.682434 -7.8529816c14.138794 -6.499008 25.44983 -15.164368 36.760803 -23.829727c11.311035 -8.665344 22.62207 -17.330704 36.760864 -23.829712c7.069397 -3.2495117 14.845703 -5.957443 23.682434 -7.8529816c4.418335 -0.94776917 9.101868 -1.6924591 14.0946045 -2.2001953c2.496399 -0.25386047 5.0700684 -0.44848633 7.7266235 -0.57966614c0.33203125 -0.01638794 0.6654663 -0.031784058 1.0001221 -0.046188354l0.37078857 -0.014801025" fill-rule="evenodd"/>
        <path class="dark-fill dark-stroke" stroke-width="2.0" stroke-linecap="butt" d="m631.5219 203.41313l2.2034912 -2.2939606l-6.1330566 2.3730164l6.2235107 2.124405z" fill-rule="evenodd"/>
        <path class="dark-fill dark-stroke" stroke-width="2.0" stroke-linecap="butt" d="m798.7927 134.36603l-2.2034912 2.2939606l6.1330566 -2.3730164l-6.2235107 -2.124405z" fill-rule="evenodd"/>
        <path class="dark-fill" fill-opacity="0.0" d="m624.6691 203.49715c45.24414 0 67.86615 0.01574707 90.48822 0.03149414c22.62201 0.01574707 45.24408 0.03149414 90.48816 0.03149414" fill-rule="evenodd"/>
        <path class="dark-stroke" stroke-width="2.0" stroke-linejoin="round" stroke-linecap="butt" d="m631.5233 203.49777l23.190735 0.002090454c8.836731 0.0017089844 16.613037 0.004180908 23.682434 0.0071258545c14.138794 0.0059051514 25.44983 0.0137786865 36.760803 0.021652222c11.311035 0.007873535 22.62207 0.01574707 36.760864 0.021652222c7.069397 0.002960205 14.845703 0.00541687 23.682434 0.0071411133l23.190735 0.002090454" fill-rule="evenodd"/>
        <path class="dark-fill dark-stroke" stroke-width="2.0" stroke-linecap="butt" d="m631.5233 203.49777l2.2493286 -2.2489624l-6.1796875 2.2485962l6.1793213 2.2497253z" fill-rule="evenodd"/>
        <path class="dark-fill dark-stroke" stroke-width="2.0" stroke-linecap="butt" d="m798.7913 203.55952l-2.2493286 2.2489624l6.1796875 -2.2486115l-6.1793213 -2.2497253z" fill-rule="evenodd"/>
        <path class="dark-fill" fill-opacity="0.0" d="m127.028725 64.85681c-30.00911 0 -60.0261 102.55905 -60.018227 205.1181c0.007873535 102.55905 30.040611 205.1181 60.081223 205.1181" fill-rule="evenodd"/>
        <path stroke-width="2.0" stroke-linejoin="round" stroke-linecap="butt" d="m120.37496 66.50214l-0.015800476 0.00756073c-0.11658478 0.057266235 -0.23313904 0.1159668 -0.34964752 0.17612457c-0.46604156 0.24060822 -0.93151855 0.50429535 -1.3963165 0.79067993c-0.92957306 0.57276154 -1.8564224 1.23629 -2.7795944 1.9874573c-3.6927338 3.0046616 -7.326927 7.4114914 -10.843925 13.020187c-7.0339966 11.2174 -13.599236 27.242249 -19.226433 46.472076c-11.25441 38.45964 -18.756683 89.73917 -18.752747 141.01869c0.007873535 102.55905 30.040611 205.1181 60.081223 205.1181" fill-rule="evenodd" class="dark-stroke"/>
        <path stroke-width="2.0" stroke-linecap="butt" d="m120.37496 66.50214l-1.6435013 2.7233124l5.458954 -3.6667862l-6.538765 -0.70002747z" fill-rule="evenodd" class="dark-stroke color-a-fill"/>
        <path class="dark-fill" fill-opacity="0.0" d="m127.028725 134.1888c-21.88575 0 -43.77938 67.89763 -43.771507 135.79527c0.007873535 67.897644 21.917252 135.79526 43.834503 135.79526" fill-rule="evenodd"/>
        <path stroke-width="2.0" stroke-linejoin="round" stroke-linecap="butt" d="m120.46685 136.16908l-0.083732605 0.0496521c-0.1692276 0.10227966 -0.3383255 0.20828247 -0.5072632 0.31796265c-0.33789825 0.21939087 -0.67520905 0.453537 -1.0118637 0.7021942c-2.6931686 1.9891815 -5.3436813 4.906662 -7.908722 8.619812c-5.130089 7.4263 -9.918343 18.035309 -14.0224 30.766113c-8.208153 25.461609 -13.679588 59.41043 -13.675652 93.35925c0.007873535 67.897644 21.917252 135.79526 43.834503 135.79526" fill-rule="evenodd" class="dark-stroke"/>
        <path stroke-width="2.0" stroke-linecap="butt" d="m120.46686 136.16908l-1.5034256 2.80307l5.266182 -3.9386292l-6.5658264 -0.36787415z" fill-rule="evenodd" class="dark-stroke color-a-fill"/>
        <path class="dark-fill" fill-opacity="0.0" d="m127.028725 203.52077c-12.5 0 -25.007874 33.23622 -25.0 66.47246c0.007873535 33.236206 12.531494 66.47244 25.062996 66.47244" fill-rule="evenodd"/>
        <path stroke-width="2.0" stroke-linejoin="round" stroke-linecap="butt" d="m120.731064 206.22615l-0.08476257 0.07136536c-0.18956757 0.16317749 -0.37862396 0.33306885 -0.5671005 0.509552c-0.7539139 0.7059479 -1.4986954 1.5173645 -2.2312698 2.426178c-2.9302979 3.6352081 -5.665413 8.828369 -8.009659 15.060165c-4.688484 12.463577 -7.813484 29.081696 -7.8095474 45.699814c0.007873535 33.236206 12.531502 66.47244 25.062996 66.47244" fill-rule="evenodd" class="dark-stroke"/>
        <path stroke-width="2.0" stroke-linecap="butt" d="m120.731064 206.22617l-1.1787872 2.9543152l4.790039 -4.505661l-6.5655594 0.3725586z" fill-rule="evenodd" class="dark-stroke color-a-fill"/>
        <path class="dark-fill" fill-opacity="0.0" d="m127.028725 64.85681c-25.708588 0 -51.42505 85.22835 -51.417175 170.4567c0.007873535 85.22833 25.740082 170.4567 51.48017 170.4567" fill-rule="evenodd"/>
        <path stroke-width="2.0" stroke-linejoin="round" stroke-linecap="butt" d="m120.423546 66.68745l-0.006652832 0.0035705566c-0.19937134 0.10952759 -0.3986206 0.22380066 -0.59770966 0.34280396c-0.79637146 0.4759674 -1.5903931 1.0273743 -2.3812866 1.6516113c-3.1635666 2.4969177 -6.276993 6.159073 -9.290024 10.82c-6.026062 9.321854 -11.650558 22.638779 -16.471405 38.619095c-9.641708 31.960632 -16.068855 74.5748 -16.064919 117.18898c0.007873535 85.22833 25.740082 170.45667 51.48017 170.45667" fill-rule="evenodd" class="dark-stroke"/>
        <path stroke-width="2.0" stroke-linecap="butt" d="m120.423546 66.68745l-1.5667496 2.7681732l5.3543396 -3.8179092l-6.555771 -0.51701355z" fill-rule="evenodd" class="dark-stroke color-a-fill"/>
        <path class="dark-fill" fill-opacity="0.0" d="m127.028725 134.1888c-16.15084 0 -32.309563 50.566925 -32.30169 101.13385c0.007873535 50.56694 16.182343 101.133865 32.364685 101.133865" fill-rule="evenodd"/>
        <path stroke-width="2.0" stroke-linejoin="round" stroke-linecap="butt" d="m120.66051 136.72363l-0.029403687 0.022567749c-0.12397003 0.097976685 -0.24781036 0.1986084 -0.3714981 0.3019104c-0.24739075 0.20658875 -0.4942398 0.4237976 -0.74046326 0.65141296c-0.49245453 0.45524597 -0.98243713 0.95214844 -1.4694748 1.4891815c-0.9740753 1.0740509 -1.9363327 2.3085938 -2.8828278 3.6912842c-3.785965 5.5307465 -7.31971 13.431839 -10.348473 22.913132c-6.057564 18.9626 -10.095268 44.246063 -10.0913315 69.529526c0.007873535 50.56694 16.182343 101.133865 32.364685 101.133865" fill-rule="evenodd" class="dark-stroke"/>
        <path stroke-width="2.0" stroke-linecap="butt" d="m120.6605 136.72363l-1.257904 2.9214935l4.909622 -4.375046l-6.5732193 0.19563293z" fill-rule="evenodd" class="dark-stroke color-a-fill"/>
        <path class="dark-fill" fill-opacity="0.0" d="m127.028725 64.85681c-20.45137 0 -40.910614 67.897644 -40.90274 135.79527c0.007873535 67.89763 20.482864 135.79527 40.965736 135.79527" fill-rule="evenodd"/>
        <path stroke-width="2.0" stroke-linejoin="round" stroke-linecap="butt" d="m120.54175 67.07014l-0.19711304 0.13459015c-0.31575012 0.21938324 -0.6309738 0.45352936 -0.945549 0.7021713c-2.5166855 1.9891891 -4.993492 4.9066696 -7.390442 8.61982c-4.7938995 7.4263077 -9.268387 18.035309 -13.1035 30.76612c-7.6702576 25.461617 -12.783096 59.410423 -12.77916 93.359245c0.007873535 67.89763 20.482864 135.79527 40.965736 135.79527" fill-rule="evenodd" class="dark-stroke"/>
        <path stroke-width="2.0" stroke-linecap="butt" d="m120.54175 67.07014l-1.4023819 2.8549652l5.1221924 -4.1241455l-6.5747757 -0.1332016z" fill-rule="evenodd" class="dark-stroke color-a-fill"/>
        <path class="dark-fill" fill-opacity="0.0" d="m127.028725 134.1888c-25.708588 0 -51.42505 85.22835 -51.417175 170.45668c0.007873535 85.22836 25.740082 170.4567 51.48017 170.4567" fill-rule="evenodd"/>
        <path stroke-width="2.0" stroke-linejoin="round" stroke-linecap="butt" d="m120.423546 136.01942l-0.006652832 0.0035705566c-0.19937134 0.10952759 -0.3986206 0.22380066 -0.59770966 0.34280396c-0.79637146 0.4759674 -1.5903931 1.0273743 -2.3812866 1.6516113c-3.1635666 2.4969177 -6.276993 6.159073 -9.290024 10.820007c-6.026062 9.321854 -11.650558 22.638779 -16.471405 38.619095c-9.641708 31.960632 -16.068855 74.5748 -16.064919 117.188965c0.007873535 85.22833 25.740082 170.45667 51.48017 170.45667" fill-rule="evenodd" class="dark-stroke"/>
        <path stroke-width="2.0" stroke-linecap="butt" d="m120.423546 136.01942l-1.5667496 2.7681732l5.3543396 -3.8179016l-6.555771 -0.51701355z" fill-rule="evenodd" class="dark-stroke color-a-fill"/>
        <path class="dark-fill" fill-opacity="0.0" d="m127.028725 203.52077c-18.540611 0 -37.089096 50.56694 -37.081215 101.133865c0.007873535 50.566925 18.572105 101.13385 37.14421 101.13385" fill-rule="evenodd"/>
        <path stroke-width="2.0" stroke-linejoin="round" stroke-linecap="butt" d="m120.48426 205.55785l-0.3723755 0.23448181c-2.2815628 1.4814606 -4.526993 3.654251 -6.7000275 6.419632c-4.3460693 5.5307617 -8.402565 13.431839 -11.879417 22.913147c-6.95372 18.9626 -11.588867 44.246048 -11.58493 69.529526c0.007873535 50.566895 18.572105 101.13385 37.14421 101.13385" fill-rule="evenodd" class="dark-stroke"/>
        <path stroke-width="2.0" stroke-linecap="butt" d="m120.48426 205.55785l-1.4790802 2.8159943l5.2318573 -3.9841156l-6.5687714 -0.31095886z" fill-rule="evenodd" class="dark-stroke color-a-fill"/>
        <path class="dark-fill" fill-opacity="0.0" d="m127.028725 203.52077c-23.796516 0 -47.600906 67.89763 -47.593033 135.79527c0.007881165 67.897644 23.828018 135.79529 47.65603 135.79529" fill-rule="evenodd"/>
        <path stroke-width="2.0" stroke-linejoin="round" stroke-linecap="butt" d="m120.39271 205.23628l-0.037330627 0.018829346c-0.7371445 0.3791809 -1.4721146 0.8184662 -2.204193 1.3157501c-2.9282837 1.9891815 -5.810173 4.906662 -8.599129 8.619812c-5.577919 7.4263153 -10.784157 18.035309 -15.246483 30.766129c-8.92469 25.461594 -14.873817 59.410416 -14.869881 93.35924c0.007881165 67.89761 23.828018 135.79526 47.65603 135.79526" fill-rule="evenodd" class="dark-stroke"/>
        <path stroke-width="2.0" stroke-linecap="butt" d="m120.39271 205.23628l-1.6146393 2.740509l5.4199142 -3.724228l-6.5457916 -0.63093567z" fill-rule="evenodd" class="dark-stroke color-a-fill"/>
    </g>
    <g>
        <text x="198" y="260" class="dark-fill">
            Unary
            <tspan x="198" dy="25">Potentials</tspan>
        </text>
        <text x="480" y="25" class="dark-fill">
            Binary
            <tspan x="480" dy="25">Potentials</tspan>
        </text>
        <text x="480" y="500" class="dark-fill">Time</text>
    </g>
</svg>